<?xml version="1.0" encoding="utf-8"?>
<!-- Generator: Adobe Illustrator 16.0.0, SVG Export Plug-In . SVG Version: 6.00 Build 0)  -->
<!DOCTYPE svg PUBLIC "-//W3C//DTD SVG 1.1//EN" "http://www.w3.org/Graphics/SVG/1.1/DTD/svg11.dtd">
<svg version="1.1" id="Layer_1" xmlns="http://www.w3.org/2000/svg" xmlns:xlink="http://www.w3.org/1999/xlink" x="0px" y="0px"
	 width="24px" height="24px" viewBox="0 0 24 24" enable-background="new 0 0 24 24" xml:space="preserve">
<rect x="3.25" y="-2.5" fill="none" width="27" height="25.5"/>
<g enable-background="new    ">
	<path fill="#FFFFFF" d="M17.266,21.072H6.53c-1.965,0-3.28-1.18-3.28-3.182c0-2.444,0.491-6.301,3.415-6.939
		c-0.196,0.467-0.27,0.97-0.27,1.474v2.493c-0.946,0.332-1.572,1.229-1.572,2.224c0,1.302,1.056,2.358,2.358,2.358
		s2.358-1.057,2.358-2.358c0-0.995-0.639-1.892-1.572-2.224v-2.493c0-0.405,0.037-0.811,0.307-1.143
		c1.032,0.811,2.309,1.277,3.624,1.277s2.592-0.467,3.624-1.277c0.27,0.332,0.307,0.737,0.307,1.143v0.786
		c-1.732,0-3.145,1.412-3.145,3.145v1.093c-0.246,0.222-0.393,0.541-0.393,0.872c0,0.651,0.528,1.18,1.179,1.18
		s1.179-0.528,1.179-1.18c0-0.331-0.146-0.65-0.393-0.872v-1.093c0-0.859,0.713-1.572,1.572-1.572s1.572,0.713,1.572,1.572v1.093
		c-0.246,0.222-0.393,0.541-0.393,0.872c0,0.651,0.527,1.18,1.179,1.18s1.179-0.528,1.179-1.18c0-0.331-0.146-0.65-0.393-0.872
		v-1.093c0-1.118-0.602-2.162-1.572-2.715c0-0.896,0.086-1.854-0.27-2.689c2.923,0.639,3.414,4.495,3.414,6.939
		C20.545,19.893,19.23,21.072,17.266,21.072z M7.181,17.928c-0.43,0-0.786-0.356-0.786-0.786s0.356-0.786,0.786-0.786
		s0.786,0.356,0.786,0.786S7.61,17.928,7.181,17.928z M11.897,11.639c-2.604,0-4.717-2.112-4.717-4.717s2.113-4.717,4.717-4.717
		c2.604,0,4.717,2.112,4.717,4.717S14.502,11.639,11.897,11.639z"/>
</g>
</svg>
