<?xml version="1.0" encoding="utf-8"?>
<!-- Generator: Adobe Illustrator 16.0.0, SVG Export Plug-In . SVG Version: 6.00 Build 0)  -->
<!DOCTYPE svg PUBLIC "-//W3C//DTD SVG 1.1//EN" "http://www.w3.org/Graphics/SVG/1.1/DTD/svg11.dtd">
<svg version="1.1" id="Layer_1" xmlns="http://www.w3.org/2000/svg" xmlns:xlink="http://www.w3.org/1999/xlink" x="0px" y="0px"
	 width="24px" height="24px" viewBox="0 0 24 24" enable-background="new 0 0 24 24" xml:space="preserve">
<rect x="3.25" y="-3.5" fill="none" width="27" height="25.5"/>
<g enable-background="new    ">
	<path fill="#FFFFFF" d="M20.398,11.778v5.292c0,2.84-2.693,5.145-6.002,5.145c-3.309,0-6.002-2.305-6.002-5.145v-1.769
		C5.487,14.94,3.25,12.797,3.25,10.211V3.352c0-0.469,0.389-0.857,0.857-0.857c0.081,0,0.147,0.014,0.214,0.026
		c0.295-0.522,0.857-0.884,1.5-0.884c0.951,0,1.715,0.764,1.715,1.715S6.773,5.066,5.822,5.066c-0.308,0-0.603-0.094-0.857-0.241
		v5.386c0,1.889,1.929,3.43,4.287,3.43s4.287-1.541,4.287-3.43V4.825c-0.254,0.147-0.549,0.241-0.857,0.241
		c-0.951,0-1.715-0.764-1.715-1.715s0.764-1.715,1.715-1.715c0.643,0,1.205,0.361,1.5,0.884c0.067-0.013,0.135-0.026,0.215-0.026
		c0.469,0,0.857,0.389,0.857,0.857v6.859c0,2.586-2.237,4.729-5.145,5.091v1.769c0,1.889,1.929,3.43,4.287,3.43
		c2.357,0,4.287-1.541,4.287-3.43v-5.292c-1.005-0.361-1.715-1.3-1.715-2.425c0-1.42,1.152-2.572,2.572-2.572
		s2.572,1.152,2.572,2.572C22.113,10.479,21.403,11.417,20.398,11.778z M19.541,8.496c-0.469,0-0.857,0.389-0.857,0.857
		s0.389,0.857,0.857,0.857s0.857-0.389,0.857-0.857S20.01,8.496,19.541,8.496z"/>
</g>
</svg>
