<?xml version="1.0" encoding="utf-8"?>
<!-- Generator: Adobe Illustrator 16.0.0, SVG Export Plug-In . SVG Version: 6.00 Build 0)  -->
<!DOCTYPE svg PUBLIC "-//W3C//DTD SVG 1.1//EN" "http://www.w3.org/Graphics/SVG/1.1/DTD/svg11.dtd">
<svg version="1.1" id="Layer_1" xmlns:ev="http://www.w3.org/2001/xml-events"
	 xmlns="http://www.w3.org/2000/svg" xmlns:xlink="http://www.w3.org/1999/xlink" x="0px" y="0px" width="24px" height="24px"
	 viewBox="0 0 24 24" enable-background="new 0 0 24 24" xml:space="preserve">
<rect x="2.25" y="-2.625" fill="none" width="27" height="25.5"/>
<g enable-background="new    ">
	<path fill="#FFFFFF" d="M20.25,21.375c-0.398,0-0.785-0.164-1.055-0.445l-4.02-4.008c-1.371,0.949-3.012,1.453-4.676,1.453
		c-4.559,0-8.25-3.691-8.25-8.25s3.691-8.25,8.25-8.25s8.25,3.691,8.25,8.25c0,1.664-0.504,3.305-1.453,4.676l4.02,4.02
		c0.27,0.27,0.434,0.656,0.434,1.055C21.75,20.695,21.07,21.375,20.25,21.375z M10.5,4.875c-2.895,0-5.25,2.355-5.25,5.25
		s2.355,5.25,5.25,5.25s5.25-2.355,5.25-5.25S13.395,4.875,10.5,4.875z"/>
</g>
</svg>
