<svg version="1" xmlns="http://www.w3.org/2000/svg" viewBox="0 0 345.9 226.8" enable-background="new 0 0 345.9 226.8"><path fill-rule="evenodd" clip-rule="evenodd" fill="#29235C" d="M7.8 82c3.8 9.7 1.3 22.4 1.3 32.5v50.1c0 17.8-1.2 43.1-.4 60.9 31.9 1.2 64.3-2.2 96.4-2.2 29.5 0 57.8-.5 87.3.7 49.8 2 97.6 1.8 147.5-.1 1.3-19.9 3-33.8 3.2-53.7.4-30.8 1.8-62.4-.1-93.2-8.2-.4-16.7-.2-25 0-22.2.7-44 2.1-66.5 2.1-40 0-79.8 1.7-119.7 1.7l-92.7-1.7c-5 0-30.1 2.6-32-2.8"/><g fill="#413C6E"><path d="M7.7 76.2c-.2-.2-.2-.2-.2 0s.1.5.5.9l.4.2c.2.1.5.1.5.1s-.1-.1-.3-.1c-.1-.1-.3-.2-.5-.4-.1-.2-.3-.3-.4-.4v-.3zM15.5 79.6c1.6 0 3.5-.2 2.5-.5-1.6.2-2 .1-3.8.2-1.4-.1-2.4-.5-2.1-.5-.5 0-2-.5-2.8-.7 1.5.9 3.9 1.3 6.3 1.3.5.1 0 .1-.1.2zM151.5 81.2h-.9.9zM235.7 79.9c-.6 0-.9 0-.9.1.6-.1 1.1-.1.9-.1zM250.1 80.1h-.8c.3 0 .6.1.8 0zM151.5 81.2l2.3.1c.1-.2-1.2-.1-2.3-.1zM34.2 78.7c-.5 0-.9.1-1.2.1l1.2-.1zM114.3 81.4h-.7l-.6.1 1.3-.1zM85.8 80.8c.6 0 .9-.2 1.1-.3-.4.1-.8.1-1.4.1 0 0 .1.1.3.2zM40.6 79.5h-.8.8zM134.7 81.6s.2.1.3.1c0 0-.1-.1-.3-.1zM7.9 114.8zM7.8 82l.2.4c.1 0 .1.1.2 0l-.4-.4zM276.5 80h-.1.1zM311.7 223.8c2.7.2-4.4.4-.3.6-.4-.1 3.7-.6.3-.6zM34.9 78.6c.4 0 .8 0 1.2-.1-.5.1-.9.1-1.2.1zM311.4 224.3h.4-.4zM337.1 78c-.1 0-.4-.1-.6-.1 0 0 .1 0 .6.1zM291.9 78.9h1.1c-.4-.1-.8-.1-1.1 0zM343 94.6v1.6-.3-1.3zM343.2 119c0-.1 0-.3.1-.5v-.8l-.1 1.3zM7.6 189c.1-.5.2-.9.3-1.1-.2.3-.2-3.3-.3 1.1zM34.2 78.8c.1-.1.3-.1.7-.2l-.7.2zM345 95.6v3.9c.1-1.1.1-2.5 0-3.9zM147.3 224.3h-.9c.4.1.7.1.9 0zM345.2 111c-.1.7-.1 1.4-.2 2.2 0 .2 0 .3.1.5l.1-2.7zM7.9 187.8zM7.6 162.3c0 3.7.3 1.7.5 2.5.1 4.4-.3 2-.4 3.5.1 2.7.3 4.9.3 6.9-.1.2-.1.6-.1.1.2 2.9-.2 8.6.1 12 0 .3-.1.4-.1.4.2-.5.4-.6.5-.5 0 1.7.1 3.1-.1 3.7 0-1-.1-1.1-.1-1.6l.1 1.7c-.3 1.6-.1-2.4-.3-2.4 0 3.4.2 7.3.1 9.9l-.3-2.6.2-4c-.5 3.1.1-2.4-.5.4-.2 5.3 0 5.9-.1 11.2.2 1.2.3-.4.4.8.3 7.5-.8 5.9-.4 11.4.2 1.4.6 2 .5 5.9l-.4-1.3c0 1.3.1 2.1.1 2.7l.1.8c0 .1 0 .2.1.3 0 .2 0 .3.1.5l.1.9v.6h2.2c.5 0 1 .1 1.7.1h-2.5c-.6 0-1.3 0-1.5-.1v-.1.1h.8c.3 0 .6 0 .9.1h1c.4 0 .7 0 1-.1.5-.1.9-.2 2.3-.1l.5.3c5.5 0 11.5-.1 17.5-.3-.3.1-1.4.2 0 .3 7.6-.3 16.3-.4 23.6-.5l2.8-.4c.7 0 1.2.1.5.2 2.9 0 .1-.2 1.5-.3 1.6-.1 2.2.1 1.1.2 5-.4 14.3-1.1 19.7-1l-1 .1c4.1 0 4.6-.7 8.5-.6l-.7.1c9-.2 18.9-.4 25.8 0 1.3-.4 8.9.1 9.5-.4 5.1.2 3.7.3 10.9.5 1.9 0 2.9-.3 5.3-.4l.1.3 3.2-.3 1.7.3 2.2-.1c-.9 0-1.9-.1-1.8-.2 1.7-.1 3.9 0 5.6.1 1.7.1 3 .2 3 .3l8.3-.2c-.2.1-1.6.1-2.7.2 4.4-.3.8.3 4.8.1-.5-.1.3-.2.4-.2 2 .2 6.6.3 10 .2l-.7.2c6.1.2 12.9.2 19.8.5-2.5-.2-1.9-.5.1-.5l.8.3c1.3-.1-2.1-.2.6-.3 2.6.1 1.7.4.2.4h3.1c.2.1-.6.1-.7.2 1.3-.1 5.4.5 7.3.2l.2.1c6.9.2 10 .2 15.6.3.1-.3 2.3-.2 4-.3 4.1.2 8.7.5 13.7.5 3.5-.1 1-.2 2.6-.3.3.2 5.2.3 2.6.4 6 0 7.6 0 15.2-.1-.8-.1-1.7-.1-1.3-.2 1.4 0 3.1.1 2.9.2h-.4c8.5-.3 19.5.6 26.3.1h-.4l7-.3c3.2 0-1.9.2.5.3 7.5-.5 11.9-.2 18.1-.6 4.8.6 17-.5 23.5-.3l-.4-.1c1.7-.2 2 0 3.3 0-.2-.1-1.8-.1-.8-.2 1.3-.1 2.6-.1 4-.2.1-2 .3-4 .4-5.9.1-1.7.3-3.4.4-5l.9-10.2c.6-6.8 1.3-13.7 1.6-20.5.3-5.3-.7-3.1-.1-9.8l.3 1.9c-.2-10.8.4-22 .3-32.5.1.6.1.6.1 1.7.3-2.2.2-8.2 0-8.3 0-1.6.2-.4.3-1.4.2-2.2-.2-5.6 0-6.8 0-.2.1.6.1 1-.1-1.5.1-6.8-.2-5.4.2-3.9-.1-7.6.1-10.7-.3-2.1.1-6.8-.3-7.4.4.3.3-6.9 0-9.4.1.8.1-2.2.3-1.2-.1-2.9-.3-5.5-.4-5 .2-2.5-.1-5.1-.2-7.4-.1-1.1-.2-2.2-.3-3.2v-3.7c-.2 0-.4-.1-.5-.1h-7.199999999999999c-2.1 0-4.1.1-6.1.1-4 .1-7.8.3-11.6.4.3-.4 8.4-.3 8.1-.7-7.2.3-11.4.8-18.5 1-1.9 0 1-.2 1.7-.3-7.2.4-13.9.5-20.3 1l1.4-.2c-1.3.1-2.9.1-2.8.2l1.2-.1c2 .2-5 .8-5.2.9 2.1-.6-6.3.1-3-.7-.8.1-1.9.2-1.7.3-1.2 0-1.6-.1-.4-.2-4.5.3-2.9.4-7 .5 0-.1.8-.2 1.3-.3-2.1.2-4.2.5-7.6.5.2-.1-.2-.1.8-.1-5.9.2-10.1.7-16.7.5 1.9-.4-2.2-.1-2.6-.5l-3.5.1 1.4.2c-3.1 0-5.8.3-8.4.2l2.3-.2-5.8.1 3.3.1c-3.1.2.3.4-3.8.4.8 0-3.1 0-4.7-.2-1.5.1-3.1.3-5.4.2-.6-.1.5-.4.1-.5-1.5.3-7.2.2-9.1.5.6-.1.7-.3.5-.3l-1.3.3c-1.4 0-1.6-.1-1.4-.2-4.3 0 1.4.4-3.7.3.4 0 .2-.1 1-.1-5.1 0-9.9.3-14.6.3-1.4-.3 4.1-.2 2.5-.4-6.8.2-14 .7-20.6.8h1.2c-.9.5-4.9-.1-8.2.1.8-.1 1.1-.3.8-.2-4.5 0-9.2.3-16 .5l.8-.1c-2.6-.1-7 0-9.8 0-.8.1-2.5.1-1.5.3-8.8-.6-16.8.4-24.6-.2.9 0 2.2-.1 1.5-.1h-6.7c.5.2.9.1 2.3.3-.8.1-2.7.2-4.4.1 3-.1 0-.3-1.3-.5.2.1-.2.1-.1.2-3.5-.4-.6.4-5.3.1l.3-.1c-1.8 0-3.4.1-5.3 0-.8-.3 1.9-.1 2-.3-2.7-.1-5.3.3-7.8 0h3.9c-2.6-.4-3-.3-4.9-.4h.2l-4.6-.2 1.2.1c-3.4.5-6.9-.1-11.4.2 4.4-.3.7-.2 1.1-.5-1.2-.1-2.9-.2-2.4-.3-2.1.2-3.6-.3-6.6 0-.1-.1-2.3-.1-1.8-.3-2.8 0 .7.2.4.3-4.3 1-10.1.2-16.3.5-5.3.1-6.3.4-11.3.5-1.7-.1 1.4-.3 1.4-.3-2.7-.1-4.7-.2-7.3.1.5-.1 0-.1-.8-.2-2 .1-1.3.4-4 .4.5-.1 1-.3 2-.5-2.4.2-4.7.5-7.2.6-.7-.1 1.5-.3 2.4-.4-2.8.2-7.2.3-8.1.5l1.8.1c-1 0-.5-.2.2-.3 2.4-.2 3.4 0 3.6.1l-1.8.1c1.8.5 7.1-.3 10.7-.5l-1.5.5 3.6-.5c.8.1 1.3.2-.4.4 2.6.1 2.2-.2 4.4 0 .2 0 .1.1-.1.1l2.5-.1c-.5.1.4.3-1.1.2 4.5.2 7.2-.2 8.9.1h-.4c6.2 0 .6-.3 5.3-.5l3.1.7.6-.3c.6 0 1.9.1 1.7.2 2.4-.1-.4-.1 1-.3 3.1.3 8.5.1 9.2.5 1.1-.2-2.9-.2.4-.3.9.5 3.8 0 6.6.3-.9.2-3.5 0-.7.3 1.7-.4 5.5.2 7.9.2.1-.3 5.2 0 9.2 0-.3.1 7.5.4 11.2.6l-.1.1c.7-.3 4.6-.2 7.3-.2-.1.2-.6.3-2.1.3h2.6c.6-.1 1.4-.1 3.1-.2l-.7.2c3.5 0 7-.2 11.5 0 .3-.2-3.6-.7 1.2-.8.2.1.4.3-.9.4.4 0 1.5-.1 2.3 0l-1.9.2c2 .1 1.1-.2 2.7-.1 0 .2 1.2.1 1 .3-.4 0-1.4-.1-2.1 0 1.8 0 4.1.1 4.8.3-.2-.1 0-.2 1.3-.3 3.5 0 1.2.2 3.2.3.8-.1 3.1 0 3.1-.3 1 0 1.2.1 1.6.2 1.8-.1 8.4-.1 6.4-.4h-.5.3c5.9-.3 12.3 0 18.2-.2v.1c3.5-.2 7.8-.2 10.3-.4 1 0 2.5.1 2 .2 2.7-.1 3-.2 6.8-.2-2.7.2.9.1-2.8.2 3.5 0 4.3.1 8-.2-1.3.3 2.6.2 4.3.1l-2.4-.1c1.9-.1 3.5-.1 5.1-.1l-.9.3c7.1.2 12.8-.9 18.3-.4 1.9-.2-3.9-.1-2.2-.4 3.3 0 6.7.4 7.7.4 4.5.1 4.2-.5 8.9-.4-.6-.1-1.2-.4 2.3-.5 3.3 0 4 .4 2 .5h-1.1c-1.1.1-2.4.1-1.1.2l.4-.1c1.6.1 6.1 0 5.1.2 2.5-.1 1.1-.2-.8-.2l10.9.1c-.7-.1-1.3-.2-.6-.2 6.3.1 2.8-.2 7.1-.3 2.4.1-.9.4 3.5.2 2.6.1.6.3-.5.4 4-.3 7.4 0 9.6 0l-2.1.1c1.2-.1 2.3-.1 3.3-.1l-1.2-.2c1.2 0 2.3 0 2.2.1 1.3-.2-1-.3 1.5-.6 1.6.1 5-.3 5.5 0-5.1.1.6.3-3.8.5.8-.1 1.9-.1 3.1-.1.2 0-.2.1-.5.1 4.9.1 2.2-.4 7.3-.6-.6.2 1.2.3 2 .2-2 .1-1-.2.9-.4 3.3 0 3.5-.2 5.2-.3h-1.9c.7-.2 2.3-.2 4.5-.4.2.1-2.1.2-1.2.2 2.5-.4 5.7.1 9.2-.3 1.6 0 .2.3 1.6.3 3.9-.4 4.3.1 8.4-.3-1.2-.2-1.4-.1 1.5-.4l-6.8.4 4.3-.5c-2.1.1-4.3.3-5.6.3 2.1-.3 1.9-.2.9-.3 2.8.2 5.6-.4 8.8-.3l-.1.5c4.9.1 8.7-.6 15-.5l-2-.1c.8-.2 3.9-.1 6-.1-.2.2 1.1.3 2 .4-.1-.1 1.1 0 2.3 0h1.8c.5 0 .9-.1 1-.2l.7.1v.9000000000000001c.2 5.1.8 5.8 1 10.7-.2-1.5-.3.8-.6-2.5.1 1.6.1 3.1.2 3.1-.1 1 .4 4.5.2 6.1.1.7.3.9.3 2.8 0 .2-.1 0-.1 0 .1 0 .2 2.9.3 1.3-.5 5.1.2 14.1-.3 18.5 0 3.6.1 7.9 0 11.2-.1-.2-.1 0-.1-.6-.2 4.5.5 2.8.2 7.9-.3 2.6-.1-2.7-.2-1.1-.6.7 0 6.2-.4 9.6v-.8c-.3 2.6.1 6.4 0 10.7 0 0 0-.2-.1 0 .2 2.9.2 8.5.3 12.6-.2-1.3-.1-1.9-.3-1.1 0 1.9.4-.5.4 3.2-.1 1.2-.3 3.9-.6 4.2l.1-3.5c-.3 1.8-.1 4.5-.2 6.3l-.1-.2c-.1 5.3.2 5.4-.1 11.1l.1-.6c.2 3.2-.3 2.6-.3 5.8l-.4.9c-.1 2.1-.2 7.3-.4 11-.1-2.1.1-6.5.1-9.1-.1 2-.5 7-.4 8 0-.8 0-1.9.1-2.7.1 2.5 0 5.8-.4 9.9-.3-.4-.5 1.9-.8 4.7-.1 1.4-.2 2.9-.4 4.4-.1.7-.1 1.4-.2 2 0 .4-.1.5-.1.6l-.1.3c-.2 0-.3-.1-.4-.1h-1.1l-1.4.1-2.7.1c-1.8.1-3.6.1-5.5.1-3.7.1-7.6.1-11.8.2 3 .5-2.5.1-1.9.6-2 .1-2.7.1-2.9.1l-6-.2c-1.4-.1 1.9-.2 1.7-.3-4.3.1-1.8-.2-4.7-.3.6.2-1.5.3-3.9.3l3.5.2h-11.2l1.9-.2c-3.1.2-11.5.1-14.5.6-.5-.1-1.3-.2.1-.3-7.4 0-16.5.5-22.3.2l.6-.1c-1.4 0-2.4.2-4.1.1.1-.1.6-.1-.1-.1s-3.7.2-5.5.1l1.6-.1c-7.2-.2-11.1.3-17.2.2 0-.4-5.7-.6-8.5-.8l.1-.1c-8.4-.2-14.3 0-22.1-.1-4.8-.6-16.4-.8-24.2-1.2 1.2.1-.2.3-1.6.3-1.8-.1-5.1.2-4.8-.2h.7c-1.4-.4-5.1-.3-8.1-.4l-.5.5c-7.7-.8-20.1.2-24.3-.4-1.9.1-4.1.1-6 .3l.1-.3c-5.1 0-7.7-.1-14 0l1.3-.2c-3.6 0-4.5.8-7.8.8l-1-.4c-6.2 0-12.6-.3-18.7.2.1-.1.3-.2 1.3-.2-2.9.1-11.4.1-10.3.6-.1-.3-6.4.2-9.8.5l.5-.3c-2.8.4-2.9.5-6.9.8-.9 0-.8-.2.4-.2-3.1 0-2.4.3-6.2.4l1.4-.2c-3.2.1-3 .2-4.7.5-2 .2-6.1.2-6.6 0-.4.2-2.2.4-4.1.4-.3-.1.4-.2.8-.2-5.4 0-8 .6-11.7.4-.1-.1-.3-.1-.6-.1 4.3-.1 7.7-.2 7.4-.2 0-.2-3.5-.2-.7-.6-2.8.3-7.5.8-10.9.7-.2 0-.3 0-.4-.1h.3c-.8 0-1.5 0-2.1.1h-2.8c-.4-.2-4-.1-5.7-.1.1.3-2.1.2 0 .4h6.5-.1c-1.4.1-2.8.2-4.7.1-.9.2-1.9.3-2.4.4-1.2-.2-2.9-.4-4.4-.5-1.5-.2-2.8-.3-3.1-.4h-2.3v-.3l-.1-2-.1-2.2c-.1-2.8-.3-5.5-.5-7.1-.1-1.5.1-1.7.2-2.3 0 .9 0 1.9.1 2.4-.2-3 0-8.9-.3-9.6l.3-3.1.1.7c.7-10.2-.5-16.6.4-27.9-.1.8-.1 1.2-.1 1.3.3-6.5.2-13.1.1-19.7 0-6.6-.1-13.2.2-19.6.1-3.6-.1-4-.3-6.2l.3-.8-.3-3.8c-.1-2.7.1-5 .2-7.5s.3-5.1.3-8.5l-.2.9c.2-2.4.4-7.7.5-7.3 0-.3-.2-.8 0-1.8l.1-.1v-3c0-.8 0-1.5-.1-2.1 0-.6-.1-.9-.1-.9 0-2.3.1-2.2.2-2.3.1 0 .1-.2.1-.7 0-.5 0-1.5-.3-3.2-.1-.6-.3-1.4-.5-2.2-.3-.8-.6-1.6-.8-2.2-.6-1.3-1-2.1-.9-1.7.2.5.4 1.1.5 1.6.1.5.2.9.1 1 0 0 0-.1-.1-.3-.1-.2-.1-.5-.3-.8-.1-.5-.3-1-.3-1-.3-.1-.7-.6-.8-.3-.1.1-.1.4.1 1 .1.3.1.7.2 1.1.1.5.2 1 .3 1.7 0 0 .2.9.5 1.8.2.9.4 1.9.4 1.9l-.1 1.4v-.5c0-.3-.1-.7-.1-1.1-.1-.4-.1-.8-.2-1.1 0-.3-.1-.5-.1-.5.1 1.8.4 3 .6 4.3-.1.3-.1.9-.1 1.6 0 0 .1.9.2 1.9.1 1 .2 1.9.2 1.9-.2.5-.3-1.7-.4.8.1 1.8.4-1.7.5 1.3-.3 1.9-.4 1.3-.4 3.5-.1.3-.2-.2-.2-1 0 2-.3 5.2-.1 6.2-.2 1-.2 2.6-.3 4.1 0 1.4-.1 2.5-.3 2.4.1.6.3 3.5.3 5.3l-.5 5.9c.4 2.4.2 8.8.4 13.2 0-.2-.1-.7-.1-1.1 0 2.4-.2 3.1-.2 4.7.4.3.4 4.1.7 6.2-.3 3-.4-1.8-.8-.9.3-.2.3 5.2.5 4.2-.2 2.3-.1 2-.4 3.1.4.4.1 2.1.4 4-.2 3.3-.4.9-.3 4.5-.1 1.6-.3-1.6-.3-1.6zm24.2 64.1h-1.8c.4.1.9 0 1.8 0zm7.3-.1c-.9 0-2 0-3.2.1-.3-.1 0-.2.7-.2-.3 0 1.4 0 2.5.1zm-15.4-1.6c1.1 0 1.5 0 1.7.1h-2.1c.1 0 .2-.1.4-.1zM21.6 225h-.5c.2 0 .5 0 .7.1l.4-.1h-.6zM150.5 81.1h.30000000000000004-.3zM139.2 224.5v-.1l-.6.1zM110.5 80.2c-.1 0-.2-.1-.5-.1 0 0 .2 0 .5.1zM93.2 79.7l-2.4-.2c1 .1 1.8.2 2.4.2zM80 79.2c-.2 0-.2.1-.3.1l.3-.1zM290.9 77.2h.5c1.3-.2.4-.1-.5 0zM228.2 79c.7-.1 1.3-.1 2-.1-1.1-.1-2-.1-2 .1zM345 95.1v.4-.4zM233.1 78.8h-2.9c.9.1 2 .1 2.9 0zM22.4 79.1h-.7.7zM21.7 79.1h-.7.7zM19.5 79.1h1.5-1.5zM40 78.5l.2-.1c-.1.1-.2.1-.2.1zM45.3 78.5c-1.3 0-3.2-.2-5-.2l-.2.1c.9-.1 4 .3 5.2.1zM67.6 80l-4.5-.2c.8.1 1.8.3-.2.3 5.6.4-1.2-.2 4.7-.1zM81.5 80.5c-2.4 0 0 .1-.1.2 1.5 0 1.9 0 .1-.2zM181.8 80.8l-.2.2c1.8 0-.1 0 .2-.2zM200.9 79.2l-1.8-.1-.9.3zM212.3 80.7h-.8l3-.1zM343 114.7l.3-.6c-.1-1.2-.4-1.5-.3.6zM341.8 187.3c-.2.8-.4 2.8-.3 4.1.1-1.6.3-3.2.3-4.1zM158.5 222.2l1.5-.1-2.8.1z"/></g><path fill-rule="evenodd" clip-rule="evenodd" fill="#fff" d="M1.4 79c3.8 9.8 1.3 22.5 1.3 32.7v50.4c0 17.9-1.2 43.3-.4 61.2 31.9 1.2 64.3-2.2 96.4-2.2 29.5 0 57.8-.4 87.3.7 49.8 2 97.6-2.5 147.5-4.4 1.3-20 3-29.6 3.2-49.7.4-31 1.8-62.7-.1-93.6-8.2-.4-16.7-.2-25 0-22.2.7-44 2.1-66.5 2.1-40 0-79.8 1.7-119.7 1.7l-92.7-1.7c-5 0-30.1 2.6-32-2.8"/><g fill="#413C6E"><path d="M1.3 73.2c-.1-.2-.2-.2-.2 0s.1.5.5.9l.4.2c.2.1.4.1.4.1s-.1-.1-.3-.1c0-.2-.1-.3-.3-.4-.3-.3-.5-.7-.5-.7zM9.1 76.6c1.6 0 3.5-.2 2.5-.5-1.6.2-2 .1-3.7.2-1.4-.1-2.4-.5-2.1-.5-.5 0-2-.5-2.7-.7 1.5.9 3.9 1.3 6.2 1.3.5.1 0 .1-.2.2zM144.7 78.2h-.9.9zM228.7 76.9c-.6 0-.9 0-.9.1.6 0 1-.1.9-.1zM243 77.2h-.8.8zM144.7 78.2l2.2.1c.2-.1-1.1-.1-2.2-.1zM27.8 75.7c-.5 0-.9.1-1.2.1.3 0 .7 0 1.2-.1zM107.6 78.4h-.7l-.6.1 1.3-.1zM79.2 77.8c.6 0 .9-.2 1.1-.3-.4.1-.8.1-1.4.1 0 0 .1.1.3.2zM34.2 76.5h-.8.8zM128 78.6s.1.1.3.1c0 0-.1 0-.3-.1zM1.5 111.7zM1.5 79l.2.4c.1 0 .1.1.2 0l-.4-.4zM269.3 77h-.1c-.7.1-.3.1.1 0zM303.3 217.7c2.7.1-4.4.5-.3.6-.4-.1 3.7-.6.3-.6zM28.5 75.7c.4 0 .8 0 1.2-.1-.6 0-.9 0-1.2.1zM303 218.3h.4-.4zM329.7 75c-.1 0-.4-.1-.6-.1 0 0 .2 0 .6.1zM284.7 75.9h1.1-1.1zM336.6 90.6v1.6-.3-1.3zM336.9 114.9c0-.1 0-.3.1-.4v-.8l-.1 1.2zM1.3 185.7c.1-.5.2-.9.3-1.1-.3.3-.2-3.2-.3 1.1zM27.8 75.8c.1-.1.3-.1.7-.2-.3.1-.5.1-.7.2zM338.7 91.5v3.9-3.9zM139.5 222h-.9c.3.1.6.1.9 0zM338.9 106.9c-.1.7-.1 1.4-.2 2.2 0 .2 0 .3.1.4l.1-2.6zM1.5 184.6zM1.3 159.1c0 3.7.3 1.7.5 2.5.1 4.4-.3 2-.4 3.5.1 2.7.3 4.9.3 6.9-.1.2-.1.5-.1.1.2 2.9-.2 8.6.1 12 0 .3-.1.4-.1.4.2-.5.4-.6.5-.5 0 1.7.1 3.1-.1 3.7 0-1-.1-1.1-.1-1.6l.1 1.7c-.3 1.6-.1-2.4-.3-2.4 0 3.4.2 7.3.1 9.9l-.3-2.6.2-4c-.6 3.1.1-2.4-.5.4-.2 5.3 0 5.9-.1 11.2.2 1.2.3-.4.4.8.2 7.5-.8 5.9-.4 11.4.2 1.4.6 2 .5 5.9l-.6-1.3c0 2.6.2 3.3.3 4l.1.6v2.2h.6c.3 0 .7 0 1.2.1.3 0 .7 0 1 .1h-2.9000000000000004v-.2c-.1-1.3-.1-2.2-.1-1.6v1.9c0 .1.1.1.1.1h2.6c.5-.1.9-.2 2.3-.1l.5.3c5.4.1 11.4-.1 17.5-.3-.3.1-1.4.2 0 .3 7.6-.3 16.2-.4 23.5-.5l2.8-.4c.6 0 1.2.1.5.2 2.9 0 .1-.2 1.5-.3 1.6-.1 2.1.1 1.1.2 5-.4 14.3-1.1 19.6-1l-1 .1c4.1-.1 4.6-.7 8.5-.6l-.7.1c9-.2 18.8-.5 25.7-.1 1.3-.4 8.9.1 9.4-.4 5.1.3 3.7.4 10.9.5 1.9 0 2.9-.3 5.2-.4l.1.3 3.2-.3 1.7.3 2.2-.1c-.9 0-1.9-.1-1.8-.2 1.7-.1 3.9 0 5.6.1 1.7.1 3 .2 3 .3l8.2-.2c-.2.1-1.6.1-2.7.2 4.4-.3.8.3 4.8.1-.5-.1.3-.2.4-.2 2 .2 6.6.3 10 .2l-.7.2c6.1.2 12.9.2 19.7.5-2.5-.2-1.9-.5.1-.5l.8.3c1.3-.1-2.1-.2.6-.3 2.6.1 1.7.4.2.4h3.1c.2.1-.6.1-.7.2 1.3-.2 5.4.5 7.2.2l.2.1c3.4.1 5.9.1 8.3.1h7.3c.1-.3 2.3-.2 4-.4 2.1 0 4.2.1 6.5.1h7.1c3.5-.2 1-.2 2.6-.4.3.2 5.2.1 2.6.3 5.9-.2 7.6-.3 15.1-.7-.8-.1-1.7-.1-1.3-.2 1.4-.1 3.1 0 2.9.1h-.4c8.4-.7 19.5-.2 26.2-1h-.4l6.9-.6c3.2-.1-1.9.3.5.3 7.5-.8 11.9-.6 18-1.2 4.8.4 17-.9 23.4-.7l-.4-.1c1.7-.2 2 0 3.3 0-.2-.1-1.8-.1-.8-.2 2-.1 4-.2 6.1-.3l.4-5.7.4-4.8.9-9.6c.7-6.4 1.3-12.9 1.7-19.3.3-5.3-.7-3.1-.1-9.7l.3 1.9c-.2-10.7.4-21.9.3-32.4.1.6.1.6.1 1.7.3-2.2.2-8.2 0-8.2 0-1.6.2-.4.3-1.4.2-2.2-.2-5.6 0-6.8 0-.2.1.6.1 1-.1-1.4.1-6.8-.2-5.4.2-3.9-.1-7.5.1-10.7-.3-2 .1-6.7-.3-7.4.4.3.2-6.9 0-9.4.1.8.1-2.2.3-1.2-.1-2.8-.3-5.4-.5-4.9.1-2.3 0-4.5-.2-6.6l-.3-3c0-.5-.1-1-.1-1.4l-.1-2.1c-.8-.1-1.5-.2-2.1-.3h-6.4c-2 0-4.1.1-6 .1-4 .1-7.8.3-11.6.4.3-.4 8.4-.3 8.1-.7-7.2.3-11.3.8-18.5 1-1.8 0 1-.2 1.7-.3-7.2.4-13.9.5-20.3 1l1.4-.2c-1.3.1-2.9.1-2.8.2l1.2-.1c2 .2-5 .8-5.2.9 2.1-.6-6.3.1-2.9-.7-.8.1-1.9.2-1.7.3-1.2 0-1.6-.1-.4-.2-4.5.3-2.9.4-7 .5 0-.1.8-.1 1.3-.3-2.1.2-4.1.5-7.6.5.2-.1-.2-.1.8-.1-5.9.2-10.1.6-16.6.5 1.9-.4-2.2-.1-2.6-.5l-3.5.1 1.4.2c-3.1 0-5.8.3-8.4.2l2.3-.2-5.8.1 3.3.1c-3.1.2.3.4-3.7.4.8 0-3.1 0-4.7-.1-1.5.1-3.1.3-5.3.2-.6-.1.5-.4.1-.5-1.5.3-7.2.2-9.1.5.6-.1.7-.3.5-.3l-1.3.3c-1.4 0-1.6-.1-1.4-.2-4.3 0 1.4.4-3.7.3.4 0 .2-.1 1-.1-5.1 0-9.8.3-14.5.3-1.4-.3 4.1-.2 2.5-.4-6.8.2-14 .7-20.5.8h1.2c-.9.5-4.9-.1-8.2.1.8 0 1.1-.3.8-.2-4.5 0-9.1.3-15.9.5l.8-.1c-2.6-.1-6.9 0-9.8 0-.8.1-2.5.1-1.5.3-8.8-.6-16.8.4-24.5-.3.9 0 2.2-.1 1.5-.1h-6.6c.5.2.9.1 2.3.3-.8.1-2.7.2-4.4.1 3-.1 0-.3-1.3-.5.2.1-.2.1-.1.2-3.5-.4-.6.4-5.3.1l.3-.1c-1.8 0-3.4.1-5.3 0-.8-.3 1.9-.1 2-.3-2.7-.1-5.3.3-7.7 0h3.9c-2.6-.4-2.9-.3-4.9-.4h.2l-4.5-.3 1.2.1c-3.4.5-6.8-.1-11.4.2 4.4-.3.7-.2 1.1-.5-1.2-.1-2.9-.2-2.4-.3-2.1.2-3.6-.3-6.6 0-.1-.1-2.3-.1-1.8-.3-2.8 0 .7.2.4.3-4.3.2-10.1-.6-16.2-.3-5.3.1-6.3.4-11.2.5-1.7-.1 1.4-.3 1.4-.3-1.3-.1-2.5-.1-3.7-.1-1.2 0-2.3.1-3.6.2.5-.1 0-.1-.8-.2-2 .1-1.3.4-4 .4.5-.1 1-.3 2-.5-2.4.2-4.7.5-7.2.6-.7-.1 1.5-.3 2.4-.4-2.8.2-7.2.3-8 .5l1.8.1c-1 0-.5-.2.2-.3 2.4-.2 3.4 0 3.6.1l-1.8.1c1.8.5 7.1-.3 10.6-.5l-1.5.5 3.6-.5c.8.1 1.3.2-.4.4 2.6.1 2.2-.3 4.4 0 .2 0 .1.1-.1.1l2.5-.1c-.5.1.4.3-1.1.2 4.5.2 7.2-.2 8.9.1h-.4c6.2 0 .6-.3 5.3-.5l3.1.7.6-.3c.6 0 1.9.1 1.7.2 2.4-.1-.4-.1 1-.3 3.1.3 8.5.1 9.2.5 1.1-.2-2.9-.2.3-.3.9.5 3.8 0 6.6.3-.9.2-3.5 0-.7.3 1.7-.4 5.5.2 7.8.2.1-.3 5.2 0 9.1 0-.3.1 7.5.4 11.2.6l-.1.1c.7-.3 4.5-.2 7.3-.2-.1.2-.6.3-2.1.3h2.6c.6-.1 1.4-.1 3.1-.2l-.7.2c3.5 0 7-.2 11.5 0 .3-.2-3.6-.7 1.2-.8.2.1.3.3-.9.4.4 0 1.4-.1 2.3 0l-1.9.2c2 .1 1.1-.2 2.7-.1 0 .2 1.2.1 1 .3-.4 0-1.4-.1-2 0 1.8 0 4.1.1 4.8.3-.2-.1 0-.2 1.3-.3 3.5 0 1.2.2 3.2.3.8-.1 3.1 0 3.1-.3 1 0 1.2.1 1.6.2 1.8-.1 8.4-.1 6.4-.4h-.5.3c5.9-.3 12.3 0 18.1-.2v.1c3.5-.2 7.8-.2 10.3-.4 1 0 2.4.1 2 .2 2.7-.1 3-.2 6.8-.2-2.7.2.9.1-2.8.2 3.5 0 4.3.1 8-.2-1.3.3 2.6.2 4.3.1l-2.4-.1c1.9-.1 3.5-.1 5.1-.1l-.9.3c7.1.2 12.8-.9 18.2-.4 1.9-.2-3.9-.1-2.2-.4 3.3 0 6.7.4 7.7.3 4.5.1 4.2-.5 8.9-.4-.6-.1-1.2-.4 2.3-.5 3.3 0 4 .4 2 .5h-1.1c-1.1.1-2.4.1-1.1.2l.4-.1c1.6.1 6.1 0 5.1.2 2.5-.1 1.1-.2-.8-.2l10.9.1c-.7-.1-1.3-.2-.6-.2 6.3.1 2.8-.2 7.1-.3 2.4.1-.9.4 3.5.2 2.6.1.6.3-.5.4 3.9-.3 7.4 0 9.6 0l-2.1.1c1.2-.1 2.3-.1 3.3-.1l-1.2-.2c1.2 0 2.3 0 2.2.1 1.3-.2-1-.3 1.5-.6 1.6.1 4.9-.3 5.5 0-5.1.1.6.3-3.7.5.8-.1 1.8-.1 3.1-.1.2 0-.2.1-.5.1 4.9.1 2.2-.4 7.3-.6-.6.2 1.2.3 2 .2-2 .1-1-.2.9-.4 3.2 0 3.5-.2 5.2-.3h-1.9c.7-.2 2.3-.2 4.5-.4.2.1-2 .2-1.2.2 2.5-.4 5.7.1 9.2-.3 1.6 0 .2.3 1.6.3 3.9-.4 4.3.1 8.4-.3-1.2-.2-1.4-.1 1.5-.4l-6.8.4 4.3-.5c-2 .1-4.3.3-5.5.3 2.1-.3 1.9-.2.9-.3 2.8.2 5.5-.4 8.8-.3l-.1.5c4.9.1 8.6-.6 14.9-.5l-2-.1c.8-.2 3.9-.1 5.9-.2-.2.2 1.1.3 2 .4-.1-.1 4.6.1 5.2-.2.9.1 1.2.2 1.5.3v1.4000000000000001c0 .5.1 1 .1 1.4.1.9.2 1.6.3 2.3.2 1.4.4 2.8.5 5.3-.3-1.5-.3.8-.6-2.5.1 1.6.1 3.1.2 3.1-.1 1 .4 4.5.3 6 .1.7.3.9.3 2.7 0 .2-.1 0-.1 0 .1 0 .2 2.9.3 1.3-.5 5 .2 14.1-.3 18.5 0 3.6.1 7.9 0 11.1-.1-.2-.1 0-.1-.6-.2 4.5.5 2.8.2 7.8-.3 2.6-.1-2.7-.3-1.1-.6.7 0 6.1-.4 9.6v-.8c-.3 2.6.1 6.4 0 10.7 0 0 0-.2-.1 0 .2 2.9.2 8.5.3 12.6-.2-1.3-.1-1.9-.3-1.1 0 1.8.4-.5.4 3.2-.1 1.2-.3 3.9-.6 4.2v-3.5c-.4 1.8-.1 4.5-.2 6.3l-.1-.2c-.1 5.3.2 5.4-.1 11.1l.1-.6c.2 3.1-.4 2.6-.3 5.7l-.4.9c-.1 2.1-.2 7.2-.5 10.9-.1-2.1.2-6.4.2-9.1-.2 2-.6 6.9-.5 8 0-.8 0-1.9.2-2.7.1 2.5-.1 5.8-.4 9.9-.3-.3-.5 1.2-.7 3.4-.1 1.1-.2 2.3-.3 3.6l-.1 1.8c0 .2 0 .4-.1.6 0 .1 0 .3-.1.4h-1c-.5 0-.9 0-1.3-.1-7.2.5-14.3.5-22.7 1 3 .4-2.5.1-1.9.7-2 .1-2.7.2-2.9.1h-5.9c-1.4-.1 1.9-.2 1.7-.3-4.3.2-1.8-.1-4.6-.1.6.2-1.5.4-3.9.4l3.4.1-11.2.4 1.9-.3c-3.1.3-11.4.6-14.4 1.2-.6 0-1.3-.2.1-.3-7.4.3-16.4 1.3-22.2 1.2l.6-.2c-1.4.1-2.4.3-4.1.3.1-.1.6-.2-.1-.1s-3.7.4-5.5.3l1.6-.2c-7.2 0-11.1.7-17.1.9 0-.4-5.7-.5-8.5-.5l.1-.1c-8.4 0-14.3.3-22 .2-4.8-.6-16.4-.8-24.1-1.2 1.2.1-.2.3-1.6.3-1.8-.1-5 .2-4.8-.2h.7c-1.4-.4-5.1-.3-8-.4l-.5.5c-7.7-.8-20.1.2-24.2-.4-1.8.1-4.1.1-6 .3l.1-.3c-5.1-.1-7.7-.1-14 0l1.3-.2c-3.6 0-4.5.8-7.8.8l-1-.4c-6.2 0-12.6-.3-18.7.2.1-.1.3-.2 1.3-.2-2.9 0-11.4.1-10.3.6-.1-.3-6.4.2-9.8.5l.5-.3c-2.8.4-2.9.5-6.9.8-.9 0-.8-.2.4-.2-3.1 0-2.4.3-6.2.4l1.4-.2c-3.2.1-3 .2-4.7.5-2 .2-6.1.2-6.6 0-.4.2-2.2.4-4.1.4-.3-.1.4-.2.8-.2-5.4 0-8 .6-11.7.4-.1-.1-.3-.1-.6-.1 4.3-.1 7.7-.2 7.4-.2 0-.2-3.5-.2-.7-.6-2.8.3-7.5.8-10.8.7-.2 0-.3 0-.4-.1h.3c-.8 0-1.5 0-2.1.1-1.1 0-1.8-.1-2.8-.1-.4-.2-4-.1-5.7-.1.1.3-2.1.2 0 .4h6.5-.1c-1.4.1-2.8.2-4.7.1-.9.2-1.9.3-2.4.4-2.4-.4-6.9-.7-7.5-.9h-1.0999999999999999l-.1-1.2-.2-4.4c-.1-2.8-.3-5.4-.5-7.1-.1-1.5.1-1.7.2-2.3 0 .9 0 1.9.1 2.4-.1-3 0-8.8-.3-9.6l.3-3.1.1.7c.7-10.2-.5-16.6.4-27.8-.1.8-.1 1.2-.1 1.3.3-6.4.2-13.1.1-19.7 0-6.6-.1-13.2.2-19.6.1-3.6-.1-4-.3-6.2l.3-.8-.3-3.8c-.1-2.7.1-5 .2-7.5s.3-5.1.3-8.5l-.2.9c.2-2.4.4-7.7.5-7.3 0-.3-.2-.8 0-1.8l-.3.8v-3c0-.7-.1-1.5-.1-2.1 0-.6-.1-.9-.1-.9 0-2.3.1-2.2.2-2.2s.1-.2.1-.7c0-.5 0-1.5-.3-3.2-.1-.6-.3-1.4-.5-2.2-.2-.8-.5-1.5-.7-2.2-.6-1.3-1-2.1-.9-1.7.2.5.4 1.1.5 1.6.1.5.2.9.1 1 0 0 0-.1-.1-.3 0-.2-.1-.4-.2-.7-.2-.5-.4-1.1-.4-1.1-.3-.1-.7-.6-.8-.3-.1.1-.1.4.1 1 .1.3.1.7.2 1.1.1.5.2 1 .3 1.7 0 0 .2.9.5 1.8.2.9.4 1.9.4 1.9v1.2-.5c0-.3-.1-.7-.1-1.1-.2-.2-.2-.6-.2-.9 0-.3-.1-.5-.1-.5.1 1.8.4 3 .6 4.3-.1.3-.1.9-.2 1.6 0 0 .1.9.2 1.9.1.9.2 1.9.2 1.9-.2.5-.3-1.7-.4.8.1 1.8.4-1.7.5 1.3-.3 1.9-.4 1.3-.4 3.5-.1.3-.2-.2-.2-1 0 2-.3 5.2-.1 6.2-.2 1-.2 2.6-.3 4 0 1.4-.1 2.5-.3 2.4.1.6.3 3.5.3 5.3l-.5 5.9c.4 2.4.2 8.8.4 13.1 0-.2-.1-.7-.1-1.1 0 2.4-.2 3.1-.2 4.7.4.3.4 4.1.7 6.1-.3 3-.4-1.8-.8-.9.3-.1.3 5.2.5 4.2-.2 2.3-.1 2-.4 3.1.4.4.1 2.1.4 4-.2 3.3-.4.8-.3 4.5-.1 1.7-.2-1.5-.2-1.5zm23 65h-1.8 1.8zm7.3-.1c-.9 0-2 0-3.1.1-.3-.1 0-.2.7-.2-.4 0 1.3 0 2.4.1zm-15.4-1.6c1.1 0 1.5 0 1.7.1h-2.1c.1 0 .2-.1.4-.1zM14.2 222.7h-.5c.2 0 .5 0 .7.1l.4-.1h-.6zM143.7 78.2h.30000000000000004-.3zM131.4 222.2v-.1l-.6.1zM103.8 77.2c-.1 0-.2-.1-.5-.1 0 0 .2 0 .5.1zM86.6 76.7l-2.4-.2c1 .1 1.8.2 2.4.2zM73.4 76.2c-.2 0-.2.1-.3.1l.3-.1zM283.7 74.2h.5c1.3-.1.4-.1-.5 0zM221.2 76c.7-.1 1.3-.1 2-.1-1.1 0-2 0-2 .1zM338.7 91.1v.4-.4zM226.1 75.8h-2.9c.9.1 2 .1 2.9 0zM16 76.1h-.7.7zM15.3 76.1h-.7.7zM13.1 76.2h1.5c-.5-.1-1.1-.1-1.5 0zM33.5 75.6l.2-.1c-.1 0-.2 0-.2.1zM38.9 75.5c-1.3 0-3.2-.2-5-.2l-.2.1c.9-.1 3.9.3 5.2.1zM61.1 77l-4.5-.2c.8.1 1.8.3-.2.3 5.6.4-1.2-.2 4.7-.1zM74.9 77.5c-2.4 0 0 .1-.1.2 1.5 0 1.9 0 .1-.2zM174.9 77.9l-.2.2c1.8-.1 0-.1.2-.2zM194 76.3l-1.8-.1-.9.2zM205.3 77.7l-.8.1 3.1-.2zM336.6 110.6l.3-.6c0-1.2-.3-1.5-.3.6zM335.5 183c-.2.8-.4 2.8-.4 4.1.2-1.6.4-3.2.4-4.1zM150.7 219.9l1.4-.1-2.7.1z"/></g><path fill="#009EE2" d="M267.2 35.2s-16.7-29.8-25.2-31.3-8.1 2.2-8.6 6.1c-.5 3.9 4.6 11.9 9.7 12.2 5.1.2 18.8 3.6 24.1 13z"/><g fill="#1DA9E5"><path d="M266.7 35.4c.1 0 .2-.1.1-.2h-.3l.2.2zM266.6 34.4c-.2-.1-.5-.1-.6.1.3 0 .2.1.6.1.1.1.1.3 0 .3l.2.2c.1-.3-.1-.5-.3-.6 0-.1.1-.1.1-.1zM256.1 25.3zM247.8 22.4h.1-.1zM246.4 21.8zM256.1 25.3l-.2-.2c-.1.1.1.1.2.2zM265 33.2s.1 0 .1.1l-.1-.1zM259.6 27h.2-.2zM262.1 28.6s-.2.1-.3.2c.1 0 .1-.1.2 0l.1-.2zM265.3 32.1zM257.7 25.9c0-.1.1-.1 0 0zM266.3 31.7zM267.1 35.2h-.1.1zM243.6 21.2zM236.9 4.6c-.3-.1.3-.3-.1-.4.1.1-.2.4.1.4zM265 33.1zM236.8 4.2zM238.7 19v.1-.1zM242.1 21.4zM236.9 17.4c0-.1 0-.1-.1-.1 0 .1.1.1.1.1zM235.5 15.4v.1-.1zM262.2 25.2l-.1.2c.1-.1.4.2.1-.2zM265.1 33.1h-.1.1zM235.5 18.4l-.2-.4c0 .1.1.3.2.4zM251.6 10.5zM234.6 17v-.3h-.1l.1.3zM262.1 25.4zM263.9 27.4c-.2-.3-.3 0-.5 0-.3-.3.1-.3.1-.5-.2-.2-.5-.3-.6-.4 0 0 0-.1.1-.1-.3-.1-.5-.8-.9-.9v-.1c-.1.1-.2.2-.3.2-.1-.1-.3-.2-.2-.3.1.1.1.1.2.1l-.2-.1c.1-.3.2.2.4.1-.3-.2-.7-.5-.7-.7.2-.2.4.5.4.1l.1.4c.2-.5.1.2.3-.2-.2-.5-.4-.4-.7-.9-.2 0-.2.1-.3.1-.6-.5.2-.9-.4-1.2-.2 0-.5.1-.6-.3h.3c-.3-.5-.5 0-.7-.6l.3.2c0-.4-.3-.1-.4-.4l.2-.2c-.3-.4-.8-.9-1.2-1.3.1 0 .2 0 .2-.1-.5-.6-.9-1.4-1.2-2.1l-.3-.1c0-.1 0-.2.1-.1-.1-.3-.1.1-.3 0-.1-.1 0-.3.1-.2-.5-.3-1.2-1-1.3-1.6h.1c-.2-.4-.6-.1-.7-.6h.1c-.5-.8-1.3-1.5-1.4-2.3-.3.1-.5-.8-.8-.6-.2-.6 0-.5-.4-1.2-.1-.2-.4-.1-.6-.2l.2-.2-.4-.1.1-.3-.2-.1v.3c-.3-.2-.5-.8-.4-.9l-.7-.5c.1 0 .2 0 .3.1-.5-.2.1-.2-.3-.4 0 .1-.1.1-.2.1 0-.3-.4-.6-.7-.8l.2-.1c-.4-.5-1-.9-1.5-1.4.1.2-.1.4-.3.3l.1-.2c-.2 0 .1.2-.2.2-.2-.2.1-.3.2-.3l-.3-.2.2-.1c-.2 0-.3-.6-.6-.5v-.1c-.5-.5-.9-.6-1.4-1-.1.2-.3 0-.5 0-.3-.3-.6-.7-1.1-1-.4-.1-.2.1-.4.1l-.1-.4c-.6-.2-.8-.4-1.7-.4.1.1.2.2.1.2-.2 0-.3-.2-.3-.3-.5.1-1-.1-1.4-.3-.5-.2-1-.3-1.3-.2l-.8.2c-.4 0 .2-.1-.1-.3-.4.2-.7.2-1.1.2-.3 0-.6 0-1 .2-.2-.1-.4-.1-.6-.1-.2.1-.5.2-.8.3-.2.2-.5.4-.7.5-.2.2-.4.4-.6.5h.1c0 .3-.2.2-.3.3.1 0 .2-.1.2 0-.9 1.6-1.3 3.3-1.6 4.7-.1.6.6.3.3 1.1l-.2-.2c.2 1.4.3 2.6.9 3.6-.1 0-.1 0-.2-.1-.1.3.3.8.5.8.1.2-.1.1-.1.2l.4.7s-.1 0-.1-.1c.1.1.3.7.4.4.1.4.5.7.5 1 .3.1.3.7.6.6-.3.2.2.8.5.9-.1 0 .1.2-.1.3.2.2.4.4.5.3 0 .7 1 .6.8 1.2.4.3.8.5 1.1.8l1.1.7-.9-.2c.7.4 1.3.4 1.9.9.2.1-.2.1-.3.1.4.1.8.3 1.1.5.4.1.7.2 1.1.2 0 0-.1.1-.2.1.1 0 .3.1.3 0h-.2c-.2-.2.7-.4.7-.5-.3.4.7.2.3.7.1 0 .2-.1.2-.2.1 0 .2.1 0 .2.5 0 .3-.2.7-.2l-.1.2c.2-.1.4-.3.8-.1 0 0 0 .1-.1.1.6 0 1.1-.2 1.7 0-.2.3.2.1.2.4h.4l-.1-.2c.3.1.6-.1.9.1l-.3.1.6.1-.3-.2c.3-.1 0-.4.4-.2-.1 0 .3.1.4.3.2 0 .4-.1.6 0l-.1.4c.2-.2.7.1 1-.1-.1 0-.1.2-.1.2l.2-.1c.1.1.1.1.1.2l.4-.1h-.1c.5.2 1 .2 1.4.4 0 .3-.4-.1-.3.2.7.2 1.5.1 2.1.4l-.1-.1.8.3c-.1 0-.2.2-.1.1.4.2.9.2 1.6.4l-.1.1c.2.2.6.3.9.5l.2-.1c.5.9 1.7.5 2.1 1.3h-.2l.6.3c0-.2 0-.1-.1-.3.1 0 .3 0 .5.1-.3-.1-.1.2-.1.4 0-.1.1-.1.1-.1.1.4.2-.3.5.2l-.1.1c.2.1.4.1.5.2 0 .2-.2 0-.3.1.2.1.7 0 .7.3l-.4-.1c.1.4.1.3.3.5l.3.4-.1-.1c.6-.2.6.3 1.2.4-.5 0-.2.1-.3.3 0 .1.1.3.1.3.3 0 .2.3.6.3 0 .1.2.2 0 .3.3.1 0-.1.1-.2.5.1.5.9 1.2 1.1.5.3.8.2 1.2.5 0 .2-.3.1-.3.1.1.3.2.4.5.6-.1 0-.1.1-.1.2.1.1.3-.1.4.2h-.4c.2.1.5.2.7.4-.1.1-.3 0-.4 0 .2.2.5.5.7.5v-.2c.1.1-.1.1-.2.1-.3-.1-.1-.3-.1-.4l.1.1c.3-.4-.5-.5-.7-.8l.3-.1-.4-.1c0-.1.1-.3.3-.2l-.2-.4-.4-.7c.1 0 .1-.2.2 0-.2-.5-.7-.4-.6-.7-.5-.4-.2.1-.7 0l.2-.6-.2.1c0-.1-.1-.2 0-.2-.3-.1 0 .1-.2.1-.1-.4-.7-.5-.5-.8-.2.1.1.3-.2.2.2-.4-.3-.2-.5-.5.2-.1.3.2.2-.2-.4.2-.4-.4-.6-.5-.2.2-.5-.2-.9-.4.1-.1-.5-.6-.8-.9-.2.2-.5-.1-.8-.2.1-.1.2-.2.3-.1l-.2-.1h-.4l.2-.1c-.3-.2-.7-.2-1.1-.5-.1.2.1.6-.4.5 0-.1.1-.3.2-.2 0 0-.2 0-.2-.1l.3-.1c-.2-.2-.2.1-.3 0 .1-.1-.1-.2 0-.2 0 0 .1.1.2.1-.2-.1-.3-.3-.3-.4 0 .1-.1.2-.2.1-.3-.2 0-.2-.2-.4-.1 0-.3-.2-.4 0-.1 0-.1-.1-.1-.2-.2 0-.8-.3-.7 0l-1.7-.8v-.1c-.4-.1-.8-.3-1.1-.2-.1 0-.2-.2-.1-.3-.3 0-.3 0-.7-.2h.3c-.3-.2-.4-.3-.8-.3.2-.1-.2-.3-.4-.3l.2.2c-.2 0-.3-.1-.5-.2l.2-.2c-.6-.5-1.4.1-1.8-.5-.2.1.4.2.1.4-.3-.1-.6-.6-.7-.6-.4-.2-.5.2-1 0 0 .1 0 .3-.3.3-.3-.1-.3-.5-.1-.5.1 0 .1 0 .1.1.1 0 .3 0 .2-.1l-.1.1c-.1-.1-.6-.2-.5-.3-.3 0-.1.1 0 .2-.4-.2-.7-.2-1.1-.3.1.1.1.2 0 .2-.6-.2-.3.1-.8.1-.2-.2.1-.3-.3-.3-.3-.1 0-.2.1-.3-.4.1-.8-.2-1-.3h.2-.4l.1.2c-.1 0-.2-.1-.2-.1-.1.1.1.3-.2.4-.2-.1-.5.1-.6-.2.5.1 0-.2.4-.2h-.3l.1-.1c-.5-.3-.3.3-.7.2.1-.1-.1-.3-.1-.2.2 0 .1.2-.1.3-.3-.1-.3 0-.5 0l.2.1c-.1.1-.2 0-.5 0l.1-.1-.8-.4v-.3c-.4 0-.3-.3-.7-.4 0 .2 0 .2-.3.2 0 0 .2.1.3.1.2.1.3.1.3.1h-.4c.2.1.4.1.5.2-.2 0-.2 0-.2.2-.1-.3-.6-.1-.7-.5l.2-.4c-.3-.4-.8-.3-1.2-.8l.1.2c-.2.1-.3-.2-.5-.3.1-.1.1-.2.1-.3-.1.1-.3-.3-.6-.1l-.1-.3c-.3-.4-.7-.1-1-.6.2 0 .2-.2.5 0-.1-.1-.2-.3-.3-.2 0-.1-.4-.2-.4-.4-.1 0-.2.1-.3-.1h.1c-.1 0-.2-.2-.3 0 0-.3-.2-.6-.4-.9-.2-.3-.4-.6-.3-.9-.2-.3-.5-.7-.6-.9h.1l-.6-.6c.1-.3.2.2.2 0 .4-.3-.3-.5-.1-1l.1.1c.1-.3-.4-.5-.4-1h.1c-.2-.1-.3-.3-.4-.5-.1-.2-.2-.4-.2-.6.2.1.1.2.3.1 0-.2-.3.1-.4-.3.1-.1.2-.4.4-.4v.3c.3-.2 0-.4.1-.6h.1c0-.5-.3-.6-.2-1.2l-.3-.3c-.3-.4.2-.3 0-.6l.3-.1c-.1-.2-.2-.8-.2-1.1.2.3.2.7.3 1 0-.2.1-.7-.1-.8 0 .1.1.2 0 .3-.2-.3-.2-.6-.1-1 .3.1.4-.1.5-.4.1-.2.3-.6.5-.5.2-.6.8-.8 1.4-1v-.5c.2-.1.2-.1.3-.1 0 0 .2 0 .3.1.1 0 .3.1.3.1l-.1.2c.4 0 .2.2.5.3-.1-.2.1-.2.3-.2l-.3-.2c.5-.3.5.4 1.1.1l-.2.1c.3-.1 1.1 0 1.4-.3 0 .1.1.2 0 .2h1.7999999999999998c.2 0 .3.1.4.2l-.1.1c.1 0 .3-.1.4 0 0 0-.1.1 0 .1s.4-.1.5.1l-.2.1c.5.4 1.1.2 1.6.4-.2.3.2.7.4.9.6.5 1.3.7 1.9 1.1.1.6 1.1 1.2 1.5 2 0-.1.2-.2.3-.1.1.2.5.2.3.4v-.1c-.1.3.2.5.4.8l.3-.2c.1 1 1.5 1.4 1.4 2.1.2.1.3.3.5.3l-.2.1c.3.4.4.7.9 1.1h-.2c.2.3.8 0 1 .2l-.2.3c.4.5.6 1.2 1.2 1.5 0 0-.1.1-.2 0 .2.2.5 1.1.8.7-.2.2.4.5.7.8l-.2.1c.4.1.5 0 .7.3 0 .1-.1.2-.1 0 .1.3.3.1.4.5h-.2c.2.3.2.2.5.3.2.1.3.5.2.7.1 0 .3 0 .4.2 0 .1-.1 0-.2 0 .2.5.7.5.7 1-.1 0-.1.1-.1.1-.2-.4-.4-.7-.4-.6-.2.1 0 .4-.4.3.3.1.8.4.9.7v.1l.1.2.1.3c-.1.1.2.4.3.5.2-.1.3.1.3-.2l-.1-.1-.1-.1c-.1-.1-.2-.2-.3-.4.2.1.3.1.3.4h.4l-.1 1c.4.4.8 1 1.3 1.1.1.1 0 .2 0 .3l-.2-.2c.3.2.5.7.8.7v.4h-.1c.2 1.1 1.5 1.1 1.7 2.3v-.2c.5 1.3 1.6 2.2 2 3.5.1.4.3.3.5.4l-.2.2.4.2c.4.4 0 1.1.7 1.5l.1-.2c.1.2.5.6.3.7 0 0 .2 0 .2.1l-.1.1.5.4c.2.5-.4.2-.1.8.2.2.7.5.7.3 0-.1-.1-.3 0-.3l.2.2c.3-.1.7-.1.6-.8l-.4-.2.1-.2.2.3c0-.2-.1-.3-.3-.4.1-.1.1-.2.1-.2l-.5-.2c.1-.1.3 0 .3-.3-.2-.1-.2.3-.4.1 0-.2.2-.3-.1-.4.1-.1.1-.1.2 0-.2-.1-.3-.4-.5-.4.1-.3-.4-.6-.1-.7-.1 0-.4-.2-.5-.3.5.1-.3-.6.1-.8-.4 0-.6-.7-1-1 0 0 .1 0 .1.1-.1-.2-.1-.3-.1-.5-.3.1-.5-.2-.8-.3.1-.4.4 0 .6-.2-.2.1-.5-.3-.6-.1 0-.3 0-.2.1-.4-.3.2-.2-.2-.5-.2 0-.4.2-.3 0-.5 0-.3.3-.1.3-.1zm-5.4-7.2l.1.1-.1-.1zm-.4-.6c0 .1.1.2.2.3 0 .1-.1.1-.2 0 .1 0 0-.2 0-.3zm-.3 2.2c-.1-.1-.1-.1-.1-.2.1 0 .1.1.1.2h.1c0-.1-.1 0-.1 0zM258.1 21.8c.1 0 .1-.1 0 0zM256.1 25.4zM252.2 11.1zM259.4 28zM260.8 29l.2.2c-.1-.1-.1-.2-.2-.2zM261.8 29.9zM241.9 22.8zM248.4 23.3h-.2c.1.1.2.2.2 0zM235.5 18.4zM247.9 23.3c.1.1.2.1.3.1l-.3-.1zM265.7 34.1zM265.8 34.2zM266 34.3l-.1-.1c0 .1 0 .1.1.1zM264.7 32.7zM264.4 32.3l.2.5h.1c-.2-.1-.2-.5-.3-.5zM263.4 30s.3.3.3.4c0-.1 0-.3.2-.1-.3-.7-.1.1-.5-.3zM262.4 29c.2.1.1-.1.1-.1-.2-.1-.2-.1-.1.1zM253.2 24l.1-.2c-.2 0 0 .1-.1.2zM251 24.3l.2.1.1-.1zM250.3 22.6h.1-.4zM235.9 15.7l-.2.2c.2.1.4-.1.2-.2zM234 9.1c.1-.1.2-.3.1-.4l-.1.4zM249.5 10.8l-.2-.1.2.2z"/></g><path fill="#fff" d="M267.2 32.5s-16.7-29.8-25.2-31.3-8.1 2.2-8.6 6.1c-.5 3.9 4.6 11.9 9.7 12.2 5.1.3 18.8 3.7 24.1 13z"/><g fill="#1DA9E5"><path d="M266.7 32.8c.1 0 .2-.1.1-.2h-.3l.2.2zM266.6 31.7c-.2-.1-.5-.1-.6.1.3 0 .2.1.6.1.1.1.1.3 0 .3l.2.2c.1-.3-.1-.5-.3-.6 0 0 .1 0 .1-.1zM256.1 22.7zM247.8 19.8h.1c0-.1-.1 0-.1 0zM246.4 19.2zM256.1 22.7l-.2-.2c-.1.1.1.1.2.2zM265 30.6s.1 0 .1.1l-.1-.1zM259.6 24.3h.2-.2zM262.1 26s-.2.1-.3.2c.1 0 .1-.1.2 0l.1-.2zM265.3 29.5zM257.7 23.3c0-.1.1-.1 0 0zM266.3 29.1zM267.1 32.6h-.1.1zM243.6 18.6zM236.9 2c-.3-.1.3-.3-.1-.4.1 0-.2.4.1.4zM265 30.5zM236.8 1.6zM238.7 16.3v.1-.1zM242.1 18.8zM236.9 14.8c0-.1 0-.1-.1-.1l.1.1zM235.5 12.8v.1-.1zM262.2 22.6l-.1.2c.1-.1.4.2.1-.2zM265.1 30.5h-.1.1zM235.5 15.8l-.2-.4c0 .1.1.2.2.4zM251.6 7.9zM234.6 14.4v-.3h-.1l.1.3zM262.1 22.8zM263.9 24.8c-.2-.3-.3 0-.5 0-.3-.3.1-.3.1-.5-.2-.2-.5-.3-.6-.4 0 0 0-.1.1-.1-.3-.1-.5-.8-.9-.9v-.1c-.1.1-.2.2-.3.2-.1-.1-.3-.2-.2-.3.1.1.1.1.2.1l-.2-.1c.1-.3.2.2.4.1-.3-.2-.7-.5-.7-.7.2-.2.4.5.4.1l.1.4c.2-.5.1.2.3-.2-.2-.5-.4-.4-.7-.9-.2 0-.2.1-.3.1-.6-.5.2-.9-.4-1.2-.2 0-.5.1-.6-.3h.3c-.3-.5-.5 0-.7-.6l.3.2c0-.4-.3-.1-.4-.4l.2-.2c-.3-.4-.8-.9-1.2-1.3.1 0 .2 0 .2-.1-.5-.6-.9-1.4-1.2-2.1l-.3-.1c0-.1 0-.2.1-.1-.1-.3-.1.1-.3 0-.1-.1 0-.3.1-.2-.5-.3-1.2-1-1.3-1.6h.1c-.2-.4-.6-.1-.7-.6h.1c-.5-.8-1.3-1.5-1.4-2.3-.3.1-.5-.8-.8-.6-.2-.6 0-.5-.4-1.2-.1-.2-.4-.1-.6-.2l.2-.2-.4-.1.1-.3-.2-.1v.3c-.3-.2-.5-.8-.4-.9l-.7-.5c.1 0 .2 0 .3.1-.5-.2.1-.2-.3-.4 0 .1-.1.1-.2.1 0-.3-.4-.6-.7-.8l.2-.1c-.4-.5-1-.9-1.5-1.4.1.2-.1.4-.3.3l.1-.2c-.2 0 .1.2-.2.2-.2-.2.1-.3.2-.3l-.5-.4.2-.1c-.2 0-.3-.6-.6-.5v-.1c-.5-.5-.9-.6-1.4-1-.1.2-.3 0-.5 0-.3-.3-.6-.7-1.1-1-.4-.1-.2.1-.4.1l-.1-.4c-.6-.2-.8-.4-1.7-.4.1.1.2.2.1.2-.2 0-.3-.2-.3-.3-.5.1-1-.1-1.4-.3-.5-.2-1-.3-1.3-.2l-.8.2c-.4 0 .2-.1-.1-.3-.4.2-.7.2-1.1.2-.3 0-.6 0-1 .2-.2-.1-.4-.1-.6-.1-.2.1-.5.2-.8.3-.2.2-.5.4-.7.5-.2.2-.4.4-.6.5h.1c0 .3-.2.2-.3.3.1 0 .2-.1.2 0-.9 1.6-1.3 3.3-1.6 4.7-.1.6.6.3.3 1.1l-.2-.2c.2 1.4.3 2.6.9 3.6-.1 0-.1 0-.2-.1-.1.3.3.8.5.8.1.2-.1.1-.1.2l.4.7s-.1 0-.1-.1c.1.1.3.7.4.4.1.4.5.7.5 1 .3.1.3.7.6.6-.3.2.2.8.5.9-.1 0 .1.2-.1.3.2.2.4.4.5.3 0 .7 1 .6.8 1.2.4.3.8.5 1.1.8l1.1.7-.9-.2c.7.4 1.3.4 1.9.9.2.1-.2.1-.3.1.4.1.8.3 1.1.5.4.1.7.2 1.1.2 0 0-.1.1-.2.1.1 0 .3.1.3 0h-.2c-.2-.2.7-.4.7-.5-.3.4.7.2.3.7.1 0 .2-.1.2-.2.1 0 .2.1 0 .2.5 0 .3-.2.7-.2l-.1.2c.2-.1.4-.3.8-.1 0 0 0 .1-.1.1.6 0 1.1-.2 1.7 0-.2.3.2.1.2.4h.4l-.1-.2c.3.1.6-.1.9.1l-.3.1.6.1-.3-.2c.3-.1 0-.4.4-.2-.1 0 .3.1.4.3.2 0 .4-.1.6 0l-.1.4c.2-.2.7.1 1-.1-.1 0-.1.2-.1.2l.2-.1c.1.1.1.1.1.2l.4-.1h-.1c.5.2 1 .2 1.4.4 0 .3-.4-.1-.3.2.7.2 1.5.1 2.1.4l-.1-.1.8.3c-.1 0-.2.2-.1.1.4.2.9.2 1.6.4l-.1.1c.2.2.6.3.9.5l.2-.1c.5.9 1.7.5 2.1 1.3h-.2l.6.3c0-.2 0-.1-.1-.3.1 0 .3 0 .5.1-.3-.1-.1.2-.1.4 0-.1.1-.1.1-.1.1.4.2-.3.5.2l-.1.1c.2.1.4.1.5.2 0 .2-.2 0-.3.1.2.1.7 0 .7.3l-.4-.1c.1.4.1.3.3.5l.3.4-.1-.1c.6-.2.6.3 1.2.4-.5 0-.2.1-.3.3 0 .1.1.3.1.3.3 0 .2.3.6.3 0 .1.2.2 0 .3.3.1 0-.1.1-.2.5.1.5.9 1.2 1.1.5.3.8.2 1.2.5 0 .2-.3.1-.3.1.1.3.2.4.5.6-.1 0-.1.1-.1.2.1.1.3-.1.4.2h-.4c.2.1.5.2.7.4-.1.1-.3 0-.4 0 .2.2.5.5.7.5v-.2c.1.1-.1.1-.2.1-.3-.1-.1-.3-.1-.4l.1.1c.3-.4-.5-.5-.7-.8l.3-.1-.4-.1c0-.1.1-.3.3-.2l-.2-.4-.2-.1c.1 0 .1-.2.2 0-.2-.5-.7-.4-.6-.7-.5-.4-.2.1-.7 0l.2-.6-.2.1c0-.1-.1-.2 0-.2-.3-.1 0 .1-.2.1-.1-.4-.7-.5-.5-.8-.2.1.1.3-.2.2.2-.4-.3-.2-.5-.5.2-.1.3.2.2-.2-.4.2-.4-.4-.6-.5-.2.2-.5-.2-.9-.4.1-.1-.5-.6-.8-.9-.2.2-.5-.1-.8-.2.1-.1.2-.2.3-.1l-.2-.1h-.4l.2-.1c-.3-.2-.7-.2-1.1-.5-.1.2.1.6-.4.5 0-.1.1-.3.2-.2 0 0-.2 0-.2-.1l.3-.1c-.2-.2-.2.1-.3 0 .1-.1-.1-.2 0-.2 0 0 .1.1.2.1-.2-.1-.3-.3-.3-.4 0 .1-.1.2-.2.1-.3-.2 0-.2-.2-.4-.1 0-.3-.2-.4 0-.1 0-.1-.1-.1-.2-.2 0-.8-.3-.7 0l-1.7-.8v-.1c-.4-.1-.8-.3-1.1-.2-.1 0-.2-.2-.1-.3-.3 0-.3 0-.7-.2h.3c-.3-.2-.4-.3-.8-.3.2-.1-.2-.3-.4-.3l.2.2c-.2 0-.3-.1-.5-.2l.2-.2c-.6-.5-1.4.1-1.8-.5-.2.1.4.2.1.4-.3-.1-.6-.6-.7-.6-.4-.2-.5.2-1 0 0 .1 0 .3-.3.3-.3-.1-.3-.5-.1-.5.1 0 .1 0 .1.1.1 0 .3 0 .2-.1l-.1.1c-.1-.1-.6-.2-.5-.3-.3 0-.1.1 0 .2-.4-.2-.7-.2-1.1-.3.1.1.1.2 0 .2-.6-.2-.3.1-.8.1-.2-.2.1-.3-.3-.3-.3-.1 0-.2.1-.3-.4.1-.8-.2-1-.3h.2-.4l.1.2c-.1 0-.2-.1-.2-.1-.1.1.1.3-.2.4-.2-.1-.5.1-.6-.2.5.1 0-.2.4-.2h-.3l.1-.1c-.5-.3-.3.3-.7.2.1-.1-.1-.3-.1-.2.2 0 .1.2-.1.3-.3-.1-.3 0-.5 0l.2.1c-.1.1-.2 0-.5 0l.1-.1-.8-.4v-.3c-.4 0-.3-.3-.7-.4 0 .2 0 .2-.3.2 0 0 .2.1.3.1.2.1.3.1.3.1h-.4c.2.1.4.1.5.2-.2 0-.2 0-.2.2-.1-.3-.6-.1-.7-.5l.2-.4c-.3-.4-.8-.3-1.2-.8l.1.2c-.2.1-.3-.2-.5-.3.1-.1.1-.2.1-.3-.1.1-.3-.3-.6-.1l-.1-.3c-.3-.4-.7-.1-1-.6.2 0 .2-.2.5 0-.1-.1-.2-.3-.3-.2 0-.1-.4-.2-.4-.4-.1 0-.2.1-.3-.1h.1c-.1 0-.2-.2-.3 0 0-.3-.2-.6-.4-.9-.2-.3-.4-.6-.3-.9-.2-.3-.5-.7-.6-.9h.1l-.6-.6c.1-.3.2.2.2 0 .4-.3-.3-.5-.1-1l.1.1c.1-.3-.4-.5-.4-1h.1c-.2-.1-.3-.3-.4-.5-.1-.2-.2-.4-.2-.6.2.1.1.2.3.1 0-.2-.3.1-.4-.3.1-.1.2-.4.4-.4v.3c.3-.2 0-.4.1-.6h.1c0-.5-.3-.6-.2-1.2l-.1.1c-.3-.4.2-.3 0-.6l.3-.1c-.1-.2-.2-.8-.2-1.1.2.3.2.7.3 1 0-.2.1-.7-.1-.8 0 .1.1.2 0 .3-.2-.3-.2-.6-.1-1 .3.1.4-.1.5-.4.1-.2.3-.6.5-.5.2-.6.8-.8 1.4-1v-.5c.2-.1.2-.1.3-.1 0 0 .2 0 .3.1.1 0 .3.1.3.1l-.1.2c.4 0 .2.2.5.3-.1-.2.1-.2.3-.2l-.3-.2c.5-.3.5.4 1.1.1l-.2.1c.3-.1 1.1 0 1.4-.3 0 .1.1.2 0 .2h1.7999999999999998c.2 0 .3.1.4.2l-.1.1c.1 0 .3-.1.4 0 0 0-.1.1 0 .1s.4-.1.5.1l-.2.1c.5.4 1.1.2 1.6.4-.2.3.2.7.4.9.6.5 1.3.7 1.9 1.1.1.6 1.1 1.2 1.5 2 0-.1.2-.2.3-.1.1.2.5.2.3.4v-.1c-.1.3.2.5.4.8l.3-.2c.1 1 1.5 1.4 1.4 2.1.2.1.3.3.5.3l-.2.1c.3.4.4.7.9 1.1h-.2c.2.3.8 0 1 .2l-.2.3c.4.5.6 1.2 1.2 1.5 0 0-.1.1-.2 0 .2.2.5 1.1.8.7-.2.2.4.5.7.8l-.2.1c.4.1.5 0 .7.3 0 .1-.1.2-.1 0 .1.3.3.1.4.5h-.2c.2.3.2.2.5.3.2.1.3.5.2.7.1 0 .3 0 .4.2 0 .1-.1 0-.2 0 .2.5.7.5.7 1-.1 0-.1.1-.1.1-.2-.4-.4-.7-.4-.6-.2.1 0 .4-.4.3.3.1.8.4.9.7v.1l.1.2.1.3c-.1.1.2.4.3.5.2-.1.3.1.3-.2l-.1-.1-.1-.1c-.1-.1-.2-.2-.3-.4.2.1.3.1.3.4h.4l-.1 1c.4.4.8 1 1.3 1.1.1.1 0 .2 0 .3l-.2-.2c.3.2.5.7.8.7v.4h-.1c.2 1.1 1.5 1.1 1.7 2.3v-.2c.5 1.3 1.6 2.2 2 3.5.1.4.3.3.5.4l-.2.2.4.2c.4.4 0 1.1.7 1.5l.1-.2c.1.2.5.6.3.7 0 0 .2 0 .2.1l-.1.1.5.4c.2.5-.4.2-.1.8.2.2.7.5.7.3 0-.1-.1-.3 0-.3l.2.2c.3-.1.7-.1.6-.8l-.4-.2.1-.2.2.3c0-.2-.1-.3-.3-.4.1-.1.1-.2.1-.2l-.5-.2c.1-.1.3 0 .3-.3-.2-.1-.2.3-.4.1 0-.2.2-.3-.1-.4.1-.1.1-.1.2 0-.2-.1-.3-.4-.5-.4.1-.3-.4-.6-.1-.7-.1 0-.4-.2-.5-.3.5.1-.3-.6.1-.8-.4 0-.6-.7-1-1 0 0 .1 0 .1.1-.1-.2-.1-.3-.1-.5-.3.1-.5-.2-.8-.3.1-.4.4 0 .6-.2-.2.1-.5-.3-.6-.1 0-.3 0-.2.1-.4-.3.2-.2-.2-.5-.2 0-.4.2-.3 0-.5-.2-1.1.1-.9.1-.9zm-5.4-7.2l.1.1-.1-.1zm-.4-.6c0 .1.1.2.2.3 0 .1-.1.1-.2 0 .1 0 0-.2 0-.3zm-.3 2.1c-.1-.1-.1-.1-.1-.2.1.1.1.2.1.2h.1-.1zM258.1 19.2c.1 0 .1-.1 0 0zM256.1 22.8zM252.2 8.4v.1zM259.4 25.4zM260.8 26.4l.2.2c-.1-.1-.1-.2-.2-.2zM261.8 27.3c.1 0 .1-.1 0 0zM241.9 20.2zM248.4 20.7h-.2c.1.1.2.1.2 0zM235.5 15.8zM247.9 20.7c.1.1.2.1.3.1-.1-.1-.2-.1-.3-.1zM265.7 31.5zM265.8 31.6zM266 31.7l-.1-.1s0 .1.1.1zM264.7 30.1zM264.4 29.7l.2.5h.1c-.2-.1-.2-.5-.3-.5zM263.4 27.4s.3.3.3.4c0-.1 0-.3.2-.1-.3-.7-.1.1-.5-.3zM262.4 26.4c.2.1.1-.1.1-.1-.2-.1-.2-.1-.1.1zM253.2 21.4l.1-.2c-.2 0 0 .1-.1.2zM251 21.7l.2.1.1-.1zM250.3 20h.1-.4zM235.9 13.1l-.2.2c.2 0 .4-.1.2-.2zM234 6.5c.1-.1.2-.3.1-.4l-.1.4zM249.5 8.2l-.2-.1.2.2z"/></g><path fill-rule="evenodd" clip-rule="evenodd" fill="#29235C" d="M4.5 66.7c4.7 12.2 4.1 20.7 4.9 34 .3 5.4.8 13.1 4 17.2 7.1 9.1 24.6 1.7 34.2.4 32-4.5 64.6-2.8 96.8-5.3 27.5-2.1 55-1.5 82.5-1.9 20.3-.3 40.2-2.7 60.6-2.5 9.6.1 12.5 1.1 11-11.3-1.2-10.3-2.9-19.1-2.8-29.7.1-5.4-.2-9.8-1.3-14.8-8.7-.4-17.5-.3-26.2.3-23.9 1.9-47.6 2.2-71.5 3.6-19.1 1.1-38.4-.6-57.4 2.5-16.9 2.8-33.8 4.5-50.9 5.4-20.6 1-41 .7-61.6.8-4.5 0-16.4-.1-18.6 3.6"/><g fill="#413C6E"><path d="M7.8 68.7c-.1.3.1.3.8-.6l.2-.4.2-.4s-.3.3-.7.6c-.2.4-.5.8-.5.8zM14.2 66.2c1.1-.4 2.4-.8 1.6-1-1.1.5-1.4.4-2.6 1-1 .2-1.7.4-1.6.2-.3.2-1.5.5-1.9 1 1.3-.4 2.8-.9 4.5-1.4.4 0 .1.1 0 .2zM110.8 63.4h-.6c.1.1.4.1.6 0zM170.3 57.8c-.5 0-.6 0-.7.1.4 0 .8 0 .7-.1zM180.5 58.1h-.6c.2 0 .5.1.6 0zM110.8 63.4l1.6-.1c.1 0-.8.1-1.6.1zM27.5 64.6c-.3 0-.6 0-.9.1.3-.1.6-.1.9-.1zM84.5 65.6h-.5l-.4.1.9-.1zM64.2 66.1c.5 0 .6-.3.8-.4-.3.1-.6.2-1 .2 0 .1 0 .1.2.2zM32.1 65.7h-.6.6zM99 64.8s.1.1.2.1c-.1-.1-.1-.1-.2-.1zM7.5 89.7c.1.1.1 0 0 0zM4.5 66.7l.2.3h.2l-.4-.3zM199.3 57.9c-.6.1-.3 0 0 0zM276.5 107.5c2 .2-3.2.4-.2.6-.3-.1 2.7-.5.2-.6zM28 64.6h.8-.8zM276.3 108.1h.3c-.1.1-.2.1-.3 0zM242.3 55.9l-.4-.1s.1 0 .4.1zM210.2 56.8h.8-.8zM259 54.6c.4 0 .6 0 1.2-.1h-.2c-.3.1-.5.1-1 .1zM276.3 53.5h-.8.8zM36 122c-.4 0-.6 0-.8-.1.3.2-2.2.8.8.1zM27.5 64.7c.1-.1.2-.1.5-.1h-.6c0 .1 0 .1.1.1zM259.5 52.3l2.7-.1c-.7 0-1.7.1-2.7.1zM159.8 113.2l-.6.1c.2 0 .5 0 .6-.1zM270.4 51.6c.5.1 1 .1 1.6.1l.3-.1h-1.9zM35.2 121.9zM16.4 122.3c1.4.6 1.7.6 1.8.5.1-.1-.1-.3.2-.3 1.6.4 2 .5 2.1.6.1.1-.1.2.5.4 2.1.2 3.7-.2 5.2-.2.1.1.4.1.1.2 2.1-.4 6.3-.7 8.6-1.6h.3c-.4-.1-.5-.3-.5-.4 1.2-.3 2.1-.7 2.6-.6-.7.2-.7.3-1.1.4l1.2-.4c1.2.1-1.6.5-1.6.7 2.3-.6 5-1.6 6.8-1.9.5.2-4.2 1.1-1.7.8l-2.8.5c2.3 0-1.7.4.4.5 3.7-.8 4.1-1.2 7.7-1.8.8-.3-.3-.2.5-.6 5.2-1.1 4.2.3 8-.6 1-.3 1.3-.8 4.1-.9l-.9.5c3.6-.3 2-.7 5.8-.8-.7.2-2.8.4-2.3.4 2.5.1 1.7-.4 3.6-.5l.4.3c1.9-.2 3.9-.4 6-.6 2.1-.2 4.2-.4 6.3-.5-.2.1-1 .3 0 .3 5.4-.4 11.5-.5 16.7-.4l2-.3c.5 0 .9.1.4.2 2 .1.1-.2 1.1-.3 1.2-.1 1.5.1.8.2 3.6-.3 10.2-.8 14-.6l-.7.1c2.9 0 3.3-.7 6-.5l-.5.1c6.4-.1 13.4-.6 18.3-.5.9-.4 6.3-.2 6.7-.8 3.7 0 2.6.2 7.8.1 1.4-.1 2-.5 3.7-.6l.1.3 2.3-.4 1.2.3 1.6-.2c-.6 0-1.3-.1-1.3-.2 2.5-.3 6 0 6.1.1l5.9-.5c-.1.1-1.1.2-1.9.3 3.1-.4.6.3 3.4-.1-.4-.1.2-.2.3-.3 1.4.1 4.7.1 7.1 0l-.5.2c4.4 0 9.2-.2 14.1-.3-1.8-.1-1.4-.5.1-.5l.6.3c.9-.2-1.5-.1.4-.4 1.8 0 1.2.4.2.5l2.2-.1c.1.1-.4.2-.5.3.9-.2 3.8.3 5.1-.1l.1.1c4.9 0 7.1-.1 11.1-.2.1-.3 1.6-.2 2.8-.5 2.9.1 6.2.3 9.7.2 2.5-.2.7-.2 1.8-.4.2.3 3.7.2 1.9.4 4.2-.1 5.4-.2 10.8-.6-.6-.1-1.2-.1-.9-.2 1-.1 2.2 0 2.1.1h-.3c6-.7 13.9-.1 18.7-.9h-.3l4.9-.6c2.3-.1-1.4.3.3.3 5.3-.7 8.4-.4 12.8-.8 1.7.3 4.7.2 7.9.2 3.2-.1 6.4 0 8.8.2l-.3-.2c.6-.1 1-.1 1.3-.1.4 0 .7.1 1.2 0-.2-.1-1.4 0-.7-.2.7-.1 1.4-.2 2.1-.5.4-.1.7-.4 1.1-.6.3-.2.7-.6.9-.9 1-1.4 1.2-2.9 1.3-4.3.2-2.8-.2-5.4-.4-8-.5-5.2-1.2-10.5-1.6-15.6-.3-3.7-1.2-2-1-6.8l.4 1.3c-.2-1.9-.3-3.8-.3-5.7 0-1.9 0-3.9-.1-5.9-.1-2-.2-3.9-.5-5.9-.1-1-.3-1.9-.5-2.9l-.5-2.2c0-.1 0-.2-.1-.2h-2c.7 0 .8-.1 2-.1-.6-.1-1.5-.2-2.6-.2h-1.9c-1.3 0-2.4.1-2.4.2-1.2 0-.3-.2-1-.3-1.6-.2-4 .3-4.8 0-.1 0 .4-.1.7-.1-1 .1-4.8 0-3.8.3-2.8-.1-5.4.3-7.6.2-1.4.4-4.8.2-5.3.7.2-.5-4.9 0-6.7.3.6-.2-1.5 0-.9-.3-2 .1-3.9.3-3.5.5-3.7-.3-7.4.8-9.6.3-6 .5-11.5.9-16.9 1.2.2-.5 6-.3 5.7-.7-5.1.4-8.1.9-13.1 1-1.3 0 .7-.2 1.2-.3-5.1.4-9.9.4-14.5.8l1-.2c-.9.1-2.1 0-2 .2l.9-.1c1.4.2-3.5.8-3.7 1 1.5-.7-4.5.1-2.1-.8-.6.1-1.3.2-1.2.3-.9 0-1.2-.1-.3-.3-3.2.3-2.1.4-5 .6 0-.1.6-.2.9-.3-1.5.3-2.9.6-5.4.5.1-.1-.1-.1.6-.2-4.2.2-7.2.7-11.8.6 1.4-.4-1.6-.1-1.8-.5l-2.5.1 1 .2c-2.2 0-4.1.3-6 .2l1.6-.2-4.1.1 2.3.1c-2.2.2.2.5-2.7.4.6 0-2.2 0-3.3-.2-1.1.1-2.2.3-3.8.2-.4-.1.3-.4.1-.5-1.1.3-5.1.3-6.5.7.4-.1.5-.3.3-.3l-.9.3c-1 0-1.2 0-1-.2-3.1.2 1 .4-2.6.5.3 0 .1-.1.7-.1-3.6.2-7 .8-10.3 1.2-1-.2 2.9-.5 1.7-.7-2.4.4-4.8.9-7.3 1.4-2.4.5-4.8.9-7.1 1.2l.9-.1c-.6.6-3.5.2-5.8.8.6-.1.7-.4.6-.3-3.2.3-6.4.9-11.2 1.6l.6-.2c-1.9.1-4.9.4-7 .5-.6.2-1.7.3-1 .4-6.3-.2-11.9 1.3-17.5.9.7 0 1.6-.2 1-.2l-4.7.3c.4.2.6.1 1.6.2-.6.2-1.9.3-3.1.4 2.1-.2 0-.4-1-.5.2.1-.2.2-.1.2-2.5-.3-.4.5-3.8.3l.2-.1c-1.3.1-2.4.3-3.8.3-.6-.3 1.3-.2 1.4-.4-1.9.1-3.8.6-5.5.4l2.8-.2c-1.9-.3-2.1-.2-3.5-.2h.1l-3.2-.1.8.1c-2.4.7-4.9.2-8.1.7 3.1-.5.5-.3.8-.6-.8-.1-2.1-.2-1.7-.2-1.5.2-2.5-.2-4.7.2-.1-.1-1.6 0-1.3-.3-2 .1.5.2.3.3-3.1.3-7.2-.4-11.6.1-3.8.2-4.5.5-8 .7-1.2-.2 1-.4 1-.4-1.9-.1-3.4-.1-5.2 0 .4-.1 0-.2-.6-.3-1.4 0-1 .4-2.9.2.3-.1.7-.3 1.4-.4-1.7.1-3.4.3-5.2.4-.5-.1 1.1-.3 1.7-.4-2 .1-5.2.4-5.8.8h1.2c-.7.1-.4-.2.1-.3 1.7-.3 2.5-.1 2.6 0l-1.3.1c1.3.5 5.1-.3 7.6-.2l-1.1.4 2.6-.3c.6.1.9.3-.3.4 1.8.2 1.6-.1 3.2.1.2 0 .1.1-.1.1l1.8-.1c-.3.1.3.3-.8.2 3.2.2 5.1-.3 6.3 0h-.3c4.4-.1.4-.3 3.7-.7l2.2.7.4-.3c.5 0 1.4 0 1.2.2 1.7-.2-.3-.1.7-.3 2.2.3 6-.1 6.5.3.8-.2-2.1-.2.2-.3.7.5 2.7-.1 4.7.1-.6.3-2.5.1-.5.4 1.2-.5 3.9.1 5.6 0 .1-.4 3.7-.2 6.5-.4-.2.1 5.3.1 8 .1l-.1.1c.5-.4 3.2-.4 5.2-.6-.1.2-.4.3-1.5.5l1.9-.1c.4-.1 1-.2 2.2-.3l-.5.3c2.5-.1 5-.6 8.2-.6.2-.3-2.6-.6.8-.9.1.1.3.4-.6.5.3 0 1-.2 1.6-.2l-1.3.3c1.5 0 .7-.2 1.9-.3 0 .2.9.1.7.2-.3 0-1 0-1.5.1 1.3-.1 2.9 0 3.4.1-.1-.1 0-.3.9-.4 2.5-.2.9.2 2.3.2.6-.2 2.2-.2 2.2-.5.7-.1.9.1 1.2.1 1.3-.2 6-.6 4.5-.8h-.3.2c4.2-.7 8.7-.7 12.8-1.4v.1c2.5-.4 5.5-.8 7.2-1.2.7-.1 1.7-.1 1.5.1 1.9-.3 2.1-.5 4.8-.7-1.9.5.7 0-1.9.4 2.5-.3 3-.2 5.6-.9-.8.4 1.9 0 3-.2l-1.7.1c1.3-.2 2.4-.4 3.6-.5l-.6.4c5-.2 9-1.6 12.9-1.1l-1.6-.3c2.3-.1 4.8.3 5.5.3 3.2.1 3-.6 6.3-.5-.4-.1-.8-.4 1.7-.6 2.3 0 2.9.5 1.4.6-.6 0-.8 0-.8-.1-.8 0-1.7.1-.8.2l.3-.1c1.2.1 4.4.1 3.6.3 1.8-.1.8-.2-.6-.3 3 .2 4.7 0 7.7.1-.5-.1-.9-.2-.5-.2 4.5.1 2-.2 5-.3 1.7.2-.6.4 2.5.2 1.9.1.4.3-.3.4 2.8-.3 5.3 0 6.9 0l-1.5.1c.9-.1 1.6-.1 2.4-.2l-.9-.2c.9 0 1.6 0 1.6.1.9-.2-.7-.4 1.1-.7 1.2.1 3.5-.3 3.9 0-3.6.1.4.3-2.6.5.6-.1 1.3-.1 2.2-.1.1 0-.1.1-.4.1 3.5.1 1.6-.4 5.2-.6-.4.2.9.3 1.4.2-1.4.1-.7-.3.6-.5 2.3 0 2.5-.2 3.7-.3h-1.4c.5-.2 1.6-.2 3.2-.4.1.1-1.5.2-.9.2 1.8-.4 4.1.1 6.5-.2 1.2.1.1.3 1.1.4 2.8-.3 3 .1 6-.2-.9-.2-1-.1 1.1-.5l-4.8.4 3.1-.5c-1.5.1-3.1.3-3.9.3 1.5-.3 1.3-.2.6-.4 2 .3 3.9-.4 6.3-.2v.6c3.5.1 6.1-.5 10.7-.6h-1.5c.6-.3 2.8-.2 4.2-.3-.1.2.8.2 1.4.3-.1-.1 3.3-.1 3.7-.5l2 .2c3.6-.1 4.1-.8 7.6-.9-1 .3.6.3-1.8.6 1.2-.1 2.2-.1 2.2-.2.7.1 3.2-.5 4.3-.3.5-.1.6-.3 1.9-.4.1 0 0 .1 0 .1 0-.1 2-.3.9-.4 3.6.4 10-.8 13.2-.4 2.5-.2 5.6-.3 7.9-.3-.1.1 0 .1-.4.1 3.2.2 2-.6 5.6-.3 1.8.4-1.9.1-.8.3.2.3 1.3.3 2.7.3h2.7c.1 0 .2 0 .2.1v.3l-.1-.2v.5c0 .1 0 .2.1.3.1.5.2 1.1.4 1.7.3 1.2.5 2.6.6 4.1 0 0-.1-.1-.1 0 .2 1 .4 2.5.5 4.1.1 1.6.1 3.3.2 4.8-.2-.9-.1-1.3-.4-.8 0 1.3.4-.4.5 2.2-.1.9-.2 2.8-.4 3 0 0 0-.6-.1-1.2v-1.2c-.3 1.3.1 3.2.2 4.5l-.2-.2c.3 3.8.7 3.8 1.2 7.9l.1-.4c.7 2.2 0 1.9.6 4.1l-.3.7c.3 1.4 1.1 5.1 1.5 7.7-.5-1.4-1-4.5-1.5-6.4.2 1.4.7 4.9 1 5.6-.1-.6-.3-1.3-.3-1.9.5 1.7 1 4 1.3 6.9-.4-.2-.2 1.7-.4 3.8-.1 1-.3 2.1-.8 2.8-.5.6-1.2.9-1.6.8-1 .4-2.2.5-3.5.5-1.3 0-2.6 0-3.9-.1-2.7-.1-5.4-.2-8.4-.1 2.1.6-1.8.1-1.4.7-1.4.1-1.9.1-2.1 0l-4.2-.2c-1-.1 1.3-.2 1.2-.3-3.1.1-1.3-.2-3.3-.3.4.2-1.1.3-2.8.4l2.5.2-8 .2 1.3-.3c-2.2.2-8.1.5-10.3 1.1-.4 0-.9-.2 0-.3-5.3.3-11.7 1.2-15.8 1.1l.4-.2c-1 .1-1.7.4-2.9.3.1-.1.4-.2-.1-.2-.5.1-2.6.3-3.9.3l1.1-.2c-5.1-.1-7.9.6-12.2.7 0-.4-4-.5-6.1-.6l.1-.1c-6 0-10.2.4-15.7.6-3.4-.5-11.7-.1-17.2-.3.8.1-.1.3-1.1.4-1.3-.1-3.6.4-3.4 0h.5c-1-.4-3.7-.2-5.7-.2l-.3.5c-5.5-.6-14.3.8-17.3.3l-4.2.5.1-.3c-3.7.2-5.5.3-9.9.7l.9-.3c-2.5.2-3.1 1-5.5 1.2l-.7-.4c-4.4.2-8.9 0-13.3.6.1-.1.2-.2.9-.2-2.1.1-8.1 0-7.3.5-.1-.4-4.6.1-7 .3l.4-.3c-2 .4-2.1.5-4.9.7-.7 0-.6-.2.3-.2-2.2-.1-1.7.3-4.4.2l1-.2c-2.3 0-2.1.1-3.4.4-1.4.2-4.4.1-4.7-.2-.3.2-1.6.4-2.9.4-.2-.1.3-.2.6-.2-3.8-.1-5.7.5-8.3.4-.1-.1-.2-.1-.5-.1 3-.1 5.5-.2 5.3-.2 0-.3-2.5-.2-.5-.6-2 .3-5.3.8-7.7.8-.1 0-.2 0-.3-.1h.2c-.6 0-1.1.1-1.5.1h-2c-.3-.2-2.8.1-4.1.1.1.3-1.5.3 0 .5-.2 0 .2 0 1-.1.2 0 .4 0 .5-.1h-.1c.8-.1 1.9-.1 3-.2-1 .2-2 .4-3.3.3-.6.2-1.3.5-1.7.6-1.7-.3-5-.2-5.4-.4-3.7.5-8.8 1-11.1 1.8-1.1.2-1.2 0-1.6 0 .6-.1 1.3-.2 1.7-.3-2.1.4-6.3.8-6.7 1.4-2.7.4 1.4-.6-2.2.2l.5-.2c-3.6.5-6.4 1.5-9.3 2.3-2.9.8-6 1.6-10 1.3.5 0 .8 0 .9.1-2.2 0-4.5-.2-6.7-.9-2.1-.7-4.1-1.9-5.4-3.8-1.3-1.8-2-4.1-2.5-6.3s-.6-4.5-.7-6.8c-.1-2.6-.3-2.8-.6-4.4l.3-.6-.5-2.7c-.5-3.8.5-6.6-.4-11.4l.7 1.6c-.1-1.7-.7-5.5-.4-5.2-.1-.2-.3-.5-.3-1.2l.1-.1s-.3-1-.5-2.1c-.1-.5-.3-1-.4-1.4-.1-.4-.1-.7-.1-.7-.3-1.6-.2-1.5 0-1.6.1-.1.2-.4-.5-2.7-.6-1.7-2.1-4.7-2-4 .2.7.5 1.8.4 1.9l-.6-1.6c-.5-.1-1.4-1.1-.4 2.7 0 0 .3.6.6 1.3.3.6.5 1.3.5 1.3v.9s-.2-.6-.3-1.1c-.2-.6-.4-1.1-.4-1.1.2 1.3.6 2.1.9 2.9-.1.2-.1.6 0 1.2 0 0 .3.6.5 1.3.2.6.5 1.3.5 1.3-.1.4-.6-1.1-.3.7.4 1.2.2-1.3.7.8 0 1.3-.2 1 .2 2.5-.1.2-.2-.1-.3-.7.3 1.3.5 3.6.8 4.3-.1 1.4.4 4.7-.1 4.6.1.4.5 2.4.5 3.7-.6-2.3.2 4.8-.4 4.2.6 1.7.5 6.3 1.2 9.4-.1-.2-.2-.5-.2-.8.2 1.8.1 2.3.2 3.4.4.2 1 2.9 1.7 4.2.4 2.2-.9-1.1-1-.4.1-.1.5.8.9 1.6s.8 1.5.8 1.1c.6 1.7.6 1.4.9 2.3.6-.1 1.1 1.3 2.5 2 1 .8 1.1 1 1.2 1.2.1.1.2.1.4.3.2.1.6.3 1.3.5 1.3.5-1.2-.2-1.2-.3zm61.4-6c-.5 0-1 .1-1.3.1.3 0 .7 0 1.3-.1zm5.1-.2c-.6 0-1.4.1-2.2.1-.2-.1 0-.2.5-.2-.3 0 1 0 1.7.1zm-11-1.4c.8-.1 1.1 0 1.2 0-.4 0-.8.1-1.4.1h-.1l.3-.1zM70.5 115.2h-.3.5l.3-.1c-.2 0-.4.1-.5.1zM110.1 63.5h.2-.2zM154.1 113.7v-.1l-.4.1zM81.7 64.4c-.1 0-.2 0-.4-.1 0 .1.2.1.4.1zM69.4 64.7l-1.7-.1c.7 0 1.3.1 1.7.1zM60 64.6c-.1 0-.2.1-.2.1l.2-.1zM209.5 55h.4c.8-.2.2-.1-.4 0zM164.9 56.8l1.4-.2c-.8.1-1.4.1-1.4.2zM259.2 52.4h.3-.3zM168.4 56.7h-2.1 2.1zM19.1 64.8h-.6.6zM18.5 64.8l-.5.1c.3 0 .5 0 .5-.1zM17 65.1l1.1-.2c-.4 0-.9.1-1.1.2zM31.6 64.7l.1-.1s-.1 0-.1.1zM35.4 64.6c-.9 0-2.3-.2-3.5-.2l-.1.1c.5-.1 2.7.3 3.6.1zM51.2 65.9l-3.2-.1c.6.1 1.3.3-.2.3 4.1.3-.7-.2 3.4-.2zM61.1 66c-1.7.1 0 .2-.1.2 1.1-.1 1.4-.1.1-.2zM132.2 61l-.1.3c1.3-.2 0-.1.1-.3zM145.5 57.7h-1.3l-.6.3zM153.7 58.8l-.6.1 2.2-.2zM273.2 53.8l-.4-.3c-.9.2-1.1.5.4.3zM295.9 83c-.1.6 0 2 .3 2.9-.1-1.1-.2-2.3-.3-2.9zM167.7 110.6l1-.2-1.9.2z"/></g><path fill-rule="evenodd" clip-rule="evenodd" fill="#E5007E" d="M.7 63.6c4.7 12.2 4.1 20.7 4.9 34 .3 5.4.8 13.1 4 17.2 7.1 9.1 24.6 1.7 34.2.4 32-4.5 64.6-2.8 96.8-5.3 27.5-2.1 55-1.5 82.5-1.9 20.3-.3 40.2-2.7 60.6-2.5 9.6.1 12.5 1.1 11-11.3-1.2-10.3-2.9-19.1-2.8-29.7.1-5.4-.2-9.8-1.3-14.8-8.7-.4-17.5-.3-26.2.3-23.9 1.9-47.6 2.2-71.5 3.6-19.1 1.1-38.4-.6-57.4 2.5-16.9 2.8-33.8 4.5-50.9 5.4-20.6 1-41 .7-61.6.8-4.5 0-16.4-.1-18.6 3.6"/><g fill="#E81D8D"><path d="M4 65.5c-.1.4.1.3.8-.6l.2-.4.2-.4s-.3.3-.7.6c-.2.4-.5.8-.5.8zM10.4 63c1.1-.4 2.4-.8 1.6-1-1.1.5-1.4.4-2.6 1-1 .2-1.7.4-1.6.2-.3.2-1.5.5-1.9 1 1.3-.4 2.8-.9 4.5-1.4.4 0 .1.1 0 .2zM107 60.3h-.6.6zM166.5 54.7c-.5 0-.6 0-.7.1.4-.1.8-.1.7-.1zM176.7 55h-.6.6zM107 60.3l1.6-.1c.1-.1-.8 0-1.6.1zM23.7 61.4c-.3 0-.6 0-.9.1.3 0 .6 0 .9-.1zM80.6 62.4h-.5l-.4.1.9-.1zM60.4 63c.5 0 .6-.3.8-.4-.3.1-.6.2-1 .2 0 0 0 .1.2.2zM28.2 62.5h-.6c.2.1.5 0 .6 0zM95.1 61.6s.1.1.2.1c0 0-.1-.1-.2-.1zM3.7 86.6zM.7 63.5l.1.3h.2l-.3-.3zM195.4 54.7c-.5.1-.2.1 0 0zM272.7 104.4c2 .2-3.2.4-.2.6-.3-.1 2.6-.5.2-.6zM24.2 61.4h.8-.8zM272.5 105h.3-.3zM238.5 52.7l-.4-.1s.1.1.4.1zM206.4 53.6h.8-.8zM255.1 51.4c.4 0 .6 0 1.2-.1h-.2c-.2.1-.5.1-1 .1zM272.4 50.3h-.8.8zM32.2 118.8c-.4 0-.6 0-.8-.1.3.2-2.2.8.8.1zM23.7 61.6c.1-.1.2-.1.5-.1h-.6l.1.1zM255.7 49.2l2.7-.1c-.7 0-1.7 0-2.7.1zM156 110.1l-.6.1c.2-.1.4-.1.6-.1zM266.6 48.4c.5.1 1 .1 1.6.1l.3-.1h-1.9zM31.4 118.8zM12.6 119.2c1.4.6 1.7.6 1.8.5.1-.1-.1-.3.2-.3 1.6.4 2 .5 2.1.6.1.1-.1.2.5.4 2.1.2 3.7-.2 5.2-.2.1.1.4.1.1.2 2.1-.4 6.3-.7 8.6-1.6h.3c-.4-.1-.5-.3-.5-.4 1.2-.3 2.1-.7 2.6-.6-.7.2-.7.3-1.1.4l1.2-.4c1.2.1-1.6.5-1.6.7 2.3-.6 5-1.6 6.8-1.9.5.2-4.2 1.1-1.7.8l-2.8.5c2.3 0-1.7.4.4.5 3.7-.8 4.1-1.2 7.7-1.8.8-.3-.3-.2.5-.6 5.2-1.1 4.2.3 8-.6 1-.3 1.3-.8 4.1-.9l-.9.5c3.6-.3 2-.7 5.8-.8-.7.2-2.8.4-2.3.4 2.5.1 1.7-.4 3.6-.5l.4.3c1.9-.2 3.9-.4 6-.6 2.1-.2 4.2-.4 6.3-.5-.2.1-1 .3 0 .3 5.4-.4 11.5-.5 16.7-.4l2-.3c.5 0 .9.1.4.2 2 .1.1-.2 1.1-.3 1.2-.1 1.5.1.8.2 3.6-.3 10.2-.8 14-.6l-.7.1c2.9 0 3.3-.7 6-.5l-.5.1c6.4-.1 13.4-.6 18.3-.5.9-.4 6.3-.2 6.7-.8 3.7 0 2.6.2 7.8.1 1.4-.1 2-.5 3.7-.6l.1.3 2.3-.4 1.2.3 1.6-.2c-.6 0-1.3-.1-1.3-.2 2.5-.3 6 0 6.1.1l5.9-.5c-.1.1-1.1.2-1.9.3 3.1-.4.6.3 3.4-.1-.4-.1.2-.2.3-.3 1.4.1 4.7.1 7.1 0l-.5.2c4.4 0 9.2-.2 14.1-.3-1.8-.1-1.4-.5.1-.5l.6.3c.9-.2-1.5-.1.4-.4 1.8 0 1.2.4.2.5l2.2-.1c.1.1-.4.2-.5.3.9-.2 3.8.3 5.1-.1l.1.1c4.9 0 7.1-.1 11.1-.2.1-.3 1.6-.2 2.8-.5 2.9.1 6.2.3 9.7.2 2.5-.2.7-.2 1.8-.4.2.3 3.7.2 1.9.4 4.2-.1 5.4-.2 10.8-.6-.6-.1-1.2-.1-.9-.2 1-.1 2.2 0 2.1.1h-.3c6-.7 13.9-.1 18.7-.9h-.3l4.9-.6c2.3-.1-1.4.3.3.3 5.3-.7 8.4-.4 12.8-.8 1.7.3 4.7.2 7.9.2 3.2-.1 6.4 0 8.8.2l-.3-.2c.6-.1 1-.1 1.3-.1.4 0 .7.1 1.2 0-.2-.1-1.4 0-.7-.2.7-.1 1.4-.2 2.1-.5.4-.1.7-.4 1.1-.6.3-.2.7-.6.9-.9 1-1.4 1.2-2.9 1.3-4.3.2-2.8-.2-5.4-.4-8-.5-5.2-1.2-10.5-1.6-15.6-.3-3.7-1.2-2-1-6.8l.4 1.3c-.2-1.9-.3-3.8-.3-5.7 0-1.9 0-3.9-.1-5.9-.1-2-.2-3.9-.5-5.9-.1-1-.3-1.9-.5-2.9l-.5-2.2c0-.1 0-.2-.1-.2h-2c.7 0 .8-.1 2-.1-.6-.1-1.5-.2-2.6-.2h-1.9c-1.3 0-2.4.1-2.4.2-1.2 0-.3-.2-1-.3-1.6-.2-4 .3-4.8 0-.1 0 .4-.1.7-.1-1 .1-4.8 0-3.8.3-2.8-.1-5.4.3-7.6.2-1.4.4-4.8.2-5.3.7.2-.5-4.9 0-6.7.3.6-.2-1.5 0-.9-.3-2 .1-3.9.3-3.5.5-3.7-.3-7.4.8-9.6.3-6 .5-11.5.9-16.9 1.2.2-.5 6-.3 5.7-.7-5.1.4-8.1.9-13.1 1-1.3 0 .7-.2 1.2-.3-5.1.4-9.9.4-14.5.8l1-.2c-.9.1-2.1 0-2 .2l.9-.1c1.4.2-3.5.8-3.7 1 1.5-.7-4.5.1-2.1-.8-.6.1-1.3.2-1.2.3-.9 0-1.2-.1-.3-.3-3.2.3-2.1.4-5 .6 0-.1.6-.2.9-.3-1.5.3-2.9.6-5.4.5.1-.1-.1-.1.6-.2-4.2.2-7.2.7-11.8.6 1.4-.4-1.6-.1-1.8-.5l-2.5.1 1 .2c-2.2 0-4.1.3-6 .2l1.6-.2-4.1.1 2.3.1c-2.2.2.2.5-2.7.4.6 0-2.2 0-3.3-.2-1.1.1-2.2.3-3.8.2-.4-.1.3-.4.1-.5-1.1.3-5.1.3-6.5.7.4-.1.5-.3.3-.3l-.9.3c-1 0-1.2 0-1-.2-3.1.2 1 .4-2.6.5.3 0 .1-.1.7-.1-3.6.2-7 .8-10.3 1.2-1-.2 2.9-.5 1.7-.7-2.4.4-4.8.9-7.3 1.4-2.4.5-4.8.9-7.1 1.2l.9-.1c-.6.6-3.5.2-5.8.8.6-.1.7-.4.6-.3-3.2.3-6.4.9-11.2 1.6l.6-.2c-1.9.1-4.9.4-7 .5-.6.2-1.7.3-1 .4-6.3-.2-11.9 1.3-17.5.9.7 0 1.6-.2 1-.2l-4.7.3c.4.2.6.1 1.6.2-.6.2-1.9.3-3.1.4 2.1-.2 0-.4-1-.5.2.1-.2.2-.1.2-2.5-.3-.4.5-3.8.3l.2-.1c-1.3.1-2.4.3-3.8.3-.6-.3 1.3-.2 1.4-.4-1.9.1-3.8.6-5.5.4l2.8-.2c-1.9-.3-2.1-.2-3.5-.2h.1l-3.2-.1.8.1c-2.4.7-4.9.2-8.1.7 3.1-.5.5-.3.8-.6-.8-.1-2.1-.2-1.7-.2-1.5.2-2.5-.2-4.7.2-.1-.1-1.6 0-1.3-.3-2 .1.5.2.3.3-3.1.3-7.2-.4-11.6.1-3.8.2-4.5.5-8 .7-1.2-.2 1-.4 1-.4-1.9-.1-3.4-.1-5.2 0 .4-.1 0-.2-.6-.3-1.4 0-1 .4-2.9.2.3-.1.7-.3 1.4-.4-1.7.1-3.4.3-5.2.4-.5-.1 1.1-.3 1.7-.4-2 .1-5.2.4-5.8.8h1.2c.1.6.5.3 1 .3 1.7-.3 2.5-.1 2.6 0l-1.3.1c1.3.5 5.1-.3 7.6-.2l-1.1.4 2.6-.3c.6.1.9.3-.3.4 1.8.2 1.6-.1 3.2.1.2 0 .1.1-.1.1l1.8-.1c-.3.1.3.3-.8.2 3.2.2 5.1-.3 6.3 0h-.3c4.4-.1.4-.3 3.7-.7l2.2.7.4-.3c.5 0 1.4 0 1.2.2 1.7-.2-.3-.1.7-.3 2.2.3 6-.1 6.5.3.8-.2-2.1-.2.2-.3.7.5 2.7-.1 4.7.1-.6.3-2.5.1-.5.4 1.2-.5 3.9.1 5.6 0 .1-.4 3.7-.2 6.5-.4-.2.1 5.3.1 8 .1l-.1.1c.5-.4 3.2-.4 5.2-.6-.1.2-.4.3-1.5.5l1.9-.1c.4-.1 1-.2 2.2-.3l-.5.3c2.5-.1 5-.6 8.2-.6.2-.3-2.6-.6.8-.9.1.1.3.4-.6.5.3 0 1-.2 1.6-.2l-1.3.3c1.5 0 .7-.2 1.9-.3 0 .2.9.1.7.2-.3 0-1 0-1.5.1 1.3-.1 2.9 0 3.4.1-.1-.1 0-.3.9-.4 2.5-.2.9.2 2.3.2.6-.2 2.2-.2 2.2-.5.7-.1.9.1 1.2.1 1.3-.2 6-.6 4.5-.8h-.3.2c4.2-.7 8.7-.7 12.8-1.4v.1c2.5-.4 5.5-.8 7.2-1.2.7-.1 1.7-.1 1.5.1 1.9-.3 2.1-.5 4.8-.7-1.9.5.7 0-1.9.4 2.5-.3 3-.2 5.6-.9-.8.4 1.9 0 3-.2l-1.7.1c1.3-.2 2.4-.4 3.6-.5l-.6.4c5-.2 9-1.6 12.9-1.1l-1.6-.3c2.3-.1 4.8.3 5.5.3 3.2.1 3-.6 6.3-.5-.4-.1-.8-.4 1.7-.6 2.3 0 2.9.5 1.4.6-.6 0-.8 0-.8-.1-.8 0-1.7.1-.8.2l.3-.1c1.2.1 4.4.1 3.6.3 1.8-.1.8-.2-.6-.3 3 .2 4.7 0 7.7.1-.5-.1-.9-.2-.5-.2 4.5.1 2-.2 5-.3 1.7.2-.6.4 2.5.2 1.9.1.4.3-.3.4 2.8-.3 5.3 0 6.9 0l-1.5.1c.9-.1 1.6-.1 2.4-.2l-.9-.2c.9 0 1.6 0 1.6.1.9-.2-.7-.4 1.1-.7 1.2.1 3.5-.3 3.9 0-3.6.1.4.3-2.6.5.6-.1 1.3-.1 2.2-.1.1 0-.1.1-.4.1 3.5.1 1.6-.4 5.2-.6-.4.2.9.3 1.4.2-1.4.1-.7-.3.6-.5 2.3 0 2.5-.2 3.7-.3h-1.4c.5-.2 1.6-.2 3.2-.4.1.1-1.5.2-.9.2 1.8-.4 4.1.1 6.5-.2 1.2.1.1.3 1.1.4 2.8-.3 3 .1 6-.2-.9-.2-1-.1 1.1-.5l-4.8.4 3.1-.5c-1.5.1-3.1.3-3.9.3 1.5-.3 1.3-.2.6-.4 2 .3 3.9-.4 6.3-.2v.6c3.5.1 6.1-.5 10.7-.6h-1.5c.6-.3 2.8-.2 4.2-.3-.1.2.8.2 1.4.3-.1-.1 3.3-.1 3.7-.5l2 .2c3.6-.1 4.1-.8 7.6-.9-1 .3.6.3-1.8.6 1.2-.1 2.2-.1 2.2-.2.7.1 3.2-.5 4.3-.3.5-.1.6-.3 1.9-.4.1 0 0 .1 0 .1 0-.1 2-.3.9-.4 3.6.4 10-.8 13.2-.4 2.5-.2 5.6-.3 7.9-.3-.1.1 0 .1-.4.1 3.2.2 2-.6 5.6-.3 1.8.4-1.9.1-.8.3.2.3 1.3.3 2.7.3h2.7c.1 0 .2 0 .2.1v.3l-.1-.2v.5c0 .1 0 .2.1.3.1.5.2 1.1.4 1.7.3 1.2.5 2.6.6 4.1 0 0-.1-.1-.1 0 .2 1 .4 2.5.5 4.1.1 1.6.1 3.3.2 4.8-.2-.9-.1-1.3-.4-.8 0 1.3.4-.4.5 2.2-.1.9-.2 2.8-.4 3 0 0 0-.6-.1-1.2v-1.2c-.3 1.3.1 3.2.2 4.5l-.2-.2c.3 3.8.7 3.8 1.2 7.9l.1-.4c.7 2.2 0 1.9.6 4.1l-.3.7c.3 1.4 1.1 5.1 1.5 7.7-.5-1.4-1-4.5-1.5-6.4.2 1.4.7 4.9 1 5.6-.1-.6-.3-1.3-.3-1.9.5 1.7 1 4 1.3 6.9-.4-.2-.2 1.7-.4 3.8-.1 1-.3 2.1-.8 2.8-.5.6-1.2.9-1.6.8-1 .4-2.2.5-3.5.5-1.3 0-2.6 0-3.9-.1-2.7-.1-5.4-.2-8.4-.1 2.1.6-1.8.1-1.4.7-1.4.1-1.9.1-2.1 0l-4.2-.2c-1-.1 1.3-.2 1.2-.3-3.1.1-1.3-.2-3.3-.3.4.2-1.1.3-2.8.4l2.5.2-8 .2 1.3-.3c-2.2.2-8.1.5-10.3 1.1-.4 0-.9-.2 0-.3-5.3.3-11.7 1.2-15.8 1.1l.4-.2c-1 .1-1.7.4-2.9.3.1-.1.4-.2-.1-.2-.5.1-2.6.3-3.9.3l1.1-.2c-5.1-.1-7.9.6-12.2.7 0-.4-4-.5-6.1-.6l.1-.1c-6 0-10.2.4-15.7.6-3.4-.5-11.7-.1-17.2-.3.8.1-.1.3-1.1.4-1.3-.1-3.6.4-3.4 0h.5c-1-.4-3.7-.2-5.7-.2l-.3.5c-5.5-.6-14.3.8-17.3.3l-4.2.5.1-.3c-3.7.2-5.5.3-9.9.7l.9-.3c-2.5.2-3.1 1-5.5 1.2l-.7-.4c-4.4.2-8.9 0-13.3.6.1-.1.2-.2.9-.2-2.1.1-8.1 0-7.3.5-.1-.4-4.6.1-7 .3l.4-.3c-2 .4-2.1.5-4.9.7-.7 0-.6-.2.3-.2-2.2-.1-1.7.3-4.4.2l1-.2c-2.3 0-2.1.1-3.4.4-1.4.2-4.4.1-4.7-.2-.3.2-1.6.4-2.9.4-.2-.1.3-.2.6-.2-3.8-.1-5.7.5-8.3.4-.1-.1-.2-.1-.5-.1 3-.1 5.5-.2 5.3-.2 0-.3-2.5-.2-.5-.6-2 .3-5.3.8-7.7.8-.1 0-.2 0-.3-.1h.2c-.6 0-1.1.1-1.5.1h-2c-.3-.2-2.8.1-4.1.1.1.3-1.5.3 0 .5-.2 0 .2 0 1-.1.2 0 .4 0 .5-.1h-.1c.8-.1 1.9-.1 3-.2-1 .2-2 .4-3.3.3-.6.2-1.3.5-1.7.6-1.7-.3-5-.2-5.4-.4-3.7.5-8.8 1-11.1 1.8-1.1.2-1.2 0-1.6 0 .6-.1 1.3-.2 1.7-.3-2.1.4-6.3.8-6.7 1.4-2.7.4 1.4-.6-2.2.2l.5-.2c-3.6.5-6.4 1.5-9.3 2.3-2.9.8-6 1.6-10 1.3.5 0 .8 0 .9.1-2.2 0-4.5-.2-6.7-.9-2.1-.7-4.1-1.9-5.4-3.8-1.3-1.8-2-4.1-2.5-6.3s-.6-4.5-.7-6.8c-.1-2.6-.3-2.8-.6-4.4l.2-.3-.5-2.7c-.5-3.8.5-6.6-.4-11.4l-.2.6c-.1-1.7-.7-5.5-.4-5.2-.1-.2-.3-.5-.3-1.2l.2-.1s-.3-1-.5-2.1c-.1-.5-.3-1-.4-1.4-.1-.4-.2-.6-.2-.6-.3-1.6-.2-1.5 0-1.6.1-.1.2-.4-.5-2.7-.6-1.7-2.1-4.7-2-4 .2.7.5 1.8.4 1.9l-.6-1.5c-.5-.1-1.4-1.1-.4 2.7 0 0 .3.6.6 1.3.3.6.5 1.3.5 1.3v.9s-.2-.6-.3-1.1c-.2-.6-.3-1.1-.3-1.1.2 1.3.6 2.1.9 2.9-.1.2-.1.6 0 1.2 0 0 .3.6.5 1.3.2.6.5 1.3.5 1.3-.1.4-.6-1.1-.3.7.4 1.2.2-1.3.7.8 0 1.3-.2 1 .2 2.5-.1.2-.2-.1-.3-.7.3 1.3.5 3.6.8 4.3-.1 1.4.4 4.7-.1 4.6.1.1.4 2.1.5 3.4-.6-2.3.2 4.8-.4 4.2.6 1.7.5 6.3 1.2 9.4-.1-.2-.2-.5-.2-.8.2 1.8.1 2.3.2 3.4.4.2 1 2.9 1.7 4.2.4 2.2-.9-1.1-1-.4.1-.1.5.8.9 1.6s.8 1.5.8 1.1c.6 1.7.6 1.4.9 2.3.6-.1 1.1 1.3 2.5 2 1 .8 1.1 1 1.2 1.2.1.1.2.1.4.3.2.1.6.3 1.3.5 1.3.7-1.2-.1-1.2-.1zm61.4-6.1c-.5 0-1 .1-1.3.1.3 0 .6 0 1.3-.1zm5.1-.2c-.6 0-1.4.1-2.2.1-.2-.1 0-.2.5-.2-.3.1.9.1 1.7.1zm-11-1.4c.8-.1 1.1 0 1.2 0-.4 0-.8.1-1.4.1h-.1c.1 0 .2 0 .3-.1zM66.7 112h-.3.5l.3-.1c-.2.1-.4.1-.5.1zM106.2 60.3h.2-.2zM150.3 110.5v-.1l-.5.1zM77.8 61.2c-.1 0-.2 0-.4-.1.1.1.3.1.4.1zM65.6 61.5l-1.7-.1c.7.1 1.3.1 1.7.1zM56.2 61.5c-.1 0-.2.1-.2.1l.2-.1zM205.7 51.8h.4c.8-.1.2-.1-.4 0zM161.1 53.7l1.4-.2c-.8 0-1.4 0-1.4.2zM255.4 49.2h.3-.3zM164.6 53.5h-2.1 2.1zM15.2 61.6h-.6.6zM14.7 61.7l-.5.1c.2-.1.4-.1.5-.1zM13.1 61.9l1.1-.2c-.4.1-.8.1-1.1.2zM27.8 61.5l.1-.1c-.1 0-.1.1-.1.1zM31.6 61.5c-.9 0-2.3-.2-3.5-.2l-.1.1c.5-.1 2.7.2 3.6.1zM47.4 62.7l-3.2-.1c.6.1 1.3.3-.2.3 4.1.4-.8-.2 3.4-.2zM57.3 62.8c-1.7.1 0 .2-.1.2 1.1 0 1.4-.1.1-.2zM128.4 57.8l-.1.3c1.2-.2-.1-.1.1-.3zM141.7 54.6h-1.3l-.6.3zM149.8 55.6l-.5.1 2.1-.2zM269.4 50.7l-.4-.3c-.9.1-1.1.5.4.3zM292.1 79.9c-.1.6 0 2 .3 2.9-.2-1.2-.2-2.3-.3-2.9zM163.9 107.4l1-.1-2 .1z"/></g><path fill="#fff" d="M319.7 42.8c6.1-2.4-2.6-8.8-1-1.1 3.5.5 10.6-4.7 5.5-6.5"/><g fill="#1DA9E5"><path d="M324.4 34.7c0 .1-.1.2 0 .2v-.2zM324.4 35.2c.1-.1.2-.3.3-.5l-.3.4v-.2c0 .1 0-.1-.1.1 0 .2 0 .2.1.1.1 0 0 .1 0 .1zM325.5 37.6zM324.3 39zM323.8 39zM325.5 37.6zM325.1 34.9zM325.4 36.9h-.1.1zM325.3 36.5s.2-.1.3-.1c-.1 0-.1.1-.1.1h-.2zM324.9 35.7zM325.4 37.3zM320.9 43.3zM319.7 42.7l-.1-.1zM323.2 39.2zM319.5 40.7l-.4.3c0-.1.2-.2.4-.3zM325.1 34.9zM319 41zM322.1 40zM323.2 39.7zM321.8 40.5c-.1 0-.1-.1 0 0zM321.3 40.7zM322.5 41.6c-.1 0-.1 0-.2-.1.1.1.1.2.2.1zM325.1 35zM322.4 42h-.1.1zM319.9 37.1zM322.1 42.2c0-.1-.1-.1-.1-.1v.1h.1zM322.3 41.5zM322.2 42.5c.1-.1-.2-.2-.3-.3 0-.2.2.1.3.1 0-.1-.2-.3-.1-.4 0 0 .1 0 .1.1v-.5h.1c-.1 0-.3-.1-.3-.2 0 0-.1-.1.1-.1 0 0 0 .1.1.1v-.1c.3.1 0 .1.2.2 0-.1-.2-.3-.1-.4.2.1 0 .2.3.2l-.1.1c.4.1-.1.1.4.2l.1-.4-.3-.1c-.2-.3.7-.1.4-.3-.2-.1-.5-.1-.3-.2l.3.1c0-.2-.4-.1-.2-.3.1 0 .1.1.1.1.2-.1-.2-.1-.2-.2h.3c-.1-.2-.3-.4-.4-.5.1 0 .2 0 .2-.1-.2-.2-.1-.5-.1-.8h-.2l.1-.1-.2.1.1-.1c-.3 0-.6-.1-.5-.4h.1-.4c-.1-.3-.5-.3-.5-.7-.2.3-.2-.3-.4.1-.1-.3 0-.3-.2-.5-.1 0-.2.2-.3.3v-.2l-.2.2v-.3l-.1.1s.1.1.1.2c-.1.1-.3-.2-.4-.3l-.3.2c0-.1 0-.1.1-.2-.1.3-.1-.2-.2 0v.2c-.1-.1-.3 0-.4.1l-.1-.2c-.3.1-.4.4-.6.6.1 0 .3.2.3.2l-.2-.1c.1.1.1 0 .2.2-.1.1-.3-.1-.3-.2v.2l-.2-.1c.1.1-.3.1-.1.3h-.1c-.1.3-.1.4-.1.6l.3.2c-.1.1-.3.2-.3.4l.3.1c-.2 0-.2.1-.3 0 0 .2 0 .2.2.4h.2s-.1.1-.2.1c.3.2-.5.5-.1.8 0 0 .2.3.2.2l-.3.1c.4.2 0 .5.3.6-.2.3-.2.5-.1.6 0 .1.1.2.1.2l.1.2.1-.1c.2-.1 0 .1.1.1l.1-.2c.3-.1.6 0 .9.1.3.1.6.2 1 .2l.2-.4v.3c.2-.3.6-.1.8-.5v.1c.1.2.2-.1.2-.2 0 0 .1.1.1.2.1.1.1-.3.2-.1v.1c0-.1.2 0 .1-.2l.3-.1c0-.2.2 0 .1-.3.1.3.3.2.3 0l.1.2c.1 0 .1-.1 0-.3.3.3.1-.4.4 0 .1-.3.2-.5.4-.6v.4c.1-.2 0-.5.2-.5.1 0 .1.1.1.2l.4-.4v.1s.1 0 0-.1v.1c-.2-.2-.2-.5-.2-.6.2.4.2 0 .4.5 0 0 0-.1-.1-.2 0 0 .1 0 .1.2 0-.1-.1-.2 0-.3 0 .1 0 .1.1.2 0-.1-.1-.3 0-.3 0 0 .1.1 0 .1.1-.1 0-.5.2-.5l.3.3v-.1l-.1-.1.1-.2v.1l.1-.1h-.1c0-.2-.2-.3-.1-.3h.2c0-.1-.1-.2 0-.2l.3.3c-.1-.2.1-.2-.1-.4 0 .1.1.2.2.2l-.1-.2c.1 0 .1 0 .2.1.1-.1-.3-.2-.1-.2v.1l.2-.3.2.2.1-.6.1-.2s.2.1.1.1c.1-.1 0-.3 0-.5l.1.1.2-.2c-.1-.1-.1-.1-.2-.1.3 0 .3-.2.2-.3-.1-.1-.2-.2.1-.4 0 0 .1.1.1 0l-.1-.2c-.2 0-.1 0-.2.1-.1 0-.2-.1-.2-.1.1.1.3 0 .4-.1h-.2c.3-.2-.3 0-.2-.1h.1c-.1 0-.2 0-.2-.1.2-.1.1 0 .3 0l-.2-.1c.1 0 .1 0 .1.1.2-.2.1-.1.1-.2v-.2.1c-.5.2-.2-.1-.5 0 .3-.1.2-.1.3-.2 0-.1 0-.2.1-.2l-.2-.1c0-.1 0-.1.1-.2-.1 0-.1.1-.1.2-.3.1 0-.5-.4-.3-.2 0-.4.2-.5.3 0-.1.2-.2.2-.2 0-.1-.1-.1-.2-.1l.1-.2-.2.1c0-.1.1-.2.2-.2-.1 0-.2.1-.3.2 0-.1.1-.2.2-.2-.1 0-.2 0-.3.2v.1l.1-.2c.1-.1.1.1 0 .2h-.1c-.1.4.2 0 .3.1l-.2.3.2-.2c0 .1-.1.2-.2.3l.1.1.1-.1c0 .1-.1.2-.1.1 0 .2.3-.1.2.1.2 0 .1-.2.4-.3l-.3.5.2-.2v.1l.2-.2c-.1.2.2.1 0 .3.1-.1 0-.1.2-.2-.3.3.1 0 0 .2-.2.1-.1 0-.2.2.3-.2 0 .1.1.1.2-.1.1 0 .3.1-.1 0-.1.2-.2.3.3-.1.2 0 .3.1h-.5.2s.2.1.1.2c.2 0 .5 0 .7.1-.1 0-.3 0-.3-.1 0 0 .1 0 0 .1l-.2-.1c-.1 0 .1 0 .1.1h-.2s-.1.1-.2 0c.1 0 .2 0 .2.1s-.2 0-.3 0l.2.1h-.2c.1.1 0 .2.2.2.2.2-.2.2-.2.3h-.1c0 .1-.1.2 0 .3 0 0-.1 0-.2-.1 0 .1.1.1-.1.1-.1-.1-.1-.1 0-.1-.1 0-.2 0-.1.2-.1-.1-.2-.1-.2 0h.1s0 .1-.1.1l-.2-.2c-.3-.1.2.6-.3.3l.3.2c-.1 0-.4-.2-.4-.2v.3c.1.1.2.2.2.3-.1 0-.3-.2-.3-.3h.1s0-.1-.1-.1l.1.1c-.1 0-.2 0-.2-.1 0 .1.1.1.1.1-.2 0-.1.1-.2.1l.1.1c-.2 0 .1.2 0 .3-.1-.1-.2-.3-.2-.1-.1 0-.2-.2-.2-.2 0 .2-.2 0-.3 0v-.1.1l.1.1s-.1 0-.1-.1c0 .1.2.2.2.4-.1-.1 0 .1-.2 0 .1 0-.1-.2-.1-.3h-.1v-.1.3l-.2-.2s.1.2.2.3l-.1.1h.1c.1.1 0 .1 0 .2-.1-.1 0-.1 0-.1.1.2-.2-.1-.2 0-.1-.1-.1-.2-.2-.2l-.2.1c.1.1.1.1.1.3l.1-.2v.3s0-.1.1-.1c0 .1 0 .1.1.2l-.2.1-.2-.4c-.2-.1-.1.3-.2.3h.1c.1.2-.1.1-.1.2-.1-.1-.1-.2-.2-.2.1.1-.1 0 0 .3l-.1-.1c-.1 0 .1.4-.1.4l-.1-.4s-.1 0 0 .1l-.1.1c0 .1.1.2 0 .2v-.1c0 .1 0 .1.1.3-.3-.4-.3.2-.5-.2-.1.1-.1.2-.2.2v-.1c-.1-.1.1.4-.1.3-.1-.2 0-.1 0-.2-.2-.5-.1.1-.3-.1-.1-.1-.1.2-.2.2v-.1c0 .3-.1.4-.2.5v-.3s.1.3 0 .4c0-.1-.1-.2-.2-.4h.1c-.1-.3-.1 0-.1 0v-.1c-.1.1-.1.3-.2.3v.1c0 .3 0-.2-.1.1v-.3c0 .1-.1.3-.2.4.1-.2.2-.4.2-.5 0 0-.1 0-.1.2v-.1c-.1.2-.2.4-.3.4.2-.6-.1-.1.1-.6-.1.1-.1.1-.1 0s.1-.2.1-.2l-.4.3v-.1l.2-.2.2-.1s.2-.1.3-.2l-.2.1-.2.1c-.2 0 .4-.2.1-.1h.1-.1s-.1-.1-.3-.1h.2c0-.2-.4-.3-.2-.5h.1s-.2-.1-.1-.1h.1s-.2-.1-.1-.1h.1c.2-.1-.3-.2-.3-.4.3 0 .5 0 .5-.1.1-.1-.2-.3-.3-.4.3.2.2 0 .4.1 0 0-.1-.2-.1-.3 0 0-.1-.2.1 0 .1.3.1.2.1.2l-.1-.4c.1.3.1.2.2.2 0-.1.1-.1.1.1 0-.1 0-.1.1-.2l-.1.2c0 .1 0 .1.1.1l-.1.1s.3-.5.4-.5l-.2.3c.1.1 0 .3.3.2l-.1.1s0 .3.3 0c-.2.2.1.1.2.1l-.2.1c.2-.1.3-.2.4-.1l-.1.1c-.1.1.2-.1.1.1h-.1c0 .1.1 0 .2 0s0 .1-.1.2c.1 0 .3-.1.2 0h-.1c-.1.1.3.1.1.2h-.1v-.1c-.2.1-.2.1-.5.2h.4-.1v.1c-.2 0-.1.1-.1.1h.3v-.1c.1 0 .2 0 .1.1h.3c-.3.1-.4.2-.6.2.1.1.1.2.5.3h-.2l-.1-.1c.1.1 0 .1.3.2-.1 0-.2-.1-.2 0h-.1c-.2 0-.1.1 0 .3.1.1.2.3-.1.2h.1c-.3 0-.2.6-.7.4-.1 0 0 .1 0 .3l-.1-.2.1.3c0 .2-.5-.4-.4 0l.1.1c-.1 0-.1.2-.2 0 0 0 .1.2 0 .1l-.1-.1v.2l-.3-.4v.4s.1 0 .1.2v.1c.1.3.2.7.4.8v-.2l.1.1h-.1c.1.1.1 0 .1-.1l.1.2v-.3c.1.1.1.3.2.3 0-.2-.2-.3-.1-.4.1.1.2.2.2.1l.1.2c0-.1.1-.1.1-.3.1.1.1-.1.3.2v-.3c.1.4.2-.1.4.3-.1-.3.1-.3.1-.5v.1c.1 0 .2.1.2.1-.2-.2-.1-.4-.2-.5.3.1.2.3.4.5l-.2-.4c.2.1.1 0 .3.2-.2-.3 0-.1-.1-.3.2.1.3.2.3.1-.5-.4-.5-.3-.5-.3zm.2-2.9zm-.1-.2c0 .1-.1.1-.1.1l.1-.1zm-1.3.7h.1-.1zM321.3 40.1zM325.5 37.6zM320.2 37.1zM326.4 36.7zM326.3 36.2v-.1.1zM326.1 35.8zM324 40.9zM324.9 39.5v.1c.1 0 .1 0 0-.1zM322.4 42zM324.9 39.6c0 .1.1 0 0 0zM324.8 34.7zM324.8 34.7zM324.7 34.8zM325.2 35zM325.4 35.1s0-.2-.1-.2v.1l.1.1zM325.2 36.2v-.1c0 .1-.1.2-.1.2-.1.1.1-.3.1-.1zM325.3 36.4c-.1 0-.1.1-.1.1.1 0 .1 0 .1-.1zM325.1 38.1l-.2-.1c0 .1.1.1.2.1zM325.6 39.1h.1l-.1-.1zM324.4 38.4v.1zM321.3 40.5l.1.2c0-.1-.1-.3-.1-.2zM319.8 41.1zM319.8 38.9v.1-.1z"/></g><path fill="#009EE2" d="M304 34.7s19.7-28.5 30.3-28.9c10.5-.4 10.2 3.3 10.9 7.4.7 4.1-5.3 11.6-11.7 11.3-6.4-.5-23.3 1.2-29.5 10.2z"/><g fill="#1DA9E5"><path d="M303.6 34.4c0 .1.2.1.2 0l-.1-.2-.1.2zM304.6 33.8c0-.2 0-.5-.3-.6l.1.6c-.1.1-.2.2-.3.1 0 .1-.2.2-.1.3.3 0 .5-.2.5-.6.1.1.1.2.1.2zM317.8 26.6h-.1.1zM327.1 25c-.1.1 0 .1 0 0zM328.7 25.2zM317.8 26.6h.3c0-.1-.2 0-.3 0zM305.6 31.8s0 .1-.1.1l.1-.1zM313.9 28.1l-.1.1.1-.1zM311.1 29.5c.1 0 0-.2 0-.3 0 .1 0 .2-.1.2l.1.1zM306.7 32zM316.1 27.4zM306.9 32.2zM303.9 34.6c0-.1 0-.1-.1-.1l.1.1zM331.6 25.4zM342.3 5.9c.2.3-.6 0-.2.4-.1-.1.5-.1.2-.4zM305.7 31.8zM342 6.3zM338.7 24.1h-.1c0-.1 0-.1.1 0zM333.3 25h.1-.1zM340.8 22.3c.1 0 .1 0 .2-.1 0 0-.1 0-.2.1zM342.9 20.3l-.1.1.1-.1zM312 25.6h-.2c.1 0-.1.4.2 0zM305.7 31.9v-.1.1zM339.9 20.9l.3-.2c-.1 0-.2.1-.3.2zM325.4 11.3c-.1.1 0 .1 0 0zM341.1 19.8c.1 0 .2 0 .3-.1v-.1c-.1.1-.3.2-.3.2zM311.7 25.5zM310.3 28.1c.3-.3-.1-.3-.2-.5.2-.4.3-.1.5-.1.1-.3.1-.6.2-.8 0 0 .1 0 .1.1l.6-1.2h.1c-.1 0-.3-.1-.3-.2.1-.1.1-.4.3-.3-.1.1 0 .1 0 .2l.1-.2c.3 0-.1.3.1.4.2-.3.3-.8.5-1 .2.1-.4.6.1.4l-.4.3.3.2c.4-.4.3-.6.8-1l-.2-.3c.3-.8.9-.1 1-.8 0-.2-.2-.5.2-.7l.1.3c.4-.4-.1-.5.4-.9l-.1.4c.4-.1.1-.3.2-.5l.2.1c.4-.5.7-1.1 1.1-1.7 0 .1 0 .2.2.2.5-.7 1.2-1.3 1.9-1.8v-.4c.1-.1.2 0 .1.1.3-.2-.1-.1 0-.3.1-.1.3-.1.2 0 .2-.5.8-1.5 1.4-1.7v.1c.4-.3 0-.7.5-.9v.1c.8-.6 1.4-1.6 2.2-1.9-.1-.3.8-.6.6-.9.6-.2.5-.1 1.2-.5.2-.1.1-.4.2-.6l.2.2.1-.4.3.1.2-.2c-.1.1-.2.1-.3 0 .2-.3.8-.5.9-.4l.6-.7-.1.3c.2-.5.2.1.4-.3-.1 0-.1-.1-.1-.2.3 0 .7-.3.9-.6v.2c.6-.4 1.1-.9 1.8-1.2-.3.1-.4-.2-.2-.3l.2.2c0-.2-.2 0-.1-.3.3-.1.3.1.2.3l.3-.2c.1.1 0 .1 0 .2 0-.2.6-.1.7-.4v.1c.6-.3.9-.5 1.5-.7-.1-.2.2-.2.3-.5.4 0 .9 0 1.4-.1.3-.1.1-.2.2-.3 0 .2.6.1.3.3.7 0 .8-.1 1.7-.2-.1-.1-.2-.1-.1-.2.2 0 .3.1.3.2.5-.1 1 0 1.5.2s.9.3 1.3.2l.8-.1c.3.1-.2.1 0 .3.4-.1.7 0 1 .1l.8.3c.1.3.4.5.8.7.3.2.6.5.6.8l.1-.1c.2.1 0 .2.1.3l.1-.2c.8 1 .6 2.9.8 4.5 0 .4.8.2.4.8l-.2-.2c.2 1-.5 2.1-.8 3.1 0-.1-.1-.1 0-.2-.3.1-.5.7-.3.8-.1.1-.1 0-.3 0-.2.1-.2.6-.4.6v-.1c0 .2-.4.6-.2.6-.3.3-.5.7-.8.8 0 .3-.6.4-.4.7-.2-.3-.7.3-.8.6 0-.1-.2.1-.3-.1-.2.2-.4.4-.3.5-.7 0-.7.9-1.3.6-.3.3-.7.6-1 .8-.2.1-.4.2-.5.3-.2.1-.4.2-.6.2l.7-.6c-.3.2-.6.4-.8.5-.3.2-.5.3-.9.3-.2 0 .1-.2.1-.2-.3.1-.7.2-1 .2-.4 0-.7 0-1 .1 0 0 .1-.1.2-.1-.1 0-.3-.1-.3.1h.1c.2.2-.6.4-.6.6.3-.4-.7-.1-.3-.7-.1 0-.2.1-.2.2-.1 0-.2-.1 0-.2-.5.1-.3.2-.8.2l.1-.2c-.2.1-.5.3-.9.2 0 0 0-.1.1-.1-.7.1-1.1.4-1.9.3.2-.3-.3-.1-.3-.4l-.4.1.2.1c-.4 0-.6.2-.9.2l.2-.1-.6.1.4.1c-.3.2.1.3-.4.3.1 0-.3 0-.5-.1-.2.1-.3.2-.6.2-.1-.1 0-.3 0-.4-.1.2-.8.2-1 .4.1-.1 0-.2 0-.2l-.1.2c-.2 0-.2-.1-.2-.2-.5 0 .2.3-.4.3l.1-.1c-.6 0-1.1.3-1.6.3l.2-.4c-.8.2-1.5.6-2.2.7h.1c0 .4-.6-.1-.9.2.1 0 .1-.2.1-.2-.5.1-1 .3-1.7.7l.1-.1-1.1.2c-.1.1-.2.2-.1.3-1.1-.3-1.7.9-2.7.7.1 0 .2-.2.1-.1l-.7.4c.1.1.1.1.3.1-.1.1-.2.3-.4.4.3-.2-.1-.3-.3-.3 0 0 0 .1.1.2-.5-.1.1.3-.5.4v-.1l-.5.4c-.2-.1.2-.2.1-.3-.3.1-.4.6-.7.5l.4-.3c-.4-.1-.4 0-.6.1l-.5.1h.1c-.1.6-.7.4-.9 1 .3-.5 0-.2-.1-.4-.1 0-.4.1-.3 0-.1.3-.4.1-.6.5-.1-.1-.2.1-.3-.1-.2.2.1.1.2.2-.1.2-.4.3-.7.4-.3.1-.6.3-.8.7l-.7 1.2c-.2 0-.1-.3-.1-.3-.3.1-.5.3-.6.6 0-.1-.1-.1-.2-.1-.2.2.1.3-.2.4 0-.1-.1-.2 0-.4-.2.2-.3.5-.4.8-.1 0 0-.3 0-.4-.2.2-.5.7-.4.9l.2-.1c-.1.1-.2-.1-.1-.2.1-.3.3-.3.4-.2l-.1.2c.5.1.5-.6.8-.9l.1.3.1-.5c.1 0 .3.1.2.3.3-.1.1-.3.4-.3l.1-.3c0 .1.2.1 0 .2.5-.2.5-.7.8-.6.5-.5-.1-.2.2-.8l.6.2-.1-.2c.1 0 .2-.1.2 0 .1-.3-.1-.1 0-.3.4 0 .8-.6 1-.3 0-.2-.4.1-.1-.2.3.3.3-.3.7-.3 0 .2-.3.3.1.3 0-.4.6-.2.8-.4-.1-.2.5-.4.8-.6 0 .1.8-.2 1.2-.3 0-.3.4-.4.6-.6.1.2 0 .2-.1.4l.3-.1c0-.1.1-.2.3-.3v.2c.3-.2.6-.5 1.2-.5 0-.2-.6-.4-.1-.7.1.1.1.3 0 .3 0 0 .1-.1.2-.1l-.1.2c.2 0 .1-.2.2-.2l.2.2s-.2 0-.2.1h.6c0-.1-.1-.2.1-.3.4-.1.2.1.4.1.1-.1.3-.1.3-.3.1 0 .2.1.2.1.2-.1.9-.3.6-.4h-.1c.6-.4 1.4-.3 2-.5v.1c.4-.2.8-.2 1.1-.5.1 0 .3.1.3.2.3-.1.3-.2.8-.2l-.3.2c.4 0 .5.1.9-.2-.1.2.3.2.5.1l-.3-.1c.2-.1.4-.1.6-.1l-.1.3c.8.2 1.3-.7 2-.3.2-.2-.4-.1-.3-.3.4 0 .8.3.9.3l1-.4c-.1-.1-.2-.3.2-.4.4 0 .5.3.3.4h-.1c-.1 0-.3.1-.1.2v-.1c.2.1.7 0 .6.2.3-.1.1-.2-.1-.2h1.2c-.1 0-.2-.1-.1-.1.7.1.3-.2.8-.3.3.1-.1.3.4.2.3.1.1.2 0 .3.4-.2.8.1 1.1.1l-.2.1c.1-.1.2 0 .4 0l-.1-.2c.1 0 .2 0 .2.1.1-.1-.1-.3.2-.5.2.1.6-.1.6.1l-.4.3h.3l-.1.1c.5.2.3-.3.8-.3-.1.1.1.3.2.2-.2 0-.1-.2.1-.3.4.1.4-.1.6 0l-.2-.1c.1-.1.3-.1.5-.1 0 .1-.2.1-.2.1.3-.2.7.2 1.1.1l.2.3c.5-.2.6.1 1-.1-.2-.2-.2-.1.1-.3l-.8.3.5-.3c-.2 0-.5.2-.6.2.2-.2.2-.1.1-.3.4.2.6-.2 1-.2l.1.4c.6 0 1-.5 1.7-.7h-.3c0-.2.4-.2.6-.4 0 .1.2.1.3.2-.1-.1.5-.3.4-.6h.4c.6-.3.3-.7.8-1 0 .2.2.2 0 .5.2-.1.3-.2.3-.3l.5-.5c0-.1-.1-.2.1-.4v.1c0-.1.2-.3-.1-.3.8 0 1.1-1.1 1.8-1.3l.7-1.1s.1 0 0 .1c.4-.3-.1-.5.3-.9.4-.1-.1.3.1.2.4.2.3-.6.8-.9v.1c.3-.2.2-.8.4-1.2h.1c-.1-.2 0-.5 0-.7 0-.3.1-.6.1-.8.1.2 0 .2.3.2 0-.2-.3 0-.3-.4.1-.1.2-.4.5-.4v.4c.3-.2.1-.6.1-.8h.1c0-.7-.3-.7-.4-1.4l-.1.1-.2-.6.3-.2c-.1-.2-.4-.8-.5-1.2.3.2.5.7.6.9 0-.2-.2-.8-.3-.9l.1.3c-.3-.2-.5-.6-.6-1.1.3 0 .2-.3.1-.7-.1-.4-.3-.8-.2-1-.6-.7-1-1.7-2-2.2.1.6-.3-.2-.4.3-.2-.1-.3-.1-.3-.2l-.3-.3-.3-.3c-.1-.2.3 0 .3-.1-.5-.2-.1-.3-.5-.5 0 .2-.2.2-.5 0l.4.3c-.8 0-.5-.6-1.3-.5l.3-.1c-.2 0-.5-.1-.9-.1-.3 0-.7 0-.9.2-.1-.1-.1-.2 0-.2-.9-.2-1.9.3-2.6.1l.1-.1c-.2 0-.3.2-.5.1 0 0 .1-.1 0-.1s-.4.2-.6.1l.2-.1c-.4-.1-.7 0-1.1.2-.3.2-.6.3-.9.4-.1-.3-.8-.3-1.1-.2-1 .3-1.5.9-2.3 1.4-.3 0-.8.2-1.2.4-.4.3-.9.6-1.4.8.1 0 .1.2 0 .3-.2.1-.3.5-.5.3h.1c-.3-.1-.6.2-.9.4l.2.3c-1.1.1-1.7 1.6-2.3 1.5l-.4.6-.1-.2c-.5.4-.7.5-1.2 1.1v-.2c-.3.3 0 .8-.2 1.1l-.3-.2c-.5.5-1.2.8-1.5 1.5 0 0-.1-.1 0-.2-.2.2-1.1.8-.7 1-.2-.2-.5.5-.7.9l-.1-.2c0 .4 0 .5-.2.9-.1.1-.2 0 0-.1-.3.2 0 .3-.4.6v-.2c-.3.3-.2.3-.2.5-.1.2-.5.5-.7.4.1.1 0 .4-.2.5-.1 0-.1-.1 0-.2-.5.4-.4.8-.9 1h-.1c.3-.4.6-.6.6-.6-.1-.1-.4.1-.4-.3-.1.3-.2.9-.5 1.2h-.1c-.1.1-.1.1-.1.2l-.3.2c-.1-.1-.4.3-.5.4.2.1 0 .3.3.2l.1-.1v-.1c.1-.1.2-.2.3-.4 0 .2-.1.4-.3.5 0 .2.1.3.1.4l-1 .2c-.3.5-.8 1.1-.8 1.7-.1.2-.2.1-.3.1l.1-.3c-.1.3-.6.8-.4 1l-.4.1v-.1c-1.1.6-.6 1.9-1.9 2.5l.2-.1c-1.1 1-1.7 2.5-2.9 3.4-.3.3-.2.4-.2.7l-.2-.1v.5c-.2.6-1.1.5-1.2 1.3h.2c-.2.2-.4.8-.6.6 0 0 .1.2-.1.2l-.1-.1-.2.7c-.4.4-.3-.3-.8.3-.1.3-.2.9-.1.8.1-.1.2-.2.3-.1l-.1.2c.3.2.4.6 1 .2l.1-.5h.2l-.2.3c.3-.1.2-.3.2-.4h.3v-.5c.1 0 .1.3.3.1 0-.3-.4 0-.2-.4.3-.1.3 0 .4-.2.1 0 .1.1.1.2 0-.2.3-.5.2-.7.3-.1.4-.6.7-.4 0-.1 0-.5.1-.6.1.5.5-.6.8-.3-.1-.4.5-.9.6-1.4v.1c.2-.2.3-.2.5-.3-.2-.2 0-.6 0-.9.4-.1.1.4.4.5-.2-.1.2-.6-.1-.6.3-.1.2-.1.5-.1-.3-.3.1-.2.1-.5.4-.2.3.1.5-.3-1 .2-1.2.6-1.2.6zm5.7-7.9l-.1.2s.1-.1.1-.2zm.6-.6c-.1.1-.2.2-.2.3-.1 0-.1-.1-.1-.2 0 .1.1 0 .3-.1zm-2.3.4c.1-.1.1-.1.2-.1l-.2.1v.1-.1zM314.4 20.3zM317.7 26.6zM324.8 12h-.1zM313.2 27.4zM311.4 28.2l-.3.1c.1-.1.2-.1.3-.1zM309.9 28.8zM333.3 23.6c.2-.1.1-.1 0 0zM326.2 24.3l.2-.1c-.2 0-.3 0-.2.1zM339.8 20.9h.1zM326.7 24.2h-.3.3zM304.6 32.8zM304.6 32.9zM304.5 33.1l.1-.2c-.1.1-.1.2-.1.2zM306.2 31.4zM306.6 31c-.1.1-.4.1-.5.3v.1l.5-.4zM309.2 30.3l-.5.2c.1 0 .3.1.1.2l.4-.4zM310.6 29.6c-.2.2.1.1.1.1.1-.1.1-.1-.1-.1zM321.1 25.9v.2-.2zM323.1 24.6l-.3-.1v.2zM324.5 25.7l-.1.1.4-.1zM342.7 20.8l-.2-.1c-.1.1.1.3.2.1zM345.6 12.8c.1-.1.1-.3 0-.5v.5zM325.2 9.1l.1-.1-.2.2z"/></g><path fill="#fff" d="M301.7 33s19.7-28.5 30.3-28.9c10.5-.4 10.2 3.3 10.9 7.4.7 4.1-5.3 11.6-11.7 11.3-6.4-.5-23.3 1.2-29.5 10.2z"/><g fill="#1DA9E5"><path d="M301.2 32.7c0 .1.2.1.2 0l-.1-.2-.1.2zM302.3 32.1c0-.2 0-.5-.3-.6l.1.6c-.1.1-.2.2-.3.1 0 .1-.2.2-.1.3.3 0 .5-.2.5-.6 0 .1.1.2.1.2zM315.5 24.9h-.1.1zM324.8 23.4zM326.4 23.5zM315.5 24.9h.3-.3zM303.3 30.1s0 .1-.1.1l.1-.1zM311.6 26.5l-.1.1.1-.1zM308.8 27.8c.1 0 0-.2 0-.3 0 .1 0 .2-.1.2 0 0 0 .1.1.1zM304.4 30.3zM313.8 25.7zM304.6 30.5zM301.6 32.9c0-.1 0-.1-.1-.1l.1.1zM329.3 23.7zM339.9 4.3c.2.3-.6 0-.2.4 0-.1.6-.1.2-.4zM303.4 30.1zM339.7 4.7zM336.4 22.4h-.1.1zM331 23.3h.1-.1zM338.5 20.6c.1 0 .1 0 .2-.1l-.2.1zM340.6 18.6l-.1.1.1-.1zM309.6 23.9h-.2.2zM303.4 30.2v-.1.1zM337.6 19.2l.3-.2c-.1 0-.2.1-.3.2zM323.1 9.7zM338.8 18.1c.1 0 .2 0 .3-.1v-.1c-.1.1-.3.2-.3.2zM309.4 23.9zM308 26.4c.3-.3-.1-.3-.2-.5.2-.4.3-.1.5-.1.1-.3.1-.6.2-.8 0 0 .1 0 .1.1l.6-1.2h.1c-.1 0-.3-.1-.3-.2.1-.1.1-.4.3-.3-.1.1 0 .1 0 .2l.1-.2c.3 0-.1.3.1.4.2-.3.3-.8.5-1 .2.1-.4.6.1.4l-.4.3.3.2c.4-.4.3-.6.8-1l-.2-.3c.3-.8.9-.1 1-.8 0-.2-.2-.5.2-.7l.1.3c.4-.4-.1-.5.4-.9l-.1.4c.4-.1.1-.3.2-.5l.2.1c.4-.5.7-1.1 1.1-1.7 0 .1 0 .2.2.2.5-.7 1.2-1.3 1.9-1.8v-.4c.1-.1.2 0 .1.1.3-.2-.1-.1 0-.3.1-.1.3-.1.2 0 .2-.5.8-1.5 1.4-1.7v.1c.4-.3 0-.7.5-.9v.1c.8-.6 1.4-1.6 2.2-1.9-.1-.3.8-.6.6-.9.6-.2.5-.1 1.2-.5.2-.1.1-.4.2-.6l.2.2.1-.4.3.1.2-.2c-.1.1-.2.1-.3 0 .2-.3.8-.5.9-.4l.6-.7-.1.3c.2-.5.2.1.4-.3-.1 0-.1-.1-.1-.2.3 0 .7-.3.9-.6v.2c.6-.4 1.1-.9 1.8-1.2-.3.1-.4-.2-.2-.3l.2.2c0-.2-.2 0-.1-.3.3-.1.3.1.2.3l.3-.2c.1.1 0 .1 0 .2 0-.2.6-.1.7-.4v.1c.6-.3.9-.5 1.5-.7-.1-.2.2-.2.3-.5.4 0 .9 0 1.4-.1.3-.1.1-.2.2-.3 0 .2.6.1.3.3.7 0 .8-.1 1.7-.2-.1-.1-.2-.1-.1-.2.2 0 .3.1.3.2.5-.1 1 0 1.5.2s.9.3 1.3.2l.8-.1c.3.1-.2.1 0 .3.4-.1.7 0 1 .1l.8.3c.1.3.4.5.8.7.3.2.6.5.6.8l.1-.1c.2.1 0 .2.1.3l.1-.2c.8 1 .6 2.9.8 4.5 0 .4.8.2.4.8l-.2-.2c.2 1-.5 2.1-.8 3.1 0-.1-.1-.1 0-.2-.3.1-.5.7-.3.8-.1.1-.1 0-.3 0-.2.1-.2.6-.4.6v-.1c0 .2-.4.6-.2.6-.3.3-.5.7-.8.8 0 .3-.6.4-.4.7-.2-.3-.7.3-.8.6 0-.1-.2.1-.3-.1-.2.2-.4.4-.3.5-.7 0-.7.9-1.3.6-.3.3-.7.6-1 .8-.2.1-.4.2-.5.3-.2.1-.4.2-.6.2l.7-.6c-.3.2-.6.4-.8.5-.3.2-.5.3-.9.3-.2 0 .1-.2.1-.2-.3.1-.7.2-1 .2-.4 0-.7 0-1 .1 0 0 .1-.1.2-.1-.1 0-.3-.1-.3.1h.1c.2.2-.6.4-.6.6.3-.4-.7-.1-.3-.7-.1 0-.2.1-.2.2-.1 0-.2-.1 0-.2-.5.1-.3.2-.8.2l.1-.2c-.2.1-.5.3-.9.2 0 0 0-.1.1-.1-.7.1-1.1.4-1.9.3.2-.3-.3-.1-.3-.4l-.4.1.2.1c-.4 0-.6.2-.9.2l.2-.1-.6.1.4.1c-.3.2.1.3-.4.3.1 0-.3 0-.5-.1-.2.1-.3.2-.6.2-.1-.1 0-.3 0-.4-.1.2-.8.2-1 .4.1-.1 0-.2 0-.2l-.1.2c-.2 0-.2-.1-.2-.2-.5 0 .2.3-.4.3l.1-.1c-.6 0-1.1.3-1.6.3l.2-.4c-.8.2-1.5.6-2.2.7h.1c0 .4-.6-.1-.9.2.1 0 .1-.2.1-.2-.5.1-1 .3-1.7.7l.1-.1-1.1.2c-.1.1-.2.2-.1.3-1.1-.3-1.7.9-2.7.7.1 0 .2-.2.1-.1l-.7.4c.1.1.1.1.3.1-.1.1-.2.3-.4.4.3-.2-.1-.3-.3-.3 0 0 0 .1.1.2-.5-.1.1.3-.5.4v-.1l-.5.4c-.2-.1.2-.2.1-.3-.3.1-.4.6-.7.5l.4-.3c-.4-.1-.4 0-.6.1l-.5.1h.1c-.1.6-.7.4-.9 1 .3-.5 0-.2-.1-.4-.1 0-.4.1-.3 0-.1.3-.4.1-.6.5-.1-.1-.2.1-.3-.1-.2.2.1.1.2.2-.1.2-.4.3-.7.4-.3.1-.6.3-.8.7l-.7 1.2c-.2 0-.1-.3-.1-.3-.3.1-.5.3-.6.6 0-.1-.1-.1-.2-.1-.2.2.1.3-.2.4 0-.1-.1-.2 0-.4-.2.2-.3.5-.4.8-.1 0 0-.3 0-.4-.2.2-.5.7-.4.9l.2-.1c-.1.1-.2-.1-.1-.2.1-.3.3-.3.4-.2l-.1.2c.5.1.5-.6.8-.9l.1.3.1-.5c.1 0 .3.1.2.3.3-.1.1-.3.4-.3l.1-.3c0 .1.2.1 0 .2.5-.2.5-.7.8-.6.5-.5-.1-.2.2-.8l.6.2-.1-.2c.1 0 .2-.1.2 0 .1-.3-.1-.1 0-.3.4 0 .8-.6 1-.3 0-.2-.4.1-.1-.2.3.3.3-.3.7-.3 0 .2-.3.3.1.3 0-.4.6-.2.8-.4-.1-.2.5-.4.8-.6 0 .1.8-.2 1.2-.3 0-.3.4-.4.6-.6.1.2 0 .2-.1.4l.3-.1c0-.1.1-.2.3-.3v.2c.3-.2.6-.5 1.2-.5 0-.2-.6-.4-.1-.7.1.1.1.3 0 .3 0 0 .1-.1.2-.1l-.1.2c.2 0 .1-.2.2-.2l.2.2s-.2 0-.2.1h.6c0-.1-.1-.2.1-.3.4-.1.2.1.4.1.1-.1.3-.1.3-.3.1 0 .2.1.2.1.2-.1.9-.3.6-.4h-.1c.6-.4 1.4-.3 2-.5v.1c.4-.2.8-.2 1.1-.5.1 0 .3.1.3.2.3-.1.3-.2.8-.2l-.3.2c.4 0 .5.1.9-.2-.1.2.3.2.5.1l-.3-.1c.2-.1.4-.1.6-.1l-.1.3c.8.2 1.3-.7 2-.3.2-.2-.4-.1-.3-.3.4 0 .8.3.9.3l1-.4c-.1-.1-.2-.3.2-.4.4 0 .5.3.3.4h-.1c-.1 0-.3.1-.1.2v-.1c.2.1.7 0 .6.2.3-.1.1-.2-.1-.2h1.2c-.1 0-.2-.1-.1-.1.7.1.3-.2.8-.3.3.1-.1.3.4.2.3.1.1.2 0 .3.4-.2.8.1 1.1.1l-.2.1c.1-.1.2 0 .4 0l-.1-.2c.1 0 .2 0 .2.1.1-.1-.1-.3.2-.5.2.1.6-.1.6.1l-.4.3h.3l-.1.1c.5.2.3-.3.8-.3-.1.1.1.3.2.2-.2 0-.1-.2.1-.3.4.1.4-.1.6 0l-.2-.1c.1-.1.3-.1.5-.1 0 .1-.2.1-.2.1.3-.2.7.2 1.1.1l.2.3c.5-.2.6.1 1-.1-.2-.2-.2-.1.1-.3l-.8.3.5-.3c-.2 0-.5.2-.6.2.2-.2.2-.1.1-.3.4.2.6-.2 1-.2l.1.4c.6 0 1-.5 1.7-.7h-.3c0-.2.4-.2.6-.4 0 .1.2.1.3.2-.1-.1.5-.3.4-.6h.4c.6-.3.3-.7.8-1 0 .2.2.2 0 .5.2-.1.3-.2.3-.3l.5-.5c0-.1-.1-.2.1-.4v.1c0-.1.2-.3-.1-.3.8 0 1.1-1.1 1.8-1.3l.7-1.1s.1 0 0 .1c.4-.3-.1-.5.3-.9.4-.1-.1.3.1.2.4.2.3-.6.8-.9v.1c.3-.2.2-.8.4-1.2h.1c-.1-.2 0-.5 0-.7 0-.3.1-.6.1-.8.1.2 0 .2.3.2 0-.2-.3 0-.3-.4.1-.1.2-.4.5-.4v.4c.3-.2.1-.6.1-.8h.1c0-.7-.3-.7-.4-1.4l-.1.1-.2-.6.3-.2c-.1-.2-.4-.8-.5-1.2.3.2.5.7.6.9 0-.2-.2-.8-.3-.9l.1.3c-.3-.2-.5-.6-.6-1.1.3 0 .2-.3.1-.7-.1-.4-.3-.8-.2-1-.6-.7-1-1.7-2-2.2.1.6-.3-.2-.4.3-.2-.1-.3-.1-.3-.2l-.3-.3-.3-.3c-.1-.2.3 0 .3-.1-.5-.2-.1-.3-.5-.5 0 .2-.2.2-.5 0l.4.3c-.8 0-.5-.6-1.3-.5l.3-.1c-.2 0-.5-.1-.9-.1-.3 0-.7 0-.9.2-.1-.1-.1-.2 0-.2-.9-.2-1.9.3-2.6.1l.1-.1c-.2 0-.3.2-.5.1 0 0 .1-.1 0-.1s-.4.2-.6.1l.2-.1c-.4-.1-.7 0-1.1.2-.3.2-.6.3-.9.4-.1-.3-.8-.3-1.1-.2-1 .3-1.5.9-2.3 1.4-.3 0-.8.2-1.2.4-.4.3-.9.6-1.4.8.1 0 .1.2 0 .3-.2.1-.3.5-.5.3h.1c-.3-.1-.6.2-.9.4l.2.3c-1.1.1-1.7 1.6-2.3 1.5l-.4.6-.1-.2c-.5.4-.7.5-1.2 1.1v-.2c-.3.3 0 .8-.2 1.1l-.3-.2c-.5.5-1.2.8-1.5 1.5 0 0-.1-.1 0-.2-.2.2-1.1.8-.7 1-.2-.2-.5.5-.7.9l-.1-.2c0 .4 0 .5-.2.9-.1.1-.2 0 0-.1-.3.2 0 .3-.4.6v-.2c-.3.3-.2.3-.2.5-.1.2-.5.5-.7.4.1.1 0 .4-.2.5-.1 0-.1-.1 0-.2-.5.4-.4.8-.9 1h-.1c.3-.4.6-.6.6-.6-.1-.1-.4.1-.4-.3-.1.3-.2.9-.5 1.2h-.1c-.1.1-.1.1-.1.2l-.3.2c-.1-.1-.4.3-.5.4.2.1 0 .3.3.2l.1-.1v-.1c.1-.1.2-.2.3-.4 0 .2-.1.4-.3.5 0 .2.1.3.1.4l-1 .2c-.3.5-.8 1.1-.8 1.7-.1.2-.2.1-.3.1l.1-.3c-.1.3-.6.8-.4 1l-.4.1v-.1c-1.1.6-.6 1.9-1.9 2.5l.2-.1c-1.1 1-1.7 2.5-2.9 3.4-.3.3-.2.4-.2.7l-.2-.1v.5c-.2.6-1.1.5-1.2 1.3h.2c-.2.2-.4.8-.6.6 0 0 .1.2-.1.2l-.1-.1-.2.7c-.4.4-.3-.3-.8.3-.1.3-.2.9-.1.8.1-.1.2-.2.3-.1l-.1.2c.3.2.4.6 1 .2l.1-.5h.2l-.2.3c.3-.1.2-.3.2-.4h.3v-.5c.1 0 .1.3.3.1 0-.3-.4 0-.2-.4.3-.1.3 0 .4-.2.1 0 .1.1.1.2 0-.2.3-.5.2-.7.3-.1.4-.6.7-.4 0-.1 0-.5.1-.6.1.5.5-.6.8-.3-.1-.4.5-.9.6-1.4v.1c.2-.2.3-.2.5-.3-.2-.2 0-.6 0-.9.4-.1.1.4.4.5-.2-.1.2-.6-.1-.6.3-.1.2-.1.5-.1-.3-.3.1-.2.1-.5.4-.2.3.1.5-.3-1.1.3-1.2.6-1.2.6zm5.7-7.8l-.1.2c0-.1 0-.2.1-.2zm.5-.7c-.1.1-.2.2-.2.3-.1 0-.1-.1-.1-.2.1.1.2 0 .3-.1zm-2.2.4c.1-.1.1-.1.2-.1l-.2.1v.1-.1zM312.1 18.6zM315.4 24.9zM322.4 10.3v.1zM310.9 25.7zM309 26.5l-.3.1c.2-.1.3-.1.3-.1zM307.6 27.1zM331 21.9zM323.8 22.7l.2-.1c-.1-.1-.2-.1-.2.1zM337.5 19.3l.1-.1zM324.4 22.5h-.3.3zM302.3 31.1zM302.3 31.2zM302.2 31.4l.1-.2c-.1.1-.1.2-.1.2zM303.9 29.7zM304.3 29.3c-.1.1-.4.1-.5.3v.1l.5-.4zM306.9 28.6l-.5.2c.1 0 .3.1.1.2.7-.1-.2-.1.4-.4zM308.3 27.9c-.2.2.1.1.1.1.1-.1.1-.1-.1-.1zM318.8 24.3v.2c.2-.1 0-.1 0-.2zM320.7 22.9l-.2-.1v.2zM322.2 24.1h-.1l.4-.1zM340.4 19.1l-.2-.1c-.1.1.1.3.2.1zM343.3 11.1c.1-.1.1-.3 0-.5v.5zM322.9 7.5l.1-.2-.2.3z"/></g><path fill="#009EE2" d="M278.8 43.8c-2.8-1.5-5.8-2.9-8.7-4.3-2.7-1.3-7.9-5-11-4.5 4.9 7.5 12.9 11.7 18.3 18.6-4.1 1.6-6 11.3-6.1 15.5 2.2-2.4 5.4-3.7 7.6-6.2 1.9-2.1 3.6-5 4.6-7.7 1.5 2.7 3.3 5.6 5.3 7.9 1.5 1.7 4.5 2.9 5.5 4.9-.1-2.6.4-5.5-.3-8-.8-3-3.5-4.1-4.7-6.6 2.6-2.1 7.2-2.1 10.3-3.7 1.8-.9 6.4-2.4 7.2-4-3.6-.4-7.3-.4-10.9-.4-1.2 0-4.6.7-5.7 0-3.2-1.9-.9-12.5-1-15.8-1.7 3.4-4.1 7.4-6.8 10.1-.9.8-2.1 1.7-2.7 2.6"/><g fill="#1DA9E5"><path d="M279.4 42c0 .1.1.2.3-.1l-.1-.3s-.1.1-.1.2-.1.2-.1.2zM281 41c.2-.3.3-.7 0-.7l-.3.8c-.2.2-.4.3-.4.2 0 .1-.4.3-.3.5.4-.1.7-.4 1-.8.1-.2 0-.1 0 0zM288.4 41.7v-.2.2zM302.4 45.9h-.2.2zM304.2 46.3zM288.4 41.7v.5c.1 0 0-.2 0-.5zM283.2 38.1l-.1.2.1-.2zM288.4 34.5v-.1l-.1-.1.1.2zM289.6 30.4c.1-.1-.1-.2-.2-.3v.3h.2zM284.6 37.7l-.1.1c.1 0 .1-.1.1-.1zM288.1 38.4c0 .1-.1.1 0 0zM273.5 40.1c-.1 0-.1.1 0 0zM278.7 43.9c-.1 0-.1 0-.2.1l.2-.1zM303.7 46.9c.1-.1 0-.1 0 0zM285.5 56.9c0 .3-.1.1-.3 0-.2-.2-.3-.3-.2.2.1-.1.7.5.5-.2zM283.3 38l.1-.2-.1.2zM285 57.1zM293 50.8s.1 0 .1.1l-.1-.1zM301.3 48.4l-.2.1c.1-.1.2-.1.2-.1zM288.8 53.6l.2.4v-.1c-.1 0-.2-.1-.2-.3zM292 57.7c-.1-.1-.1-.2-.1-.2l.1.2zM259.1 34.2l.5.2c-.2-.2.7-.3-.5-.2zM283.3 38.1v-.2.2c-.1 0 0 .1 0 0zM290.8 53.9zM272.6 58.5v-.2.2zM292.2 55.5c0 .1.1.3.2.4h.1l-.3-.4zM259.6 34.3zM265.4 35.7c-.7-.3-.4.1-.6.2-.8-.3-.3-.4-.5-.6-.5-.2-1-.1-1.4-.3v-.1h-.3c-.1 0-.2 0-.4-.1-.3-.1-.6-.2-1-.3-.3-.1-.7-.2-.9-.1-.3 0-.5 0-.6.1-.1 0-.1 0-.2-.1.3.1.4.3.5.4-.4 0-.5.1-.8 0 .2 0 .2-.1.2-.1l-.3.1c-.7-.2.4-.1.2-.3-.3 0-.8.1-1 .2.3.4.5.7.6.9-.3 0-.8-1.3-.8-.7l-.2-.4h.6000000000000001c-1.4-.3.7 0-.6-.4h-.3c-.1 0-.2 0-.1.1s.1.2.2.4.2.4.4.6l.3.6c.1.2.2.4.5.8l.6.2c.8.8.8 1.1.9 1.5.1.3.1.5.6.8.3.1.6 0 1 .7h-.4c.7.8.7.1 1.3 1-.2 0-.6-.5-.5-.4.3.7.5.2.8.6l-.1.3c.8.7 1.8 1.4 2.7 2.1-.1 0-.3-.1-.1.2 1.2.9 2.4 2.1 3.3 3.1l.6.2c.1.1.1.2 0 .2.4.4.1-.1.4 0 .2.2.2.4 0 .3.9.5 2.3 1.5 2.9 2.4l-.2-.1c.5.6 1 .3 1.3 1l-.1-.1 1.8 1.9.2.2c.1.1.1.2.2.2l.2.3c0 .1.1.2.1.2v.1h-.1c.2.1-.1.1-.2.2l-.5.4c-.1.1-.1.3-.1.4-.4.3-.6.4-.8.6-.2.2-.5.4-.9 1-.2.3-.1.6-.2 1.1l-.2-.1-.1.7s-.1.1-.2.1c-.1.1-.2.1-.2.1l-.1.4c.1-.2.2-.3.3-.3-.2.7-.8 1.5-.9 1.5l-.2.8c-.1.4-.1.8-.1.8-.1-.1 0-.3 0-.6 0 .9-.3.1-.3.9.1-.1.1.1.2.1-.2.3-.5 1.2-.5 1.9l-.1-.2c-.1.6-.2 1.2-.3 1.9l-.1.5-.1.9c0 .6-.1 1.2-.1 1.7.1-.9.4-.8.4-.3l-.3.5c.1.2.1-.7.3-.2-.1.7-.3.9-.4.5v.9c-.1.2-.1 0-.2.1.1.1 0 .5-.1 1l-.1.7v.5l.4-.5v.1c.5-.6 1-1.1 1.4-1.5l.6-.6c.2-.2.4-.3.5-.5.7-.6 1.3-1.1 1.6-1.4-.1-.2.3-.4.4-.7.7-.4 1.5-.8 2.3-1.4.5-.5.1-.3.2-.6.2.1.9-.5.6-.1.9-.8 1.2-1.1 2-2.4-.2.1-.3.2-.3.1.1-.2.4-.4.5-.3v.1c.8-1.5 2.6-2.9 2.9-4.3v.1s0-.1.1-.2v-.5c.1-.1.1 0 .1.1s0 .2.1.2c0-.2 0-.4.1-.5l.2.4.2.3c0 1.1 1.8 2.8 2.3 4l.1-.1c.3.2.2.4.3.6.1-.1-.1-.4.1-.2l1.4 1.6c.5.6 1.1 1.1 1.7 1.6l1.7 1.4.4.3.8.7c.3.3.5.7.8 1.1l1.1 1.8c.6 1 .9 1.5 1.1 1.7-.1-.4-.1-.8-.2-1.1-.1-.2-.1-.4-.1-.7v-.5c0-.3 0-.5.1-.8l.3 1.3c-.1-1.2-.1-2.3-.1-3.3v-2.4c0-1.1.1-2.2-.2-3.3.1.1.1.1.2.3.2-.5-.3-1.7-.4-1.7-.1-.3.1-.1.1-.3 0-.5-.7-1.1-.6-1.4 0-.1.1.1.2.2-.2-.3-.8-1.3-.8-.9-.4-.8-1.1-1.2-1.4-1.7-.5-.1-.8-1-1.1-.9.1-.1 0-.4-.2-.7-.3-.4-.3-.3-.5-.4.1 0 .1-.1.3-.1-.1-.1 0-.1-.2-.2h.3l.6-.3c.4-.2.7-.4 1-.2 1.4-.7 2.9-1.1 4.3-1.5 0 .4-1.6.4-1.4.8l3.4-1.4c.4-.1-.1.2-.3.3.7-.3 1.3-.6 1.9-.9.6-.3 1.2-.5 1.7-.8l-.2.2c.2-.1.5-.2.5-.3l-.2.1c-.4-.1.7-.8.7-.9-.2.6 1.2-.4.8.4.1-.1.3-.2.2-.3.2-.1.3-.1.2.2.2-.1.3-.2.4-.3.1-.1.2-.2.3-.2.1-.1.3-.2.8-.5.1 0-.1.2-.1.3l1.3-1.3s.2 0 0 .1c.3-.3.4-.6.6-.9.1-.1.2-.3.2-.4l-.3-.2c-.6 0-1.1-.1-1.6-.1.9-.2-.4-.2-.3-.4h-1.1l.3.2h-1.9000000000000001l.4-.1h-1.1l.6.1c-.6.1.1.4-.7.3.2 0-.6 0-.9-.2-.3.1-.6.2-1 .1v-.4c-.3.2-1.4.1-1.8.3.1-.1.1-.2.1-.2l-.2.2c-.3-.1-.3-.1-.3-.2-.8 0 .3.4-.7.2l.2-.1h-1.5c-.5.1-.9.1-1.4.1-.3-.3.8-.2.5-.4-1.3.2-2.7.7-3.8.4l.2.1c-.1.2-.3.1-.5 0s-.3-.4-.6-.5c.1.1.3 0 .2 0-.4-.5-.9-1.2-1.2-2.5l.1.1-.1-1.8c-.1-.2-.1-.5-.2-.3.6-1.7-.2-3.2.4-4.7 0 .2.1.4.1.3v-1.3c-.2.1-.1.2-.3.4-.1-.2-.1-.5-.1-.9.1.6.3 0 .4-.2-.1 0-.1-.1-.2 0 .4-.6-.3-.1 0-1l.1.1c0-.3-.1-.7 0-1 .2-.1.1.4.2.4 0-.5-.3-1.1-.1-1.5 0 .2 0 .5.1.8.3-.5.2-.6.3-1 0 0 0-.2.1-.5v-.5l-.1.2c-.1-.1-.1-.2-.2-.2l-.6-1.3v1.2c0 .6-.5 1.1-.6 1.9.1-.9-.1-.2-.3-.4-.2.2-.4.4-.4.3 0 .4-.5.5-.5 1.2-.1 0-.2.4-.3.2-.2.5.2 0 .2 0-.2.8-1.2 1.5-1.6 2.7l-.9 2.1c-.3.2-.1-.4-.1-.4-.4.3-.6.7-.9 1.1 0-.1-.1-.1-.3 0-.2.3 0 .4-.4.7v-.5l-.8 1.2c-.2 0 .1-.3.1-.5-.3.4-.9 1-.9 1.3l.3-.2c-.1.1-.2-.1-.1-.2.2-.4.5-.4.6-.4l-.2.3c.6.1.9-1 1.4-1.5v.4l.3-.7c.2-.1.4 0 .2.3.4-.3.2-.4.6-.6l.2-.4c0 .1.2.1 0 .3.7-.6.6-1.3 1-1.4v.1c.6-1.1-.1-.2.2-1.1l.8-.2-.1-.2c.1-.1.2-.3.3-.2.1-.5-.1 0-.1-.3.5-.4.8-1.5 1.1-1.4 0-.3-.4.4-.2-.2.4 0 .3-.7.7-1.1.1.2-.2.6.2.3-.1-.5.6-.9.7-1.4-.1-.1 0-.3.1-.6l-.5-.1v1.1c-.1-.1-.3 1.4-.4 2.1.3.2.1.9.1 1.4-.2 0-.2-.1-.3-.4v.5c.1.1.1.3.1.6l-.2-.1c-.1.7.1 1.4-.1 2.2.2.1.6-.7.6.3-.1 0-.3.1-.3-.2 0 .1.1.3 0 .4l-.2-.4c-.1.4.1.2.1.5l-.2.2c0-.1.1-.3 0-.4 0 .4-.2.8-.3.9.1 0 .2 0 .2.3 0 .7-.2.2-.3.6.1.2 0 .6.2.6 0 .2-.1.2-.2.3.1.4.1 1.7.3 1.3v-.1.1c.2.6.2 1.2.3 1.8.1.6.3 1.2.7 1.7h-.1c.3.3.6.6 1 .7.4.1.8.1 1 .1.2 0 .5.2.4.2.5-.1.6-.1 1.4-.1-.5.2.2.1-.5.1.7 0 .9.1 1.6-.1-.2.2.5.2.8.1l-.5-.1c.4-.1.7-.1 1-.1l-.1.3h.9l.9-.1c.6-.1 1.1-.2 1.6.1.4-.2-.7-.1-.4-.3.6 0 1.3.4 1.5.4.9.1.8-.4 1.7-.2-.1-.1-.2-.3.5-.4.6.1.8.4.4.5-.2 0-.2 0-.2-.1-.2 0-.5.1-.2.2l.1-.1c.3.1 1.2.1 1 .3.5-.1.2-.1-.1-.2.2 0 .4.1.5.1h.3c.2 0 .3 0 .4.1 0 0 0-.2.1-.1.5.1.5-.1 1.2-.1-.2.1-.7.2-.1.2-.4.3-.6.2-.8.2.2 0 0 .1-.1.2-.2.1-.4.1-.4.1h-.30000000000000004.3c.1.1.5.1.5.3-.2 0-.4.3-.6.2.3-.1.2-.1.2-.2-.1 0-.1-.1-.1-.2l-.1.1v-.1h-.2l-.2.1c-.1.1-.1.1-.1.2-.1.1-.1.3-.6.5.1-.2-.3-.1-.4-.1.4-.2.3.1 0 .4-.6.1-.6.3-.9.5l.4-.1c-.1.2-.4.3-.8.5-.1-.1.3-.2.2-.2-.4.4-1.1.2-1.7.7l-.4-.2-1.4.5c.3.1.3.1-.2.4 0 0 .3-.1.6-.3.3-.1.6-.3.6-.3s-.2.1-.3.3c-.2.1-.3.3-.3.3.4-.1.7-.4.9-.4-.3.3-.3.2-.1.3-.6 0-.9.5-1.6.5l-.1-.4c-.9.1-1.5.6-2.8.8h.4c-.1.2-.7.2-1.1.4 0-.2-.3-.1-.5-.2.1.1-.9.2-.9.6h-.6c-.5.1-.7.4-1 .6-.2.2-.4.4-.9.8.2-.3-.4 0 .3-.7-.4.3-.8.5-.7.6-.2.1-.4.3-.6.5-.2.1 0 .3.1.4.1.1.1.3.1.4.2.2.4.2.6.6 0 .1-.1 0-.1 0s.2.1.3.2c.1.1.2.1.1-.1.2 1.1 1.9 2 2.1 2.9.5.5 1 1.1 1.2 1.6-.1 0-.1 0-.1-.1.2.8.6.3.7 1.3-.1.5-.2-.5-.3-.1-.4.2.3 1.1.1 1.8v-.1c-.1.5.3 1.2.2 2h-.1c.1.3.2.7.2 1.1l.1 1.1c-.2-.4-.1-.3-.3-.4 0 .3.3.2.3.8-.1.1-.2.3-.4-.1v-.4c-.1-.1-.1 0-.1.1s.1.4.1.4l-.1-.3s-.1-.1-.1 0c-.1 0-.1.1-.5-.2v.2c-.2 0-.3-.1-.3-.2s-.1-.2-.4-.3v-.3c-.4-.2-1.3-.6-1.9-1 .5.1 1.2.5 1.7.7-.3-.2-1.1-.8-1.4-.8.1.1.3.1.4.3-.5-.1-1.1-.4-1.7-.9.2-.2-.1-.5-.4-1-.4-.5-.8-1-.8-1.4-1-1-1.5-2.2-2.4-3.6-.1.7-.3-.4-.6-.1-.2-.3-.3-.4-.3-.5l-.7-1.7.4.2c-.7-1.3-.2-.8-.7-1.9.1.4-.3 0-.7-.8 0 0 0 .1-.1.1l.1-.1.5 1.3c-.2-.3-.4-.5-.5-.8-.2.4-.3.4-.5.7-.2.2-.4.7-.7 1.6l.2-.8c-.1.3-.3.7-.5 1.1-.2.3-.3.7-.5 1.1-.2.5-.4 1-.4 1.3-.1.1-.3.1-.2-.1-.7 1.2-1.3 2.8-2.2 3.5v-.2c-.1.2-.1.5-.4.6 0 0 0-.1-.1-.1-.1.1-.3.6-.6.8l.1-.3c-1 .8-1.3 1.6-2.2 2.3-.2-.3-1.1.3-1.6.6-.3.2-.6.4-.8.6-.1.1-.1.2-.2.2-.1.2-.3.4-.5.8l-.1.2c.2-.6.3-.8.3-1l.1-.7.3-1.2c-.1.2-.2-.1-.2-.4.1-.3 0-1 .3-.9v.1c.3-.2.4-.9.6-1.4l-.4-.2c.5-.6.7-1.5 1-2.4.2-.8.5-1.6.9-1.8l.4-1 .2.1c.3-.4.5-.6.7-.9.1-.1.2-.3.4-.4l.2-.2.1-.1s.2-.2.3-.2c0 0-.1.1-.1.2-.1.1-.1.1-.1.2l.3-.3c.1-.1.2-.2.3-.2.2-.2.2-.3.3-.4l.2-.3.1-.2c0-.1-.1-.2-.2-.2l.3-.2-.9-1.1-.4-.5-.3-.4c-.4-.5-.8-.9-1.3-1.3 0 0 .1-.1.3.1-.4-.4-1.4-1.7-1.6-1.3.2-.2-.9-.9-1.5-1.2l.2-.1c-.6-.2-.6-.1-1.3-.6-.1-.1 0-.2.1 0-.4-.5-.5-.2-1-.7l.3.1c-.5-.4-.5-.3-.8-.4-.4-.2-.9-.8-.8-1-.1 0-.5-.1-.7-.4 0-.1.1 0 .2 0-.7-.8-1.3-.8-1.7-1.5v-.2c.6.6 1.1 1 1.1 1 .1-.1-.4-.6.2-.5-.5-.2-1.4-.6-1.8-1.1v-.1h.1c-.1-.1-.2-.2-.3-.2-.1-.2-.2-.3-.4-.4.1-.2-.5-.6-.7-.8-.1.2-.4-.2-.2.3 0 0 .1 0 .2.2l.1.1c.2.1.4.3.6.6-.3-.1-.5-.2-.7-.6-.2 0-.5 0-.6-.1-.1-.5-.6-1.3-.6-1.5-.8-.6-1.7-1.7-2.4-1.9-.2-.2-.1-.3-.1-.4.1.1.3.2.3.3l-.3-.3-.3-.3c-.2-.2-.4-.3-.6-.4-.1-.2.1-.1.2-.1l-.1-.2.2.1c0-.1 0-.2-.2-.4.1-.1.1-.2.3-.3.1-.1.4-.1.7 0 .2 0 .3.1.5.2s.4.2.7.4c-.1-.1-.2-.1-.2-.2 2.2 1.1 4.6 2.1 6.6 3.7.6.4.8.3 1.2.3v.3l.8.1c1 .3 1.4 1.3 2.7 1.5l-.1-.2c.4.2 1.4.6 1.2.7.1 0 .2-.1.3.1v.1l1.1.3c.8.5-.3.4.8.9.5.2 1.4.3 1.3.2-.2-.1-.4-.3-.4-.4l.4.1c.2-.3.7-.4-.2-1.1l-.8-.1-.1-.3.6.3c-.3-.3-.5-.3-.8-.3 0-.1-.1-.2-.2-.3h-.8c0-.2.4-.1 0-.4-.4 0 .2.4-.4.3-.3-.3-.1-.4-.5-.4 0-.1.1-.1.3-.1-.4-.1-.9-.4-1.2-.3-.3-.3-1.2-.5-1-.8-.1 0-.7-.1-1-.2.7-.1-1.2-.6-.8-.9-.3.1-.7-.1-1.1-.3-.4-.2-.8-.4-1.3-.5h.2c-.4-.2-.5-.4-.7-.6-.2.2-.9-.1-1.3-.1-.4-.5.5-.1.5-.5-.1.2-1-.3-.9 0-.3-.4-.3-.3-.4-.6-.2.3-.4-.1-.8-.1-.5-.5 0-.4-.7-.6-1-1.7-.4-1.5-.4-1.5zm.4 7.6c-.1-.1-.2-.2-.3-.2l.3.2zm1 .9c-.1-.1-.3-.3-.5-.4 0-.1.1-.1.2 0 0 0 .2.2.3.4zm-1.2-3.1c.2.1.2.2.2.3-.1-.1-.2-.1-.2-.3h-.1.1zM265.1 41.1zM288.4 41.5zM273.2 57l.1-.1zM289.5 33.8zM289.8 30.5l.1-.5c-.1.2-.1.4-.1.5zM288.1 30.9zM302 49.6c-.3.2-.1.1 0 0zM301 45.1l.4-.1c-.2 0-.4 0-.4.1zM290.8 53.8v.1zM302 45h-.6.6zM281.7 39.6l-.1.1.1-.1zM281.6 39.7l-.1.1s.1 0 .1-.1zM281.3 40.1l.2-.2c-.1 0-.2.1-.2.2zM284 37.3c-.1-.1-.1 0 0 0zM284.6 36.5c-.2.2-.5.4-.7.7v.1c0-.3.6-.6.7-.8zM287.7 33.4l-.5.7c.1-.1.3-.2.2.1.7-.8-.3.2.3-.8zM289.1 31.1c-.2.4.1.1.1.1.1-.3.2-.4-.1-.1zM292 46.2v.2c.4-.1 0-.1 0-.2zM295.7 44.9l-.4-.1-.1.2zM297.9 46.2l-.1.1.6-.1zM291.4 57.2l.1-.2c-.2-.1-.5 0-.1.2zM293.1 65.9c-.1-.2-.1-.4-.3-.3l.3.3zM273.6 61.2v.2l.1-.5z"/></g><path fill="#fff" d="M276.5 43.8c-2.8-1.5-5.8-2.9-8.7-4.3-2.7-1.3-7.9-5-11-4.5 4.9 7.5 12.9 11.7 18.3 18.6-4.1 1.6-6 11.3-6.1 15.5 2.2-2.4 5.4-3.7 7.6-6.2 1.9-2.1 3.6-5 4.6-7.7 1.5 2.7 3.3 5.6 5.3 7.9 1.5 1.7 4.5 2.9 5.5 4.9-.1-2.6.4-5.5-.3-8-.8-3-3.5-4.1-4.7-6.6 2.6-2.1 7.2-2.1 10.3-3.7 1.8-.9 6.4-2.4 7.2-4-3.6-.4-7.3-.4-10.9-.4-1.2 0-4.6.7-5.7 0-3.2-1.9-.9-12.5-1-15.8-1.7 3.4-4.1 7.4-6.8 10.1-.9.8-2.1 1.7-2.7 2.6"/><g fill="#1DA9E5"><path d="M277.1 42c0 .1.1.2.3-.1l-.1-.3s-.1.1-.1.2c-.1.1-.1.2-.1.2zM278.7 41c.2-.3.3-.7 0-.7l-.3.8c-.2.2-.4.3-.4.2 0 .1-.4.3-.3.5.4-.1.7-.4 1-.8.1-.2 0-.1 0 0zM286.1 41.7v-.2.2zM300.1 45.9h-.2.2zM301.9 46.3zM286.1 41.7v.5c.1 0 0-.2 0-.5zM280.9 38.1l-.1.2.1-.2zM286.1 34.5v-.1l-.1-.1.1.2zM287.3 30.4c.1-.1-.1-.2-.2-.3v.3h.2zM282.3 37.7l-.1.1c.1 0 .1-.1.1-.1zM285.8 38.4c-.1.1 0 .1 0 0zM271.1 40.1zM276.4 43.9c-.1 0-.1 0-.2.1l.2-.1zM301.4 46.9zM283.1 56.9c0 .3-.1.1-.3 0-.2-.2-.3-.3-.2.2.2-.1.8.5.5-.2zM281 38l.1-.2-.1.2zM282.7 57.1zM290.7 50.8s.1 0 .1.1l-.1-.1zM299 48.4l-.2.1c.1-.1.1-.1.2-.1zM286.5 53.6l.2.4v-.1c-.1 0-.2-.1-.2-.3zM289.7 57.7c-.1-.1-.1-.2-.1-.2l.1.2zM256.8 34.2l.5.2c-.3-.2.6-.3-.5-.2zM281 38.1v-.2.2c-.1 0 0 .1 0 0zM288.5 53.9zM270.3 58.5v-.2.2zM289.9 55.5c0 .1.1.3.2.4h.1l-.3-.4zM257.3 34.3zM263.1 35.7c-.7-.3-.4.1-.6.2-.8-.3-.3-.4-.5-.6-.5-.2-1-.1-1.4-.3v-.1h-.3c-.1 0-.2 0-.4-.1-.3-.1-.6-.2-1-.3-.3-.1-.7-.2-.9-.1-.3 0-.5 0-.6.1-.1 0-.1 0-.2-.1.3.1.4.3.5.4-.4 0-.5.1-.8 0 .2 0 .2-.1.2-.1l-.3.1c-.7-.2.4-.1.2-.3-.3 0-.8.1-1 .2.3.4.5.7.6.9-.3 0-.8-1.3-.8-.7l-.2-.4h.6000000000000001c-1.4-.3.7 0-.6-.4h-.3c-.1 0-.2 0-.1.1s.1.2.2.4.2.4.4.6l.3.6c.1.2.2.4.5.8l.6.2c.8.8.8 1.1.9 1.5.1.3.1.5.6.8.3.1.6 0 1 .7h-.4c.7.8.7.1 1.3 1-.2 0-.6-.5-.5-.4.3.7.5.2.8.6l-.1.3c.8.7 1.8 1.4 2.7 2.1-.1 0-.3-.1-.1.2 1.2.9 2.4 2.1 3.3 3.1l.6.2c.1.1.1.2 0 .2.4.4.1-.1.4 0 .2.2.2.4 0 .3.9.5 2.3 1.5 2.9 2.4l-.2-.1c.5.6 1 .3 1.3 1l-.1-.1 1.8 1.9.2.2c.1.1.1.2.2.2l.2.3c0 .1.1.2.1.2v.1h-.1c.2.1-.1.1-.2.2l-.5.4c-.1.1-.1.3-.1.4-.4.3-.6.4-.8.6-.2.2-.5.4-.9 1-.2.3-.1.6-.2 1.1l-.2-.1-.1.7s-.1.1-.2.1c-.1.1-.2.1-.2.1l-.1.4c.1-.2.2-.3.3-.3-.2.7-.8 1.5-.9 1.5l-.2.8c-.1.4-.1.8-.1.8-.1-.1 0-.3 0-.6 0 .9-.3.1-.3.9.1-.1.1.1.2.1-.2.3-.5 1.2-.5 1.9l-.1-.2c-.1.6-.2 1.2-.3 1.9l-.1.5-.1.9c0 .6-.1 1.2-.1 1.7.1-.9.4-.8.4-.3l-.3.5c.1.2.1-.7.3-.2-.1.7-.3.9-.4.5v.9c-.1.2-.1 0-.2.1.1.1 0 .5-.1 1l-.1.7v.5l.4-.5v.1c.5-.6 1-1.1 1.4-1.5l.6-.6c.2-.2.4-.3.5-.5.7-.6 1.3-1.1 1.6-1.4-.1-.2.3-.4.4-.7.7-.4 1.5-.8 2.3-1.4.5-.5.1-.3.2-.6.2.1.9-.5.6-.1.9-.8 1.2-1.1 2-2.4-.2.1-.3.2-.3.1.1-.2.4-.4.5-.3v.1c.8-1.5 2.6-2.9 2.9-4.3v.1s0-.1.1-.2v-.5c.1-.1.1 0 .1.1s0 .2.1.2c0-.2 0-.4.1-.5l.2.4.2.3c0 1.1 1.8 2.8 2.3 4l.1-.1c.3.2.2.4.3.6.1-.1-.1-.4.1-.2l1.4 1.6c.5.6 1.1 1.1 1.7 1.6l1.7 1.4.4.3.8.7c.3.3.5.7.8 1.1l1.1 1.8c.6 1 .9 1.5 1.1 1.7l-.2-1.2c-.1-.2-.1-.4-.1-.7v-.5c0-.3 0-.5.1-.8l.3 1.3c-.1-1.2-.1-2.3-.1-3.3v-2.4c0-1.1.1-2.2-.2-3.3.1.1.1.1.2.3.2-.5-.3-1.7-.4-1.7-.1-.3.1-.1.1-.3 0-.5-.7-1.1-.6-1.4 0-.1.1.1.2.2-.2-.3-.8-1.3-.8-.9-.4-.8-1.1-1.2-1.4-1.7-.5-.1-.8-1-1.1-.9.1-.1 0-.4-.2-.7-.3-.4-.3-.3-.5-.4.1 0 .1-.1.3-.1-.1-.1 0-.1-.2-.2h.3l.6-.3c.4-.2.7-.4 1-.2 1.4-.7 2.9-1.1 4.3-1.5 0 .4-1.6.4-1.4.8l3.4-1.4c.4-.1-.1.2-.3.3.7-.3 1.3-.6 1.9-.9.6-.3 1.2-.5 1.7-.8l-.2.2c.2-.1.5-.2.5-.3l-.2.1c-.4-.1.7-.8.7-.9-.2.6 1.2-.4.8.4.1-.1.3-.2.2-.3.2-.1.3-.1.2.2.2-.1.3-.2.4-.3.1-.1.2-.2.3-.2.1-.1.3-.2.8-.5.1 0-.1.2-.1.3l1.3-1.3s.2 0 0 .1c.3-.3.4-.6.6-.9.1-.1.2-.3.2-.4l-.3-.2c-.6 0-1.1-.1-1.6-.1.9-.2-.4-.2-.3-.4h-1.1l.3.2h-1.9000000000000001l.4-.1h-1.1l.6.1c-.6.1.1.4-.7.3.2 0-.6 0-.9-.2-.3.1-.6.2-1 .1v-.4c-.3.2-1.4.1-1.8.3.1-.1.1-.2.1-.2l-.2.2c-.3-.1-.3-.1-.3-.2-.8 0 .3.4-.7.2l.2-.1h-1.5c-.5.1-.9.1-1.4.1-.3-.3.8-.2.5-.4-1.3.2-2.7.7-3.8.4l.2.1c-.1.2-.3.1-.5 0s-.3-.4-.6-.5c.1.1.3 0 .2 0-.4-.5-.9-1.2-1.2-2.5l.1.1-.1-1.8c-.1-.2-.1-.5-.2-.3.6-1.7-.2-3.2.4-4.7 0 .2.1.4.1.3v-1.3c-.2.1-.1.2-.3.4-.1-.2-.1-.5-.1-.9.1.6.3 0 .4-.2-.1 0-.1-.1-.2 0 .4-.6-.3-.1 0-1l.1.1c0-.3-.1-.7 0-1 .2-.1.1.4.2.4 0-.5-.3-1.1-.1-1.5 0 .2 0 .5.1.8.3-.5.2-.6.3-1 0 0 0-.2.1-.5v-.5l-.1.2c-.1-.1-.1-.2-.2-.2l-.6-1.3v1.2c0 .6-.5 1.1-.6 1.9.1-.9-.1-.2-.3-.4-.2.2-.4.4-.4.3 0 .4-.5.5-.5 1.2-.1 0-.2.4-.3.2-.2.5.2 0 .2 0-.2.8-1.2 1.5-1.6 2.7l-.9 2.1c-.3.2-.1-.4-.1-.4-.4.3-.6.7-.9 1.1 0-.1-.1-.1-.3 0-.2.3 0 .4-.4.7v-.5l-.8 1.2c-.2 0 .1-.3.1-.5-.3.4-.9 1-.9 1.3l.3-.2c-.1.1-.2-.1-.1-.2.2-.4.5-.4.6-.4l-.2.3c.6.1.9-1 1.4-1.5v.4l.3-.7c.2-.1.4 0 .2.3.4-.3.2-.4.6-.6l.2-.4c0 .1.2.1 0 .3.7-.6.6-1.3 1-1.4v.1c.6-1.1-.1-.2.2-1.1l.8-.2-.1-.2c.1-.1.2-.3.3-.2.1-.5-.1 0-.1-.3.5-.4.8-1.5 1.1-1.4 0-.3-.4.4-.2-.2.4 0 .3-.7.7-1.1.1.2-.2.6.2.3-.1-.5.6-.9.7-1.4-.1-.1 0-.3.1-.6l-.5-.1v1.1c-.1-.1-.3 1.4-.4 2.1.3.2.1.9.1 1.4-.2 0-.2-.1-.3-.4v.5c.1.1.1.3.1.6l-.2-.1c-.1.7.1 1.4-.1 2.2.2.1.6-.7.6.3-.1 0-.3.1-.3-.2 0 .1.1.3 0 .4l-.2-.4c-.1.4.1.2.1.5l-.2.2c0-.1.1-.3 0-.4 0 .4-.2.8-.3.9.1 0 .2 0 .2.3 0 .7-.2.2-.3.6.1.2 0 .6.2.6 0 .2-.1.2-.2.3.1.4.1 1.7.3 1.3v-.1.1c.2.6.2 1.2.3 1.8.1.6.3 1.2.7 1.7h-.1c.3.3.6.6 1 .7.4.1.8.1 1 .1.2 0 .5.2.4.2.5-.1.6-.1 1.4-.1-.5.2.2.1-.5.1.7 0 .9.1 1.6-.1-.2.2.5.2.8.1l-.5-.1c.4-.1.7-.1 1-.1l-.1.3h.9l.9-.1c.6-.1 1.1-.2 1.6.1.4-.2-.7-.1-.4-.3.6 0 1.3.4 1.5.4.9.1.8-.4 1.7-.2-.1-.1-.2-.3.5-.4.6.1.8.4.4.5-.2 0-.2 0-.2-.1-.2 0-.5.1-.2.2l.1-.1c.3.1 1.2.1 1 .3.5-.1.2-.1-.1-.2.2 0 .4.1.5.1h.3c.2 0 .3 0 .4.1 0 0 0-.2.1-.1.5.1.5-.1 1.2-.1-.2.1-.7.2-.1.2-.4.3-.6.2-.8.2.2 0 0 .1-.1.2-.2.1-.4.1-.4.1h-.30000000000000004.3c.1.1.5.1.5.3-.2 0-.4.3-.6.2.3-.1.2-.1.2-.2-.1 0-.1-.1-.1-.2l-.1.1v-.1h-.2l-.2.1c-.1.1-.1.1-.1.2-.1.1-.1.3-.6.5.1-.2-.3-.1-.4-.1.4-.2.3.1 0 .4-.6.1-.6.3-.9.5l.4-.1c-.1.2-.4.3-.8.5-.1-.1.3-.2.2-.2-.4.4-1.1.2-1.7.7l-.4-.2-1.4.5c.3.1.3.1-.2.4 0 0 .3-.1.6-.3.3-.1.6-.3.6-.3s-.2.1-.3.3c-.2.1-.3.3-.3.3.4-.1.7-.4.9-.4-.3.3-.3.2-.1.3-.6 0-.9.5-1.6.5l-.1-.4c-.9.1-1.5.6-2.8.8h.4c-.1.2-.7.2-1.1.4 0-.2-.3-.1-.5-.2.1.1-.9.2-.9.6h-.6c-.5.1-.7.4-1 .6-.2.2-.4.4-.9.8.2-.3-.4 0 .3-.7-.4.3-.8.5-.7.6-.2.1-.4.3-.6.5-.2.1 0 .3.1.4.1.1.1.3.1.4.2.2.4.2.6.6 0 .1-.1 0-.1 0s.2.1.3.2c.1.1.2.1.1-.1.2 1.1 1.9 2 2.1 2.9.5.5 1 1.1 1.2 1.6-.1 0-.1 0-.1-.1.2.8.6.3.7 1.3-.1.5-.2-.5-.3-.1-.4.2.3 1.1.1 1.8v-.1c-.1.5.3 1.2.2 2h-.1c.1.3.2.7.2 1.1l.1 1.1c-.2-.4-.1-.3-.3-.4 0 .3.3.2.3.8-.1.1-.2.3-.4-.1v-.4c-.1-.1-.1 0-.1.1s.1.4.1.4l-.1-.3s-.1-.1-.1 0c-.1 0-.1.1-.5-.2v.2c-.2 0-.3-.1-.3-.2s-.1-.2-.4-.3v-.3c-.4-.2-1.3-.6-1.9-1 .5.1 1.2.5 1.7.7-.3-.2-1.1-.8-1.4-.8.1.1.3.1.4.3-.5-.1-1.1-.4-1.7-.9.2-.2-.1-.5-.4-1-.4-.5-.8-1-.8-1.4-1-1-1.5-2.2-2.4-3.6-.1.7-.3-.4-.6-.1-.2-.3-.3-.4-.3-.5l-.7-1.7.4.2c-.7-1.3-.2-.8-.7-1.9.1.4-.3 0-.7-.8 0 0 0 .1-.1.1l.1-.1.5 1.3c-.2-.3-.4-.5-.5-.8-.2.4-.3.4-.5.7-.2.2-.4.7-.7 1.6l.2-.8c-.1.3-.3.7-.5 1.1-.2.3-.3.7-.5 1.1-.2.5-.4 1-.4 1.3-.1.1-.3.1-.2-.1-.7 1.2-1.3 2.8-2.2 3.5v-.2c-.1.2-.1.5-.4.6 0 0 0-.1-.1-.1-.1.1-.3.6-.6.8l.1-.3c-1 .8-1.3 1.6-2.2 2.3-.2-.3-1.1.3-1.6.6-.3.2-.6.4-.8.6-.1.1-.1.2-.2.2-.1.2-.3.4-.5.8l-.1.2c.2-.6.3-.8.3-1l.1-.7.3-1.2c-.1.2-.2-.1-.2-.4.1-.3 0-1 .3-.9v.1c.3-.2.4-.9.6-1.4l-.4-.2c.5-.6.7-1.5 1-2.4.2-.8.5-1.6.9-1.8l.4-1 .2.1c.3-.4.5-.6.7-.9.1-.1.2-.3.4-.4l.2-.2.1-.1s.2-.2.3-.2c0 0-.3.4-.2.4l.3-.3c.1-.1.2-.2.3-.2.2-.2.2-.3.3-.4l.2-.3.1-.2c0-.1-.1-.2-.2-.2l.3-.2-.9-1.1-.4-.5-.3-.4c-.4-.5-.8-.9-1.3-1.3 0 0 .1-.1.3.1-.4-.4-1.4-1.7-1.6-1.3.2-.2-.9-.9-1.5-1.2l.2-.1c-.6-.2-.6-.1-1.3-.6-.1-.1 0-.2.1 0-.4-.5-.5-.2-1-.7l.3.1c-.5-.4-.5-.3-.8-.4-.4-.2-.9-.8-.8-1-.1 0-.5-.1-.7-.4 0-.1.1 0 .2 0-.7-.8-1.3-.8-1.7-1.5v-.2c.6.6 1.1 1 1.1 1 .1-.1-.4-.6.2-.5-.5-.2-1.4-.6-1.8-1.1v-.1h.1c-.1-.1-.2-.2-.3-.2-.1-.2-.2-.3-.4-.4.1-.2-.5-.6-.7-.8-.1.2-.4-.2-.2.3 0 0 .1 0 .2.2l.1.1c.2.1.4.3.6.6-.3-.1-.5-.2-.7-.6-.2 0-.5 0-.6-.1-.1-.5-.6-1.3-.6-1.5-.8-.6-1.7-1.7-2.4-1.9-.2-.2-.1-.3-.1-.4.1.1.3.2.3.3l-.3-.3-.3-.3c-.2-.2-.4-.3-.6-.4-.1-.2.1-.1.2-.1l-.1-.2.2.1c0-.1 0-.2-.2-.4.1-.1.1-.2.3-.3.1-.1.4-.1.7 0 .2 0 .3.1.5.2s.4.2.7.4c-.1-.1-.2-.1-.2-.2 2.2 1.1 4.6 2.1 6.6 3.7.6.4.8.3 1.2.3v.3l.8.1c1 .3 1.4 1.3 2.7 1.5l-.1-.2c.4.2 1.4.6 1.2.7.1 0 .2-.1.3.1v.1l1.1.3c.8.5-.3.4.8.9.5.2 1.4.3 1.3.2-.2-.1-.4-.3-.4-.4l.4.1c.2-.3.7-.4-.2-1.1l-.8-.1-.1-.3.6.3c-.3-.3-.5-.3-.8-.3 0-.1-.1-.2-.2-.3h-.8c0-.2.4-.1 0-.4-.4 0 .2.4-.4.3-.3-.3-.1-.4-.5-.4 0-.1.1-.1.3-.1-.4-.1-.9-.4-1.2-.3-.3-.3-1.2-.5-1-.8-.1 0-.7-.1-1-.2.7-.1-1.2-.6-.8-.9-.3.1-.7-.1-1.1-.3-.4-.2-.8-.4-1.3-.5h.2c-.4-.2-.5-.4-.7-.6-.2.2-.9-.1-1.3-.1-.4-.5.5-.1.5-.5-.1.2-1-.3-.9 0-.3-.4-.3-.3-.4-.6-.2.3-.4-.1-.8-.1-.5-.5 0-.4-.7-.6-1-1.6-.4-1.4-.4-1.4zm.4 7.6c-.1-.1-.2-.2-.3-.2 0 0 .1.1.3.2zm1 .9c-.1-.1-.3-.3-.5-.4 0-.1.1-.1.2 0 0 0 .2.2.3.4zm-1.2-3.1c.2.1.2.2.2.3-.1-.1-.2-.1-.2-.3h-.1.1zM262.8 41.1zM286.1 41.5zM270.9 57v-.1zM287.2 33.8zM287.5 30.5l.1-.5c-.1.2-.1.4-.1.5zM285.8 30.9zM299.7 49.6c-.3.2-.1.1 0 0zM298.7 45.1l.4-.1c-.2 0-.4 0-.4.1zM288.5 53.8v.1zM299.7 45h-.6.6zM279.3 39.6l-.1.1.1-.1zM279.3 39.7l-.1.1s.1 0 .1-.1zM279 40.1l.2-.2c-.1 0-.2.1-.2.2zM281.6 37.3zM282.3 36.5c-.2.2-.5.4-.7.7v.1c0-.3.6-.6.7-.8zM285.4 33.4l-.5.7c.1-.1.3-.2.2.1.7-.8-.3.2.3-.8zM286.8 31.1c-.2.4.1.1.1.1.1-.3.1-.4-.1-.1zM289.7 46.2v.2c.3-.1 0-.1 0-.2zM293.4 44.9l-.4-.1-.1.2zM295.6 46.2l-.2.1.6-.1zM289 57.2l.1-.2c-.2-.1-.4 0-.1.2zM290.8 65.9c-.1-.2-.1-.4-.3-.3l.3.3zM271.3 61.2v.2l.1-.5z"/></g></svg>