<svg xmlns="http://www.w3.org/2000/svg" width="70.406" height="69.492" viewBox="0 0 70.406 69.492"><title>Layer 1</title><path fill="#0071BC" d="M35.623 69.492l-1.818-.012-1.778-.102-1.763-.195-1.727-.273-1.72-.359-1.666-.441-1.647-.516-1.598-.602-1.566-.672-1.528-.732-1.481-.809-1.447-.887-1.381-.947-1.356-1.008-1.285-1.078-1.241-1.125-1.175-1.184-1.125-1.24-1.058-1.303-1.005-1.34-.938-1.402-.857-1.438-.804-1.477-.727-1.531-.645-1.569-.58-1.602-.489-1.633-.419-1.675-.329-1.705-.242-1.727-.162-1.764-.066-1.777.028-1.789.108-1.754.202-1.742.287-1.717.385-1.684.453-1.658.533-1.621.611-1.586.692-1.553.756-1.512.845-1.47.891-1.43.974-1.375 1.03-1.326 1.092-1.289 1.143-1.227 1.215-1.182 1.269-1.104 1.313-1.062 1.375-.994 1.417-.926 1.466-.865 1.5-.801 1.553-.723 1.596-.652 1.62-.58 1.669-.49 1.694-.416 1.721-.342 1.768-.254 1.769-.166 1.814-.077 1.803.016 1.788.109 1.759.178 1.737.281 1.702.359 1.684.439 1.631.52 1.604.592 1.566.672 1.532.75 1.482.807 1.436.883 1.397.943 1.341 1.01 1.29 1.068 1.235 1.135 1.186 1.189 1.125 1.242 1.064 1.291.997 1.35.935 1.385.868 1.445.796 1.488.722 1.514.657 1.576.569 1.596.494 1.648.409 1.67.343 1.701.243 1.727.151 1.756.07 1.795-.022 1.779-.113 1.766-.213 1.734-.287 1.717-.367 1.68-.453 1.658-.55 1.625-.612 1.586-.675 1.549-.771 1.516-.828 1.467-.901 1.424-.963 1.381-1.037 1.338-1.085 1.277-1.16 1.23-1.208 1.17-1.265 1.123-1.318 1.045-1.364 1.002-1.423.934-1.468.864-1.51.795-1.553.723-1.578.648-1.632.572-1.665.508-1.694.416-1.73.336-1.751.25-1.786.17-1.8.074"/><g fill="#fff"><path d="M36.422 56.473l-.13.371-.048 1.633-.338.752-1.231.441-.532 1.039.024 1.518.964.732 1.453.877 1.593 1.56 1.038 1.217.826.047.078.895-.401.902.149.619.088.07 3.57-.707 3.442-1.033 3.315-1.388 3.908-2.157 3.465-2.535.061-1.027.591-1.528 1.082-1.527.607-.902-.897-.678-.481-.064-1.155.504-2.263.513-1.849.246-1.522-1.765-2.406.047-1.778-.309-2.069-.865-1.641.377-2.256.037-.887.424-1.653-.58-1.094.5-.943.767-.528.547-.846-.178-1.306-.115-1.106-.805-.207-.552.326-.963.063-.823-.762-.546-1.163-.317-1.302.02-.151-.619.407-.768.193-1.309-.769-.464-1.019.355-.405.695-.746.221-.97-.328-1.318-1.07-.144-1.373.181-1.243 1.087-1.465 1.435-.302.896.121.614.34.617-.082.688-.36 1.16.114 1.101.466.774 1.153.622.884.685-.214-.215-1.096-.429-.895.196-1.103.536-.906 1.349-.981.816-.701.059-1.305.534-1.461.672-.982.477-.139.272-.691.665-1.045.614-.287.621.33.473-.551 1.024-.572.743-.426-.282-.687-1.028.162-.48-.139-.071-.744-.689-.197-.678.554-.749.364-.078-.34.745-.776 1.223-.636.76-.08 1.026-.44.329-.758-.355-.965-1.039-1.216-1.871-1.414-1.102-.118-.618-.123-.624-.812-1.855-.793-.685.217.01 1.172.086 1.511.49.539-.404.623-.182 1.317-.196 1.174-.764-.682-.551-.883-.084-1.027-.896-.399-1.379-.32-.493-.746.12-1.586.813-1.258 1.289-1.254 1.156-.853.53-.69-.62-.679-.819.293-.893-.266-.151-.896-.081-.825-.616.012-.186 1.182-.549.488-.472-.338-.026-1.445-.351-.948-.763-.404-.622-.955-1.027.088-.613.566.761.664.152.825.898.675-.126.899-2.774-2.152-1.447-1.282-.77-1.092-.006-.966-.294-1.293-.627-.274-1.159.022-.48.283-.619-.123-.682.07-.262.698-.273.486-1.31-.246-.811.556-.465.979-.268.824-.751-.119-.766-.607.284.892 1.177.529 1.305.463 1.103.602.426 1.154.084 1.307-.452 1.933-.598 2.004-.12 1.588.018.901.218.953-.814.98-.741 1.258-.73 1.66-.321 2.002-.24 2.824.29 1.026.572 1.918.424 1.504.64 1.783.828.881.694.259-.696-.814-.359-1.025-.213-1.17-.217-1.024.539-.144.287.82.499 1.988 1.057 2.117.291 1.159-.272.763.637.952 1.238.595 1.873 1.694 1.161.461 1.798.582 2.056.859 1.042.678.967.867.776 1.707 1.513.594.97.328 1.094-.151 1.162.114"/><path d="M32.559 48.697l.82-.363 1.309.32 1.509.461 1.162.112 1.039.472-.269.547-1.233.164-1.029-.744-1.246-.602-2.062-.367"/><path d="M38.742 50.029l-.053.553.891.336.824.119 1.434-.228-.967-.545.067-.338-.556-.201-1.64.304"/><path d="M43.851 29.914l.484.477.902.738.962.803.283.615-1.512.033-.964-1.082-.352-.76.197-.824"/><path d="M37.408 24.322l-.892-.265-1.1-.19 1.088-.838.054-1.177-.494-.745-1.306-.39-.896-.399-.901-1.16.743-.703 1.036.268 1.308.668 1.241.658.492 1.094.417.332 1.029.466.634 1.096-.547.621-.186.906-.817.147-.903-.389"/><path d="M42.4 23.266l1.241.8.553.274 1.232-.371 1.493-.512-1.444-.521-.485-.754.12-1.311.109-2.266.816-.775-.014-1.232-1.314-1.286-1.385-1.009-1.659-.524-1.371-.871-1.583-.039-1.227.432-.611.771-.687.08-.063-.548-.965.011-1.155.504.21.758-.532 1.316.563.817 1.092.668.47-1.662.537-.627.363 1.16.96.949.897.398 1.39 1.071 1.179 1.084.293 2.064.829.459.148.692"/><path d="M47.058 17.609l.159 1.162.41.622.754.324.953-1.112.389-1.39-.827-.604-.89.291-.402.551-.546.156"/><path d="M61.594 11.914l.49 1.166-.057 1.16.284.965.97.606-.068.757-.813.282-.548-.049-.743.353 1.513.666-.199.619-1.373.018.147.764.352.947.02 1.107.626 1.018.489.961.763.68-.339.474-.129.487-.262 1.048-.814.629-1.311-.802-.075-.762-.771-.67-.006-.967.671-.703-.073-1.023-1.246-.325-.615.01-.415-.682.12-1.587-.909-1.704-.9-.605-.293-1.086-.229-1.514-1.109-1.638-.291-1.233-.898-.326-.954-.537-.56-.334-.338.357.489.539-.813.631.751.192.837.609.9.881 1.104.6-1.094.5-.334.697-.965-.195-1.165-.594-.918-1.506-.694-.535-1.577-.793-1.177-.602-.828-1.16.945-.562 1.711-.303-.209-.758-.688-.197-.202.416-1.175.025.202-.765-.754-.323-.488-.683-1.382-.877-2.076-1.41-.415.222-.389.487-.891.289-.561-.262-1.029-.188-1.364.096-.682.42-1.434.23-1.303-.185-.898-.328-.139-.684-1.379-.043-.54.494-1.436.096-1.301.297.011.75-.683.422-1.439.166-.538.424.21.685-.615.36-1.71.232-.126.619-.057.768-.548.344-.948.984-.68.697-.877.707-1.096.223.274-.414.533-.834-.146-.485-.882.02-.487-.684-.427-.687.678-.76.741-.631.617-.084.548-1.043-.158-1.162.82-.363 1.151-.567.059-1.304-.627-.551-.618-.195 3.192-1.145 2.683-.748 2.606-.506 3.261-.373 2.901-.072 3.396.223 4.219.718 4.123 1.245 2.81 1.212 2.899 1.532 2.452 1.601 2.3 1.725 2.019 1.9 1.355 1.428.058.328"/><path d="M53.625 16.117l-.615.289.274.608.638.951.211.685.288 1.026.973.812.674.055-.272-.607-.842-.743-.069-.423.83.343.9.459.822.264-.005-.688.029-.07.029-.07.017-.076.002-.073.003-.142-.014-.141-.031-.137-.024-.101-.021-.057-.008-.035-.55-.328-1.722-.723-.758-.341-.759-.737"/><path d="M63.955 14.611l-.06.91.289 1.026-.276.557-.471.013.415.682.836 1.076.082 1.451-.75-.191-.484.078-.115 1.648.087 1.44-.199.691.079 1.246-.406.696-.251.892.417 1.238.705 1.635-.052 1.176-.039 2.412.302 2.186.569 1.785.91 1.98 1.181 1.291 1.38.321.802-1.264.545-.826.746-.338.181-2.221.022-2.056-.089-2.112-.263-2.482-.56-2.916-.695-2.489-.782-2.208-.978-2.2-1.001-1.951-1.216-1.953-.861-1.223"/></g></svg>