<svg xmlns="http://www.w3.org/2000/svg" width="437.065" height="248.898" viewBox="0 0 437.065 248.898"><ellipse fill="#fff" cx="294.833" cy="162.001" rx="31.167" ry="43.333"/><g fill="#fff"><ellipse cx="187" cy="149.667" rx="57.334" ry="64"/><ellipse cx="262.5" cy="140.001" rx="40.834" ry="55.333"/><ellipse cx="237.833" cy="161.001" rx="31.167" ry="43.333"/><ellipse cx="125.833" cy="163.001" rx="31.167" ry="43.333"/><ellipse cx="322.922" cy="128.001" rx="27.256" ry="43.333"/><ellipse transform="matrix(-.102 .995 -.995 -.102 563.136 -152.894)" cx="350.591" cy="177.777" rx="20.025" ry="43.332"/><ellipse transform="matrix(-.102 .995 -.995 -.102 518.957 -111.006)" cx="309.591" cy="178.777" rx="20.025" ry="43.332"/></g><ellipse fill="#fff" cx="94" cy="147.667" rx="57.333" ry="64"/><ellipse fill="#fff" cx="317.833" cy="143.001" rx="31.167" ry="55.333"/><g fill-rule="evenodd" clip-rule="evenodd"><path fill="#293991" d="M45 122c1.747.236 1.592 2.479 2.698 2.885 1.539.564 2.22 1.81 3.278 2.659.197.827-.361 1.727.476 2.416l1.044-.928c1.418 1.286 3.023 2.482 2.6 4.535 1.622 1.856 4.413 2.041 4.987 5.06-2.811.407-5.45.749-8.315-.244-2.183-.758-4.391-1.873-6.914-1.42-1.2.215-2.518.229-3.503-.814-.117.118-.28.217-.338.358l-.013.493c-.985 1.144-2.628 1.218-3.481 1.946-2.199 3.629-3.482 7.41-6.519 10.054-1.874 2.012-2.814 4.615-4.657 7.081-1.18-6.426-4.44-12.066-5.708-18.67l-3.112-2.538c-.107-.021-.467.597-1.184 1.288-1.86-1.804-4.714-.591-6.783-1.696-3.088 1.095-6.378.275-9.556.535v-2c1.91-1.744 3.809-3.5 5.733-5.228 2.04-1.83 3.662-4.084 6.248-5.375 1.229-.613 2.08-2.047 3.008-3.185 2.233-2.736.386-5.41-.361-7.999-.46-1.594-1.639-2.967-2.388-4.492-1.934-3.937-2.862-8.054-2.028-12.457 1.105-.511 2.242-.237 3.307-.194 1.185 1.018 2.839 1.792 3.362 3.041.765 1.826 2.705 1.608 3.62 2.862l1.128-1.014.686 1.927h2.977c1.771 2.107 4.381 2.869 6.708 4.113.777.763 2.451.431 2.521 2.061-.167 1.938-1.454 2.852-3.305 3.559-3.228-1.41-6.288-3.432-9.737-4.601-1.064-.36-1.953-.714-1.887.971-.032.35-.202.581-.528.702.186.702.993.027 1.253.567 3.226 9.037 3.193 9.253-3.058 18.517 6.222 1.627 9.713 5.86 11.194 11.839.153.304-.206.665.062 1.01.299-.434-.167-.827.016-1.236.218-3.542 2.897-5.792 4.345-8.711 4.58-1.931 8.728.998 13.053.902.226-.349.755-.025 1.009-.43-.477-.156-.672.478-1.116.336-2.296-1.166-2.621-3.521-3.407-5.604.303-1.463.44-3.076 2.585-2.881z"/><path fill="#E3E5F0" d="M242 0v1c-2 1.646-4 1.646-6 0v-1h6z"/><path fill="#25A9E0" d="M222 148.644v6.491c-.002 6.62-3.185 13.968-7.039 19.582-4.197 6.115-9.96 9.38-16.693 11.505-2.691.849-5.408 1.68-8.252 1.76-2.994.083-5.992.039-8.987.014-4.242-.037-15.639-3.633-18.816-6.358-5.642-4.838-10.324-10.453-12.195-17.887-1.004-3.986-1.718-8.025-2.055-12.146-.43-5.259.506-10.406 1.133-15.555.367-3.013 1.811-6.038 3.263-8.571 1.604-2.798 3.15-5.815 5.7-8.214 4.13-3.887 8.802-6.553 14.107-8.24 2.116-.673 4.266-1.104 6.568-1.112 2.35-.008 4.617-1.344 7.075-.907 6.437 1.144 12.98 1.404 18.978 4.861 4.63 2.668 8.309 5.896 11.246 10.277 3.979 5.935 6.239 12.309 5.976 19.507-.061 1.661-.009 3.328-.009 4.993zM131.124 132.375l-3.509 3.51h-6.101c-1.828-.675-3.339-1.975-4.38-4.156-1.717-3.596-5.012-5.945-7.661-8.788-1.711.818-2.903-.569-4.125-1.048-4.68-1.833-9.048-.648-13.454.727-4.389 1.369-7.508 4.112-10.197 7.969-3.148 4.516-4.228 9.387-4.671 14.587-.169 1.984-.012 3.996-.03 5.995-.05 5.321 1.268 10.416 4.119 14.762 2.411 3.675 5.288 6.969 10.245 8.214 7.602 1.91 7.447 1.949 14.309 1.003 3.691-.509 7.014-1.452 10.248-3.121.395-.203.985-.027 1.638-.027l2.381-2.666c.005-.059.06-.379.061-.699.006-3.133.004-6.266.004-9.135l-1.316-1.316c-6.108-.838-12.417.941-18.314-1.179-1.816-4.422-1.818-4.6-.17-8.704 1.753-1.499 3.865-1.316 5.959-1.31 6.664.022 13.33.072 19.993-.03 1.984-.03 3.773.359 4.832.902 3.495 3.733 3.04 7.824 3.021 11.832-.016 3.165-.002 6.331-.003 9.496-.003 6.869-.822 8.551-6.949 11.731-2.29 1.188-4.613 2.41-7.131 3.312-2.422.867-5.022 2.1-7.399 2.467-2.97.459-5.938 1.408-9.022 1.317-2.997-.088-6.11.493-8.973-.131-5.113-1.116-10.261-2.097-15.019-4.746-8.064-4.491-13.217-11.157-16.441-19.576.445-2.632-1.676-4.916-1.052-7.553.408-1.723-1.508-2.769-1.089-4.604.362-1.583-.159-3.354.117-4.974 1.098-6.448 1.36-13.066 4.897-18.965 3.312-5.522 6.681-9.334 12.2-12.47 6.488-3.687 8.242-3.896 15.395-5.159 3.068-.541 6.1-1.098 9.103-.765 6.204.69 12.438 1.444 17.944 4.902 4.473 2.81 8.082 6.439 10.041 11.304.81 2.017.36 4.542.499 7.092zM240.321 184.699c-2.918 2.922-5.285 2.122-7.134 2.308-6.467-1.823-5.008-6.882-5.203-11.213 1.942-2.702 2.576-5.962 3.948-8.896 1.821-3.897 3.163-8.018 4.712-12.042 2.158-5.606 4.275-11.229 6.41-16.844 1.256-3.304 2.802-6.495 3.99-9.846 1.544-4.349 3.423-8.578 5.148-12.862 1.014-2.517 3.223-4.03 4.997-6.059 1.289-.273 2.722-1.105 3.892-1.111 4.084-.02 7.791.689 10.509 4.713 1.983 2.936 2.942 6.177 4.295 9.26 2.1 4.785 4.009 9.669 5.999 14.509 1.81 4.401 3.66 8.816 5.184 13.356 1.317 3.928 3.322 7.618 4.851 11.482 1.87 4.727 3.33 9.628 5.423 14.248 1.054 2.326.192 4.525.752 6.723l-4.659 4.422h-4.549c-2.802-.806-3.935-2.661-4.96-4.929-1.846-4.082-3.987-8.017-5.003-12.437-.127-.551-.896-.954-1.396-1.453h-30.146c-2.637 5.771-4.256 12.108-7.06 16.671z"/><path fill="#8CC53F" d="M31 149c-.087-1.879 1.145-3.153 2.069-4.581 1.422-2.196 2.817-4.414 3.154-7.419h4.777c.283 2.107-1.116 2.791-2.764 3.265-.269.931-.584 1.866.233 2.704l1.077-.956c.901 1.3.798 2.444-.542 3.418l.977 1.071-.947 1.015c-.202.819.595 1.259.667 1.757.677 4.653 2.809 8.89 3.468 13.611.635 4.55 3.138 8.684 5.775 12.543.277.405.903.656 1.019 1.075 2.119 7.64 8.49 11.963 13.403 17.449 2.854 3.186 6.16 5.93 9.89 7.553 3.936 1.712 7.546 4.265 11.85 5.176.425.09.883.311 1.354.313 2.331.013 4.704.279 6.981-.072 2.251-.347 3.945 1.324 6.093 1.102 2.538-.264 5.02-.175 7.618-.861 4.571-1.207 9.352-1.741 14.104-2.244 3.224-.341 6.438-1.249 9.501-2.341.952-.34 1.896-.269 2.735-.614 1.991-.82 4.099-1.137 5.916-2.7 2.509-2.158 5.867-3.278 8.048-6.415 5.383.966 11.283.704 14.559 6.7.918.944 2.154.224 3.562.547 2.809 3.694 7.953 3.315 11.904 5.671.918-.495 1.959-1.251 3.344-.479l.333 1.62c1.964.121 3.991.499 5.84-.907.291.376.94.394 1 1-.114.626.267.941.784.987 3.697.326 9.82-1.279 14.056-3.647l-.981-.981c1.669-.339 3.06-.951 4.44.384 2.982-.639 4.461-2.978 5.609-5.239 1.136-.803 2.147-.376 3.092-.503.295-.372 1.005-.328 1-1 1.25-2.084 2.917-3.75 5-5 1.166-.603 1.31.301 1.557 1.051-.024.585-.188 1.102-.739 1.407-.276.228-.599.359-.96.386l.533.005c.295-.248.631-.359 1.016-.345 1.281.256 1.948 1.239 2.645 2.187.241.295.469.605.698.907.48.563 1.031 1.046 1.679 1.413l.489.251.5.229c.529.188 1.07.321 1.629.398.994.091 1.988.165 2.954.431.606.145 1.21.296 1.826.397 2.414-.176 4.408 1.408 6.732 1.581.393-.088.791-.148 1.188-.198.96-.062 1.915-.147 2.718-.767.604-.423 1.157-.902 1.674-1.425.359-.413.686-.852.967-1.326.176-.341.384-.654.61-.961.38-.457.823-.84 1.304-1.187.314-.248.644-.476.971-.703.622-.483 1.184-1.025 1.644-1.659.196-.312.423-.608.655-.893.334-.388.824-.617 1.115-1.051.086-.305.225-.591.406-.851.162-.259.37-.481.619-.661l.024-.445-.048.454c-.26.189-.47.42-.635.695-.279.403-.494.859-.953 1.111-.317.157-.648.21-.998.163l-.483-.197-.337-.398 3.477-5.998c2.02.248 4.442-.758 6.617 1.146l1.803-1.327c1.866 2.342 4.829.332 7.094 1.696.073.044.009.316.009.482-.271.237-.582.391-.935.462-.353.016-.706.021-1.058.021h-2.066l-.486.001-.482-.001-.447.001h-.445l-.4.002-.4-.004-.33.146.377-.053c.28-.056.553-.073.837-.058h1.873l1.003.001 1.027-.001c.348-.001.693-.009 1.039-.027.345-.079.645-.237.894-.489.611-.125 1.324.305 1.922-.432l-.799-.991c.199-.541.199-.541 2.706-.498 1.872 2.964 2.905 6.957 7.171 7.921 1.299.578 1.564 1.846 2 3 1.109.731 2.059 1.735 3.438 2.007.713.102 1.342.368 1.845.898.213.435.313.892.29 1.376-.116.475-.362.869-.732 1.188-1.054.627-2.242.663-3.413.78-.925.079-1.817.329-2.714.565-1.183.28-2.367.369-3.556.033-.463-.178-.848-.462-1.158-.848-3.002-2.01-4.896-5.37-9.108-6.921h-9.471c-2.36 2.36-4.668 5.29-7.574 7.391-2.629 1.9-4.958 4.392-8.276 5.268-5.655.892-10.886-.358-15.825-3.382-1.383-.847-2.968-2.045-5.315-1.071-3.459 3.291-8.433 4.749-12.984 7.066-4.746 2.417-9.877 2.588-14.694 4.278-5.246 1.841-10.538-1.412-16.113-.523-2.201-2.515-5.338-2.144-8.154-2.1-.816-.901.356-.811.308-.916.072-1.419-.761-1.072-1.237-1.065-.701.01-1.278-.087-1.725-.686-.497-.665-1.23-.239-1.851-.334-2.725-.417-5.137-1.346-7.052-3.502-.832-.936-1.482-2.229-2.926-2.503-1.311-.711-2.87-.927-4-2h-1c-.291-.178-.419-.436-.395-.747-.01.028.278-.209.278-.209l-.345-.139c-.119.402-.151.837-.539 1.095-1.645 2.699-3.777 4.724-7.115 4.986-.856.068-1.365.757-2.035 1.1-3.917 2.007-8.319 2.457-12.302 4.044-2.719 1.083-5.808-.108-8.202 1.87-2.07-1.283-4.332-.301-5.993.391-2.34.976-4.63-.085-6.711.667-4.312 1.558-8.74.496-13.067 1.009-2.698.319-4.974-1.324-7.575-1.066-.937-.728-2.23-.637-3.156-1.377-.507-.138-1-.326-1.49-.505-.309-.079-.629-.13-.951-.141l-.467-.004-.47.007-.467.019c-3.826-.58-7.098-2.597-10.705-4.275-.646-1.056-.76-2.938-2.984-2.75-1.312.111-1.972-.81-2.311-1.975-1.002-.57-1.739-1.629-3.039-1.646-.335.193-.656.407-.961.646-5.348-4.077-10.031-8.938-13.726-14.431-4.713-7.009-7.952-14.876-10.261-23.051-1.048-3.709-3.047-7.152-3.126-11.132-1.516-1.105-.686-2.72-.873-4.108-.09-.668-.036-1.355-1.014-1.278z"/><path fill="#25A9E0" d="M325.999 118c1.673.178.965 1.488.968 2.288.047 12.147.032 24.295.032 36.443v17.269h25.458000000000002c1.997 0 4.229-.559 5.925.156 1.71.721 3.717.658 5.144 2.052.714.562.4 1.824 1.469 2.283v5.024l-3.568 3.484c-14.091 0-28.236-.081-42.379.054-3.74.036-6.57-.881-8.043-5.184v-67.375l4.758-4.495h4.237c.353-.355.764-.47 1.245-.309.623.336 1.11.815 1.493 1.403 1.546 2.083.923 5.192 3.261 6.907z"/><path fill="#8CC53F" d="M350.999 119v6c1.33 2.333-.333 4.666 0 7-.315 2.056.693 3.667 1.757 5.27-1.646 3.921 1.056 6.903 2.237 10.219v7.22c1.518.599 3.206.439 4.754.235 3.155-.417 6.026.804 8.945 1.449 1.043.231 2.191.277 3.198.643 2.145.779 3.866-2.158 5.925-.667 1.851 1.34 3.853.186 5.145.566 3.219 1.576 5.664 3.234 7.937 5.321 3.608 3.314 5.327 7.527 5.935 12.016.362 2.676 1.622 5.188 1.244 8.058-.409 3.104-2.325 10.969-4.216 13.231-3.225 3.862-7.449 6.579-12.379 7.333-5.837.894-11.664 1.919-17.609 2.313-3.329.22-6.698.729-10.081.81-.518.013-.904.352-.791.983-4.554-1.272-6.499-5.1-8.604-8.775l.068-.729.351-.642c.397-.281.793-.565 1.186-.854 1.885.666 3.771 1.333 5.655 2 1.838-1.687 4.454-.279 6.328-1.553.962-.653 1.886-.421 2.818-.425 4.001-.018 8.013.192 11.679-1.942.498-.29 1.297-.098 1.955-.075 4.915.164 9.121-1.322 12.337-5.362 2.716-8.477 1.464-16.164-5.127-22.62-4.301-.168-8.565.527-12.646-1.022-1.288-2.224-3.313-.764-5-1h-17.835c.288-4.812-1.749-9.408-1.176-14.297.129-1.103-.264-2.259.873-3.172.337-.271.4-1.549.09-1.85-1.973-1.912-.096-4.53-1.285-6.474-1.332-2.176-.428-4.482-.622-6.715-.12-1.376-.546-2.962.9-4.048-1.445-.902-.871-2.35-.929-3.6-.069-1.492-.169-3.011.017-4.483.333-2.64-1.494-4.874-1.106-7.58.35-2.443.456-5.051-.016-7.452-.711-3.613-1.897-7.156-3.911-10.33 2.463-1.842 5.217-1.554 7.996-1.104 1.621.911 1.961 2.764 3.004 4.104-.473 1.548 1.304 2.471 1.05 4.053-.232 1.449.059 2.974-.071 4.449-.286 3.244.465 6.356 1.021 9.498-.481 1.296-2.386 2.237-1.001 4z"/><path fill="#283891" d="M346.999 94l-.325-.825c-2.425 1.518-5.114.568-7.675.825-.634.172-.814-.436-1.362-.771-.749-.053-.996.843-1.664 1.268.184 2.535-.457 4.746-1.85 7.092-2.021 3.402-3.152 7.33-5.699 10.487.191 2.384-2.573 3.558-2.425 5.925-.831-.199-.922.817-1.596.879-1.474-2.366-1.511-5.255-2.404-7.879-.422-.407-.482-1.008-.794-1.475l-.206-.525c-.424-2.334-.742-4.715-2.907-6.386v-4.956c-2.449-1.922-2.628-6.05-6.857-6.286-.271-.123-.424.795-1.235.627-2.268 1.274-4.405 1.767-6-1-.831.149-.993-.758-1.595-.992-4.356 1.947-8.876.512-13.037 1.042-1.027-1.704.763-2.028.62-3.018-.09-.625.336-.923.701-1.202 3.775-2.885 7.371-5.935 10.298-9.745.264-.344 1.237-1.695 2.429-1.098 1.396-3.075 4.294-4.827 6.499-7.487.421-.75-.456-2.189 1.083-2.913-2.351-2.345-1.851-5.736-3.295-8.47-1.787-3.382-4.205-6.511-4.738-10.487-.075-.561-.977-1.107-.908-1.574.412-2.807-1.582-5.268-1.057-8.058.263-.222.35-.444.263-.667-.088-.222-.175-.333-.263-.333.136-1.766 1.573-.557 2.171-1.104 1.72 1.129 2.649 3.061 4.705 3.484 1.888.389 2.837 2.293 4.865 2.774 1.465.347 2.621 1.981 4.346 2.5 1.793.54 3.359 1.885 5.325 1.26 3.016 3.103 6.781 4.629 10.588 6.085.788.56 1.622 1.088 1.546 2.242-.331 1.862-1.573 2.804-3.789 3.465-5.011-3.959-11.305-6.064-17.338-8.684-.874-.38-2.329-2.787-3.479-.067.091.741-.251 1.465-.067 2.26.33-.306.602-.538 1.014-.38 6.684 7.543 7.059 18.676.92 26.307-1.654 2.055-3.239 4.165-5.486 6.404 2.687.959 5.149.832 7.433 1.517 7.016 2.106 8.425 8.341 11.251 13.645.691 1.297.235 3.564 2.655 3.585.779-.688.969-1.59.977-2.565.331-2.111.485-4.273 1.843-6.069.78-.801 1.27-1.764 1.562-2.84 1.011-3.613 3.704-4.408 6.94-3.917 4.871.738 9.834.747 14.643 1.883.531.199 1.026.479 1.439.852.304.03.613.025.913-.043.277-.077.563-.076.844-.006l-.146-.413s-.286.324-.303.322c-.521-.186-.993-.427-1.432-.764-3.284-2.902-5.113-6.84-7.514-10.372-.12-1.007.201-1.89.749-2.712.484-.561 1.005-1.032 1.826-.651 1.714.972 3.189 2.24 3.945 4.067.278.675.688 1.307 1.164 1.471 2.1.723 2.234 3.815 4.848 3.839v1.961c.266.247.485.631.712.634 1.586.026 2.633 1.35 2.96 2.303 1.348 3.918 4.569 6.198 7.491 9.396l-2.192 1.263c-1.292-1.587-3.54-.68-5.507-1.007-1.989-2.239-4.97-2.087-7.4-2.688-1.905-.472-3.943-1.214-6.021-1.237-1.002.853-2.002.718-3.002.002zM236 1h6c1.639 1.462 3.671.848 4.895.969 6.117 2.949 10.914 6.684 14.91 11.375 2.692 3.159 5.37 6.36 7.72 9.773 2.087 3.031 4.437 5.826 6.772 8.639 1.726 2.078 3.574 4.029 3.849 6.878 2.131 2.23 4.832 4.086 5.914 7.035.941 2.562 2.7 4.539 4.033 6.795 1.347 2.28 2.695 4.603 4.42 6.692.911 1.104.753 3.042 1.562 4.29.771 1.188 2.172 1.967 2.946 2.627-.056 1.629.226 2.696-.902 3.299.966 1.029.601 2.744 1.995 3.22-.571 2.147-1.857 2.539-3.459 2.409-1.375-1.008-.823-3.295-2.656-4-.742-.949-.998-2.223-2-3-2.051-.884-3.492-2.643-4.591-4.33-.738-1.133-1.61-1.653-2.555-2.315-3.825-2.681-7.992-4.756-12.381-6.248-1.235-.419-1.783-1.319-3.375-2.039h-3.53l-1.913-1.914c-5.775-.898-11.422-2.34-17.932-2.426l-.375.338c-1.352-.333-2.945-.734-3.901-1.359-2.095-1.37-4.349-2.589-6.264-4.167-1.683-1.386-3.288-3.268-4.022-5.264-.531-1.441-2.447-1.864-2.16-3.606-2.893-2.027-3.407-5.539-3.772-8.357-.557-4.292-1.837-8.578-1.288-13.043.314-2.558 1.354-4.78 2.366-7.024 1.282-2.844 1.443-2.845 5.201-5.245 1.497-.002 2.995-.002 4.493-.002z"/><path fill="#01AEEE" d="M344.999 198c2.551 3.103 4.904 6.382 8 9 .694 1.764 2.425 2.609 3.349 3.865 2.521.503 4.899.65 5.732 3.604.203.721 1.096 1.414 2.275 1.599 2.32.363 4.317 1.649 5.861 2.649l.714.714c-1.125.743-.569 2.554-1.393 2.791-.857.477-1.118.649-1.399.773-2.115.933-3.724-1.813-5.968-.732-1.808.871-3.566 1.84-5.383 2.668-.677.309-1.773.057-2.085.913-.699 1.921-2.58 2.609-3.731 3.919-2.3 2.614-5.04 4.527-7.435 6.189-1.068 1.097.38 2.82-1.538 3.047-.666.58-1.333.594-2 0-.015-1.09-2.152-2.02-.244-3.254-.451-1.82-1.521-3.271-2.657-4.155-.26-1.295.523-1.544.848-2.103l-4.844-2.484c-1.702-.265-3.928.385-6.097-.917-1.587-.953-3.222 1.076-5.006.913-2-.599-4-.922-6 0l-2.114 1.127-1.434-1.08c-.87 1.669-3.208.276-4.075 1.953-2.912-.671-5.481 1.527-8.377 1 .114.629-.272.971-.787.981-2.157.044-4.316.019-6.838.019l-1.143 1.729c-3.312.16-6.116 1.261-9.194 1.454-2.539.158-4.779 2.623-7.902 2.25l-.242 1.178c-4.726 2.02-8.95 5.34-14.183 6.541-1.56 1.566-3.187 3.202-4.722 4.746h-2.617c-.135-.324-.314-.598-.362-.893-.617-3.859 1.755-6.404 3.991-9.006l.479.084c.303.129.562.314.787.551l.3.363c.812.181-.022-.684.452-.719.318-.486.684-.922 1.066-1.356.421-.506.867-.977 1.348-1.425 8.18-5.612 17.234-9.476 26.769-11.737 12.397-2.941 24.822-6.048 37.743-6.079 7.284-.017 14.052.609 17.777 8.848 4.727-3.79 8.138-8.589 14.546-10.081-6.714-6.846-13.652-12.515-17.848-20.495.045-1.041-.009-2.165 1.58-1.953l3 2 .472.164c.11.32.287.6.529.837z"/><path fill="#293991" d="M389.775 32.506c1.244-1.748 1.023-4.271 3.774-4.653.52-.072 1.492-.836 1.429-1.816-.041-.625.327-1.043.713-1.189 4.396-1.662 6.554-6.435 11.132-7.904 1.595-.512 3.387-1.019 4.271-2.655 1.84-.85 4.098.576 5.528-1.262 1.198-.435 1.496 1.252 2.639.995.781-.176 2.067.154 2.334-.257.854-1.316 1.716.524 2.167-.091 1.385-1.889 2.223.527 3.325.311 2.064-.405 2.288 2.998 4.532 2.135 1.229 1.267 2.755 2.285 2.566 4.479-.047.534 1.083 1.169 1.868 1.955-.834 2.464.897 4.742 1.007 7.32.111 2.633-1.907 4.899-.955 7.47-11.553 12.003-9.669 10.023-16.808 13.673-1.424-.144-2.517-1.866-4.376-.554-1.853 1.307-3.966.716-5.791-.439-1.035-.303-1.379 1.461-2.088.922-1.685-1.282-3.209.042-4.694.188-2.276.224-4.454 1.905-6.728-.013-1.148 1.19-3.41.292-3.889.978-1.575 2.254-4.06 1.827-6.041 2.521-1.867.654-3.605 1.882-5.645 1.525-.1.854.133 1.402-.541 1.791h-1.978c-2.33 2.612-5.43 4.606-6.566 8.031h-2.418c-1.466-.825-1.703-2.534-2.69-4.066 5.297-5.806 9.818-12.34 14.326-18.828 2.763-3.974 6.195-7.046 9.597-10.567z"/><path fill="#8CC640" d="M303.999 91c1.811 1.473 3.958.921 6 1-.275 1.444-1.591 2.054-2.497 2.938-2.768 2.698-3.959 6.473-6.523 9.275-.954 1.042-.947 2.288-1.165 3.473l-4.145 4.144-4.329-2.114c-.449-1.219-1.722-2.423-1.252-4.563l-3.157-2.561v-2.165c-.758-.78-1.64-.25-2.536-.458-1.952-6.555-7.655-8.465-13.333-10.408-7.103-2.429-10.465-2.146-17.062 1.439-.192-.172-.375-.353-.551-.541-.18-.208-.407-.298-.684-.259-.234.13-.454.272-.658.449-.2.21-.406.401-.614.601l-.319.316c-.211.234-.447.428-.707.599-.25.196-.522.348-.814.467-.421.194-.865.336-1.262.582-.239.201-.467.409-.67.648-.188.264-.396.503-.613.74-.204.259-.428.495-.66.727l-.349.353c-.235.242-.505.433-.806.583-.441.229-.918.393-1.293.736-.145 1.063-1.489 1.726-1 3-.26.233-.561.348-.908.327-.28-.002-.167-.536-.545-.405-.127.305-.282.593-.458.872-.145.302-.299.597-.456.893l-.228.458-.254.45c-.305.635-.577 1.29-1.162 1.737-.634.31-1.461.046-1.989.669-.867-.062-1.004.493-1.001 1.176.004.941.001 1.883.001 2.824-.225.265-.51.382-.852.352-.554-.122-.891.239-1.245.576-.581.493-.872 1.179-1.253 1.812l-.424.441-.575.239-.625-.083-.488-.405c-.724-.807-1.668-1.32-2.538-1.933-1.088-1.338-3.291-1.703-3.396-3.896-2.252.03-2.644-2.7-4.604-3.104l-.373-.087c-.225-.135-.405-.315-.546-.537l-.081-.377c.195-1.272-.307-2.21-1.563-2.833l-.992.832c-2.25-2.873-5.215-4.804-8.675-5.998-.501.145-.883.381-.771 1h-1.665c-.443-.996.562-1.019.594-1.563-.296-.469-1.052-.665-.929-1.437.104-.578.447-1 .873-1.371.411-.354.856-.662 1.33-.927.29-.206.555-.44.798-.702 1.526-.108.577 1.839 1.494 1.926.905.086 1.47.444 1.983 1.073l1.039-.99c.598.909 1.475 1.116 2.485.991.609.847 1.087 1.792 1.893 2.487.844.532 1.675 1.084 2.324 1.859.395.396.812.771 1.23 1.143.523.495 1.062.979 1.554 1.511 1.672.41.993 3.563 3.613 2.951.722 1.381.098 3.626 2.387 4.049.543.581 1.554.226 2 1 .758-.151 1.914.496 2-1l.062-.407.152-.374-.4-.086-.19-.378c.062-.285.188-.536.376-.756.691.025 1.025-.308 1-1l.093-.488c.126-.312.309-.586.539-.83.317-.379.668-.726 1.063-1.026.408-.271.91-.356 1.305-.657.664-.984 1.468-1.874 1.998-2.945l.246-.521.295-.486c.236-.282.487-.556.744-.819l.374-.387.752-.724.383-.328c.653-.1.321.567.437-.08.032-.185-.395-.492-.548-.792-.024-.351.077-.658.317-.917 3.053-2.219 5.967-4.675 9.204-6.58 2.358-1.387 5.003-2.339 7.917-2.498 2.173-.118 4.234-1.179 6.543-.951 6.308.623 12.945 3.478 17.709 7.968.748.704 1.655.876 2.41 1.397.547.377-.136 1.77 1.216 1.663 1.621 1.045 2.966 2.368 4 4 1.069.169 1.96.981 1.923 1.825-.094 2.145 1.462 2.937 2.401 3.914 3.271-3.967 6.474-7.853 9.676-11.738z"/><path fill="#8CC540" d="M51 101c3.741-1.387 6.313-4.539 9.76-6.449 2.453-1.359 4.697-2.871 7.474-3.675 1.518-.439 3.373-1.15 4.159-2.875 4.041-.023 4.031-.043 9.914-2.786 1.406-.656 3.306.396 4.476-1.215 4.585.687 9.002-1.793 13.519-.948 10.04 1.88 20.031 4.038 26.698 12.948-.042.625-.701.633-1 1-2.944-2.354-6.423-3.862-10.336-6.075-.577-.052-1.938.293-3.34-.808-.819-.643-2.557-.117-3.964-.117l-.74-2.093c-1.878.574-3.759 1.708-6.646.665-.624-.434-1.563-2.535-3.807-1.259l.667 1.388c-.768.588-1.841.547-2.377.239-4.009-2.311-7.185.187-10.534 1.653-1.582.692-3.231 1.079-4.873 1.545-3.84 1.09-7.694 2.502-10.803 5.188-.91.786-1.793.596-2.78.679-1.836 2.02-4.144 3.553-6.192 5.357-4.479 3.944-8.199 8.625-11.252 13.779-.727 1.227-1.488 2.094-3.024 1.86-.484-.446-.589-1.003-.479-1.616.061-.404.509-.697.357-1.178-.342-.193-.725.267-1.075-.073-.284-.35-.471-.727-.574-1.16 1.168-5.194 3.33-9.895 6.772-13.974z"/><path fill="#8CC641" d="M308.999 195c1.631-.307 1.97-2.137 3.354-2.736 1.562-.53 2.912.139 4.444.586 1.696.495 2.523.947 3.409 2.634 1.101 2.094 3.599 1.979 6.844.481 1.727 1.61 3.91.891 5.949 1.035 1.969 3.908.393 7.189-1.825 10.361-.842.564-1.79.733-2.779.738-3.431-.288-6.495-2.077-9.912-2.439-.646-.125-1.28-.307-1.913-.486-.629-.149-1.249-.336-1.866-.528-1.039-.331-2.109-.449-3.198-.453-1.163-.017-2.314-.112-3.448-.38-.949-.233-1.897-.46-2.887-.46-2.324-.208-4.754.389-6.926-.929-.454-.41-.534-.886-.245-1.424 1.422-.862 3.147-1.233 4.205-2.688.46-.632 1.196-.196 1.795-.312.504-.027.925-.288 1.363-.492.422-.244.812-.533 1.178-.857.357-.351.717-.697 1.092-1.029.259-.228.546-.408.86-.545l.506-.077z"/><path fill="#08B0ED" d="M317.999 205c.617.164.807-.414 1.217-.68 2.904.886 5.844 1.782 8.783 2.68 1 .547 2 1.294 3 0-.029-1.9 1.031-3.462 1.687-5.131.537-1.365.542-2.426-.655-3.341.267-.547 1.108-.722.969-1.528 1.199-1.98 2.922-3.654 3.247-6.29 2.402.893 3.658 2.5 4.753 4.29-1.496.085-.85 1.242-1 2-2.511.911-2.67 2.981-2.716 5.227-.066 3.257.364 6.542-.245 10.199-6.598 1.32-11.764-2.558-17.419-4.208-.807-.355-1.602-.746-2.464-.961-.609-.136-1.213-.304-1.805-.5-.75-.261-1.499-.535-2.296-.645-.402-.02-.799-.065-1.2-.107-.411-.028-.812-.096-1.217-.179-.415-.083-.817-.198-1.22-.324-1.471-.469-3.021-.409-4.525-.697-.479-.072-.94-.184-1.403-.318-5.082-.103-10.165-.585-15.211.382-1.237.286-2.494.393-3.758.417-1.444.009-2.893.001-4.295.456-.959.232-1.925.334-2.907.177-.485-.113-.928-.321-1.33-.614-.308-.437-.319-.872.011-1.304h1c.526-.614 1.489-.355 2-1h4c.526-.614 1.489-.355 2-1h4c1.048-.98 2.332-1.272 3.714-1.284 1.069-.028 2.138-.027 3.195.176.793.186 1.481.573 2.091 1.108h8c.512.645 1.474.386 2 1h4c.791.962 2.192.091 3 1h2c.298.367.67.661.999.999z"/><path fill="#2E3D93" d="M349.999 74c-.691-.025-1.025.308-1 1-.658.51-1.392.692-2.21.51-4.383-2.659-4.477-7.313-3.071-10.863 2.325-5.877 5.168-11.68 8.808-16.964.449-.464 1.034-.815 1.318-1.448.014-.995-.706-.909-1.366-.893-.364.12-.722.235-1.069.389-.334.206-.676.386-1.021.568l-.55.228c-.395.092-.791.107-1.19.045-.39-.134-.697-.372-.912-.726-.124-.988.674-1.345 1.265-1.845l1-1c.174-1.665 1.467-.905 2.277-.97 2.052-.167 4.22.456 5.929-1.279 1.26 1.276.617 2.61.739 3.805l-1.768 1.767c-.12 5.773-4.606 9.363-7.038 14.924.507 2.081-.861 4.589-2.377 7.006l2.236 5.746z"/><path fill="#304092" d="M51 101c-1.099 1.077-1.012 2.606-1.36 3.925-.772 2.923-2.867 5.117-4.044 7.822-.501 1.151-.447 2.165-.596 3.253.351.324.471.712.327 1.174-.175 1.27-.975 2.485-.327 3.826v1c-1.698.312-.97 2.242-2 3-4.298-2.237-5.771-7.051-3.314-11.42 1.429-2.541 3.202-4.892 3.971-7.824-1.946-.841-3.289.776-4.894.686-.484-.008-.933-.139-1.35-.383-.378-.302-.667-.676-.886-1.105-.199-.737-.092-1.401.474-1.954 5.198-2.825 9.383-4.003 13.667-3.842.64.514.206 1.23.332 1.842z"/><path fill="#F7F8FA" d="M135 69c.381-.984-.927-2.531 1-3l.444.07c.604-.014.57-.663.922-.934.314-.428.57-.881.779-1.369.178-.338.381-.652.611-.954.448-.387.865-.802 1.295-1.209.364-.199.749-.328 1.156-.397.417-.038.829-.005 1.239.074.405.115.774.302 1.119.541.321.266.596.576.833.918.206.357.362.737.482 1.131.179.794.502 1.554.625 2.368.035.417.01.829-.062 1.24-.292 1.23-.328 2.511-.726 3.723-.278.632-.724 1.104-1.338 1.419-.636.257-1.297.344-1.978.307-.442-.037-.874-.134-1.296-.271-.609-.227-1.185-.526-1.747-.851-1.241-.784-2.326-1.763-3.358-2.806z"/><path fill="#364598" d="M168 58c.986-1.662 3.138-.797 3.96-2.078 3.653.372 5.323 2.376 6.04 5.396.271 1.676-2.17 2.583-1.001 4.146-2.455 2.718-5.347 2.665-8.289 2.511-1.896-1.672-1.875-1.691-2.612-3.695 1.898-.986 2.292 1.214 3.069 1.491 1.719-.522 3.379.089 4.581-1.113.218-1.7 2.927-3.468-.6-5.656h-4.148c-.3-.37-.955-.381-1-1.002z"/><path fill="#384799" d="M236 56c2.366 1.82 2.698 3.958.272 6.948-1.282.942-3.495 1.469-5.943.881l-2.219-2.218v-7.245c.674-.359.875-1.415 1.89-1.366.5.46 1.215.659 1.58 1.284.859 1.398.127 3.243 1.237 4.588 1.098-.17.938-1.159 1.263-1.821.156-.447.394-.837.697-1.193.447-.276.852-.212 1.223.142z"/><path fill="#374698" d="M135 69c.777.01 1.527-.121 2.178.619.486.553.844 1.423 1.822 1.381.299.368.671.663 1 1h1c.667.629 1.333.629 2 0 .692.025 1.025-.308 1-1 1.13-1.134-.076-2.853 1-4v-1c-.614-.526-.355-1.489-1-2v-1l-1-1c-.667-.601-1.333-.651-2 0h-1l-.397-.252c-.073-.308-.089-.62-.049-.934.075-.312.225-.583.447-.814 1.333-.724 2.667-.724 4 0 .324.342.658.676 1 1 .334.333.633.701 1 1v2c.337.329.632.701 1 1v4c-.962.791-.091 2.192-1 3v1c-.367.299-.666.667-1 1-1.667.749-3.333.749-5 0-.529-.609-1.453-.428-2-1l-1-1c-1.58-.392-2.162-1.448-2.001-3z"/><path fill="#98CB53" d="M178 87c-2.159.173-4.027 1.215-6.069 2.035l-1.931-1.035c-.306.36-.711.622-1 1-.758.151-1.915-.496-2 1-.357.31-.69.643-1 1h-1c-.42.351-.847.36-1.282.027-.338-.735-.298-1.419.282-2.027h1c.306-.36.711-.622 1-1h1c.329-.337.701-.632 1-1 1.254-.161 1.585-1.519 2.785-2.019 2.345.188 4.833-.008 7.215-.981l.415.283-.017.494c-.26.473-.075.941.04 1.415.022.362-.118.635-.438.808z"/><path fill="#EDEEF5" d="M235 56v4.559l-1.437 1.227-2.563-1.215v-6.571c-.255-.222-.34-.444-.255-.667s.169-.333.255-.333c.941 0 1.883.003 2.824-.001.683-.003 1.237.134 1.176 1.001-.176.281-.422.473-.731.576l-.171.422.423.188c.248.224.406.494.479.814z"/><path fill="#E6F2D6" d="M242 203c-.34 1.877-1.684.771-2.701.897l-.652-1.897h-4.646c-.257-.278-.36-.605-.312-.979-.093-.381.986-.66.092-1.119-.072-.375-.005-.715.203-1.031.602-.462 1.495-.235 2.017-.871l2 1c.587.49 1.257.867 1.851 1.348.366.118.742.178 1.127.184.39.05.73.206 1.022.469l.399.27.002.475c-.204.233-.359.5-.456.798l.054.456z"/><path fill="#354497" d="M348.999 44l-1 2c-.19.326-.438.597-.749.814-.465.327-.951.619-1.445.901-.329.203-.67.379-1.013.553-.678.365-1.296.81-1.827 1.371-.658.712-1.306 1.441-2.303 1.682-.546.044-1.104-.047-1.65.094-.372.056-.735.021-1.093-.094-.503-.303-.838-.724-.92-1.32-.07-.93.558-1.034 1.235-.993 1.489.092 2.378-.603 2.765-2.007.545-.578 1.481-.371 2-1h1c.339-.328.677-.657 1-1 .333-.334.701-.633 1-1l3-.001z"/><path fill="#94C94C" d="M254 194c-.593 1.407-1.593 2.407-3 3-.22-.289-.508-.402-.865-.339-.492.149-.852.518-1.285.768-.322.161-.658.211-1.013.169-.349-.103-.628-.303-.837-.598.772-1.741 1.604-3.421 3.135-4.68.632-.52 1.253-.188 1.865-.32.234.21.453.436.658.676.218.227.441.447.674.659.238.205.461.427.668.665z"/><path fill="#95CA4E" d="M194 87c-2.172.702-3.946-.99-6-1-.311-.264-.506-.594-.568-1 .065-.403.255-.737.568-1h4c.512.013.923.267 1.327.539.426.243.879.416 1.366.505.707.08 1.411.154 2.05.508.345.197.584.475.708.854-.044.414-.247.726-.588.956-.394.083-.789.124-1.19.119-.604-.004-1.212.009-1.673-.481z"/><path fill="#A3D166" d="M208 90c-.085 1.496-1.242.849-2 1l-.378-.2-.629-.563c-.254-.137-.515-.246-.803-.299l-.921-.061c-.335.004-.649-.057-.958-.173-.466-.186-.949-.332-1.31-.704-.692.025-1.025-.308-1-1 .092-.612.426-1.039.987-1.293.395-.103.733-.004 1.013.293 1.971-.094 3.83.092 5 2 .409.256.645.687.999 1z"/><path fill="#0EB2ED" d="M275.999 204v1c.338.278.447.622.296 1.039-.475.657-1.155 1.005-1.896 1.249-.329.089-.672.102-1.006.056-.462-.528-.777-.15-1.089.212-.263.422-.503.852-.787 1.26l-.366.38-.499.188c-.374-.002-.69-.136-.952-.4-.266-.649-.08-1.458-.7-1.982.794-2.849 3.148-1.796 5-2 .317-.35.729-.604 1-1l.999-.002z"/><path fill="#B6DB87" d="M188 84v1c-.275.285-.608.454-1.004.49-.39.057-.725.221-.996.51h-1c-.17-.216-.389-.353-.654-.407l-.256-.265-.199.314.109.358c-.085 1.496-1.242.849-2 1-.851-.94-2.166-.178-3.092-.842-.219-.422-.198-.833.06-1.231.783-1.056 2.198-.039 3.032-.927h6z"/><path fill="#BEDE93" d="M363.999 164c.114-.281.224-.804.344-.807 2.214-.049 4.429-.036 6.701-.036-.332 1.338-2.235.238-2.045 1.843-1.728-.026-3.529.313-5-1z"/><path fill="#BCDD90" d="M350.999 132c-1.835-.332-1.218-2.108-.821-2.519 1.366-1.41.577-3.002.821-4.481 1.391 2.101 1.391 4.898 0 7z"/><path fill="#BDDE92" d="M297.999 202h-2c-1.093-1.201-2.937-.689-4.076-1.788-.197-.417-.183-.822.076-1.212 1.269 0 2.537.001 3.805-.001.682-.001 1.261.113 1.195 1.001.372.294.595.738 1 1v1z"/><path fill="#B6DA86" d="M305.999 198c.072.938-.57 1.056-1.241.98-.5-.056-.872-.371-.759-.98.209-2.24.76-2.791 3-3 .297.219.418.51.365.874-.239.451-.589.831-.837 1.277-.117.32-.294.602-.528.849z"/><path fill="#DCEDC5" d="M350.999 119c-1.936-.586-.607-2.178-.987-3.245-.038-.108.098-.278.159-.438.51-.618 1.219-.194 1.828-.317 1.496.085.85 1.242 1 2-.333.48-.666.48-1 0-1.496.085-.85 1.242-1 2z"/><path fill="#66CDF4" d="M264.999 216c-.078-1.706.692-2.987 2-4 .36.297.628.661.794 1.1.314 1.398.333 2.745-.722 3.891-.411.235-.842.284-1.292.122-.228-.392-.49-.762-.78-1.113z"/><path fill="#D7EABD" d="M197 86h-3c-.299-.368-.671-.663-1-1-.692.025-1.025-.308-1-1-.025-.692.308-1.025 1-1 .513.642 1.46.414 2 1 .529.609 1.453.428 2 1 .286.222.38.444.286.667s-.191.333-.286.333z"/><path fill="#B6DA86" d="M201 89h2c.251.245.543.423.876.534l.472.219c.313.152.609.333.891.537.267.223.52.459.761.71.025.692-.308 1.025-1 1-2.196.15-3.122-1.394-4-3zM289.999 97c-1.713-.954-3.046-2.287-4-4 2.573.507 3.493 1.427 4 4z"/><path fill="#3BC0F2" d="M261 228c.424-1.076 1.43-1.939 1.043-3.323-.1-.354.388-.788.957-.677.368-.335.753-.371 1.158-.063.422 1.865.074 3.562-1.11 5.076-.411.222-.837.257-1.274.081-.228-.385-.488-.749-.774-1.094z"/><path fill="#BEEAFA" d="M315.999 227c1.872-1.415 4.128-1.415 6 0l-.317.817c-1.751-1.269-3.767-.699-5.683-.817z"/><path fill="#CCE5AA" d="M45 121c-1.353-1.266-1.353-2.735 0-4l.5-.454.5.454v2l-1 2zM283.999 197c-1.697-.312-.97-2.243-2-3 2.326.119 2.326.119 3.938 1.562-.343.887-2.106-.138-1.938 1.438z"/><path fill="#97CC53" d="M60 202c-.071-.911.541-.993 1.338-1.011.966.861 2.161 1.613 2.662 3.011-1.274.489-1.937-.856-3-1-.61-.058-.607-.726-1-1z"/><path fill="#E8F3DA" d="M219 97c-1.091-.243-1.757-.91-2-2l.164-.471c.32-.11.599-.286.836-.529.758.151 1.915-.496 2 1-.254.222-.338.444-.254.667s.169.333.254.333c.261.224.37.468.33.733-.041.275-.099.413-.172.414-.423.248-.811.214-1.158-.147z"/><path fill="#66CDF4" d="M269.999 209h1c.212 2.345-.517 3.964-3.165 4.101-.35-.731-.422-1.442.165-2.101l1-2c.334-.481.667-.481 1 0z"/><path fill="#BFD3B4" d="M346.999 94h3v3c-1.407-.592-2.407-1.592-3-3z"/><path fill="#CBE5AA" d="M239 97c-.593 1.408-1.593 2.408-3 3-.079-1.706.692-2.987 2-4l.47.167c.113.317.289.595.53.833z"/><path fill="#A8D36F" d="M83 213c1.706-.079 2.987.692 4 2-1.836.513-3.233-1.166-5-1-.276-.352-.274-.711-.031-1.078.367-.282.71-.241 1.031.078z"/><path fill="#B6DA86" d="M286.999 200c-1.407-.593-2.407-1.593-3-3 .794 0 1.612-.172 2.186.665.458.669 1.209.21 1.814.335.339.24.456.562.353.965-.356.47-.949.628-1.353 1.035z"/><path fill="#36BEF1" d="M258 235c1.029-.758.302-2.688 2-3 .338-.357.71-.398 1.118-.123.521 1.648-.017 3.008-1.149 4.203-.416.186-.832.186-1.248.002-.2-.387-.442-.748-.721-1.082z"/><path fill="#A8D36F" d="M235 109h1c.025.691-.309 1.025-1 1-.339.327-.677.656-1 1-.262.315-.595.506-1 .57-.404-.065-.738-.256-1-.57.243-1.091.909-1.757 2-2 .333-.345.666-.345 1 0z"/><path fill="#A8D36E" d="M252 90c-.025-.692.308-1.025 1-1 .261.291.408.634.46 1.02.003.4-.142.731-.46.98-.244 1.09-.91 1.757-2 2-.357-.221-.518-.541-.482-.959.057-.395.218-.742.482-1.041.344-.323.672-.661 1-1z"/><path fill="#A0D063" d="M146 109c.025.691-.308 1.025-1 1-.28.287-.621.454-1.016.518l-.579-.095-.406-.423c1.03-.758.302-2.688 2-3 .349.117.527.359.537.726-.065.503.083.931.464 1.274z"/><path fill="#BBC0DB" d="M291.999 68h2v3c-1.579-.392-2.16-1.448-2-3z"/><path fill="#8DC641" d="M201 87c.025.692-.308 1.025-1 1h-4c-.328-.222-.437-.444-.328-.667s.217-.333.328-.333h1c.355-.347.781-.532 1.277-.557.963-.088 1.932-.203 2.723.557z"/><path fill="#9BCD58" d="M229 195l2 1c.271.24.382.499.333.777-.049.287-.113.431-.188.432-.371.296-.791.496-1.249.62-.698.126-1.386.077-2.059-.151-.649-.311-1.091-.77-1.066-1.547.457-.938 1.66-.411 2.229-1.131z"/><path fill="#A6D26B" d="M164 91h1c-.124.783.648.976.988 1.522-1.567 1.682-2.518-1.626-3.988-.522l-.315-.541.106-.618.543-.312c.657-.206 1.216-.059 1.666.471z"/><path fill="#CBE5AA" d="M201 87h-3l-.427-.5.427-.5c.772.123.968-.633 1.471-.951.342 1.287 2.474.263 2.529 1.951h-1z"/><path fill="#D3E9B6" d="M152 202c1.706-.079 2.987.692 4 2h-1c-.333.345-.667.345-1 0-1.091-.243-1.757-.91-2-2zM134 103c1.552-.161 2.608.421 3 2-.984-.381-2.531.927-3-1-.286-.222-.381-.444-.286-.667s.19-.333.286-.333z"/><path fill="#CBE5A8" d="M291.999 199v1c-.412.785-1.192 1.019-1.945 1.295-.416.133-.765.023-1.055-.295v-1l-.451-.328.078-.551c.229-.302.529-.491.899-.569.549-.027 1.079-.109 1.474-.552.692-.025 1.025.308 1 1z"/><path fill="#384799" d="M140 74h5c-1.631 1.438-3.37 1.438-5 0z"/><path fill="#A3D165" d="M246 202c-.469 1.927-2.016.619-3 1l-.423-.553.301-.627c.38-.266.753-.539 1.122-.82-.025-.692.308-1.025 1-1l.485.34c.376.489.521 1.052.515 1.66z"/><path fill="#5763A9" d="M139 64c-.243 1.09-.91 1.757-2 2-.334.312-.667.312-1 0 1.03-.757.302-2.688 2-3l.47.167c.113.317.289.595.53.833z"/><path fill="#A8D36F" d="M236 198c.113.609-.259.922-.759.981-.671.079-1.313.08-1.241 1.019l-.494.389c-.442-.055-.759-.29-.969-.679-.097-.416-.088-.83.042-1.239l.421-.471h3z"/><path fill="#505DA5" d="M168 60c-.142.973-.871 1.435-1.749 1.972-.053-1.14-1.121-2.377.749-2.972l.47.167c.113.317.289.596.53.833z"/><path fill="#C5E29E" d="M190.715 205.5c1.618-.704 2.951-.704 4.569 0-1.618.703-2.951.703-4.569 0z"/><path fill="#A8D36F" d="M145 108v-1c.085-1.496 1.242-.849 2-1-.15.758.496 1.915-1 2-.334.353-.667.353-1 0z"/><path fill="#8BC53F" d="M229 195c-.086 1.496-1.242.85-2 1-.313.329-.676.398-1.088.207-.275-.327-.431-.703-.468-1.129.059-.424.237-.787.556-1.078h1c.271.396.683.65 1 1h1z"/><path fill="#384799" d="M144 60h-4c1.265-1.353 2.734-1.353 4 0z"/><path fill="#F7FAF2" d="M306.999 196v-1c-.025-.692.309-1.025 1-1 .334-.31.667-.31 1 0v1c-.396.271-.65.683-1 1 .025.691-.308 1.025-1 1l-.41-.5.41-.5z"/><path fill="#354497" d="M34 107c.072-.938-.571-.939-1.242-1.019-.5-.059-.872-.372-.758-.981h3c.301.341.447.739.438 1.194-.255.669-.623 1.136-1.438.806z"/><path fill="#AFD77B" d="M239 104c.15-.758-.496-1.915 1-2 .604.063.706.627 1 1-.243 1.09-.91 1.757-2 2-.296-.222-.394-.444-.296-.667.099-.222.196-.333.296-.333z"/><path fill="#BEDE92" d="M217 95c-1.579-.392-2.161-1.448-2-3 1.09.243 1.757.91 2 2 .254.222.339.444.255.667-.086.222-.17.333-.255.333z"/><path fill="#B0D77C" d="M234 112c.042.978-.806 1.405-1.39 1.801-.654.445-1.551.426-1.61-.801l.163-.47c.303-.139.582-.315.837-.53.267-.297.6-.451.998-.462.398.015.735.162 1.002.462z"/><path fill="#E1F0CE" d="M228 110c1.552-.161 2.608.421 3 2-.334.383-.667.383-1 0-1.091-.243-1.757-.91-2-2zM222 194c-.15-.758.496-1.915-1-2-.025-.692.308-1.025 1-1 .333-.312.666-.312 1 0 .266.305.461.648.576 1.038.133.392.161.79.107 1.197-.112.4-.316.747-.606 1.043-.418.138-.777.044-1.077-.278z"/><path fill="#00ADEE" d="M263.999 221c.381-.984-.927-2.531 1-3l.491.484c.456.865.481 1.768.231 2.694-.177.438-.465.788-.858 1.05-.752-.082-1.382-.251-.864-1.228z"/><path fill="#DFEFCA" d="M240 201c-1.091-.243-1.757-.91-2-2 .758.15 1.914-.496 2 1 .35.222.467.444.351.666-.117.223-.233.334-.351.334z"/><path fill="#283890" d="M35 106v-2c1.164-.661 1.43.474 2 1 .274.276.366.552.277.83s-.179.417-.269.417c-.722.355-1.404.374-2.008-.247z"/><path fill="#A1D063" d="M132 102c-.692.025-1.025-.308-1-1l-.413-.5.413-.5c1.09.243 1.757.91 2 2-.334.396-.667.396-1 0z"/><path fill="#92C94B" d="M182 84c-.469 1.927-2.016.619-3 1l-.424-.5.424-.5c.667-.554 1.333-.583 2 0h1z"/><path fill="#A2D164" d="M231 197v-1c1.09.243 1.757.909 2 2-.293.321-.65.521-1.085.577-.433-.045-.813-.209-1.144-.49-.198-.42-.135-.785.229-1.087z"/><path fill="#40C1F2" d="M339.999 239h2c.01 1.141-1.141 1.192-1.417 2.066-.856-.783-.471-1.466-.583-2.066z"/><path fill="#BEDE92" d="M236 100c.025.692-.309 1.025-1 1-.334.281-.673.287-1.016.018-.271-.343-.265-.683.016-1.018-.073-.479.138-.773.582-.903.471.311.676 1.023 1.418.903z"/><path fill="#FDFDFE" d="M37 105l-2-1c.085-1.496 1.242-.849 2-1v2z"/><path fill="#37BFF2" d="M263.999 221c-.025.691.309 1.025 1 1 .284.801-.134 1.209-.821 1.467-.462.019-.854-.137-1.178-.467.149-.758-.496-1.915.999-2z"/><path fill="#8EC743" d="M179 86c.984.381 2.531-.927 3 1h-3c-.286-.222-.38-.444-.286-.667s.19-.333.286-.333z"/><path fill="#A1D063" d="M230 107c-.758-.151-1.915.496-2-1 .691.025 1.025-.308 1-1 .333-.353.666-.353 1 0v2z"/><path fill="#283890" d="M336.999 50c.692-.025 1.025.308 1 1-.462.966-1.092 1.55-2.228.972-.356-.707-.289-1.365.228-1.972h1z"/><path fill="#92C94B" d="M222 99c-.758-.151-1.915.496-2-1 .097-.326.278-.598.532-.823l.468-.177c1.496.085.85 1.242 1 2z"/><path fill="#384799" d="M146 72c.381-.984-.927-2.531 1-3-.381.984.926 2.531-1 3z"/><path fill="#EFF7E6" d="M164 91h-2c-.254-.222-.339-.444-.254-.667s.169-.333.254-.333c.349-.318.718-.615 1-1h1v2z"/><path fill="#8BC53F" d="M247 197h1c.359.296.508.681.477 1.141l-.102.652-.436.497-.652.113-.596-.29c-.169-.408-.399-.78-.691-1.113-.025-.692.308-1.025 1-1z"/><path fill="#354497" d="M333.999 53l-1-2h2c.329.329.477.729.467 1.19-.258.688-.639 1.154-1.467.81z"/><path fill="#DAECC2" d="M158 96c-.085 1.496-1.242.849-2 1-.333.396-.667.396-1 0-.025-.692.308-1.025 1-1 .25-.335.583-.528.998-.58.414.054.748.247 1.002.58z"/><path fill="#C5E29E" d="M242 100h1c.025.692-.309 1.025-1 1l-.502.439-.612-.268c-.264-.42-.212-.809.114-1.171.333-.312.666-.312 1 0z"/><path fill="#92C94B" d="M153 99c.025.692-.308 1.025-1 1-.333.396-.667.396-1 0-.025-.692.308-1.025 1-1 .333-.383.666-.383 1 0zM130 100c-.692.025-1.025-.308-1-1 .758.151 1.914-.496 2 1-.334.353-.667.353-1 0z"/><path fill="#A1D063" d="M153 99h-1c.085-1.496 1.242-.849 2-1 .256.222.342.444.256.667-.085.222-.171.333-.256.333h-1z"/><path fill="#B6DA86" d="M244 97c-.025-.692.308-1.025 1-1 .334-.352.709-.4 1.123-.147.248.413.206.796-.123 1.147h-2z"/><path fill="#40C1F2" d="M260 231c-.025-.692.308-1.025 1-1 .352-.375.739-.437 1.168-.134.186.817-.195 1.307-.925 1.594-.483.034-.897-.12-1.243-.46z"/><path fill="#BDDE92" d="M142 111l-.871-.349c.301-1.165 1.254-.445 1.871-.651l.425.517-.267.617c-.422.258-.809.227-1.158-.134z"/><path fill="#8CC53F" d="M226 194v1l-.476.414c-.438-.072-.757-.312-.973-.696-.104-.416-.099-.831.028-1.243l.42-.475c.692-.025 1.026.308 1.001 1z"/><path fill="#20B7F0" d="M257 237c-.025-.692.308-1.025 1-1 .333-.35.666-.35 1 0l.385.498-.174.606c-.33.276-.712.429-1.139.474-.429-.058-.784-.258-1.072-.578z"/><path fill="#4755A1" d="M334.999 52v-1c-.025-.692.309-1.025 1-1v2c-.333.304-.666.304-1 0z"/><path fill="#C5E29E" d="M239 104v1c-.334.312-.667.312-1 0h-1c.085-1.496 1.242-.849 2-1z"/><path fill="#CBE5AA" d="M230 105h-1c-.481.062-.8-.109-.885-.643.876-.518 1.646-.747 1.885.643z"/><path fill="#354497" d="M235 56c-.692.025-1.025-.308-1-1-.226-.222-.301-.444-.226-.667s.151-.333.226-.333h1v1c.254.222.339.444.255.667-.085.222-.17.333-.255.333z"/><path fill="#E1F0CE" d="M148 104c-.025-.692.308-1.025 1-1 .333-.396.667-.396 1 0-.086 1.496-1.243.849-2 1z"/><path fill="#C4E19E" d="M351.999 117h1c-.12.606.294 1.309-.359 1.862-1.164-.286-.428-1.249-.641-1.862z"/><path fill="#30BCF1" d="M256 239c-.025-.692.308-1.025 1-1l.482-.439.616.209c.253.372.319.777.198 1.212-.314.312-.695.479-1.139.501-.438-.033-.825-.194-1.157-.483z"/><path fill="#D3E9B6" d="M218 102h1c.251.288.407.619.453 1-.051.379-.197.715-.453 1-.692.025-1.026-.308-1-1-.286-.222-.38-.444-.286-.667s.19-.333.286-.333z"/><path fill="#384799" d="M342.999 46c-.085 1.496-1.242.849-2 1 .086-1.496 1.242-.849 2-1z"/><path fill="#FEFEFE" d="M216 197l.871.348c-.301 1.166-1.254.445-1.871.652-.026-.692.308-1.025 1-1z"/><path fill="#A8D36F" d="M233 103c-.938.072-1.056-.571-.98-1.242.056-.5.371-.872.98-.758l.408.251c.174.298.198.608.075.93-.109.303-.27.576-.483.819z"/><path fill="#283890" d="M168 58c.692-.025 1.025.308 1 1h-1c-.333.353-.667.353-1 0-.026-.692.308-1.025 1-1z"/><path fill="#A1D063" d="M179 86v1h-1v-1c-.226-.222-.3-.444-.226-.667.075-.222.15-.333.226-.333.333-.355.667-.355 1 0v1z"/><path fill="#99CC57" d="M156 94c.15-.758-.496-1.915 1-2 .329.238.511.56.548.964-.054.396-.22.739-.48 1.039l-.535.238-.533-.241z"/><path fill="#19B5F0" d="M269.999 209h-1v-2c1.496.085.85 1.242 1 2z"/><path fill="#354497" d="M140 62c.025.692-.308 1.025-1 1-.333.353-.667.353-1 0-.025-.692.308-1.025 1-1 .333-.485.666-.485 1 0z"/><path fill="#30BCF1" d="M267.999 211v2c-.333.345-.666.345-1 0v-1c-.025-.692.309-1.025 1-1z"/><path fill="#8BC53F" d="M60 202c.692-.025 1.025.308 1 1 .036.485-.063.929-.663.793-.164-.037-.227-.517-.337-.793v-1z"/><path fill="#AFD77B" d="M162 92c-.15.758.496 1.915-1 2-.332-.247-.514-.577-.549-.99.062-.4.223-.755.494-1.058.362-.234.715-.23 1.055.048z"/><path fill="#D3E9B6" d="M241 92v1c.226.222.3.444.226.667-.076.222-.151.333-.226.333l-.5.38-.5-.38c.15-.758-.496-1.915 1-2z"/><path fill="#9CCE5B" d="M196 87v1c-.758-.151-1.915.496-2-1h2z"/><path fill="#8BC53F" d="M126 97c-.025-.692.308-1.025 1-1 .691-.025 1.025.308 1 1-.334.396-.667.396-1 0h-1z"/><path fill="#A1D063" d="M159 91c-.025-.692.308-1.025 1-1 .318.276.516.624.611 1.033l-.085.611-.315.531c-.407.136-.796.086-1.167-.121-.219-.225-.298-.457-.238-.694.06-.24.124-.36.194-.36z"/><path fill="#B6DA86" d="M246 97v-1c-.255-.222-.34-.444-.256-.667.086-.222.17-.333.256-.333.351-.323.73-.378 1.145-.125.254.414.205.789-.145 1.125.025.692-.309 1.025-1 1z"/><path fill="#B6DB87" d="M181 84h-2c-.072-.938.571-1.056 1.242-.98.499.055.871.371.758.98z"/><path fill="#A3D165" d="M245 200c-.025-.692.308-1.025 1-1 .333-.353.666-.353 1 0 .1 1.867-.863 1.607-2 1z"/><path fill="#C4E19E" d="M195 84c-.758-.151-1.915.496-2-1 .757.151 1.914-.496 2 1z"/><path fill="#8BC53F" d="M188 207c-.692.025-1.025-.309-1-1h1.794c.088.951-.304 1.034-.794 1z"/><path fill="#384799" d="M138 73c.758.151 1.914-.496 2 1-.758-.151-1.915.496-2-1z"/><path fill="#B6DA86" d="M247 96v-1c-.255-.222-.34-.444-.255-.667s.169-.333.255-.333l.541-.403.624.263c.282.429.211.807-.165 1.14.025.692-.309 1.025-1 1zM197 85c-.758-.151-1.915.496-2-1 .757.151 1.914-.496 2 1z"/><path fill="#0EB2ED" d="M278.999 203c-.085 1.496-1.242.85-2 1-.025-.692.309-1.025 1-1h1z"/><path fill="#DAECC2" d="M151 201v1h-1c.15-.758-.496-1.915 1-2 .35.222.467.444.351.666-.117.223-.233.334-.351.334z"/><path fill="#D3E9B6" d="M223 191h-1c-.036-.486.063-.929.662-.793.164.037.228.517.338.793z"/><path fill="#20B7F0" d="M264.999 216c.692-.025 1.025.308 1 1-.333.345-.666.345-1 0v-1z"/><path fill="#A1D063" d="M82 213v1h-1c-.215-.218-.294-.441-.239-.674.056-.235.117-.353.183-.353l.535-.261.521.288z"/><path fill="#99CC57" d="M81 213v1c-.692.025-1.025-.309-1-1l.5-.381.5.381z"/><path fill="#C5E29E" d="M223 192v-1c.691-.025 1.025.308 1 1l-.5.375-.5-.375z"/><path fill="#00ADEE" d="M264.999 217h1c.227.234.318.481.276.742-.043.268-.099.401-.164.401-.41.254-.78.205-1.112-.144v-.999z"/><path fill="#CCE5AA" d="M224 192c.691-.025 1.025.308 1 1l-.532.407-.629-.241c-.246-.431-.206-.821.161-1.166z"/><path fill="#92C94B" d="M343.999 197c-.025-.692.309-1.025 1-1 .224.222.298.444.224.666-.074.223-.148.334-.224.334-.333.307-.666.307-1 0z"/><path fill="#8BC53F" d="M344.999 197v-1h1c.025.691-.308 1.025-1 1z"/><path fill="#BDDE92" d="M242 201h-1c-.257-.223-.342-.444-.257-.667.085-.222.171-.333.257-.333.691-.025 1.025.308 1 1z"/><path fill="#C5E29E" d="M241 200v1h-1v-1h1z"/><path fill="#10B2EF" d="M261 228c.691-.025 1.025.308 1 1-.334.392-.667.392-1 0v-1z"/><path fill="#20B7F0" d="M261 229h1c.221.222.295.444.221.666-.074.223-.147.334-.221.334h-1v-1zM260 231h1c.221.222.295.444.221.666-.074.223-.147.334-.221.334h-1v-1z"/><path fill="#99CC57" d="M290.999 198c.025.691-.308 1.025-1 1-.328-.223-.437-.444-.328-.667.109-.222.218-.333.328-.333h1z"/><path fill="#8BC53F" d="M289.999 198v1h-1c-.285-.223-.38-.444-.285-.667.095-.222.189-.333.285-.333h1zM247 199h-1v-1c.691-.025 1.025.308 1 1z"/><path fill="#99CC57" d="M288.999 198v1c-.333.392-.666.392-1 0v-1h1z"/><path fill="#C5E29E" d="M308.999 194h-1c-.035-.486.063-.929.663-.793.164.037.228.517.337.793z"/><path fill="#10B2EF" d="M258 238h-1v-1h1c.25.222.334.443.25.666-.083.223-.166.334-.25.334z"/><path fill="#9BCD58" d="M228 195c-.692.025-1.025-.309-1-1 .691-.025 1.025.308 1 1z"/><path fill="#19B5F0" d="M274.999 204c.025.691-.308 1.025-1 1-.025-.692.309-1.025 1-1z"/><path fill="#AFD77B" d="M154 204h1c.036.485-.063.929-.663.793-.164-.037-.228-.517-.337-.793z"/><path fill="#00ADEE" d="M259 236h-1v-1c.691-.025 1.025.308 1 1z"/><path fill="#92C94B" d="M244 201c.025.691-.309 1.025-1 1-.286-.223-.381-.444-.286-.667.095-.222.19-.333.286-.333h1z"/><path fill="#A8D36F" d="M243 201v1c-.334.396-.667.396-1 0v-1h1zM297.999 201c-.691.025-1.025-.309-1-1 .692-.025 1.025.308 1 1z"/><path fill="#00ADEE" d="M263 223h.999c.222.222.296.444.222.666-.073.223-.147.334-.222.334h-.999v-1z"/><path fill="#8BC53F" d="M253 91v-1c.333-.31.666-.31 1 0v1h-1z"/><path fill="#A6D26B" d="M166 91c-.025-.692.308-1.025 1-1 .025.692-.309 1.025-1 1z"/><path fill="#B6DA86" d="M162 90v1c-.351.253-.707.273-1.067.02-.272-.36-.249-.7.067-1.02h1z"/><path fill="#8BC53F" d="M161 90v1l-.5.415-.5-.415v-1h1zM208 90c-.692.025-1.025-.308-1-1h1v1z"/><path fill="#A6D26B" d="M163 89c.025.692-.308 1.025-1 1-.026-.692.308-1.025 1-1zM169 89c-.025-.692.308-1.025 1-1 .025.692-.309 1.025-1 1zM166 88c.025.692-.308 1.025-1 1-.026-.692.308-1.025 1-1z"/><path fill="#AFD77B" d="M156 95c-.486.036-.929-.063-.793-.663.037-.164.517-.228.793-.337l.332.5-.332.5z"/><path fill="#92C94B" d="M250 93c.025.692-.309 1.025-1 1l-.26-.516c.119-.388.372-.646.758-.773l.502.289z"/><path fill="#8BC53F" d="M161 93v1h-1l-.295-.583.188-.627.616-.223.491.433z"/><path fill="#92C94B" d="M251 92v1h-1c-.34-.222-.453-.444-.34-.667.112-.222.225-.333.34-.333.333-.31.666-.31 1 0zM157 93v-1h1l.282.401c-.01.361-.168.636-.475.827l-.476.139-.331-.367z"/><path fill="#8BC53F" d="M159 91v1l-.5.332-.5-.332c-.026-.692.308-1.025 1-1z"/><path fill="#283890" d="M140 62h-1v-1c.333-.31.667-.31 1 0v1z"/><path fill="#384799" d="M145 61c-.692.025-1.025-.308-1-1 .691-.025 1.025.308 1 1zM140 61h-1c-.025-.692.308-1.025 1-1v1z"/><path fill="#283890" d="M167 59h1v1c-.692.025-1.026-.308-1-1zM235 56v-1c.691-.025 1.025.308 1 1h-1zM231 53v1c-.692.025-1.025-.308-1-1h1z"/><path fill="#384799" d="M344.999 45c.025.692-.308 1.025-1 1-.025-.692.309-1.025 1-1zM345.999 44c.025.692-.308 1.025-1 1-.025-.692.309-1.025 1-1z"/><path fill="#FEFEFE" d="M349.999 43c.025.692-.308 1.025-1 1-.025-.692.309-1.025 1-1z"/><path fill="#283890" d="M300.999 36c.486-.036.929.063.793.663-.037.164-.517.228-.793.337v-1z"/><path fill="#A6D26B" d="M168 87c.025.692-.308 1.025-1 1-.026-.692.308-1.025 1-1z"/><path fill="#FEFEFE" d="M197 86v-1c.692-.025 1.025.308 1 1-.334.355-.667.355-1 0z"/><path fill="#8BC53F" d="M187 85h1v1h-1c-.224-.222-.298-.444-.224-.667s.149-.333.224-.333z"/><path fill="#95CA4E" d="M187 85v1h-1c-.026-.692.308-1.025 1-1zM184 85c.692-.025 1.025.308 1 1h-1c-.194-.222-.258-.444-.194-.667s.129-.333.194-.333z"/><path fill="#8BC53F" d="M179 85h-1v-1h1v1z"/><path fill="#384799" d="M145 74c-.025-.692.308-1.025 1-1 .025.692-.309 1.025-1 1zM137 72c.691-.025 1.025.308 1 1-.692.025-1.025-.308-1-1zM147 65c-.692.025-1.025-.308-1-1 .691-.025 1.025.308 1 1zM146 62c-.692.025-1.025-.308-1-1 .691-.025 1.025.308 1 1z"/><path fill="#99CC57" d="M145 108h1v1c-.692.025-1.026-.308-1-1z"/><path fill="#E8F3DA" d="M138.004 106.004c.48-.085.783.135.886.592.018.078-.216.312-.294.294-.456-.103-.677-.406-.592-.886z"/><path fill="#BDDE92" d="M238 105h1c.035.486-.063.929-.663.793-.164-.037-.228-.517-.337-.793z"/><path fill="#DAECC2" d="M232 106c-.692.025-1.025-.308-1-1 .333-.31.666-.31 1 0 .193.222.258.444.193.667s-.129.333-.193.333z"/><path fill="#B6DA86" d="M148 105c.025.692-.308 1.025-1 1v-1c.333-.31.666-.31 1 0z"/><path fill="#CCE5AA" d="M137 105c.691-.025 1.025.308 1 1-.692.025-1.025-.308-1-1z"/><path fill="#8BC53F" d="M232 105h-1c-.025-.692.308-1.025 1-1v1z"/><path fill="#DAECC2" d="M148 105h-1c-.025-.692.308-1.025 1-1v1z"/><path fill="#BDDE92" d="M219 104v-1c.333-.31.666-.31 1 0 .025.692-.309 1.025-1 1z"/><path fill="#99CC57" d="M134 103v1c-.692.025-1.025-.308-1-1h1z"/><path fill="#A1D063" d="M241 103c-.692.025-1.025-.308-1-1l.5-.432.5.432v1z"/><path fill="#B6DA86" d="M230 112h1c.224.222.298.444.224.666-.075.223-.15.334-.224.334-.692.025-1.025-.309-1-1z"/><path fill="#D3E9B6" d="M144 112c.036.485-.063.929-.663.793-.164-.037-.228-.517-.337-.793.333-.384.666-.384 1 0z"/><path fill="#8BC53F" d="M234 112h-1c-.257-.223-.342-.444-.257-.667.085-.222.171-.333.257-.333h1v1z"/><path fill="#92C94B" d="M144 112h-1c-.224-.223-.298-.444-.224-.667.074-.222.149-.333.224-.333l.5-.427.5.427v1z"/><path fill="#B6DA86" d="M143 111v1c-.692.025-1.025-.309-1-1h1z"/><path fill="#8BC53F" d="M234 111c-.025-.692.308-1.025 1-1 .025.691-.309 1.025-1 1z"/><path fill="#92C94B" d="M144 110h1c.025.691-.308 1.025-1 1-.256-.223-.342-.444-.256-.667.084-.222.17-.333.256-.333z"/><path fill="#FEFEFE" d="M320.999 110h-1c-.025-.692.309-1.025 1-1 .255.222.34.444.255.666-.085.223-.17.334-.255.334z"/><path fill="#8BC53F" d="M127 97h1v1c-.692.025-1.025-.308-1-1z"/><path fill="#99CC57" d="M220 97v-1c.691-.025 1.025.308 1 1-.334.353-.667.353-1 0z"/><path fill="#BEDE92" d="M238 96c-.025-.692.308-1.025 1-1l.378.5-.378.5c-.334.31-.667.31-1 0z"/><path fill="#99CC57" d="M220 96c-.486.036-.929-.063-.793-.663.037-.164.517-.228.793-.337v1z"/><path fill="#B6DA86" d="M207.004 95.004c.48-.085.783.135.886.592.018.078-.216.312-.294.294-.457-.103-.678-.406-.592-.886z"/><path fill="#8BC53F" d="M158 96h-1l-.421-.503.254-.604.61-.234.557.341v1z"/><path fill="#C5E29E" d="M157 95v1h-1v-1c.333-.42.666-.42 1 0z"/><path fill="#AFD77B" d="M248 95v-1c.333-.307.666-.307 1 0 .025.692-.309 1.025-1 1z"/><path fill="#D3E9B6" d="M239 95c-.025-.692.308-1.025 1-1 .224.222.298.444.224.667s-.15.333-.224.333c-.334.31-.667.31-1 0z"/><path fill="#A1D063" d="M217 95v-1h1c.025.692-.309 1.025-1 1z"/><path fill="#99CC57" d="M160 94c.025.692-.308 1.025-1 1-.193-.222-.259-.446-.197-.67.062-.225.125-.338.188-.338.338-.263.674-.259 1.009.008z"/><path fill="#8BC53F" d="M159 94v1h-1l-.422-.502.249-.607.613-.232.56.341z"/><path fill="#CCE5AA" d="M218 102v1c-.692.025-1.025-.308-1-1h1z"/><path fill="#BDDE92" d="M150 103h-1c-.025-.692.308-1.025 1-1v1z"/><path fill="#A1D063" d="M132 102h1v1c-.692.025-1.025-.308-1-1z"/><path fill="#A8D36F" d="M241 101h1c.025.692-.309 1.025-1 1-.286-.222-.381-.444-.286-.667s.19-.333.286-.333z"/><path fill="#E1F0CE" d="M216.995 101.996c-.48.085-.783-.135-.886-.592-.018-.078.216-.312.294-.294.457.103.678.406.592.886z"/><path fill="#A8D36F" d="M151 101c.025.692-.308 1.025-1 1-.026-.692.308-1.025 1-1z"/><path fill="#B6DA86" d="M234 100v1l-.5.415-.5-.415c-.025-.692.308-1.025 1-1z"/><path fill="#92C94B" d="M151 100h1c.025.692-.308 1.025-1 1v-1zM130 100h1v1c-.692.025-1.025-.308-1-1z"/><path fill="#99CC57" d="M154 99v-1h1c.025.692-.309 1.025-1 1zM129 99c-.692.025-1.025-.308-1-1 .691-.025 1.025.308 1 1z"/><path fill="#A1D063" d="M155 97h1c.025.692-.308 1.025-1 1v-1z"/><path fill="#FDFDFE" d="M35 106h2c.333-.383.667-.383 1 0l8.248-3.534c-1.403 5.835-4.26 9.968-7.242 14.04 1.853 1.369.56 3.387 1.146 5.189 1.415.542 1.298 2.637 2.849 3.305-.078 1.271 1.026.839 1.647 1.14.877 1.068-.099 2.452.574 3.589.512.531 1.184.165 1.779.271-.219 1.044-.966 1.594-1.977 2.067-3.782-.646-7.478-2.355-11.548-2.035-1.067 1.521-.224 3.844-2.547 5.099-1.461.79-1.733 3.045-1.928 4.869-.333.35-.667.35-1 0-.131-.611.317-1.329-.343-1.844-1.034-.807-1.807-1.833-2.083-3.104-.663-3.04-2.223-5.064-5.5-5.54-.525-.077-.944-.882-1.58-1.518h-3.142c-.328-1.499 1.449-1.525 1.517-2.624l-.963-.963c2.2-.518 3.322-2.254 4.913-3.697.678-1.249-.591-3.185.958-4.15-.932-2.227-1.931-4.327-1.8-6.786.038-.713.385-1.762-.978-1.773.001-.797.104-1.551-.652-2.21-.668-.582-1.786-1.069-1.092-2.688 2.79-.286 4.639 2.315 7.209 3 2.322.619 5.048 1.127 6.207 4.042 1.654-.486 2.612-1.678 3.328-3.144.692.024 1.025-.309 1-1.001z"/><path fill="#858EC0" d="M28 140h1c.481-.062.8.109.884.643-.875.518-1.645.747-1.884-.643z"/><path fill="#43519E" d="M18.996 108.004c.085.48-.135.783-.592.886-.078.018-.312-.216-.294-.294.103-.456.406-.677.886-.592z"/><path fill="#505DA5" d="M47.004 129.995c-.085-.479.135-.782.592-.886.078-.018.312.217.294.294-.103.457-.406.678-.886.592z"/><path fill="#FEFEFE" d="M178.754 174.97c-2.44-1.529-4.722-2.529-6.675-4.246-3.622-3.184-5.521-7.247-7.056-11.584-.799-2.259-1.189-4.609-1.055-7.058.137-2.485-.042-4.986.043-7.477.281-8.278 3.71-15.057 10.165-20.176 1.51-1.197 3.636-2.332 5.449-2.288 4.01.096 7.982-.656 12.105.7 5.134 1.689 8.838 4.515 11.257 9.192 1.578 3.053 2.524 6.243 3.229 9.677.667 3.253.957 6.44.696 9.595-.531 6.438-2.378 12.573-6.495 17.71-2.646 3.301-6.412 5.056-10.473 5.924-1.99.426-4.078 2.119-5.993.959-1.871-1.134-3.748-.599-5.197-.928z"/><path fill="#FDFDFE" d="M251.381 156.021c3.779-10.476 7.32-20.294 11.012-30.53 4.301 9.247 6.572 18.729 10.565 27.545.312.688.041 1.64.041 2.887-7.003.174-14.001.02-21.618.098z"/><path fill="#AFD77B" d="M222 194h1c.214-.374.52-.503.931-.35.496.338.678.927 1.069 1.35.36.306.739.593 1 1h1c-.025.691.308 1.025 1 1 .328.192.472.479.434.857-.141.514-.386.979-.69 1.413-.239.249-.488.492-.743.729-1.091-.243-1.757-.91-2-2-.605.112-.874-.259-.994-.752-.387-1.585-1.278-2.469-3.006-2.248-.026-.691.307-1.024.999-.999z"/><path fill="#98CC54" d="M227 199c-.025-.692.308-1.025 1-1 1.698-.789 2.563 1.17 4.009 1.216.365.217.697.477.991.784.29.222.387.444.29.666-.097.223-.193.334-.29.334h-4c-.3-.367-.668-.666-1-1-.399-.268-.65-.683-1-1z"/><path fill="#B9DC8B" d="M245 200c.758-.15 1.914.496 2-1h1c.275.222.367.444.275.666-.091.223-.183.334-.275.334-.244 1.09-.91 1.757-2 2-1.496-.086-.85-1.242-1-2z"/><path fill="#77C579" d="M288.999 201h1c1.226-.344 2.719-1.488 3 1h-4v-1z"/><path fill="#ACD574" d="M263.999 189c-.012 1.234-.863.966-1.53.962-.664-.553-.51-1.116-.221-1.962h1.751c.351.222.467.444.351.666-.117.223-.233.334-.351.334z"/><path fill="#DAECC2" d="M248 198v-1h1l.5-.413.5.413c.025.691-.309 1.025-1 1-.334.485-.667.485-1 0z"/><path fill="#E1F0CE" d="M253 192h1c.333-.396.666-.396 1 0 .025.691-.309 1.025-1 1-.323.345-.668.368-1.034.07-.286-.366-.276-.722.034-1.07z"/><path fill="#F0F7E6" d="M151 201v-1h1.95c-.374 1.523-1.337.787-1.95 1z"/><path fill="#BDDE92" d="M233 201v-1h1c.226.222.3.444.226.666-.076.223-.151.334-.226.334v1c-.692.025-1.025-.309-1-1z"/><path fill="#0EB2ED" d="M284.999 202c-.085 1.496-1.242.85-2 1 .086-1.496 1.242-.85 2-1z"/><path fill="#E1F0CE" d="M287.999 199h1v1h-2c-.025-.692.309-1.025 1-1z"/><path fill="#F7FAF2" d="M253 193h1v1h-1l-.381-.5.381-.5z"/><path fill="#E1F0CE" d="M269.999 189h-1c-.328-.223-.437-.444-.328-.667.109-.222.218-.333.328-.333h1c.224.222.298.444.224.666-.075.223-.149.334-.224.334z"/><path fill="#D3E9B6" d="M269.999 189v-1h1c.025.691-.308 1.025-1 1z"/><path fill="#A8D36F" d="M256.004 189.995c-.086-.479.135-.782.592-.886.078-.018.312.217.294.294-.103.457-.406.678-.886.592z"/><path fill="#C5E29E" d="M255 191c-.025-.692.308-1.025 1-1 .025.691-.309 1.025-1 1z"/><path fill="#B6DA86" d="M83 213h-1c-.328-.223-.437-.444-.328-.667.109-.222.218-.333.328-.333.692-.025 1.025.308 1 1z"/><path fill="#BEDE92" d="M82 212v1h-1c-.224-.223-.298-.444-.224-.667.075-.222.149-.333.224-.333h1z"/><path fill="#B6DA86" d="M81 212v1h-1c-.025-.692.308-1.025 1-1z"/><path fill="#D3E9B6" d="M255 192h-1c-.025-.692.308-1.025 1-1v1z"/><path fill="#8BC53F" d="M253 192v1c-.334.31-.667.31-1 0v-1h1z"/><path fill="#AFD77B" d="M228 200c.691-.025 1.025.308 1 1-.692.025-1.025-.309-1-1z"/><path fill="#E1F0CE" d="M248 200v-1c.333-.355.666-.355 1 0 .025.691-.309 1.025-1 1z"/><path fill="#C5E29E" d="M227 199c.691-.025 1.025.308 1 1h-1v-1z"/><path fill="#B9DC8B" d="M249 199h-1v-1h1v1z"/><path fill="#A8D36F" d="M221 195c.025.691-.309 1.025-1 1-.025-.692.308-1.025 1-1z"/><path fill="#CCE5AA" d="M242 202h1v1h-1c-.194-.223-.259-.444-.194-.667.064-.222.129-.333.194-.333z"/><path fill="#A1D063" d="M219.995 196.004c.086.48-.135.783-.592.886-.077.018-.312-.216-.294-.294.104-.456.407-.677.886-.592z"/><path fill="#CCE5AA" d="M250 196c.691-.025 1.025.308 1 1h-1c-.225-.223-.299-.444-.225-.667.075-.222.15-.333.225-.333z"/><path fill="#FEFEFE" d="M268.999 188v1h-1c-.328-.223-.437-.444-.328-.667.109-.222.218-.333.328-.333h1z"/><path fill="#F0F7E6" d="M267.999 188v1h-1c-.328-.223-.437-.444-.328-.667.109-.222.218-.333.328-.333h1z"/><path fill="#E1F0CE" d="M266.999 188v1h-1c-.328-.223-.437-.444-.328-.667.109-.222.218-.333.328-.333h1z"/><path fill="#DAECC2" d="M265.999 188v1h-1c-.256-.223-.342-.444-.256-.667.085-.222.17-.333.256-.333h1z"/><path fill="#C5E29E" d="M264.999 188v1h-1v-1h1z"/><path fill="#6B76B2" d="M320.999 110v-1c1.496.085.85 1.242 1 2-.691.025-1.025-.309-1-1z"/><path fill="#C9E9D8" d="M343.999 197h1v1c-.691.025-1.025-.309-1-1z"/><path fill="#99CC57" d="M347.499 97.009c.467.325.467.658 0 .982-.467-.324-.467-.658 0-.982z"/><path fill="#FEFEFE" d="M334.999 52h1l2-1h1c.334-.342.667-.342 1 0 1.09-.243 1.757-.91 2-2 1.036-.613 2.486-.604 3-2h1c.307-.36.712-.622 1-1h2c.334.353.667.353 1 0 .343-.324.676-.658 1-1 .902-.651 1.843-.486 2.687-.254 1.1 1.106.968 2.163.313 3.254-1.437.354-1.857 1.501-2.261 2.744-1.772 5.462-5.145 10.115-7.735 15.125-.088 1.051-.005 2.002.986 2.617v4.863c.243 1.163 2.202.033 2.01 1.652.774.446.419 1.457 1 2 .766 1.695 2.056 2.785 4.001 3.379v3.112c1.468 1.61 3.795 2.122 3.999 4.509.351.222.467.444.351.667s-.233.332-.351.332c-.333.31-.666.31-1 0-.796-.017-1.677.236-2.185-.737-1.385.796-2.861.879-4.485.667l-.586-1.685c-1.853 1.181-4.271 1.352-5.837.594-2.586-1.251-5.051-.369-7.507-.993-.31 1.628-1.758 2.57-1.4 4.154-.535.798-1.169 1.498-2 2l-.974 1.792c-.147 1.002.646 1.201.994 1.763l-2.029.883c.322.573 1.139.755 1.009 1.562-.694.88-1.812 1.618-1 3-.603 1.536-2.221 1.365-3.254 2.057-1.227-.645-.189-.955-.004-1.264-1.471-5.054-5.388-9.021-5.863-14.438-1.76-.591-3.246-2.264-5.23-1.096-2.1-3.525-3.461-3.854-8.426-2.247-1.171.099-1.545-.973-2.222-1.591.304-3.007 3.516-3.02 4.969-4.884v-2.096c3.302-.532 3.265-4.472 6.03-5.707 0-1.729.003-3.369-.001-5.009-.005-2.391.225-4.793-1.557-6.835-1.034-1.185-.654-2.414.671-3.479-2.372-1.073-2.135-4.043-4.113-5.412-.697-.485-.319-1.507-1-2-.217-1.208-1.774-2.052-.673-3.671 6.545 2.891 13.288 5.87 20.255 8.948.378.857.843 2.034 2.171 2.82 1.585-.386 2.511-1.634 3.247-3.097.692.026 1.025-.307 1-.999z"/><path fill="#6C77B4" d="M328.999 102c-.962-.9-.962-.9-.83-2.678.516-.62 1.222-.2 1.83-.322.489 1.274-.855 1.937-1 3z"/><path fill="#ADB3D5" d="M330.999 93c.243-1.09.91-1.757 2-2v2h-2z"/><path fill="#D6D9E9" d="M347.999 77c-1.496-.085-.85-1.242-1-2h2l-1 2z"/><path fill="#BBC0DC" d="M308.999 48c1.496.085.85 1.242 1 2l-.423 1.052c-.917-.977-.445-2.085-.577-3.052z"/><path fill="#C2C6DF" d="M355.999 89v-1c.758.151 1.915-.496 2 1h-2z"/><path fill="#6B76B2" d="M358.004 89.004c.479-.085.782.135.886.592.018.078-.217.312-.294.294-.457-.103-.678-.406-.592-.886z"/><path fill="#C2C6DF" d="M354.999 89h1c.036.486-.063.929-.662.793-.164-.037-.228-.517-.338-.793z"/><path fill="#FEFEFE" d="M285.999 55c-4.842-3.396-9.779-6.636-15.657-7.943-.92-.205-1.339-.822-2.016-1.192-2.304-1.258-4.366-3.091-7.295-2.922-.66.038-1.361-.65-2.146-1.056l-1.545 1.074-.635-1.753c-1.508-.617-3.324.439-4.68-.722-1.428-1.226-3.013.648-3.686.137-1.631-1.24-3.269-.032-5.509-1.226.61.502.429.425.371.294-.91-2.101-2.607-2.823-4.721-2.701-.746-.722-.471-1.868-1.433-2.498-1.571-1.028-3.006-2.267-4.48-3.439-.238-.19-.525-.49-.546-.758-.213-2.752-2.477-4.613-3.061-7.229-.487-2.18-.636-2.146-2.184-3.925 2.625-1.843-.231-5.314 2.324-7.026-.287-1.137-1.436-1.439-1.084-2.478 1.535-2.08 3.5-3.66 5.898-4.621.656-.173.894.357 1.257.654 2.722-1.294 5.602-.372 8.266-.7 1.541 1.528 3.312 2.071 5.246 2.217 2.924 3.329 7.375 5.13 9.716 8.882 2.22 3.558 5.838 5.644 7.852 9.264 1.643 5.23 7.64 7.253 9.636 12.278l-.757.756c3.481 2.21 4.055 6.881 7.793 8.746l.102 2.242c.43 1.092 2.196.525 2.542 1.745.381 1.342 1.801 2.296 1.431 3.9-.332.379-.665.379-.999 0z"/><path fill="#939BC7" d="M288.999 59c-.144-1.063-1.489-1.726-1-3 1.579.392 2.161 1.448 2 3-.333.35-.666.35-1 0z"/><path fill="#354497" d="M288.999 59h1c.692-.025 1.025.308 1 1-.758-.151-1.914.496-2-1z"/><path fill="#ADB3D5" d="M285.999 55h1c.692-.025 1.025.308 1 1-.758-.151-1.914.496-2-1z"/><path fill="#354497" d="M291.004 60.004c.479-.085.782.135.886.592.018.078-.217.312-.294.294-.457-.103-.678-.406-.592-.886z"/><path fill="#FEFEFE" d="M263.999 224v-1c.692.025 1.025-.309 1-1v-1c.992-.781.034-2.211 1-3v-1c.867.062 1.004-.493 1.001-1.176-.004-.941-.001-1.883-.001-2.824h1l3-4c.376-.327.463-.848.806-1.197.36-.324.687-.699 1.194-.803 1.063-.145 1.726-1.489 3-1 .247-.42.67-.664 1-1h3c1.148-1.075 2.865.128 4-1h4c5.667-.796 11.334-.796 17 0 1.487 1.229 3.503-.179 5 1h1c.334.368.667.368 1 0h1c.512.644 1.474.386 2 1h2c.512.644 1.474.386 2 1 3.211 1.044 6.464 1.975 9.619 3.166 2.632.994 5.216 1.966 8.153 1.815-1.696-4.91-.168-9.772-.936-14.481 1.468-.395.646-2.322 2.286-2.54 1.532-.356.215 2.378 1.877 2.04 6.271 7.216 12.061 14.892 20.522 20.699-8.467 1.27-12.862 7.315-18.331 12.595.531-2.596-3.3-3.023-2.074-5.619-2.88-3.358-6.507-4.634-10.649-4.669-3.654-.03-7.31.002-10.965-.009-3.036-.009-5.866.99-8.748 1.742-.455.119-.949.312-1.385.238-2.8-.479-5.509.321-8.018 1.157-1.906.636-3.707.894-5.611.844-1.904-.051-3.082 1.403-4.618 2.007-.633.156-.913-.304-1.461-.809-7.858 2.954-15.946 5.588-23.49 9.704-1.783.973-3.362 2.229-5.171 3.119-.557-.111-.894-.44-1-1v-1c.568.111 1.055-.322.956-.678-.386-1.383.618-2.247 1.044-3.322v-1c.691.025 1.025-.309 1-1v-1c.867.062 1.062-.5.988-1.176-.153-1.414.199-2.675 1.012-3.823z"/><path fill="#BEEAFA" d="M257 239h1l.5-.385.5.385c.025.691-.309 1.025-1 1-.334.309-.667.309-1 0-.225-.223-.299-.445-.225-.667s.15-.333.225-.333z"/><path fill="#FEFEFE" d="M259 237c.691-.025 1.025.308 1 1 .025.691-.309 1.025-1 1-.299-.268-.445-.604-.462-1 .013-.398.167-.732.462-1z"/><path fill="#50C6F3" d="M257 240h1c.035.485-.064.928-.663.793-.164-.037-.228-.518-.337-.793z"/><path fill="#00ADEE" d="M257 239v1c-.692.025-1.025-.309-1-1h1z"/><path fill="#AEE5F9" d="M299.995 229.995c-.48.086-.783-.135-.886-.592-.018-.077.216-.312.294-.294.456.104.677.407.592.886z"/><path fill="#FEFEFE" d="M378.655 51.492c1.035-1.442.964-3.43 3.184-3.779l.275-2.339c1.581-.237 2.839-1.29 3.394-2.503 1.144-2.498 3.36-3.929 5.013-5.9 1.528-1.823 2.754-4.009 4.574-5.456 5.775-4.589 11.102-9.881 18.224-12.533.431-.161.763-.584 1.198-.93 1.779-.267 3.846.515 5.498-1.181 1.592 1.67 3.637.978 5.017 1.114 3.263 1.478 5.54 3.391 6.877 7.089v6.309c-2.947 5.124-6.229 10.167-12.371 12.417-1.748.486-3.844-.4-5.434 1.199-.818.14-1.089-.606-1.775-1.112-1.718.527-3.57 2.149-5.674.369-1.812.368-3.247 1.836-5.44 1.821-7.176-.048-13.854 2.102-20.159 5.42-.607.318-1.056.67-2.401-.005z"/><path fill="#939BC7" d="M377.008 52.5c.325-.467.658-.467.982 0-.324.467-.657.467-.982 0z"/><path fill="#BCDD90" d="M249 94h-1c-.617-.667-.543-1.333 0-2h2v1c-.692-.025-1.025.308-1 1z"/><path fill="#C4E19E" d="M220 97h1c.025.692-.309 1.025-1 1-.692.025-1.025-.308-1-1h1z"/><path fill="#D3E9B6" d="M248 92v2h-1c.15-.758-.496-1.915 1-2zM252 90c.025.692-.309 1.025-1 1-.025-.692.308-1.025 1-1z"/><path fill="#C5E29E" d="M254 90h-1v-1c.691-.025 1.025.308 1 1z"/><path fill="#B6DA86" d="M241 94v-1c.485-.036.929.063.793.663-.037.164-.517.227-.793.337z"/><path fill="#A8D36F" d="M251 92h-1c-.025-.692.308-1.025 1-1v1z"/><path fill="#D3E9B6" d="M235 109h-1c-.036-.486.063-.929.662-.793.164.037.228.517.338.793z"/><path fill="#E1F0CE" d="M232 106v-1c.485-.036.929.063.793.663-.037.164-.517.227-.793.337z"/><path fill="#AFD77B" d="M233 103v-1l.5-.427.5.427c.025.692-.309 1.025-1 1z"/><path fill="#FEFEFE" d="M220 103h-1v-1c.691-.025 1.025.308 1 1z"/><path fill="#E8F3DA" d="M231 113v-1h1c.025.691-.309 1.025-1 1z"/><path fill="#B6DA86" d="M233 111v1h-1v-1h1z"/><path fill="#E1F0CE" d="M238 96h1v1c-.692.025-1.025-.308-1-1z"/><path fill="#D3E9B6" d="M246 95v1h-1c-.025-.692.308-1.025 1-1z"/><path fill="#F7FAF2" d="M239 95h1c.025.692-.309 1.025-1 1v-1z"/><path fill="#D3E9B6" d="M247 94v1h-1c-.025-.692.308-1.025 1-1z"/><path fill="#E1F0CE" d="M240 95v-1h1c.025.692-.309 1.025-1 1z"/><path fill="#DAECC2" d="M241 101v1h-1v-1c.333-.31.666-.31 1 0z"/><path fill="#CBE5AA" d="M234 101h1c.025.692-.309 1.025-1 1-.257-.222-.342-.444-.257-.667s.171-.333.257-.333z"/><path fill="#CCE5AA" d="M241 101h-1c-.025-.692.308-1.025 1-1v1z"/><path fill="#D3E9B6" d="M242 100h-1c-.036-.486.063-.929.662-.793.164.037.228.517.338.793z"/><path fill="#99CC57" d="M46 116c-.062-.481.109-.8.643-.885.518.876.747 1.646-.643 1.885-.286-.223-.38-.444-.286-.667.095-.222.19-.333.286-.333z"/><path fill="#B6DA86" d="M46 116v1h-1v-1h1z"/><path fill="#C0EBFA" d="M330.999 207c1.448.279 1.186 1.056.469 2.105-1.312-.412-2.729-.636-3.469-2.105h3z"/><path fill="#0EB2ED" d="M314.999 204c-.984-.381-2.531.927-3-1 .984.381 2.531-.927 3 1zM307.999 203c-.758-.15-1.914.496-2-1 .758.15 1.915-.496 2 1z"/><path fill="#E1F0CE" d="M305.999 198v-1c.334-.308.667-.308 1 0 .025.691-.308 1.025-1 1z"/><path fill="#0EB2ED" d="M317.999 205c-.691.025-1.025-.309-1-1 .692-.025 1.025.308 1 1z"/><path fill="#FEFEFE" d="M307.999 196c-.025-.692.309-1.025 1-1 .025.691-.308 1.025-1 1z"/><path fill="#0EB2ED" d="M304.999 204h-17c-.113-.629.274-.979.786-.982 5.143-.029 10.285-.029 15.428 0 .513.003.9.353.786.982z"/><path fill="#E3F4EF" d="M292.999 202c-.469-1.927-2.016-.619-3-1 .086-1.496 1.242-.85 2-1 1.707-.08 3.44-.213 4 2h-3z"/><path fill="#0EB2ED" d="M309.999 205c-1.268 0-2.536-.002-3.805 0-.682.002-1.26-.113-1.195-1 1.269 0 2.537.001 3.805-.001.681-.001 1.26.113 1.195 1.001zM283.999 204c.062.866-.493 1.004-1.176 1.001-.941-.004-1.883-.001-2.824-.001-.062-.867.493-1.004 1.176-1.001.941.004 1.883.001 2.824.001zM318.999 207c-.758-.15-1.914.496-2-1 .758.15 1.915-.496 2 1zM314.999 206c-.758-.15-1.914.496-2-1 .758.15 1.915-.496 2 1zM311.999 205c.036.485-.063.929-.662.793-.164-.037-.228-.517-.338-.793h1z"/><path fill="#19B5F0" d="M276.999 205c.025.691-.308 1.025-1 1v-1h1z"/><path fill="#384799" d="M353.999 48v-3h-3c1.242-2.014 3.134-.416 4.519-1.094.79 1.087-.504 1.082-.425 1.688l.739.74c-.291.877-.887 1.449-1.833 1.666zM349.999 46c.036.486-.063.929-.662.793-.164-.037-.228-.517-.338-.793h1zM350.999 45c.025.692-.308 1.025-1 1-.025-.692.309-1.025 1-1z"/><path fill="#283890" d="M38 106h-1v-1c.692-.025 1.025.308 1 1z"/><path fill="#384799" d="M145 67c0 .941-.003 1.883.001 2.824.003.683-.134 1.237-1.001 1.176 0-.941.003-1.883-.001-2.824-.003-.683.134-1.238 1.001-1.176zM143 72c.072.938-.571 1.056-1.242.98-.5-.056-.872-.371-.758-.98h2zM144 64c1.496.085.85 1.242 1 2-1.497-.085-.85-1.242-1-2zM141 62c-.072-.938.571-1.056 1.242-.98.5.056.872.371.758.98h-2zM140 72c-.692.025-1.025-.308-1-1 .691-.025 1.025.308 1 1z"/><path fill="#354497" d="M136 66h1c.035.486-.063.929-.663.793-.164-.037-.228-.517-.337-.793z"/><path fill="#283890" d="M138 63h1v1c-.692.025-1.025-.308-1-1z"/><path fill="#384799" d="M143 62c.692-.025 1.025.308 1 1-.692.025-1.026-.308-1-1z"/><path fill="#A8D36F" d="M178 85v1c-.486.036-.929-.063-.793-.663.037-.164.516-.227.793-.337z"/><path fill="#283890" d="M234 54v1c-.486.036-.929-.063-.793-.663.037-.164.517-.227.793-.337z"/><path fill="#A8D36F" d="M234 201v-1c.485-.036.929.063.793.662-.037.164-.517.228-.793.338z"/><path fill="#92C94B" d="M242 202v1c-.486.035-.929-.063-.793-.663.037-.164.517-.228.793-.337z"/><path fill="#384799" d="M344.999 47v2h-3c.313-1.698 2.243-.97 3-2z"/><path fill="#283890" d="M339.999 51h-1c-.035-.486.063-.929.663-.793.164.037.228.517.337.793z"/><path fill="#384799" d="M346.999 46c.025.692-.308 1.025-1 1-.025-.692.309-1.025 1-1z"/><path fill="#DAECC2" d="M252 193h1v1c-.692.025-1.025-.309-1-1z"/><path fill="#E1F0CE" d="M250 196v1h-1c-.025-.692.308-1.025 1-1z"/><path fill="#9CCE5B" d="M197 86h1v1h-1v-1zM193 85c.692-.025 1.025.308 1 1-.692.025-1.026-.308-1-1z"/><path fill="#8BC53F" d="M206 91h-1l-.378-.526.242-.602c.41-.241.789-.198 1.136.127v1.001z"/><path fill="#DAECC2" d="M206 90h-1c-.289-.222-.384-.444-.289-.667s.192-.333.289-.333c.691-.025 1.025.308 1 1z"/><path fill="#FEFEFE" d="M205 89v1c-.333.31-.667.31-1 0-.224-.222-.298-.444-.224-.667s.149-.333.224-.333h1z"/><path fill="#F0F7E6" d="M204 89v1c-.692.025-1.025-.308-1-1h1z"/><path fill="#50C6F3" d="M272.999 207c.025.691-.308 1.025-1 1-.333.35-.666.35-1 0-.025-.692.309-1.025 1-1 .334-.31.667-.31 1 0z"/><path fill="#19B5F0" d="M272.999 207h-1c-.035-.486.063-.929.663-.793.164.037.228.517.337.793zM270.999 208h1c.025.691-.308 1.025-1 1v-1z"/><path fill="#8BC53F" d="M184 85v1c-.486.036-.929-.063-.793-.663.037-.164.516-.227.793-.337z"/><path fill="#E8F3DA" d="M306.999 197h-1c-.025-.692.309-1.025 1-1v1z"/><path fill="#A1D063" d="M204 90h1v1c-.692.025-1.026-.308-1-1z"/><path fill="#FEFEFE" d="M144 110v1h-1v-1h1z"/><path fill="#EFF7E5" d="M232 200c-.777-.011-1.527.121-2.178-.619-.486-.554-.845-1.423-1.822-1.381v-1h2c.33.336.753.58 1 1h1c.596.666.596 1.333 0 2z"/><path fill="#E1F0CD" d="M231 198c-.692.025-1.025-.309-1-1h1v1z"/><path fill="#F7FBF2" d="M161 91h1v1h-1l-.424-.5.424-.5z"/><path fill="#E6F2D6" d="M232 200v-2h1v2h-1z"/><path fill="#8BC53F" d="M226 196c-.692.025-1.025-.309-1-1h1v1z"/><path fill="#F7FAF2" d="M224 194h-1v-1c.333-.355.666-.355 1 0 .285.222.38.444.285.666-.095.223-.189.334-.285.334z"/><path fill="#FEFEFE" d="M224 193h-1v-1h1v1z"/><path fill="#37BFF2" d="M265.999 218c-.381.984.927 2.531-1 3v-3h1z"/><path fill="#E8F3DA" d="M224 194v-1h1v2c-.692.025-1.025-.309-1-1z"/><path fill="#BEEAFA" d="M259 237v1c-.334.352-.667.352-1 0v-1h1z"/><path fill="#FEFEFE" d="M258 238h1v1h-1v-1z"/><path fill="#92C94B" d="M234 101v1h-1v-1h1z"/><path fill="#F7FAF2" d="M157 95h-1v-1h1l.424.5-.424.5z"/><path fill="#E9F3DA" d="M157 93h1l.381.5-.381.5c-.333.355-.667.355-1 0v-1z"/><path fill="#DAECC2" d="M161 93h-1c-.254-.222-.339-.444-.254-.667s.169-.333.254-.333c.333-.355.667-.355 1 0v1z"/><path fill="#AFD77B" d="M160 92v1c-.335.307-.684.339-1.047.05-.28-.363-.264-.713.047-1.05h1z"/><path fill="#BEDE92" d="M161 92h-1v-1h1v1z"/><path fill="#B6DA86" d="M159 93h1v1h-1l-.427-.5.427-.5z"/><path fill="#BEDE92" d="M159 92v1c-.333.355-.667.355-1 0v-1h1z"/><path fill="#B6DA86" d="M157 94h1v1h-1v-1z"/><path fill="#AFD77B" d="M158 93h1v1h-1v-1z"/><path fill="#E1F0CE" d="M225.004 197.995c-.085-.479.136-.782.592-.886.078-.018.312.217.294.294-.103.457-.406.678-.886.592z"/></g></svg>