<svg xmlns="http://www.w3.org/2000/svg" width="428.681" height="240" viewBox="0 0 428.681 240"><g fill="#F99410"><path d="M88.494 41.014l-88.494 79.496 85.494-3"/><path d="M68.681 0h360v240h-360z"/></g><g fill="#fff"><path d="M128.626 52.988h5.97c3.019 0 5.323.793 6.915 2.38 1.591 1.587 2.386 3.638 2.386 6.152 0 2.466-.787 4.502-2.361 6.109-1.575 1.607-3.811 2.411-6.708 2.411h-6.201v-17.052zm1.319 1.098v14.856h4.81c2.205 0 4.042-.678 5.512-2.032 1.469-1.355 2.203-3.151 2.203-5.39 0-2.189-.725-3.975-2.173-5.359-1.448-1.383-3.324-2.075-5.628-2.075h-4.724zM151.93 58.591c1.627 0 2.984.558 4.07 1.672 1.087 1.115 1.63 2.507 1.63 4.175 0 1.66-.543 3.045-1.63 4.157-1.086 1.11-2.443 1.666-4.07 1.666-1.628 0-2.989-.556-4.084-1.666-1.095-1.111-1.642-2.497-1.642-4.157 0-1.668.547-3.06 1.642-4.175 1.095-1.115 2.456-1.672 4.084-1.672zm0 10.498c1.261 0 2.314-.441 3.161-1.324s1.27-1.992 1.27-3.327c0-1.326-.426-2.437-1.275-3.333-.851-.895-1.902-1.343-3.155-1.343-1.27 0-2.33.444-3.181 1.331s-1.275 2.002-1.275 3.345c0 1.335.425 2.443 1.275 3.327.85.882 1.911 1.324 3.18 1.324zM176.234 58.811l-8.406 16.98h-1.226l3.927-7.932-4.732-9.048h1.256l4.074 7.841 3.882-7.841h1.225zM182.349 58.591c1.627 0 2.984.558 4.07 1.672 1.087 1.115 1.63 2.507 1.63 4.175 0 1.66-.543 3.045-1.63 4.157-1.086 1.11-2.443 1.666-4.07 1.666-1.628 0-2.989-.556-4.084-1.666-1.095-1.111-1.642-2.497-1.642-4.157 0-1.668.547-3.06 1.642-4.175 1.095-1.115 2.456-1.672 4.084-1.672zm0 10.498c1.261 0 2.314-.441 3.161-1.324s1.27-1.992 1.27-3.327c0-1.326-.426-2.437-1.275-3.333-.851-.895-1.902-1.343-3.155-1.343-1.27 0-2.33.444-3.181 1.331s-1.275 2.002-1.275 3.345c0 1.335.425 2.443 1.275 3.327.85.882 1.911 1.324 3.18 1.324zM198.597 70.041v-1.855h-.049c-.521.749-1.056 1.282-1.605 1.599-.549.317-1.247.476-2.094.476-1.204 0-2.201-.391-2.99-1.172s-1.184-1.888-1.184-3.32v-6.958h1.195v6.934c0 1.042.285 1.86.855 2.454.569.594 1.31.891 2.221.891.781 0 1.447-.179 1.996-.537.55-.358 1.101-.977 1.654-1.855v-7.886h1.196v11.23h-1.195zM219.446 64.011h-8.85c-.024.195-.036.391-.036.586 0 1.253.447 2.315 1.342 3.186.896.871 1.953 1.306 3.173 1.306 1.426 0 2.816-.557 4.176-1.672v1.355c-1.285.993-2.727 1.489-4.322 1.489-1.619 0-2.958-.562-4.015-1.685s-1.587-2.551-1.587-4.285c0-1.644.488-3.005 1.465-4.083.977-1.078 2.205-1.617 3.687-1.617 1.392 0 2.568.486 3.527 1.459.96.972 1.44 2.293 1.44 3.961zm-8.691-.965h7.275c-.424-2.189-1.607-3.284-3.552-3.284-.92 0-1.715.287-2.387.86-.671.575-1.117 1.383-1.336 2.424zM230.981 58.811l-4.836 11.45h-.721l-5.125-11.45h1.217l4.234 9.46 4.061-9.46h1.17zM241.712 64.011h-8.852c-.023.195-.035.391-.035.586 0 1.253.447 2.315 1.342 3.186s1.953 1.306 3.174 1.306c1.424 0 2.816-.557 4.176-1.672v1.355c-1.287.993-2.727 1.489-4.322 1.489-1.619 0-2.959-.562-4.016-1.685-1.059-1.123-1.588-2.551-1.588-4.285 0-1.644.488-3.005 1.465-4.083.977-1.078 2.205-1.617 3.688-1.617 1.391 0 2.566.486 3.527 1.459.96.972 1.441 2.293 1.441 3.961zm-8.691-.965h7.275c-.424-2.189-1.607-3.284-3.553-3.284-.92 0-1.715.287-2.387.86-.671.575-1.117 1.383-1.335 2.424zM251.892 59.921l-.695 1.123c-.936-.854-1.689-1.282-2.258-1.282-1.123 0-2.324 1.074-3.602 3.223v7.056h-1.197v-11.23h1.197v2.954h.049c1.342-2.116 2.652-3.174 3.93-3.174.732 0 1.591.444 2.576 1.33zM261.06 52.988v7.776h.049c.936-1.448 2.168-2.173 3.699-2.173 1.27 0 2.283.407 3.039 1.221.758.814 1.135 1.933 1.135 3.357v6.873h-1.195v-6.396c0-2.588-1.018-3.882-3.053-3.882-1.457 0-2.682.802-3.674 2.405v7.874h-1.195v-17.055h1.195zM281.091 68.088v1.001c-1.033.781-1.789 1.172-2.27 1.172-.277 0-.469-.092-.574-.274-.105-.184-.184-.556-.232-1.117-1.18.928-2.352 1.392-3.516 1.392-.846 0-1.562-.276-2.148-.83-.586-.553-.879-1.225-.879-2.014 0-1.221.566-2.183 1.697-2.887 1.131-.704 2.746-1.108 4.846-1.214v-1.428c0-1.53-.83-2.295-2.49-2.295-1.057 0-2.201.476-3.43 1.428v-1.233c1.27-.797 2.479-1.196 3.625-1.196 1.018 0 1.855.25 2.516.751.658.5.988 1.227.988 2.179v6.995c0 .383.09.574.27.574.226-.003.759-.337 1.597-1.004zm-3.076-.269v-3.503c-1.537-.057-2.812.213-3.826.812-1.014.598-1.52 1.361-1.52 2.289 0 .521.211.96.635 1.318.422.358.951.537 1.586.537 1.025 0 2.068-.484 3.125-1.453zM291.296 58.811l-4.836 11.45h-.721l-5.125-11.45h1.217l4.234 9.46 4.061-9.46h1.17zM302.026 64.011h-8.85c-.025.195-.037.391-.037.586 0 1.253.447 2.315 1.342 3.186.896.871 1.953 1.306 3.174 1.306 1.426 0 2.816-.557 4.176-1.672v1.355c-1.285.993-2.727 1.489-4.322 1.489-1.619 0-2.957-.562-4.016-1.685-1.057-1.123-1.586-2.551-1.586-4.285 0-1.644.488-3.005 1.465-4.083.977-1.078 2.205-1.617 3.686-1.617 1.393 0 2.568.486 3.527 1.459.961.972 1.441 2.293 1.441 3.961zm-8.691-.965h7.275c-.424-2.189-1.607-3.284-3.553-3.284-.92 0-1.715.287-2.387.86-.669.575-1.116 1.383-1.335 2.424zM320.349 68.088v1.001c-1.033.781-1.789 1.172-2.27 1.172-.277 0-.469-.092-.574-.274-.105-.184-.184-.556-.232-1.117-1.18.928-2.352 1.392-3.516 1.392-.846 0-1.562-.276-2.148-.83-.586-.553-.879-1.225-.879-2.014 0-1.221.566-2.183 1.697-2.887 1.131-.704 2.746-1.108 4.846-1.214v-1.428c0-1.53-.83-2.295-2.49-2.295-1.057 0-2.201.476-3.43 1.428v-1.233c1.27-.797 2.479-1.196 3.625-1.196 1.018 0 1.855.25 2.516.751.658.5.988 1.227.988 2.179v6.995c0 .383.09.574.27.574.226-.003.759-.337 1.597-1.004zm-3.077-.269v-3.503c-1.537-.057-2.812.213-3.826.812-1.014.598-1.52 1.361-1.52 2.289 0 .521.211.96.635 1.318.422.358.951.537 1.586.537 1.026 0 2.069-.484 3.125-1.453zM143.392 102.138c0 1.27-.325 2.368-.974 3.296-.65.928-1.556 1.638-2.718 2.131s-2.495.74-3.999.74c-.42 0-.936-.027-1.545-.081-.611-.054-1.422-.203-2.432-.447-1.012-.244-2.063-.605-3.157-1.084v-4.98c1.025.635 2.033 1.162 3.024 1.582s2.054.63 3.187.63c1.045 0 1.722-.173 2.028-.52.309-.347.462-.671.462-.974 0-.547-.264-1.008-.791-1.384s-1.294-.764-2.3-1.165c-1.113-.469-2.09-.979-2.93-1.531s-1.526-1.243-2.059-2.073-.798-1.812-.798-2.944c0-1.094.269-2.083.806-2.966s1.357-1.589 2.461-2.117 2.451-.791 4.043-.791c1.133 0 2.18.11 3.143.33.961.22 1.755.466 2.38.74s1.055.488 1.289.645v4.761c-.83-.596-1.756-1.128-2.776-1.597s-2.111-.703-3.273-.703c-.762 0-1.313.146-1.655.439s-.513.654-.513 1.084c0 .4.171.747.513 1.04s.952.649 1.831 1.069c1.562.732 2.812 1.392 3.75 1.978s1.672 1.262 2.205 2.029c.531.766.798 1.72.798 2.863zM168.705 98.944c0 1.738-.325 3.22-.975 4.446s-1.508 2.195-2.578 2.908c-1.068.713-2.222 1.226-3.457 1.538s-2.468.469-3.698.469c-1.719 0-3.392-.293-5.017-.879-1.627-.586-2.986-1.582-4.08-2.988s-1.641-3.237-1.641-5.493v-11.207h6.108v9.624c0 1.338.192 2.444.579 3.318.385.874.922 1.514 1.611 1.919.688.405 1.501.608 2.438.608.898 0 1.694-.2 2.388-.601s1.232-1.035 1.619-1.904c.385-.869.578-1.973.578-3.311v-9.653h6.123v11.206zM194.383 98.256c0 2.08-.379 3.75-1.136 5.01s-1.647 2.28-2.673 3.062c-1.455 1.143-3.491 1.714-6.108 1.714h-10.956999999999999v-20.304h8.438c1.27 0 2.355.066 3.26.198.902.132 1.716.317 2.438.557s1.338.508 1.846.806.962.618 1.362.959c.693.566 1.301 1.235 1.824 2.007.521.771.938 1.665 1.244 2.681.309 1.015.462 2.118.462 3.31zm-6.225-.264c0-1.65-.314-2.937-.945-3.86-.629-.923-1.387-1.541-2.27-1.853-.885-.312-1.785-.469-2.703-.469h-2.607v12.026h2.607c1.602 0 2.988-.381 4.16-1.143s1.758-2.328 1.758-4.701zM219.036 98.256c0 2.08-.379 3.75-1.135 5.01-.758 1.26-1.648 2.28-2.674 3.062-1.455 1.143-3.491 1.714-6.108 1.714h-10.956999999999999v-20.304h8.438c1.27 0 2.355.066 3.26.198.902.132 1.716.317 2.438.557s1.338.508 1.846.806.962.618 1.363.959c.693.566 1.301 1.235 1.824 2.007.521.771.938 1.665 1.244 2.681.309 1.015.461 2.118.461 3.31zm-6.225-.264c0-1.65-.314-2.937-.945-3.86-.629-.923-1.387-1.541-2.27-1.853-.885-.312-1.785-.469-2.703-.469h-2.607v12.026h2.607c1.602 0 2.988-.381 4.16-1.143s1.758-2.328 1.758-4.701zM238.124 108.041h-15.309v-20.303h15.059v4.072h-8.936v3.721h8.525v4.087h-8.525v4.336h9.186v4.087zM264.271 108.041h-5.449l-10.532-11.309v11.309h-6.064v-20.303h5.434l10.504 11.25v-11.25h6.107v20.303zM291.593 106.088v1.001c-1.033.781-1.791 1.172-2.271 1.172-.275 0-.467-.092-.574-.274-.105-.184-.182-.556-.23-1.117-1.18.928-2.352 1.392-3.516 1.392-.848 0-1.562-.276-2.148-.83-.586-.553-.879-1.225-.879-2.014 0-1.221.564-2.183 1.695-2.887 1.133-.704 2.748-1.108 4.848-1.214v-1.428c0-1.53-.83-2.295-2.49-2.295-1.059 0-2.201.476-3.432 1.428v-1.233c1.27-.797 2.479-1.196 3.627-1.196 1.018 0 1.855.25 2.514.751.66.5.988 1.227.988 2.179v6.995c0 .383.09.574.27.574.227-.003.76-.337 1.598-1.004zm-3.076-.269v-3.503c-1.539-.057-2.814.213-3.828.812-1.012.598-1.52 1.361-1.52 2.289 0 .521.213.96.635 1.318.424.358.953.537 1.588.537 1.025 0 2.066-.484 3.125-1.453zM294.485 96.811v1.953h.049c.936-1.448 2.168-2.173 3.699-2.173 1.27 0 2.283.407 3.039 1.221.758.814 1.135 1.941 1.135 3.381v6.848h-1.195v-6.396c0-2.588-1.018-3.882-3.053-3.882-1.488 0-2.713.802-3.674 2.405v7.874h-1.195v-11.23h1.195zM315.226 90.988v17.053h-1.209v-.879c-1.025.732-2.133 1.099-3.32 1.099-1.596 0-2.939-.563-4.035-1.69-1.094-1.127-1.641-2.513-1.641-4.157 0-1.668.539-3.056 1.617-4.163 1.078-1.106 2.432-1.66 4.059-1.66 1.033 0 2.141.301 3.32.903v-6.506h1.209zm-1.209 15.075v-7.251c-1.074-.7-2.164-1.05-3.271-1.05-1.293 0-2.359.429-3.197 1.288-.84.858-1.258 1.955-1.258 3.29 0 1.359.447 2.49 1.342 3.394.896.903 2.016 1.355 3.357 1.355 1.04 0 2.05-.342 3.027-1.026zM150.35 136.944c0 1.738-.325 3.22-.975 4.446-.649 1.225-1.508 2.194-2.578 2.907-1.068.713-2.222 1.226-3.457 1.538s-2.468.469-3.698.469c-1.719 0-3.392-.293-5.017-.879-1.627-.586-2.986-1.582-4.08-2.988s-1.641-3.237-1.641-5.493v-11.206h6.108v9.624c0 1.338.192 2.444.579 3.317.385.875.922 1.514 1.611 1.92.688.404 1.501.607 2.438.607.898 0 1.694-.2 2.388-.601s1.232-1.035 1.619-1.904c.385-.869.578-1.973.578-3.311v-9.653h6.123v11.207zM174.813 146.041h-6.577l-1.597-3.604c-.586-1.318-1.113-2.283-1.582-2.893-.469-.611-.926-1.002-1.369-1.172-.445-.172-1.019-.257-1.722-.257h-.688v7.925h-6.123v-20.303h10.415c1.68 0 3.057.342 4.131 1.025s1.848 1.514 2.321 2.49.711 1.904.711 2.783c0 1.025-.197 1.893-.594 2.6-.395.709-.812 1.224-1.252 1.546s-.933.63-1.479.923c.654.381 1.194.832 1.618 1.355.426.521 1.004 1.579 1.736 3.171l2.051 4.411zm-8.32-13.887c0-.938-.308-1.592-.923-1.963s-1.616-.557-3.003-.557h-1.289v4.893h1.318c1.494 0 2.517-.164 3.068-.49.552-.328.829-.955.829-1.883zM196.742 144.605c-.439.166-.815.303-1.128.41l-.9.293c-.289.088-.706.2-1.253.337-.928.215-1.853.378-2.776.491-.922.111-1.896.168-2.922.168-2.061 0-3.965-.376-5.713-1.128s-3.147-1.919-4.197-3.501-1.574-3.525-1.574-5.83c0-1.484.271-2.941.812-4.373.543-1.43 1.37-2.575 2.483-3.435.918-.713 1.848-1.257 2.79-1.634.942-.375 1.863-.627 2.762-.754s1.89-.19 2.974-.19c1.787 0 3.262.134 4.424.403 1.162.268 2.437.622 3.823 1.062v4.805c-.918-.537-1.89-.986-2.915-1.348s-2.305-.542-3.838-.542c-1.768 0-3.182.334-4.241 1.004-1.06.668-1.797 1.467-2.211 2.395-.416.928-.623 1.826-.623 2.695 0 1.025.239 1.971.718 2.834.479.865 1.201 1.559 2.168 2.08.967.523 2.134.784 3.501.784.781 0 1.611-.103 2.49-.308v-2.388h-2.754v-4.087h8.101v9.757zM216.868 146.041h-15.307v-20.303h15.059v4.072h-8.936v3.721h8.526v4.087h-8.526v4.336h9.184v4.087zM243.017 146.041h-5.449l-10.533-11.309v11.309h-6.064v-20.303h5.436l10.502 11.25v-11.25h6.109v20.303zM267.581 130.675h-7.441v15.366h-6.107v-15.366h-7.441v-4.937h20.99v4.937zM302.108 146.041h-5.449l-10.533-11.309v11.309h-6.064v-20.303h5.436l10.502 11.25v-11.25h6.109v20.303zM322.513 146.041h-15.307v-20.303h15.059v4.072h-8.936v3.721h8.525v4.087h-8.525v4.336h9.184v4.087zM341.923 146.041h-15.309v-20.303h15.059v4.072h-8.936v3.721h8.525v4.087h-8.525v4.336h9.186v4.087zM366.897 136.256c0 2.08-.379 3.75-1.135 5.01-.758 1.26-1.648 2.28-2.674 3.062-1.455 1.143-3.49 1.714-6.107 1.714h-10.956999999999999v-20.303h8.438c1.27 0 2.355.066 3.26.197.902.133 1.715.318 2.438.557.723.24 1.338.508 1.846.807.508.297.963.617 1.363.959.693.566 1.301 1.235 1.824 2.007.521.771.938 1.665 1.244 2.681.308 1.014.46 2.117.46 3.309zm-6.224-.264c0-1.65-.314-2.938-.945-3.859-.629-.924-1.387-1.541-2.27-1.854-.885-.312-1.785-.469-2.703-.469h-2.607v12.026h2.607c1.602 0 2.988-.381 4.16-1.143s1.758-2.328 1.758-4.701zM130.397 166.088v3.723h3.148v.977h-3.148v6.678c0 1.074.087 1.779.262 2.117s.646.507 1.41.507c.586 0 1.27-.183 2.051-.55v1.148c-.789.382-1.562.573-2.319.573-.74 0-1.359-.212-1.855-.635s-.745-1.009-.745-1.758v-8.081h-3.027v-.977h3.027v-2.674l.818-1.049h.378zM140.968 169.591c1.627 0 2.984.558 4.07 1.673 1.087 1.115 1.63 2.506 1.63 4.174 0 1.66-.543 3.046-1.63 4.157-1.086 1.11-2.443 1.666-4.07 1.666-1.628 0-2.989-.556-4.084-1.666-1.095-1.111-1.642-2.497-1.642-4.157 0-1.668.547-3.059 1.642-4.174s2.456-1.673 4.084-1.673zm0 10.498c1.261 0 2.314-.441 3.161-1.324.847-.884 1.27-1.991 1.27-3.327 0-1.326-.426-2.437-1.275-3.332-.851-.895-1.902-1.343-3.155-1.343-1.27 0-2.33.444-3.181 1.331s-1.275 2.002-1.275 3.344c0 1.336.425 2.443 1.275 3.327.85.882 1.911 1.324 3.18 1.324zM157.46 169.811v.635c1.131-.569 2.258-.854 3.381-.854 1.595 0 2.918.55 3.967 1.647 1.051 1.1 1.575 2.482 1.575 4.15 0 1.645-.541 3.034-1.624 4.169-1.082 1.136-2.404 1.703-3.967 1.703-1.082 0-2.193-.28-3.332-.843v6.373h-1.197v-16.98h1.197zm0 1.782v7.653c1.017.562 2.051.843 3.1.843 1.344 0 2.43-.423 3.26-1.27s1.245-1.957 1.245-3.333c0-1.367-.439-2.496-1.318-3.387-.879-.892-1.989-1.337-3.333-1.337-.96.001-1.945.277-2.954.831zM178.554 175.011h-8.851c-.024.195-.036.391-.036.586 0 1.253.447 2.315 1.342 3.187.896.871 1.953 1.306 3.174 1.306 1.425 0 2.816-.558 4.176-1.673v1.355c-1.286.993-2.727 1.489-4.322 1.489-1.619 0-2.958-.562-4.016-1.685s-1.587-2.551-1.587-4.285c0-1.643.488-3.004 1.465-4.083.977-1.078 2.205-1.617 3.687-1.617 1.392 0 2.567.486 3.527 1.459.961.971 1.441 2.293 1.441 3.961zm-8.691-.964h7.275c-.424-2.189-1.607-3.284-3.553-3.284-.92 0-1.715.287-2.387.86-.67.574-1.116 1.382-1.335 2.424zM190.529 175.011h-8.851c-.024.195-.036.391-.036.586 0 1.253.447 2.315 1.342 3.187.896.871 1.953 1.306 3.174 1.306 1.425 0 2.816-.558 4.176-1.673v1.355c-1.286.993-2.727 1.489-4.322 1.489-1.619 0-2.958-.562-4.016-1.685s-1.587-2.551-1.587-4.285c0-1.643.488-3.004 1.465-4.083.977-1.078 2.205-1.617 3.687-1.617 1.392 0 2.567.486 3.527 1.459.96.971 1.441 2.293 1.441 3.961zm-8.692-.964h7.275c-.424-2.189-1.607-3.284-3.553-3.284-.92 0-1.715.287-2.387.86-.67.574-1.116 1.382-1.335 2.424zM192.005 166.16l.573-1.94c.586-.301 1.155-.452 1.709-.452.928 0 1.681.326 2.259.977.577.652.866 1.51.866 2.576 0 .586-.108 1.211-.323 1.874-.216.663-.678 1.499-1.386 2.509-.708 1.009-1.14 1.721-1.294 2.136s-.232.798-.232 1.147c0 .513.159 1.037.477 1.574l-.451.354c-.644-.74-.965-1.505-.965-2.295 0-.382.075-.802.226-1.257.15-.456.544-1.195 1.179-2.216.635-1.021 1.041-1.815 1.221-2.381.179-.565.268-1.093.268-1.581 0-.65-.183-1.203-.549-1.66-.366-.455-.806-.684-1.318-.684-.806 0-1.473.439-2.002 1.318h-.258zm3.125 12.451v2.43h-1.624v-2.43h1.624z"/></g></svg>