<svg version="1" xmlns="http://www.w3.org/2000/svg" viewBox="0 0 219.1 228.2" enable-background="new 0 0 219.1 228.2"><path d="M98.9 138.1c.3 2.6-1.3 4.9-1 7.6.3 2.6.1 5.3.1 7.9-3.1 3-3.8 3.3-9.2 4 .9 2 1.7 4 2.6 5.9l.5-.2v5.3c-2 2.3-2.7 5.1-.7 8.3.6 1 .7 2.4 1.2 4.1.5.5 1.5 1.4 2.5 2.4-.3 1.2 1.2 2.9-.8 3.6.1-2.1-1.4-3.3-3-3.9-2-.7-2-2.3-2.3-4.2-1.1-1-2.5-2.2-3.9-3.5-.4-3.3-.7-6.6-1.2-10.5-1-1.2-2.9-2.6-3.5-4.4-.7-2.4-2.7-3-4.2-3.2-2.3-.3-2.7-1.9-3.5-3.1h-4.6c-1.9 1-3.4 1.7-4.6 2.4v5.7h3.3c3.2 3.8 6.2 7.3 9.2 10.9 3.1.4 2.6 3.6 4 5.4 1.6 2.1 1.8 4.6.3 7-.2.4-.1.9-.2 1.4-3.3 3.1-6.6 6.2-10.1 9.5 1 .6 1.9 1.1 2.8 1.6.3-.2.6-.5.6-.5 2.6 1.1 5.1.4 7.2.6 3.3-2 3.3-2 5.1-6 .4-.8.9-1.6 1.4-2.4.1-.2.5-.3.7-.5l.7.7 5.7-2.9c-.1.6-.1 1.1-.1 1.9l5.8.1c2.2 0 4.3-.1 5.4 2.6.4.9 2 1.3 2.8 1.8-.3 3.2-3 2.4-4.5 3.3-1 .6-2.9-.1-4.4-.7-.2 0-.4-.1-.5 0-.7.6-1.5 1.3-2.2 2-3.3-.5-6.8.9-10.1-1.4-1 .8-1.9 1.5-3 2.3-.8 0-1.9.1-3.1.1-.6 1-1.1 1.9-1.7 3-3.3-.4-6.8.5-10.4-.7-.1.1-.6.4-1.5 1.1-.7-1.3-1.4-2.4-2.1-3.5l-.7.5v-3.9c-1.4 1-2.4 1.7-3.6 2.6-2.3-.6-4.8.6-7.5-.7-2.2-1-4.9-1-7.2-1.4l-3.9-3.9h-7.9c-1.3-.9-2.4-1.5-3.4-2.3-.6-.5-1.1-1.1-2.1-2.3 1.8-.3 3-.5 4.3-.7.8-1.5 2-2.7 4.1-2.8 3.1-.1 6.2.3 9.1-1 .6-.2 1.4-.3 2 0 4.1 1.9 8.4.5 13.1 1.1.4.5 1.1 1.5 1.9 2.5 0 .1-.2.5-.6 1.1h4.6l3.5-3.5c3.2-.9 6-1.8 8.6-2.5-.4-1.3-.6-2.3-.9-3-1-1.1-2.3-1.9-2.7-3-.3-.9-.6-1.8-1.3-2.5-1.1-1.2-2.7-1.7-3.6-3.4-.7-1.4-2.2-2.5-3.5-3.6-1.7-1.4-3.5-2.6-5.3-3.9-1.8-2-3.6-4-5.7-6.3.3-1.1.9-2.4 1.1-3.8.2-1.5-.3-3.1.1-4.5 1.3-3.9.4-8.2 3.2-12-.8-.8-1.5-1.6-2.3-2.5 1.6-2.9.8-6 1-9.2h-5.8c-.1.3-.3.9-.4 1.5-4.8.9-9.7 4.4-14.3-.6-1.8 1.9-4.1.5-5.7.9-1.4-1.7-2.6-3.1-3.8-4.6-.5-1.9.8-4.1-1-6-.6-.7.3-2.5 1.9-5.3v1.8c1.1.1 2.2 0 3.2.2.8.2 1.5.7 2.8 1.3-.1-3.1-3.7-2.8-3.7-5.4h6.6c.1.7.2 1.3.2 1.4.6-.2 1.3-.5 2-.8l-.4-.6-1.8-.1c.7-1.9 2.3-.5 3.4-1 .8.7 1.7 1.4 2.6 2.2 1.2-.7 2.3-1.3 3.3-2 .4-.2.6-.7.8-1.2.5-1.8.8-3.7 1.2-5.5-3.9-1.2-7.6-2.3-11.3-3.6-2.7-1-5.1-2.5-6.1-5.6-.2-.7-1.1-1.2-1.8-1.8v-3.1c-.8-.6-1.8-1.4-3.2-2.4-2.9.1-6.6 0-9.5-3-.2.6-.4 1.2-.7 1.9h-2c-1.2-1.8-2.4-3.5-3.5-5.2-.5-.8-.8-1.7-1.2-2.5-.6-1.3-1.2-2.5-2-4.2 0-3.3-.5-7.3 2-10.7l.5-1.3c.5-.6 1.1-1.4 1.8-1.7 2.2-.9 2.8-3.7 5.2-4.2 2.6-.6 4.5-2.3 5.6-3.6 3.8-1.7 7.6-1.4 10.2-4.2 2.6-.1 5-2 7.7-1.1.6 2.6-2.2 1.4-2.7 2.8-4.3.2-8.1 2.2-11.8 4.1-2.1 1-4.1 2.1-6.3 2.9-1.5.5-2 1.4-2.3 2.8-3.7.8-5.9 3.4-7.8 7.8-.2 4.8 1.9 10.1 4.5 15.4.7-.7 1.4-1.3 2.3-2.2 2.1 1.4 4.3 2.9 6.6 4.5.1-.7-.3-3.4-.6-4.1-3.5-.1-5.7-2.3-7.8-4.9.2-.4.3-.9.6-1.7 1.5 1.2 2.8 2.3 4.9 4-.6-1.7-.9-2.4-1.4-3.6.8 0 1.7-.3 2.3 0 2.7 1.5 5.1.5 8-.7-1.6-1.4-3.1-2.7-4.7-4.2.6-.7 1-1.4 1.3-1.7l2.3 2.3h3.7c-.8-1.5-1.4-2.8-2.2-4.4 2.9-1.3 4.8 1.2 7.1 1.4 2.5.2 4.6 1.5 7.5 1.9-.5-.9-1-1.5-1.2-2.2.1-.2.1-1.1.1-2.2 1.9.2 3.6.2 5.1.7 1.5.4 2.9 1.2 4.1 2.1 1.9 1.3 3.6 2.8 6.3 4.9-.8-2.1-1.2-3.2-1.6-4.4.8-.1 1.2-.2 1.8-.3l.6 1.8c.2-.1.6-.1.7-.3 1.3-1.7 2.5-3.3 3.6-4.9-.2-.9-.7-2-.5-3 .4-2.1-1.1-3.7-1.1-5.6-3-2.4-3.6-7.5-9.1-7.2-2.5.1-5-1.4-7.6-2.2-.2-.4-.4-1-.7-1.8l-1 2c-2.2-.4-4.3-.8-7.2-1.4 2.4-.9 4.3-.2 6.1-.7 1.1-2.8 3.4-3.1 6.5-2.7-.2 1.2-.4 2.3-.7 3.8 1.3 0 2.9-.1 4.5 0 1.5.2 3 .7 4.5 1.1 3.7 2.6 5.7 6.3 6.6 10.7.2 1 1.2 1.9 1.9 3.1v4.9c.7.1 1.5.2 2.7.3.6 1.9 1.3 4.1 2 6.3-.7 1.2-1.4 2.5-2.4 4.3 1.8.2 2.8.3 3.9.4 3 2.2 6.3 4.2 9.1 6.8 2.8 2.6 5.3 5.7 7.7 8.8 2.3 2.9 4.3 6.1 5.1 9.9 3.1 2.4 3.2 6.3 4.5 9.6 1.4 3.4 2.8 6.9 3.4 10.6.6 3.8 1.6 7.6.7 11.7-2.1 1.7-1 5.9-4.6 6.8-.1-2-.1-3.9-.1-5.6-1.1-1.4-2.2-1.8-3.6-1.1-.5.3-1.2.8-1.7.7-3.6-.5-6.9.9-10.2 2.1-2 .7-4.4 1.4-5.7 3-2.6 3-3.9 6.7-3.7 11.2 1.8-1.2 3.2-2.1 4.6-3 1.7-.2 3.5-.5 5.4-.8.4.5.8 1.2 1.3 2.1-2.7.7-5.1 1.3-7.5 1.9.2.7.3 1.1.4 1.5h16.7v-10.3l1.6-1.6c.9-.1 1.8-.1 2.5-.1zm-29.9-36c.3-.3.7-.7 1-.5 1.6-1.6 3.3-2.8 4.3-4.4.7-1.1 2.4-2.3 1.3-4.4-1 1.5-1.9 2.8-2.7 4.1-1 .2-2 .4-2.8.5v3.7c-.3.3-.7.7-.9 1.1l-.2-.2-.8.7.3.3.5-.9zm-16.1 5.1l.2-.2-.7-.8-.3.3c.3.2.5.5 1.1.7 1.2.9 1.2.9 2.8 0h-3.1zm-20.9-24.3v-.9c-1 .1-2 .3-2.9.4 0 .2 0 .4.1.7 1 0 1.9-.1 2.8-1l.2.2.8-.7-.3-.3c-.3.1-.6.4-.7 1.6zm20.9 27.3l.2-.2-.7-.8-.3.3.7.6c.5 1.7 1 3.3 1.6 5 1.2-.1 2.4-.2 4.2-.3-2.5-1.5-2.9-4.4-5.7-4.6zm16 82.5c2.7-2.7 5.6-5.7 8.4-8.4h-1.9c-1.3 3.4-5.2 2.4-7.4 4.4 1.6 1.2.7 3 1 5.2v-.5l-2.9-.6-3.8-.9c1.1 1.2 1.5 1.6 1.9 2 1.7-.1 3.3-.1 4.7-1.2zm-34-125.5l.2-.2-.7-.8-.3.3c.3.2.5.5 6.9 1.9-1.9-.4-3.7-.9-5.5-1.3-.1 0-.3.3-.5.5 0 0 .2.3.3.3.5.2 1.1.4 1.9.6-1.5 1.2-2.8 2.2-4.1 3.2l.8.8c-2.8 2.8-6.7 2.2-10.8 3 1.6 1.6 2.6 2.7 3.8 3.8 1.6-.6 2.8-1.2 4.1-1.7-.4-.5-.7-.8-1-1.2 1.7-1.5 2.9.7 4.6.6.2-.6.4-1.2.7-1.9 4.9.5 3.9-4.2-.4-7.9zm22 4.7c-.6-3.5-3.9-4.2-6.7-5.9-.6.9-1.1 1.8-1.9 3h-4c-1 3.1-2 6-3.1 9.5-1.2.2-2.7.6-4.1.8.7 1.4 1.4 2.7 2 3.9-.9 1-1.7 1.8-2.4 2.6.2.3 2.1 2.8 2.4 3.3-2-.3-3.6-.5-5.2-.7v2.5c3.1 1.8 6.4 3.9 9.6 5.8 2.8.3 5.4.6 8.1.9 3.2.6 4-2.7 5.9-4.2 1.7-1.3 2.2-3.9 3.1-5.6-.5-1.5-.8-2.6-1.1-3.5-5.7 3-11.9 5.5-15.9 10.3-1.1-.9-1.9-1.6-2.8-2.4 0-.7.1-1.5.1-2.7l2.5 1.3c.9-1.3 2-2.7 3-4.1 1.2-1.5 2.1-3.5 3.6-4.4 1.4-.9 3.3-.9 4.2-2.5 1.2.4 2.3.7 3.3 1.1.9.4 1.8-2 2.7.1 2.4-2.6 3.8-5.5 4.6-8.9-2.3-.1-4.1-.4-5.5.4-.8-.2-1.5-.3-2.4-.6zm3.1 58.4c-.2 2.3.5 3.2 2.4 3.9 5.8 1.9 11.4 1.1 16.7-1.1 5.6-2.3 11.1-4.5 17.3-4 1.8.2 3.6 0 5.3 0-.7-3.6-1.6-6.8-1.8-10-.1-2.4-1.1-4.6-1.5-6.9-.4-2.4-2.8-3.8-2.6-6.4-2.3-2.6-2.5-6.2-4.6-9.1-2.1-2.8-3.7-6.1-6.1-8.9-2.4-2.8-5-5.4-7.8-7.6-3.5-2.6-7.2-6.1-12.2-2.8-1.7 3.4-2 6.6.4 9.7.8.1 1.6.2 2.3.2.5 3.1 1 5.9 1.5 9.1 3.2-3.7 6.3-7.1 9.4-10.7 2.2 1.9 3.7 3.5 4.2 6.1.4 2.4 1 4.9 2.2 7 3.2 5.6 2.9 11.8 3.9 17.8-8 5.8-16.8 8.1-26.2 8.7v2.6c-.7.7-1.9 1.6-2.8 2.4zm-17.5-5.2c2.2-.2 4.5.5 6.5-1.1 1.2-1 2.6-1 4.1-1 3.3 0 6.8.6 9.9-.1 4.4-1 9-1.3 13.2-2.9 3.3-1.3 6.9-1.9 9.5-4.2v-6.5c-2.3-.8-3.7.6-5.6 1.8-6.3-.8-11.6 2.2-17.1 6-3.1-.8-6.3 2.2-10.3.6-.7-1.7-1.5-3.7-2.4-5.7-.7.2-1.1.4-1.6.6.4.5.7.8 1.3 1.5-7.3.2-7.3.2-10.4-1.5-.2-.1-.5-.1-.9-.1 0 .7-.2 1.4 0 2 .2.7.8 1.3 1.1 1.8-1.5 3.7-1.2 4.7 2.7 8.8zm25.5-29.8c-3-.4-.8-5.2-5-5.3 0 1.5.2 3 0 4.4-.2 1.4-.8 2.7-1 3.4-1.3 1.1-2.2 1.9-3.1 2.8-.6-.4-1-2.3-3-1 .7 1.7 1.3 3.4 2.1 5 .8 1.8 1.7 3.5 2.7 5.3-1 1-2.5 2-1.3 4.1 3.2.5 5.8-1.1 8.5-2.4l-3-1.8c.8-3.9-1.8-8.5 3.1-11.3v-3.2zm-.3 9.4c9.3.8 10.1.7 16.4-2.2-.9-3.7-2-7.4-4.9-11.1.1 3.8-2.8 5.6-4 8.2-1.5 3.6-4.7 3.2-7.5 5.1zm-8.5 45.4c5.7-1.8 10.1-2.6 11.4-2.1.3-1.6 2.3-2.8.9-4.9-4 .7-8.2 1.5-12.3 2.3v4.7zm29.8 25.3c0-4.1-.1-7.7 0-11.3.1-2.4-.8-4.3-2.4-5.9h-2.4c-.1 3.4-.1 3.4 2.7 8.3.3 2.9-.6 6 2.1 8.9zm-15.3-24.2c.4 1 .5 1.7.8 1.8 2.8.8 5.5 2 8.6 2.2 4.4.4 8.5-1.8 13.2-1.7-.6-.5-1.2-.9-1.6-1.2-7.1 1.5-13.8 1.2-21-1.1zm-13.7-6.8c2.1-1.6 3.9-2.6 6-2.3 1.5.2 2.2-.6 2.8-1.5-2.6-1.2-4.9-2.4-7.4-3.6l-1.5 4.8c0 .6.1 1.2.1 2.6zm-.6 11.1c3.8-2.3 7.5-3.7 11.4-3.6v-2.9c-4.2 1.6-8.1 3.1-11.9 4.6.2.6.2.9.5 1.9zm25.6-50c-11.8 3.3-12.2 2.8-17 2 .1.5.1.9.2 1.3 5.9.9 11.4-.3 16.8-2.3v-1zm-47.5 11.3c-.9-1.2-1.4-2-2-2.7-.6.5-1 .7-1.2.9-1.4-.4-2.7-.8-4.2-1.2v3h7.4zm-.7 2.4h-7.3c1.2.9 1.8 1.6 2.6 1.8 1.7.6 3.2-.7 4.7-1.8zm28.2-55c-.3.8-.7 1.7-1.3 3.3 1.7-1.2 2.6-1.9 3.7-2.7.5 1 .8 1.6 1.4 2.9v-3.5h-3.8zm-10.1 39.7c-.3-.6-.7-1.1-.9-1.7-.2-.7-.2-1.5-.3-3.2-.5 1.6-.7 2.1-.9 2.7l-1.1 2.2h3.2zm10 95.2c1.6-.1 2.8-.2 4.8-.3-1.9-.9-3-1.4-4.3-2-.2.8-.3 1.3-.5 2.3zm2.3-130.6v3.6c.7-.1 1.3-.2 2.3-.3-.8-1.1-1.4-1.9-2.3-3.3zm-34 54.8c0 .3 0 .6.1.9 1.2-.1 2.4-.2 3.6-.2v-.6c-1.3-.1-2.5-.1-3.7-.1zm41.9 14.4c-1.9-.7-2.5-.2-2.1.7.6-.2 1.4-.4 2.1-.7zm-15.4-41.9c-.7.8-1.2 1.3-2.5 2.5 1.7-.4 2.2-.5 2.8-.6 0-.6-.1-1-.3-1.9zm4.1-27.6l-.9.1.4 1.6.5-.1v-1.6zm-9 15.7l-.1-.9-1.6.4.1.5h1.6zm-21.8 2.5v.3h1v-.3h-1zm16 22v.3h1v-.3h-1zM198 123.1c.2 1.5-.6 2.4-2.2 3.2-.5-.4-1.1-.9-1.7-1.5-.3-2.3.1-4.6-.9-7-.8-1.9.3-4.4-1-6.6-.6-1 0-2.6-.1-3.9-.1-1.1-.9-2-.9-3.1-.1-2.5-1.4-4.6-2.9-6.2-2.7-2.9-3-6.5-4.1-9.8-.5-1.5-.5-3.1-1.1-4.5-.3-.7-1.4-1.2-2.9-2.4.5 2.3.4 3.9 1.1 5.1 1.7 3.1 2 6.3 2 9.7 0 2.2.6 4.4.9 6.6.3 2-.6 4.1.9 6.2.8 1.1.1 3.2.1 4.8l1.2 1.2c1.5 4.4 2.8 8.1 4.3 12.6.5.4 1.6 1.3 2.5 2l.3 3.2c3.2-3.7 6.6-4.4 10.8-3-.9-.7-1.7-1.3-2.9-2.2v-2.3h2.3-.5l.4 2 .6-.1c-.1-.6-.1-1.3-.6-1.9-.4-.5-.4-1-.4-1.4-1-.6-2-1.3-3.7-2.3h3.4c.9 1 2.1 2.2 3.4 3.5-.4 1.9-.9 4-1.5 6.4-3.4 2-7.4 1.7-11.5 2.8-.5 1.5-.4 3.8 1 5.6 1.1 1.4.7 2.7 1 4.2.5.2 1.1.4 1.8.6v2.3c-.9.4-1.9.9-2.9 1.4l.1-.1-.7-.8-.3.3c.3.2.5.5.9.6-.8.9-1.4 2.3-2.5 2.8-1.5.7-3.3 1-5 1.1-2.3.2-4.7 0-7.1 0-1.2 2.1.3 3.8 1.3 5.1 1.8 2.2 2.5 4.4 2.3 7.1v1.5c0 2.3-.2 4.7 0 7 .2 2 .8 4 1.1 5.3 1.6 1.9 2.8 3.4 4.1 4.9-.2.8-.3 1.4-.6 2-.4.8-1.4 1.6-1.3 2.4.3 4.3-2.2 7.9-2.4 12.4-.7.6-1.6 1.3-2.7 2.3-.1 0-.6.1-1.1 0-2.9-.3-5.8-.4-8.5-1.1-.7-.2-2.6-.2-2.8-2.1-.1-.6-2.1-.9-3.1-1.5-.4-.3-.5-1.1-.8-1.6-.8-1.8-1.4-3.9-2.5-5.4-1.7-2.3-2.2-4.7-2.6-7.5-.6-4.8 1.4-9.4 1.1-14.1.6-.6 1.2-1.1 1.5-1.5 1.8-5.1 1.1-10.7 5.8-14.3-1.6-1.1-2.6-.6-3.8.1-1 .6-2.6.1-4.3.1-.8 1.2-1.5 2.7-2.5 3.8-1.1 1.1-2.6 1.8-3.7 2.5-.4 2.4-.9 4.4-.9 6.5 0 1.5.6 3.1.9 4.6.3 1.4-.6 2.9.9 4.2.3.3.4 1.5.1 1.9-1.8 1.9-.6 4.1-1.1 6.3-.5.3-1.2.6-2.2 1 1 1.7 2 3.3 3.1 5.1 0-.3.1-.1 0-.1-1.6 1.3-.5 3.1-.8 4.7 2 1.2 0 4 2.1 5.2-.5.2-1 .3-1.4.5-2.5-2.8-1.5-6.1-1.8-9.5-1-.8-2.1-1.7-2.8-2.3-.7-3.9.6-6.6 1.8-9.4.8-1.8 1.4-3.2.2-5.3-1.6-3-1.6-6.6-1.2-9.9.2-1.3.9-2.6 1.7-3.8 1.1-1.7 2.3-3.3 3.9-5.6-2.8-.1-5.1 0-7.2-.4-1.9-.4-3.7-1.3-5.8-2.1 2.1-5.2 1.5-10.7 4.4-15.6.2-1.8-.2-4 .9-6.2.9-1.9-.6-4.5 1-6.6.5-.6.1-1.9.1-2.9v-16.1c.8-.5 1.5-1 2.3-1.6.3.5.7.7.7 1 0 4.2.2 8.3 0 12.5-.2 3.2-1.2 6.3-1 9.6 0 1.2-1.1 2.5-1.5 3.4l-3.3 21.8c5.4 0 10.8.7 16-.2 5-.9 10.2-1.5 14.9-3.8 1.9-.9 4.1-1.6 6.2-2 3.1-.6 6.3-.8 9.7-1.2-.3-.7-.6-1.3-.8-1.9-.1-.6 0-1.2 0-1.7-.8-.2-1.3-.3-1.7-.4-.5-1.4-1.1-2.6-1.3-4-.7-4-1.7-7.8-3.9-11.4-1.2-2-1.5-4.7-2.1-7.1-.5-2-.3-4.4-1.4-5.9-1.4-1.9-.1-4-1.4-6-1.1-1.7-.9-4.7-1-7l-2.3-15.1c-.1-1.6-1.3-3.1-2-4.6l4.4-1.9c-1.4-3.9-1.3-8.3-6.4-9.8-1 .7-2.3 1.6-3.9 2.7-.9 1.6.8 2.6 1.9 3.7.6 4.5 0 8.6-3.1 12.4-.5-.2-1.2-.4-1.7-.8s-.8-1.1-1.2-1.7c-.7-1-1.3-2.2-2.2-3.1-.7-.8-1.7-1.5-2.7-1.7-2.9-.7-3.3-3.6-4.9-5.5-.2-.3 0-1 0-.5-1.2-1.6-1.9-2.7-2.7-3.8-1.6.6-2.9 1.1-4.2 1.6-.9 2.7 1.1 3.4 3.2 4.3-.8 1.1-1.5 2.1-2.4 3.2.1.3.3.8.5 1.1 1.1 1.3 2.2 2.6 3.6 4.2.5-.6.9-1.3 1.6-2.3.4.6.9 1.1 1.4 1.8-1.8 2.3-.4 5.7-2.4 7.9s-1.2 5.2-2.7 7.4c.4.7.7 1.3 1.2 2.3-1.3.9-2.6 1.8-4.2 3 .3 3.3-1 6.5-2 9.8-.7 2.4-2.4 4.4-2.6 6.9-.2 2.5-.9 5-1.7 7.3-.6 1.9-1.1 4.8-3.8 5.6 0-3.5 1-6.8 2.5-10 .6-1.3.9-2.6 1.6-3.8 1.7-3.1 1.6-6.6 2.8-9.8 1.4-3.7 3.4-7.5 3.2-11.7 2.1-2.6 1.4-6 3-8.8-1.7-2.7-2.9-6-6.7-6.9-.5 2.9-.9 5.6-1.3 8.2-.4 2.8-.8 5.7-1.2 8.6-3.4 3-4.9 6.9-4.8 11.4.1 1.9 0 3.7.8 5.6 1.2 3.1-1 6.1-1.1 9.6-1.9-.6-3.4-1-4.5-1.3-1.2 1.1-2.2 1.9-3.3 2.9 0 .5.1 1.3.1 2.3 1.5-1.4 2.7-2.4 4.1-3.7 1 1.2 1.8 2.2 2.4 2.9-1.1 1.1-2.2 2.2-3.7 3.6-.8-.3-2.2-.7-3.3-1-.6.6-1.1 1-1.6 1.4l1.2 1.2c3.3-1.3 6.6-.4 9.8-.7-.4.7-.8 1.3-1.2 1.9-6.5.6-12.6.4-16.7-5.5v-3.9c2 .4 1.5-2.4 3.4-2.6 1.2-.1 2.4-1.3 3.1-1.8 3 .4 5.5.8 8.2 1.2v-17.4c3.2-4.1 5.4-8.1 6.2-12.9.2-1.2.8-2.4.9-3.6l.1-3.5c.2-.9.7-1.7 1.1-2.3-1.1-2.6-2-5-3.2-7.9 1.1.4 1.8.7 2.6 1 2.2-2.4 3.4-6 7.2-7.7.9 0 2.3-.1 3.6 0 1.1.1 2.1.6 3.5 1.1.1-1.6.2-3.2.3-4.5-1.3-.8-2.3-1.5-3.9-2.6h-4.7c-1-1.7-2.6-1.8-4.1-2.4-1.3-.6-2.1-2.3-3.3-3.7-1.9.6-2.8 2.7-4.7 3.6l-6.5 3.5-4.4-3h-5.9c-2.1-1.8-2.9-4.1-2.5-6.7l2.2-.8-1.2-2.6c3.6-.3 6.9.9 9.6 1.8 1.7-.3 2.9-.5 4.1-.9.5-.1.9-.6 1.3-1 1.8-.2 2.6.7 3.1 2.4-5.6 2.1-11.3 2.9-17.2 2.6 0 0 .1-.1.2-.1l-.7-.8-.3.3c.3.2.5.5.9.6-.3 2.3 1.8 2.8 2.6 4l6.2-1.4c1.5-1.5 3.3-3.3 6.2-2.4 0 .6.1 1 0 1.2-1.4 2.1-4.3 1.3-6 3.3h4.7c2-1.6 4.3-3.4 5.9-4.8.6-2.1 1-3.4 1.6-5.2-1.3.4-2.2.6-3.4 1 .5-1.1.8-1.8 1.1-2.5h-4.8v1.7c-3.1.7-6.1-.5-9-1.1-2.2-.5-5.1-1.5-5-4.9 2.8.8 5.5 1.7 7.7 4.3 0-3 0-3-1.6-5.1.5-.1 1.1-.3 1.5-.1 3.1 1.4 6.6 1.8 10.3 2.7.2-.2.8-.7 1.5-1.4-1.1-1.8-2.1-3.4-3.4-5.3v-8.4c.7-.8 1.8-1.4 1.9-2.2 1.2-5.5 4.6-8.4 9.9-9.7.3-.1.5-.4.7-.6.4.3.7.7 1.1.9.2.1.6 0 1.1-.1v-6.2c-2.6 1.2-4.9 2.3-7.3 3.5-.2-.6-.4-1-.5-1.4 1.6-1.2 3.1-2.4 4.5-3.6 1.2 1.2 2.2-.4 3.5-.6v-4.2c.6-.6 1.1-1 1.8-1.6v4.7c.8.4 1.5.7 2.5 1.2-.7 1-1.3 1.9-2.2 3.1v3c3.2.5 6.3 1 9.2 1.5l2.1-2.1h8.9c2.9 2.6 7.1 3.6 9.6 8 0 .1-.1 1.1 0 2.1.2 1.1 1.2 2.7.9 3-1.9 1.5 0 4.2-2.1 5.8-1.2.9-1.5 2.9-2.1 4.3l2 2c2.2-1.3 4.5-2.6 6.8-4 .3.5.6 1.1 1 2 1-.4 1.9-.9 2.7-1.2 1.1-1.4 2.2-2.7 3.5-4.3.8.7 1.8 1.1 1.9 1.7.4 2.6 2.5 5 .8 7.8h-1l-1.6-3.3c.4-.5.8-.9 1.2-1.3-.5-.4-1-.8-1.3-1.1l-8.8 6c-1.3-.6-2.3-1.1-3.3-1.5-1.4 1.6-.7 2.8.7 3.9 1.7-.6 3.6-1.1 5.3-2 1.8-1 3.3-2.3 5-3.5 1.1 1.4-.3 2.5-.6 3.8 0 0-.1-.1-.1-.2l-.8.7.3.3c.2-.3.5-.5.6-.9h4c-1.5 2.1 1 3.7-.8 5.9 0 0-.9.4-1.3 1.1-2.1 3.1-4.6 5.4-8.7 4.9-1.2-.1-2.3-.9-3.7-1.5.9-.3 1.5-.5 2.2-.7-.3-.8-.6-1.5-.9-2.2.3-.3.4-.5.6-.5 2 0 4-.1 6 0 .7 0 1.4.5 2.1.8.3-.7.8-1.5 1.2-2.4-.1-.1-.3-.4-.5-.4-1.7 0-3.3.1-5-.1-1.5-.1-3.1-.4-4.9-.7-1.3 2.7-1.6 6.1-3.8 8.9-2 2.5-3.3 5.7-7.4 7.4 2.1.2 3.2.4 4.3.5 1.2 2.2 2.3 4.4 3.7 6.4.6.9 1.7 1.3 2.9 2.2-.1.5-.4 1.4-.6 2.3-.2 1.4-.7 3-.4 4.3.6 2.4 1.7 4.6 2.6 6.9 1.1 2.6 2.8 5 2.3 8.1-.1.6.7 1.3 1.3 2.3 1 .8 2.4 1.8 3.3 2.6 1.6 8.1 1.2 15.9 2.7 23.9.8-.3 1.7-.3 2.7-.3zm-33-104.2v-.9l-2 .4.1.6c.6-.1 1.3-.1 1.9-1.7v.9l2-.4-.1-.6c-.7 0-1.3.1-1.9 1.7zm-35.1 26.3l.2-.2-.7-.8-.3.3c.3.2.5.5.9.5.1.7.1 1.3.1 1.9h3.4c-1.5-.8-2.5-1.3-3.6-1.7zm20.1 12.9c1 1.4 2 1.4-.3-3.2 3.2 0 3.1 2.7 4.4 4 1.4 1.4 4 .9 4.6 3.2 2 .3 4 .8 6.1 1 2 .2 4.1-.4 6.2.9 1.7-1.5 3.5-3 6-5.1-1.3-.5-2.1-.9-2.9-1.2l.5-.6h-14.5v-2.5c2.9-2.2 5.3-3 7.5-2.3 2.2.7 4.3 1.6 6.5 2.4.2.1.5.2.4.2 1.1-.7 2-1.3 3.1-2.1.3 1.4.5 2.4.7 3.7 2.1-4 3.1-7.7 2.5-11.6-.5-1-1-1.8-1.9-3.4v3.9c-1.2 1.9-2.4 2.4-3.9 1.4.4-.7.8-1.3 1.3-2.3-1.6-.2-2.9-.3-4.3-.5-.5-.9-1-1.8-1.8-3.1-1 1.2-1.9 2.4-2.6 3.4h-5.3l-2 2c-.8-.1-1.6-.2-2.8-.3l1.8-3.7h3l-.9-.9c.8-.2 1.7-.3 2.6-.5-2-1.7-3.6-3-5.9-2.4-.2.7-.4 1.3-.7 2-.7-.9-1.3-1.6-1.8-2.2 1.1-.9 1.9-1.7 3.3-2.8h2.5c3.1.7 4.7 3.3 7.2 1 .3.8.5 1.3.9 2.7.2-2 0-3.5.7-4.4.6-.8.1-3 2.6-2.2v3.6l4.8-2.4c-1.1-1.3-2.2-2.7-3.1-3.8-3.1-1.9-6-3.8-8.6-5.4-2.4 1.5-5.2 2.6-7.1 4.6-1.9 2-4.4 3.5-6 6v8.8c-1 1.3-2.5 2.5-2.7 3.9-.3 1.8-1 3-2.2 4l3 2c-.5.5-.7.7 2 4.5-1 0-2 0-2.4.1-1-1-1.8-1.6-2.3-2.4-.6-.9-1-1.9-1.6-2.9h-2.3c.2-1 .3-1.8.6-3.2-1 .9-1.5 1.4-1.9 1.9 1.1 5.2 1.9 5.3 7 6.2zm24 138.7c2.6.4 5.1.8 7.7 1.3 3.1-3.7 2.2-8.2 2.8-12.4.2-1.1.4-2.3.5-3.4-.9-.2-1.3-.3-1.9-.4-.1-1.2-.1-2.3-.2-3.9-.5-.3-1.4-.9-2.2-1.4-.9-1.9 1.7-3.2.5-5.1-.8-1.2-.3-3.2-.1-4.9.2-1.9-.5-3.4-1-5.1l-1.4-4.4c-.5-1.6-1.1-3.1-1.5-4.5.4-.6.7-.9.9-1.2-1.2-.5-2.2-1-2.6-1.1-2 .4-3.5.8-5.1 1.1-.4 1.5-1.6 3.6-1.1 4.8 1.2 2.2.4 4.5 1 6.6 1.7 1.6 2.4 3.5 3 5.8.8 3.2 1.3 6.8 3.9 9.3 0 3.4.5 6.8-.1 10-.6 3.1-3 5.8-2.8 9.2-.6 0-1.2.1-2.1.2.1.7.1 1.3.2 1.9.7-.1 1.1-.1 1.7-.1-.2-.8-.1-1.4-.1-2.3zm-6.3-35.8c-1.8 2.3-2.4 4.8-3.4 7.2-.7 1.7-.1 3.4-.8 5.2-1 2.6-1 5.8-.9 8.7.1 2.1.7 4.3 1.5 6.3 1.2 2.8 2.3 5.8 4.7 7.9 1.6-1 2.9-1.9 4-2.6.3-1.3.6-2.5.9-3.7.6-2.4 0-5.1 1.3-7.4.1-.3.1-.7 0-1-.6-1.9-1.8-3.9-1.7-5.7.1-2.4-2.1-3.4-2.5-5.6-.5-3.2-2-6.2-3.1-9.3zm-24.3-131c.3.1.6.1 1 .2-1.2 4.6-1.9 9.3-.7 15.2.8-1.7 1-2.4 1.4-2.8.6-.5 1.4-.8 2-1.2-.5-1.2-.9-2-1.4-3.1 3.2-.1 3.2-2.5 3.6-4.5 2.6-.8 4.3-2.3 5-4.4 1.1-.5 1.8-1.1 2.7-1.3 2-.4 1.6-2.8 3-3.5 1.3-.7 2.7-1.1 4.4-1.9-3.8-1.9-6.8.7-9.6.4-1.9 1.4-3.6 2.7-5.7 4.2v-3c2.1-2 4.4-4 6.9-6.4-2.2.5-4 .9-5.8 1.3-1.7 3.1-1.9 3.3-6.6 6.9.9-2 1.5-3.4 2.6-5.6-1.4.9-2.3 1.2-2.9 1.8-.7.8-1 2.1-1.8 2.7-2.7 1.9-1.8 5.3-3.4 7.6-.6.8.1 2.1.8 3.1.5.6 0 1.9.1 2.9 0 .8.2 1.5.4 2.3.2 0 .4 0 .5-.1v-6.2c1.3-1.6 2.4-3.1 3.5-4.6zm34.4-7.6c-2.2-.5-4-1.1-5.8-1.3-1.9-.2-3.9 0-5.9 0v1.6c6 1.3 12.1 6 13.5 10.3 2.3-5.2 2-6.6-1.8-10.6zm-10.7 54.9c-.4-3-.6-5.6-1.1-8.2-.2-1-.9-2-1.2-2.6-1.6.3-3.1.6-5.1 1-.2.9-.5 2.1-.7 2.8 2.8 2.4 5.2 4.5 8.1 7zm-38.3 46c-.7 1.6-1.2 3.2 0 5.8v-5.8zm18.2-75.5h2.1c-.1-.7-.2-1.2-.4-1.8-.7.1-1.2.3-1.8.4.1.5.1.9.1 1.4zm1.5-8h1.6c-.1-.7-.2-1.1-.4-2.6-.7 1.4-1 2.1-1.2 2.6zm29.6-.8c-.2-.9-.2-1.3-.4-1.9-.5.8-.9 1.4-1.3 1.9h1.7zm13.7 5.9v-.9c-.6.1-1.1.2-1.7.4 0 .2 0 .3.1.5h1.6zm-43.6 31c.3 0 .6 0 .9-.1-.1-.6-.2-1.1-.4-1.7-.2 0-.3 0-.5.1v1.7zm-4 1.4v.9c.6-.1 1.1-.2 1.7-.4 0-.2 0-.3-.1-.5h-1.6zm-20 48.6c.3 0 .6 0 .9-.1-.1-.6-.2-1.1-.4-1.7-.2 0-.3 0-.5.1v1.7zm50.5-107.8h-.3v1h.3v-1zm14.3 28.7v-.3h-1v.3h1zm-20.7 21.3h.3v-1h-.3v1zm.4 13h-.3v1h.3v-1zM148.8 217.5c-2.6-1.3-4.7.6-7.1-.2-2.1-.7-4.6-.1-7.2-.1-.9-1-1.8-2.1-2.7-3.2h-3.9c.3-2.9 2.8-3.4 4.4-4.6 4.2-.4 8.5-1.6 12.5-1.1s8.2.3 12.1 2.2c.1.8.2 1.5.3 2.7 1.9-.4 3.8.6 5.5-1.1 4-.3 8.1-1.4 12-.8 4.4.6 8.9.4 13.1 1.9 1.6.6 3.7.9 4.4 3.6-1.3.2-2.5.3-3.9.5-.2.4-.4 1-.6 1.7-2.8.7-5.6 1.8-8.5 2.1-3.1.4-6.3 0-9.5.1-1.4 0-2.9-.6-4.2.8-.3.3-1.5.4-1.9.1-2.2-1.8-4.8-1-7.1-.9-2.9.1-5.1-1.5-7.5-2.5-.1-.2-.1-.9-.2-1.2zM176.8 123c-2 .4-4 1.2-6 1-1.7-.2-3.3-1.5-5.1-2-1.6-1.6-3.9-2.8-4.9-5.1.4-.3.6-.5 1.1-.9 2.5 1.4 4.2 4.8 8.7 3.9l-1.7-.7c-.3-.1-.6-.3-1.4-.7 2.8-.3 5-.8 7.1.5 2.2-1.8 4.7-.3 7.7-1.1-1.3 1.2-2 1.9-3.2 3.2h-7c0 .3 0 .5-.1.8l4.8.4c.1.2.1.4 0 .7zM157.3 200.9l1.4 1.3c.2-1.1.3-2 .5-3.3l4.5.7c.1-.3.3-.8.6-1.4.8.4 1.6.7 2.5 1.2v2.2c-3.1 1.4-6.3 1.7-9.9 1.2.2-.6.3-1.2.4-1.9zM49.9 154.2h3.1c-.7 3.5 1 6.4 2.2 9.8-2.9-2.2-4.6-5.3-5.3-9.8zM202.6 137.3c3-3.4 5.5-6.2 8-9 .3 4.2-1.9 6.8-8 9zM139.1 63.6c-1.5 1-2.3 1.5-3.1 2-.8.5-1.6.9-2.9 1.5h-4.9c0-.3 0-.6.1-.8.3-.4.8-1.1 1-1 3.2.8 5.4-2.9 9.8-1.7zM119.2 132c2.3 1.7 4.3 3.3 6.8 5.2h2.9c-.2.4-.3.8-.4.8-1.1.1-2.3.1-3.5 0-3.5-.1-4.9-1.5-5.8-6zM104.5 137.3c1.2-3.6 2.3-6.9 3.5-10.3 1.1 1.7 1.4 3.3.7 5-.9 2-1.2 4.3-4.2 5.3zM25 88.5c-1.8 2.1-.9 5.8-4.7 6.8-.9-3.6 1.3-5.3 3.3-7.3.6.2 1 .3 1.4.5zM178.9 13c-.6.4-1.3.8-1.9 1.1-1.3-.9-2.6-1.7-4.2-2.7l1.9-.5c.2-.9.4-1.9.7-3.1.7.3 1.4.4 1.5.7.8 1.5 1.4 3.1 2 4.5zM29.3 128.5l-3.9-1.6c-.4-1.4-.9-2.8-1.2-4.1-.2-1.2 0-2.5 0-3.7 1.6 2.9 3.1 5.7 5.1 9.4zM186 204.1c-.5-2.4 2.4-2.5 2.8-4.3.3-1.6 1.1-3.2 1.5-4.2.5.3 1.3.6 2.7 1.4-3.8 1.7-2.3 7-7 7.1zM199 53.9c-1.6 4.3-3.2 5.2-8.8 4.6.8-.2 1.7-.3 2.4-.6 1.1-.6 2.1-1.4 3.1-2 1-.6 1.9-1.2 3.3-2zM119 49.1c-1.1-.9-2.2-1.7-3.4-2.7 1.1-1.7 1.9-3.1 3.1-4.9.6.8.9 1.2 1.3 1.6-.3.4-.9.8-1 1.2-.1 1.6 0 3.2 0 4.8zM189 26.9c.3-3.6 3.5-2.1 4.7-3.7.6.6 1.1 1.2 2.2 2.4-2.8.1-4.4 2-6.9 1.3zM20.4 121.8c.9.5 1.7 1 2.2 1.3.4 1.8.7 3.2 1 4.7-2.7-.5-3.5-2-3.2-6zM190.1 207.5c-.1-1.4-.1-2-.1-2.7 1.1-1.8 3.9-2.7 3.2-5.6 1.2 3.7 1.2 3.9-3.1 8.3zM208 138.1c1-1.4 1.7-2.5 2.7-4 .6 0 1.5.1 2.4.2.1 2.1-1.6 2.8-2.6 3.7-.4.4-1.5.1-2.5.1zM137.1 68.8c-1.5.9-3.1 1.8-4.8 2.7l-2.5-2.1c1.6-.2 2.8-.4 4.1-.6 1-.2 2-.5 2.9-.8 0 .3.1.5.3.8zM126.6 142h-4.3c-.4-.7-1.1-1.8-1.8-2.8 2-.5 3.7.8 6.1 2.8zM192.8 31.9h-3.9c.1-1 .1-1.9.2-3.3 1.6.9 2.9 1.6 4.1 2.3-.1.4-.2.7-.4 1zM148.2 196.4c1.2 3.1 2.1 5.2 2.7 6.8l-2.7-2.7v-4.1zM72.7 62.2c2.1 2 2.8 4.2 2.1 6.8l-1.3.2c-.8-.9.4-1 .5-1.4-.5-2-.9-3.8-1.3-5.6zM24.1 102.6v-5.2c2.5 1.9 2.5 2 0 5.2zM78.6 69c-.7-2.8-1.1-4.6-1.5-6.3 2 .7 2 .7 1.5 6.3zM143.4 7.9c1.8-.9 3-1.5 4.4-2.1.1.9.2 1.4.3 2.1h-4.7zM186 204.9l-1.9.2-.1-.6 2-.4v.8zM181.5 14.3c-1.3-.4-1.9-.5-2.5-.7.5-.2.9-.4 1.4-.4.1-.1.3.3 1.1 1.1zM72.9 62.2l-.8-.7.3-.3.7.8-.2.2zM105.1 137.2l-.7.8-.3-.3.8-.7c.1 0 .1.1.2.2zM142.3 73.1v-1h.3v1h-.3zM197.9 123l.7-.8.3.3-.8.7-.2-.2zM29.9 110l.7-.8.3.3-.8.7-.2-.2zM84.3 123.9c1.3-.7 2.3-1.2 3.2-1.7h8.3c0 .2 0 .3.1.5-2.8.5-5.6 1.1-8.7 1.7-1.8 2.3-4.6 3-7.6 2.6l-2 2c-.4-.4-.9-.8-1.6-1.4 1-1 1.9-2.1 3-3 2-1.6 3-1.7 5.3-.7zM68.8 162.5c-.9-1.1-1.4-1.8-2.2-2.8.9-.4 1.4-.6 2.2-.9v3.7zM43.5 81.1l-1.5-1.5c3.1-1.7 1.9-7 6.9-7-.1-.1.1 0 .1.1v1.2l3.5.7c-.8 1.1-1.4 2.4-2 2.4-3.1 0-5.1 2.1-7 4.1zM56.1 78.6l-2-1.9v-6.6c1.3.2.6 2.5 2.4 2.2 1-.2 1.4 1.6 1.5 2.9.2 1.6-.9 2.1-1.9 3.4zM39.5 86.8c1.2-2 2.2-3.3 4-3.8.6 3.5.2 3.9-4 3.8zM173.9 44.4v3.3c-1.6.9-2.8.3-4-1.3 1.2-.6 2.3-1.2 4-2z"/></svg>