<svg xmlns="http://www.w3.org/2000/svg" width="364.607" height="176.673" viewBox="0 0 364.607 176.673"><path fill-rule="evenodd" clip-rule="evenodd" fill="#67AF2F" d="M284.376 176.627l-.02-.816c.02-1.03.047-2.06.07-3.09l.078-3.56c.041-1.902.084-3.806.123-5.708.051-2.463.1-4.926.148-7.389.045-2.239.092-4.479.135-6.718.047-2.463.064-4.927.139-7.389.127-4.143.127-8.286.129-12.43 0-2.531-.09-5.061-.213-7.588-.049-1.006-.133-2.011-.193-3.017-.055-.941-.199-1.867-.412-2.785-.318-1.37-.988-2.541-2.012-3.499-.473-.443-.982-.85-1.482-1.264-.586-.485-1.201-.938-1.764-1.45-.428-.389-.826-.822-1.184-1.277-.955-1.215-1.852-2.476-2.824-3.675-1.996-2.458-3.486-5.2-4.705-8.104-1.135-2.704-2.26-5.41-3.4-8.111-.252-.598-.551-1.176-.828-1.762-.301-.638-.76-1.159-1.234-1.667l-.223-.137-.113.028-.053.279c.014 1.702.027 3.404.051 5.106.014.984.041 1.97.066 2.954.041 1.657.082 3.313.131 4.97.068 2.306.141 4.61.215 6.916.072 2.237.145 4.476.23 6.713.061 1.611.146 3.221.213 4.832.041.962.059 1.925.094 2.887.072 1.925.145 3.849.227 5.773l.221 4.897.174 4.834c.074 1.902.164 3.804.246 5.705.086 1.99.176 3.981.254 5.973.066 1.746.113 3.492.182 5.237l.217 5.033.053 2.015.219 5.571c.041 1.187.061 2.373.09 3.56.047 1.813.092 3.627.137 5.439.018.694.035 1.388.047 2.082l-.029.565-.391.071-.471.005c-10.934 0-21.867 0-32.799-.001l-.838-.017c-.018-.138-.053-.244-.041-.344l.453-3.462c.158-1.221.309-2.442.459-3.664l.463-3.799.355-2.934.475-3.864.328-2.801c.104-.89.209-1.778.316-2.667l.355-3 .338-2.8.324-2.733c.115-1.001.23-2.001.348-3.002l.326-2.801c.164-1.4.328-2.801.49-4.201l.314-2.735c.121-1.045.246-2.089.363-3.135l.316-2.87.334-2.867.34-3.003c.113-1 .23-2 .346-3.001l.32-2.869c.107-.979.213-1.958.324-2.937.109-.979.227-1.957.34-2.935.084-.734.168-1.468.244-2.202.025-.241.027-.485.039-.701-.178-.114-.256-.015-.316.07-1.43 2.038-3.188 3.815-4.652 5.827-.426.583-.955 1.068-1.523 1.508-.514.397-1.047.77-1.559 1.171-.527.414-1.055.832-1.555 1.279-1.109.993-1.73 2.261-2.025 3.705-.248 1.211-.336 2.438-.4 3.668-.086 1.609-.172 3.22-.23 4.831-.043 1.186-.053 2.373-.053 3.561 0 2.195.018 4.391.033 6.586.006.806.027 1.612.041 2.418.023 1.455.045 2.911.072 4.366.035 1.836.08 3.672.113 5.508l.045 3.897c.029 1.656.068 3.312.1 4.97l.035 2.284c.041 2.217.086 4.434.129 6.65.039 2.104.078 4.209.115 6.313.012.717.021 1.434.029 2.15l-.023.489-.396.085c-.178.015-.357.006-.537.006-18.17 0-36.338 0-54.508-.001-.287 0-.58.035-.902-.062-.02-.173-.056-.345-.053-.516.016-1.209.039-2.418.061-3.627.023-1.344.045-2.688.07-4.031l.127-6.783.023-1.882c.044-2.731.088-5.464.137-8.195.042-2.373.089-4.746.135-7.12l.134-7.053c.046-2.396.091-4.791.134-7.187.047-2.598.062-5.196.141-7.792.125-4.076.146-8.152.12-12.229-.015-2.217-.095-4.434-.178-6.648-.044-1.163-.144-2.325-.245-3.484-.068-.78-.21-1.553-.428-2.308-.342-1.191-.967-2.218-1.9-3.032-.623-.545-1.287-1.043-1.947-1.542-.732-.555-1.482-1.086-2.111-1.764-.168-.18-.332-.364-.487-.555-.919-1.13-1.804-2.287-2.756-3.388-1.983-2.291-3.505-4.861-4.733-7.617-1.037-2.331-2.068-4.665-3.104-6.997l-.303-.636c-.213-.006-.216.13-.216.228l.03 1.14c.025 2.019.287 4.02.458 6.026s.409 4.008.612 6.012c.153 1.515.291 3.03.448 4.544.153 1.47.327 2.937.485 4.405l.311 3.073c.111 1.046.233 2.091.348 3.137l.314 2.938.351 3.204.325 3.004.322 2.937.344 3.069.352 3.137.322 2.869.33 3.003c.113 1.023.229 2.047.347 3.069l.347 3.002.322 2.869.354 3.068.311 2.734.359 3.136.325 2.869.322 2.802c.118 1.022.233 2.045.354 3.067l.482 4 .314 2.734c.112.956.229 1.911.344 2.867l.328 2.733.346 2.865.324 2.666.486 3.863c.128 1.021.254 2.043.377 3.065l-.021.237-.366.069-.47.004c-10.911 0-21.822 0-32.732-.001-.287 0-.578.034-.896-.062l-.043-.394c.029-1.656.063-3.313.096-4.97.016-.762.018-1.523.043-2.284.078-2.327.168-4.654.248-6.981.061-1.724.104-3.447.172-5.17.068-1.745.166-3.489.238-5.234.104-2.572.189-5.146.299-7.719.113-2.685.253-5.368.367-8.053.109-2.551.199-5.102.302-7.652.085-2.125.175-4.251.269-6.376.077-1.745.17-3.489.24-5.234.065-1.61.104-3.223.164-4.834l.258-6.578c.08-2.059.156-4.117.227-6.176.026-.761.031-1.522.048-2.284.045-2.082.06-4.165.144-6.246.119-2.956.066-5.912.084-8.868.002-.378-.01-.754-.129-1.183l-.294.188-2.079 2.006c-.607.579-1.085 1.251-1.444 2.006-.549 1.151-1.085 2.309-1.63 3.462-1.012 2.146-2.015 4.296-3.043 6.434-1.102 2.295-2.512 4.386-4.203 6.292-1.039 1.172-2.036 2.383-3.046 3.582-.509.604-1.092 1.125-1.726 1.589l-1.371.972c-.504.371-1.012.741-1.496 1.139-1.266 1.036-1.994 2.388-2.305 3.984-.239 1.235-.326 2.485-.392 3.737-.087 1.677-.161 3.354-.231 5.032-.027.671-.038 1.344-.037 2.016.003 2.374-.006 4.749.027 7.123.036 2.553.111 5.104.174 7.657.039 1.634.082 3.268.132 4.901l.181 5.573c.024.851.02 1.702.047 2.553l.219 6.311.051 2.418c.068 2.014.149 4.027.219 6.041l.049 2.285.221 6.107c.026.784.034 1.568.043 2.352.002.151-.035.303-.059.487l-.408.049-.471.004c-9.096 0-18.191.001-27.288-.002-.285 0-.578.042-.86-.067-.113-.352-.035-.685.003-1.012.163-1.378.337-2.755.511-4.131.158-1.266.324-2.531.48-3.797l.456-3.8.45-3.665.354-2.933.341-2.731.321-2.666.489-4.066.317-2.667.357-3 .312-2.667c.122-1.045.248-2.089.367-3.134l.32-2.869s.226-1.912.336-2.868l.324-2.868c.119-1.067.24-2.136.355-3.203.111-1.023.218-2.048.322-3.072.109-1.068.21-2.139.322-3.207.217-2.073.366-4.147.236-6.235-.037-.603-.039-1.208-.05-1.813-.017-.946-.147-1.874-.457-2.771-.387-1.121-.763-2.245-1.177-3.355-.469-1.26-.863-2.539-1.218-3.836-.449-1.64-.984-3.255-1.497-4.877-.682-2.159-1.172-4.363-1.511-6.601-.167-1.106-.29-2.219-.415-3.331-.25-2.201-.863-4.285-1.864-6.27-1.523-3.017-3.029-6.043-4.409-9.129-.146-.327-.293-.653-.447-.977l-.184-.291-.26.128c-.809.602-1.622 1.196-2.418 1.814-.406.315-.793.657-1.163 1.015-.79.767-1.3 1.7-1.582 2.763-.218.825-.336 1.663-.414 2.513-.196 2.143-.272 4.291-.341 6.439-.066 2.036-.047 4.076-.051 6.114-.002 1.12.016 2.24.035 3.359.037 1.993.078 3.985.123 5.978.045 1.948.088 3.896.148 5.843.062 2.082.148 4.162.218 6.243.037 1.119.054 2.239.087 3.358.074 2.484.146 4.969.233 7.453.062 1.79.151 3.579.218 5.369.04 1.074.057 2.149.091 3.224.073 2.283.146 4.565.228 6.848l.219 5.369c.039 1.029.057 2.06.088 3.09.075 2.439.148 4.879.231 7.318l.218 5.84c.028.828.027 1.657.049 2.485.054 2.082.117 4.163.169 6.245.033 1.344.058 2.687.073 4.03.018 1.411.02 2.822.025 4.233l-.026.756-.415.078-.537.005c-10.643 0-21.283 0-31.926-.002-.286 0-.578.04-.889-.065-.006-.164-.035-.318-.016-.466l.594-4.187c.162-1.175.311-2.352.467-3.527l.464-3.46c.157-1.176.312-2.352.466-3.527l.486-3.728.457-3.529.482-3.729.458-3.596.479-3.729.467-3.73.479-3.729.459-3.665.471-3.729.467-3.73c.165-1.311.332-2.62.492-3.931.156-1.267.306-2.533.46-3.8l.442-3.599.499-4.064.481-3.864.315-2.667.347-2.865.323-2.734.355-3 .323-2.869.328-2.868c.115-1.023.23-2.047.342-3.07.116-1.068.229-2.137.342-3.205.061-.579.121-1.157.176-1.737l.002-.438c-.157-.115-.248-.033-.311.054-.195.271-.417.532-.562.83-.504 1.024-.993 2.055-1.462 3.095-1.177 2.611-2.314 5.242-3.519 7.841-.867 1.875-1.955 3.624-3.262 5.232-1.158 1.426-2.303 2.861-3.451 4.294-.537.67-1.18 1.225-1.859 1.741l-1.715 1.297-.467.384c-1.311 1.09-2.094 2.48-2.404 4.153-.234 1.259-.321 2.531-.393 3.805-.088 1.587-.172 3.175-.227 4.764-.045 1.298-.061 2.598-.059 3.896.004 3.137.013 6.272.042 9.409.03 3.247.085 6.494.132 9.741.043 2.911.089 5.821.135 8.732.044 2.844.089 5.688.134 8.532.045 2.821.091 5.643.134 8.464.046 2.911.09 5.822.137 8.733l.035 1.141c.001.197-.029.396-.047.615l-.413.081-.47.006c-8.581 0-17.162.001-25.742-.002-.264 0-.535.041-.835-.078.048-.472.087-.936.142-1.396.16-1.333.326-2.666.49-3.999l.477-3.865.32-2.667.455-3.867c.164-1.378.33-2.756.498-4.133l.351-2.866.322-2.801.334-2.8.323-2.734c.121-1.022.244-2.044.361-3.067l.318-2.802.346-2.934.32-2.803c.123-1.066.248-2.134.368-3.201l.308-2.804c.119-1.067.244-2.135.359-3.202l.323-3.072.344-3.137c.11-1.047.214-2.094.313-3.142.08-.847.178-1.692.221-2.542.049-.983.068-1.97.062-2.955-.006-1.119-.046-2.238-.086-3.357-.037-1.086-.351-2.116-.688-3.137-.393-1.189-.812-2.37-1.203-3.562-.188-.573-.357-1.154-.494-1.741-.422-1.811-.955-3.589-1.5-5.364-.711-2.317-1.188-4.684-1.521-7.08-.129-.932-.203-1.869-.302-2.805-.234-2.24-.746-4.398-1.711-6.455-1.366-2.918-2.676-5.864-3.985-8.809-.71-1.595-1.37-3.212-1.9-4.878-.238-.747-.466-1.5-.507-2.288-.021-.4-.01-.807.035-1.205.053-.476.329-.814.752-1.047.71-.389 1.41-.372 2.113.01.501.272.913.656 1.25 1.105.36.482.713.98 1 1.509 1.496 2.754 2.98 5.514 4.445 8.284.466.881 1.036 1.677 1.707 2.401.348.375.73.733 1.148 1.024.88.613 1.588.354 1.912-.662.145-.453.174-.896.021-1.376-1.017-3.202-1.781-6.47-2.504-9.748-.197-.896-.367-1.798-.558-2.695-.052-.24-.132-.475-.206-.708-.534-1.663-1.014-3.339-1.315-5.063-.187-1.064-.276-2.131-.211-3.208.032-.517.135-1.021.362-1.491.31-.64.793-.98 1.533-.999.6-.015 1.115.139 1.531.549.334.327.645.687.911 1.069.515.737.89 1.553 1.229 2.383.756 1.85 1.283 3.769 1.741 5.708.128.544.263 1.088.428 1.621 1.071 3.463 2.147 6.924 3.231 10.383.134.426.285.853.487 1.248.569 1.113 1.335 1.24 2.243.392.179-.167.33-.364.491-.55.354-.406.495-.863.483-1.415-.035-1.523.084-3.043.203-4.561.103-1.295.198-2.59.318-3.883.097-1.047.228-2.091.34-3.137.023-.223.046-.446.047-.669.004-1.726-.029-3.451.014-5.175.052-2.151.266-4.288.804-6.382.224-.87.505-1.723.995-2.482.216-.335.473-.657.766-.926.539-.494 1.18-.591 1.879-.367.385.122.683.352.875.689.197.349.395.712.498 1.094.176.646.324 1.307.398 1.971.104.933.172 1.874.181 2.813.032 3.449.046 6.898.044 10.349 0 1.68-.031 3.359-.085 5.038-.057 1.79-.148 3.579-.24 5.368-.028.55.046 1.072.269 1.571.082.183.175.366.294.525.277.37.659.448 1.069.24l.226-.146c.642-.549 1.165-1.202 1.396-2.015.709-2.498 1.523-4.961 2.326-7.429.603-1.852 1.162-3.717 1.756-5.57.41-1.28.887-2.536 1.465-3.751.423-.892.881-1.767 1.523-2.522.259-.305.559-.583.879-.823.533-.402 1.112-.408 1.701-.089.822.445 1.297 1.127 1.488 2.042.197.946.074 1.875-.077 2.803-.228 1.395-.62 2.75-1.028 4.099-1.631 5.398-3.119 10.837-4.615 16.272-.213.774-.343 1.575-.457 2.371-.154 1.062-.296 2.13-.371 3.2-.11 1.566-.119 3.136.221 4.682.096.436.24.861.385 1.284.123.362.325.688.592.966.314.328.693.419 1.101.215.275-.139.534-.327.767-.533.505-.448.906-.989 1.285-1.546.832-1.225 1.562-2.505 2.162-3.862.539-1.221 1.254-2.327 2.268-3.213 1.156-1.01 2.5-1.546 4.047-1.537h1.09l.051-.415c.004-1.532-.172-3.032-.705-4.484-.463-1.259-.893-2.531-1.323-3.802-.158-.466-.3-.938-.413-1.416-.418-1.767-.963-3.494-1.508-5.223-.687-2.183-1.168-4.412-1.5-6.673-.133-.908-.207-1.824-.311-2.735-.25-2.215-.732-4.357-1.722-6.382-1.228-2.515-2.402-5.054-3.562-7.601-.677-1.485-1.297-2.999-1.906-4.514-.426-1.06-.778-2.146-.938-3.286-.057-.401-.083-.802.005-1.2.167-.764.712-1.238 1.493-1.32.629-.066 1.215.054 1.704.458.36.298.72.614 1.007.979.373.472.707.982 1 1.509 1.558 2.797 3.081 5.612 4.651 8.401.552.98 1.31 1.814 2.173 2.542.273.231.574.421.928.524.42.122.776.017 1.012-.325.363-.527.577-1.099.363-1.767-1.268-3.969-2.211-8.021-3.096-12.088-.09-.413-.225-.818-.355-1.222-.492-1.513-.918-3.04-1.203-4.606-.181-.997-.24-2-.195-3.01.02-.451.125-.887.297-1.303.447-1.084 1.479-1.268 2.337-.996.487.154.854.482 1.184.855.433.488.777 1.038 1.083 1.614.674 1.271 1.171 2.614 1.584 3.986.316 1.049.553 2.121.848 3.177.248.882.523 1.758.803 2.631.936 2.92 1.877 5.837 2.816 8.755.047.149.088.302.15.445.113.268.223.539.365.791.535.943 1.299 1.106 2.139.328.18-.166.338-.357.503-.54.379-.417.534-.894.521-1.471-.043-1.86.083-3.716.257-5.567.153-1.627.267-3.259.464-4.88.113-.941.092-1.876.08-2.815-.022-1.972-.014-3.944.181-5.907.144-1.448.35-2.889.78-4.286.205-.667.469-1.307.831-1.902.259-.426.579-.792.998-1.073.856-.576 2.104-.245 2.581.595.281.493.488 1.014.591 1.563.135.725.235 1.457.312 2.19.183 1.741.155 3.489.159 5.236.003 2.42.006 4.84-.002 7.259-.004 1.344-.006 2.688-.049 4.032-.057 1.835-.143 3.669-.234 5.503-.027.557.104 1.064.341 1.554.077.159.179.312.296.443.252.28.57.348.915.208.103-.042.206-.097.289-.168.642-.546 1.177-1.185 1.409-2.005.82-2.909 1.825-5.757 2.766-8.627l1.299-4.094c.425-1.299.93-2.567 1.547-3.789.324-.641.686-1.258 1.121-1.83.272-.358.562-.702.938-.955.221-.147.463-.284.714-.357.204-.061.462-.083.655-.012 1.062.391 1.776 1.105 1.951 2.268.128.851.074 1.7-.064 2.543-.233 1.416-.654 2.786-1.055 4.161-1.107 3.803-2.217 7.604-3.32 11.406-.293 1.01-.555 2.029-.864 3.034-.402 1.31-.657 2.649-.853 4-.25 1.731-.385 3.473-.292 5.224.052.965.194 1.914.52 2.83.151.425.341.828.646 1.167.391.433.737.504 1.256.238.383-.195.703-.476.993-.791.731-.797 1.334-1.688 1.866-2.623.441-.777.846-1.577 1.238-2.381.504-1.036 1.115-1.993 1.955-2.79 1.267-1.201 2.788-1.771 4.52-1.713 1.244.041 2.281.591 3.115 1.513.207.229.221.344.016.588-.346.41-.709.808-1.08 1.195-.309.323-.632.636-.965.935-.818.736-1.338 1.672-1.801 2.647l-.084.286.08.151c.961.684 1.572 1.643 2.104 2.663.809 1.556 1.385 3.202 1.872 4.881l.567 2.141c.256.88.529 1.756.818 2.625 1.018 3.059 2.041 6.115 3.07 9.17.135.402.285.803.472 1.183.126.257.304.499.502.707.397.418.886.48 1.409.222.432-.215.746-.563 1.059-.918.371-.422.542-.881.524-1.465-.05-1.681.081-3.356.224-5.031.107-1.249.201-2.499.317-3.747.087-.936.204-1.869.302-2.804.03-.289.062-.58.057-.87-.017-.738-.074-1.476-.077-2.215-.004-.828.018-1.657.056-2.484.048-1.006.1-2.013.194-3.015.147-1.562.394-3.11.935-4.592.184-.502.428-.984.673-1.461.206-.401.515-.729.853-1.029.914-.814 2.535-.647 3.168.565.283.541.473 1.111.602 1.702.248 1.142.332 2.305.395 3.467.047.849.041 1.701.047 2.553.018 2.441.045 4.883.038 7.324-.007 2.307-.032 4.614-.085 6.92-.036 1.545-.125 3.088-.209 4.63-.036.679.158 1.287.508 1.846.361.575.883.684 1.432.276.717-.53 1.284-1.208 1.536-2.07.916-3.138 2.026-6.21 3.087-9.299.268-.783.489-1.582.74-2.37.552-1.729 1.169-3.431 1.973-5.062.408-.825.873-1.613 1.434-2.346l.186-.289-.111-.319c-1.173-2.687-2.35-5.371-3.521-8.059-.517-1.186-1.222-2.233-2.175-3.116-.477-.441-.918-.92-1.359-1.396-.225-.244-.414-.522-.635-.804.104-.152.173-.292.275-.402 1.09-1.182 2.431-1.706 4.039-1.529 1.627.179 2.992.868 4.096 2.076.732.801 1.311 1.703 1.74 2.696.635 1.464 1.41 2.849 2.318 4.158.305.44.651.854 1.002 1.262.278.323.611.592 1.008.768.43.191.774.133 1.105-.194.307-.305.518-.674.672-1.074.326-.841.48-1.719.582-2.612.192-1.705.062-3.397-.117-5.093-.133-1.248-.305-2.49-.576-3.713-.232-1.047-.535-2.079-.822-3.114-1.021-3.688-2.044-7.374-3.074-11.058-.494-1.767-1.023-3.524-1.509-5.293-.351-1.276-.598-2.573-.562-3.908.014-.495.062-.982.232-1.452.312-.862.956-1.394 1.771-1.729.313-.128.658-.095.981.047.421.184.755.477 1.06.809.673.735 1.16 1.592 1.592 2.479.728 1.491 1.3 3.044 1.795 4.627 1.074 3.438 2.16 6.871 3.232 10.31.268.854.508 1.717.754 2.576.243.847.754 1.513 1.385 2.103l.052.043c.595.453 1.077.377 1.455-.257.315-.528.491-1.103.468-1.727-.092-2.439-.209-4.878-.225-7.319-.014-2.061-.077-4.12-.082-6.18-.006-2.308.014-4.614.054-6.921.022-1.298.045-2.598.205-3.89.108-.866.237-1.729.54-2.556.14-.381.312-.743.588-1.048.564-.627 1.609-.807 2.331-.368.263.159.5.379.708.608.393.436.654.957.883 1.496.465 1.101.729 2.256.915 3.43.276 1.749.431 3.511.437 5.283.003 1.433.023 2.866-.01 4.298-.02.812.104 1.607.17 2.409l.195 1.802c.139 1.628.293 3.256.392 4.887.085 1.407.12 2.819.142 4.229.006.429.098.796.369 1.114.26.306.508.634.812.888.74.616 1.385.508 1.927-.279.283-.411.45-.875.599-1.345.445-1.408.889-2.816 1.328-4.227.74-2.37 1.486-4.739 2.213-7.114.195-.641.338-1.299.498-1.949.521-2.111 1.141-4.188 2.062-6.165.312-.672.67-1.319 1.132-1.9.235-.296.501-.575.788-.82.526-.452 1.146-.569 1.826-.431.443.091.777.32 1.024.695.278.421.427.892.482 1.383.11.96.085 1.923-.044 2.881-.245 1.802-.684 3.56-1.254 5.283-.354 1.065-.589 2.156-.821 3.25-.8 3.766-1.688 7.509-2.846 11.184-.216.683-.058 1.284.272 1.86.283.496.736.643 1.266.405.32-.145.631-.344.897-.575.868-.755 1.616-1.628 2.173-2.631 1.476-2.663 2.912-5.348 4.361-8.025.182-.334.336-.683.512-1.021.34-.66.748-1.274 1.236-1.834.34-.392.725-.734 1.188-.975.683-.354 1.37-.357 2.06-.013.501.25.771.653.85 1.207.086.608.026 1.208-.084 1.803-.196 1.061-.53 2.085-.932 3.081-.742 1.848-1.497 3.691-2.295 5.517-.834 1.906-1.727 3.787-2.589 5.683-.089.196-.249.382-.155.665 1.004.255 1.629 1.012 2.191 1.832.65.945 1.135 1.979 1.575 3.034.708 1.697 1.241 3.451 1.778 5.207.588 1.926 1.248 3.83 1.857 5.75.502 1.577.986 3.16 1.453 4.748.242.824.734 1.475 1.318 2.071.093.095.207.173.323.239.492.284.896.207 1.216-.275.393-.593.586-1.253.542-1.972-.028-.469-.072-.938-.086-1.407-.071-2.507-.185-5.013-.183-7.522.002-3.068-.028-6.138-.03-9.206-.001-1.098.022-2.195.065-3.291.057-1.455.152-2.907.535-4.322.123-.455.299-.887.54-1.297.493-.838 1.827-1.226 2.763-.5.342.265.615.584.852.941.488.738.775 1.562 1.01 2.404.372 1.341.576 2.712.699 4.097.162 1.854.24 3.709.234 5.569-.001.335-.018.671-.037 1.006-.053.896-.014 1.787.082 2.68.141 1.335.281 2.671.393 4.009.137 1.629.256 3.259.355 4.891.045.759.041 1.522.025 2.284-.008.404.09.753.352 1.052.279.319.541.665.865.931.742.605 1.404.497 1.918-.315.234-.374.422-.793.557-1.215 1.225-3.813 2.438-7.631 3.637-11.451.215-.682.354-1.387.525-2.082.389-1.565.85-3.11 1.482-4.595.324-.761.707-1.497 1.096-2.228.295-.556.699-1.04 1.174-1.459.576-.508 1.234-.69 1.994-.511.416.098.734.311.973.661.271.398.42.843.48 1.312.137 1.052.092 2.102-.064 3.147-.281 1.887-.781 3.721-1.396 5.523-.312.916-.463 1.866-.67 2.805-.805 3.627-1.654 7.242-2.797 10.78-.211.65-.1 1.239.209 1.808.305.564.777.733 1.354.469.32-.147.631-.348.896-.581.863-.759 1.615-1.623 2.176-2.627 1.451-2.6 2.879-5.213 4.312-7.822.303-.549.58-1.11.891-1.654.301-.527.67-1.012 1.115-1.424.277-.256.58-.501.91-.681.744-.407 1.506-.363 2.24.055.324.186.539.47.637.831.115.414.15.831.096 1.263-.123.983-.365 1.937-.705 2.862-.34.924-.707 1.838-1.061 2.756l-.217.606.17.107c.723.271 1.24.789 1.682 1.395.637.875 1.098 1.846 1.506 2.843.754 1.849 1.275 3.769 1.754 5.704.203.824.445 1.64.701 2.45 1.043 3.307 2.098 6.611 3.152 9.915.096.298.219.587.34.875.061.144.135.284.225.412.633.909 1.266.935 2.023.307.223-.185.41-.412.605-.627.41-.449.588-.959.568-1.588-.061-1.771.074-3.536.227-5.3.109-1.271.201-2.544.316-3.814.084-.937.197-1.87.289-2.806.027-.267.029-.537.025-.806-.012-1.32-.074-2.644-.035-3.963.061-1.991.164-3.983.525-5.949.203-1.102.447-2.195.928-3.215.201-.423.438-.833.707-1.215.178-.251.422-.466.668-.653.891-.678 2.174-.348 2.707.508.348.56.547 1.174.684 1.812.238 1.098.35 2.213.387 3.331.059 1.634.074 3.27.086 4.904.014 1.927.014 3.854 0 5.78-.016 2.194-.033 4.39-.086 6.584-.039 1.589-.131 3.177-.211 4.764-.033.649.141 1.24.447 1.799.072.135.176.262.289.366.252.232.551.313.863.135.229-.132.469-.276.645-.469.547-.599.98-1.254 1.205-2.062.785-2.848 1.75-5.64 2.668-8.446.541-1.659 1.035-3.334 1.58-4.992.518-1.576 1.145-3.107 1.977-4.549.383-.661.807-1.293 1.381-1.808.166-.148.344-.289.533-.404.42-.253.863-.365 1.344-.155l.186.021c.143-.152.055-.298.018-.445-.311-1.236-.645-2.468-.922-3.711-.297-1.333-.482-2.686-.633-4.043-.143-1.29-.293-2.58-.564-3.852-.334-1.566-.967-3.02-1.672-4.449-1.615-3.272-3.217-6.55-4.658-9.904-.555-1.295-1.105-2.594-1.486-3.955-.188-.669-.355-1.341-.346-2.045.014-1.287.838-2.027 2.121-1.911.436.039.824.187 1.189.423.494.32.914.725 1.258 1.198.34.471.664.957.953 1.461.711 1.244 1.389 2.506 2.094 3.754.891 1.579 1.789 3.155 2.697 4.725.6 1.038 1.404 1.912 2.311 2.688.25.215.549.394.855.521.57.238 1.08.051 1.361-.498.281-.547.41-1.106.195-1.74-1.211-3.564-2.096-7.219-2.922-10.887-.236-1.049-.492-2.089-.842-3.106-.48-1.398-.859-2.825-1.123-4.281-.184-1.018-.271-2.041-.199-3.075.033-.497.141-.975.359-1.423.314-.638.818-.967 1.543-1.004.699-.037 1.266.208 1.766.668.65.602 1.119 1.336 1.527 2.112.869 1.653 1.457 3.415 1.973 5.201.172.602.305 1.215.467 1.82.121.453.242.907.389 1.354 1.158 3.528 2.32 7.057 3.494 10.581.146.443.328.886.568 1.284.555.922 1.293 1.024 2.119.319.238-.202.441-.444.648-.68.336-.384.477-.809.465-1.347-.025-1.073.041-2.148.092-3.222.047-.962.109-1.923.191-2.882.1-1.183.223-2.362.342-3.543.117-1.157.25-2.31.211-3.48-.043-1.32-.051-2.645 0-3.964.086-2.147.236-4.292.783-6.386.205-.783.461-1.545.844-2.259.244-.457.533-.883.936-1.218.572-.475 1.197-.654 1.938-.432.434.13.756.374 1.016.725.27.366.445.783.551 1.217.164.672.324 1.352.404 2.038.102.888.145 1.784.18 2.679.035.962.037 1.926.045 2.889.021 2.329.055 4.659.047 6.988-.006 1.88-.053 3.761-.1 5.642-.043 1.746-.098 3.492-.172 5.237-.027.612.16 1.15.455 1.656.35.595.861.711 1.416.3.715-.532 1.232-1.228 1.506-2.088.604-1.898 1.199-3.799 1.814-5.693.801-2.468 1.607-4.935 2.428-7.396.41-1.232.885-2.443 1.484-3.596.332-.634.705-1.248 1.094-1.848.318-.49.723-.914 1.203-1.256.6-.428 1.209-.488 1.883-.121.869.473 1.385 1.166 1.557 2.14.104.581.105 1.155.043 1.738-.141 1.318-.459 2.599-.846 3.862-1.66 5.436-3.23 10.897-4.793 16.361-.445 1.556-.709 3.14-.904 4.74-.148 1.225-.254 2.451-.221 3.685.027.985.111 1.969.373 2.924.111.408.254.813.43 1.197.117.26.305.494.486.719.307.38.703.452 1.217.253.225-.087.443-.229.619-.395.357-.336.713-.683 1.018-1.065 1.023-1.284 1.855-2.69 2.557-4.171.387-.812.814-1.594 1.367-2.307 1.111-1.429 2.566-2.299 4.34-2.574 1.584-.246 3.027.129 4.225 1.252.16.149.295.326.434.482-.076.321-.262.52-.447.708-.549.561-1.096 1.123-1.668 1.656-.713.662-1.328 1.394-1.75 2.275-.414.868-.826 1.737-1.23 2.61-1.117 2.418-2.23 4.838-3.344 7.257l-.176.392.113.365c.67 1.735 1.188 3.519 1.709 5.302.576 1.976 1.211 3.935 1.803 5.906.512 1.715 1.014 3.433 1.492 5.158.229.823.666 1.509 1.229 2.128.146.163.334.302.525.41.35.198.705.131.971-.165.104-.115.199-.246.264-.386.254-.552.434-1.117.402-1.744-.088-1.744-.162-3.489-.225-5.235-.035-1.007-.043-2.015-.051-3.023-.018-2.53-.029-5.062-.041-7.593-.006-1.075-.012-2.151.002-3.227.016-1.455.021-2.912.084-4.366.057-1.296.168-2.592.518-3.852.133-.476.293-.94.582-1.35.266-.379.609-.618 1.072-.748.551-.154 1.016-.032 1.461.261.441.29.773.692 1.004 1.155.281.56.553 1.13.748 1.722.354 1.062.564 2.163.713 3.274.281 2.089.42 4.188.404 6.296-.008 1.187-.016 2.374-.014 3.561.002.38.021.762.057 1.14.115 1.248.252 2.494.361 3.743.133 1.517.268 3.033.357 4.553.07 1.185.129 2.374.09 3.559-.025.807.256 1.431.75 2.01.25.291.516.562.867.73.447.217.82.183 1.166-.178.229-.237.424-.523.568-.82.176-.36.297-.749.412-1.134 1.166-3.901 2.336-7.803 3.482-11.71.232-.793.373-1.612.57-2.416.479-1.958 1.035-3.893 1.863-5.737.305-.676.637-1.335 1.062-1.942.271-.387.584-.734.955-1.031.535-.429 1.146-.479 1.781-.353.414.083.723.349.943.704.217.346.354.725.432 1.123.154.773.182 1.558.117 2.341-.115 1.386-.35 2.754-.691 4.101-.234.933-.477 1.866-.771 2.78-.27.836-.416 1.694-.6 2.547-.238 1.115-.473 2.231-.703 3.35-.043.212-.059.429-.094.688.668-.07 1.279-.178 1.891-.187.648-.009 1.293.124 1.904.349.586.214 1.158.462 1.777.712.09-.136.199-.273.279-.427.428-.837.857-1.672 1.27-2.518.422-.869.898-1.702 1.551-2.424.334-.369.707-.689 1.158-.901.604-.281 1.211-.274 1.812.017.576.278.889.733.939 1.368.064.811-.016 1.607-.209 2.398-.367 1.504-.902 2.951-1.465 4.391-.373.959-.768 1.91-1.152 2.864l-.268.692.143.311c.572.938 1.17 1.857 1.898 2.684.355.403.729.792 1.199 1.069.748.44 1.215.358 1.742-.329.473-.619.695-1.346.863-2.094.275-1.234.303-2.486.275-3.742-.031-1.481-.248-2.942-.469-4.404-.256-1.713-.795-3.35-1.287-5-1.117-3.753-2.242-7.503-3.367-11.253-.465-1.543-.957-3.077-1.404-4.624-.262-.902-.479-1.821-.512-2.767-.018-.491-.023-.987.031-1.475.166-1.464 1.139-2.194 2.26-2.545.371-.116.709.035 1.031.188.449.215.814.548 1.143.921.643.729 1.133 1.556 1.576 2.412.568 1.095 1.051 2.229 1.451 3.393.549 1.585 1.057 3.185 1.594 4.773.555 1.632 1.137 3.254 1.684 4.887.414 1.229.805 2.467 1.186 3.707.258.844.762 1.511 1.398 2.094.115.104.25.191.387.266.461.251.875.186 1.189-.235.396-.531.631-1.127.602-1.811-.059-1.409-.115-2.818-.164-4.229-.16-4.568-.133-9.138-.117-13.707.006-1.455.061-2.911.137-4.364.053-.981.16-1.963.387-2.926.123-.524.299-1.028.537-1.515.598-1.224 2.182-1.562 3.252-.688.406.332.715.738.975 1.188.439.763.727 1.586.945 2.434.262 1.02.434 2.055.557 3.103.266 2.252.303 4.511.252 6.774-.012.537-.023 1.074-.016 1.612.004.335.039.67.074 1.004.107 1.023.236 2.045.332 3.07.133 1.426.268 2.854.355 4.283.074 1.206.148 2.419.1 3.624-.033.85.279 1.475.852 2.018.256.243.549.462.857.635.461.258.916.17 1.299-.187.176-.165.344-.359.459-.571.18-.333.34-.683.463-1.04.844-2.454 1.676-4.913 2.514-7.37.309-.911.605-1.827.934-2.731.459-1.265.74-2.579 1.115-3.867.443-1.527.953-3.031 1.623-4.478.34-.732.73-1.436 1.199-2.095.301-.422.65-.796 1.051-1.127.668-.552 1.439-.575 2.229-.421.332.065.619.277.809.567.158.24.309.498.398.77.213.643.281 1.313.248 1.987-.078 1.619-.404 3.194-.869 4.744-.172.578-.338 1.16-.547 1.727-.408 1.117-.676 2.271-.941 3.426-.85 3.687-1.811 7.343-3.012 10.932-.24.713.004 1.321.416 1.877.318.429.926.384 1.297.214.303-.138.602-.31.857-.521.936-.776 1.76-1.663 2.381-2.713 1.496-2.523 2.977-5.057 4.459-7.587.135-.231.252-.475.379-.711.436-.812.93-1.584 1.578-2.246.506-.519 1.072-.945 1.797-1.126.701-.175 1.33-.004 1.912.38.334.22.516.551.57.95.088.651.043 1.295-.105 1.934-.256 1.094-.623 2.151-1.082 3.173-.934 2.083-1.867 4.167-2.852 6.226-1.033 2.16-2.123 4.293-3.193 6.436-.705 1.413-1.172 2.903-1.402 4.464-.199 1.35-.352 2.707-.547 4.058-.268 1.861-.611 3.711-1.148 5.515-.459 1.544-.977 3.07-1.449 4.61-.275.898-.49 1.814-.768 2.712-.299.961-.629 1.912-.961 2.861-.385 1.099-.791 2.188-1.178 3.285-.338.957-.512 1.941-.525 2.961-.018 1.32-.105 2.641-.1 3.961.004.961.096 1.923.176 2.882.09 1.093.205 2.184.318 3.274.113 1.113.236 2.226.357 3.339.104.956.207 1.913.314 2.87l.359 3.135.316 2.803.342 2.935.334 2.868.322 2.733c.115.979.234 1.956.352 2.933l.322 2.667c.16 1.333.322 2.666.484 3.999.156 1.289.316 2.577.475 3.865l.33 2.733.342 2.731.32 2.598c.166 1.333.334 2.665.498 3.998l.455 3.732c.15 1.222.303 2.443.457 3.664.16 1.288.322 2.576.484 3.863l.455 3.598.49 3.862.09.599c.029.262.082.527-.012.817l-.328.052c-1.684.078-29.695.023-30.258-.06-.135-.214-.082-.467-.078-.704.016-1.098.045-2.194.068-3.291.025-1.276.049-2.553.078-3.829l.104-4.298.031-1.814c.045-2.328.088-4.657.137-6.985.041-2.037.088-4.074.133-6.112l.135-6.044.135-6.247c.045-2.06.092-4.119.133-6.179.047-2.307.062-4.613.143-6.919.129-3.694.131-7.39.125-11.085-.004-2.396-.082-4.791-.258-7.183l-.156-2.278c-.064-.873-.23-1.729-.479-2.568-.383-1.291-1.158-2.317-2.195-3.146-.611-.489-1.262-.928-1.896-1.388-.436-.315-.881-.618-1.309-.943-.607-.464-1.127-1.015-1.617-1.604-.904-1.083-1.82-2.158-2.771-3.199-1.846-2.017-3.318-4.276-4.525-6.72l-.389-.781-.166-.251c-.217-.001-.246.15-.293.263-.367.869-.621 1.773-.82 2.693-.279 1.292-.432 2.604-.559 3.918-.168 1.761-.402 3.512-.719 5.253-.418 2.294-1.1 4.52-1.721 6.762-.332 1.207-.6 2.432-.922 3.642-.225.843-.488 1.676-.746 2.509-.428 1.391-.873 2.774-1.293 4.167-.266.884-.369 1.791-.373 2.718-.006 1.23-.107 2.462-.092 3.692.016 1.229.111 2.46.197 3.688.084 1.206.195 2.409.309 3.612.105 1.137.227 2.272.342 3.408l.324 3.207c.107 1.068.217 2.138.328 3.206l.342 3.205.328 3.139c.115 1.091.232 2.181.352 3.271l.34 3.07.326 3.004.35 3.136.324 3.004.332 3.004.34 3.003.344 3.069.322 2.869.357 3.135.318 2.87.107 1.026-.398.086c-.18.014-.359.005-.539.005-8.201 0-16.404 0-24.607-.001-.284.01-.571.003-.95-.002zm-81.424-.32c.135-.407.174-.758.215-1.11.107-.979.23-1.955.346-2.933l.326-2.801.322-2.8.354-3 .32-2.733c.115-1 .232-2 .35-3l.34-2.933.33-2.868.324-2.867.35-3.068.322-2.868.35-3.135.316-2.937.359-3.27.318-3.004c.115-1.091.236-2.181.342-3.271.115-1.181.23-2.361.32-3.544.082-1.07.18-2.144.186-3.216.008-1.365-.078-2.729-.107-4.095-.016-.744-.123-1.473-.344-2.18-.34-1.09-.697-2.173-1.062-3.254-.393-1.165-.834-2.314-1.125-3.513-.193-.805-.396-1.607-.625-2.402-.482-1.676-1.006-3.34-1.473-5.021-.459-1.661-.764-3.357-.996-5.065-.201-1.484-.348-2.978-.555-4.462-.189-1.355-.514-2.686-1.076-3.937-.836-1.856-1.713-3.693-2.578-5.537-.041-.089-.133-.156-.232-.271-.078.143-.148.232-.178.334-.51 1.738-1.02 3.477-1.52 5.218-.236.816-.426 1.646-.688 2.454-.482 1.488-1.016 2.962-1.506 4.448-.324.981-.561 1.981-.5 3.029l-.016.335c-.143 1.542-.096 3.088-.094 4.633 0 .29.037.58.062.87.111 1.271.219 2.542.336 3.812.098 1.069.207 2.138.316 3.206.115 1.113.234 2.225.354 3.337l.322 3.004.35 3.136.322 2.936.348 3.067.318 2.868.359 3.135.322 2.801.338 2.865.324 2.868.359 3.067c.105.91.209 1.822.318 2.732l.344 2.865.32 2.801.479 3.932c.154 1.311.297 2.623.453 3.934.201 1.666.416 3.33.615 4.996.201 1.666.387 3.334.586 5 .262 2.199.531 4.398.801 6.597.034.257.05.523.239.815zm-78.073-118.276c-.111.266-.191.421-.242.585-.414 1.323-.838 2.644-1.23 3.973-1.242 4.203-2.473 8.409-3.705 12.615-.132.45-.263.903-.355 1.362-.358 1.778-.625 3.568-.707 5.384-.06 1.301-.037 2.597.195 3.88.119.661.287 1.316.629 1.902.166.286.373.56.607.793.273.274.623.342.99.167.18-.087.379-.157.529-.281.328-.27.659-.543.938-.86 1.201-1.374 2.129-2.93 2.932-4.562.356-.724.726-1.437 1.209-2.088 1.053-1.419 2.404-2.392 4.146-2.774 1.653-.364 3.204-.181 4.573.903l.211.165.303.109c.106-.327.072-.62.062-.906-.052-1.342-.089-2.686-.177-4.024-.079-1.204-.148-2.41-.359-3.604-.312-1.77-1.107-3.249-2.496-4.396-.432-.356-.877-.695-1.32-1.037l-1.178-.891c-.602-.471-1.159-.986-1.637-1.586-1.156-1.454-2.316-2.905-3.478-4.355l-.44-.474zm149.278 4.829c-.105.092-.236.178-.332.292-.562.667-1.135 1.327-1.67 2.018-.525.679-1.123 1.276-1.801 1.796l-1.086.792c-.676.515-1.369 1.011-2.016 1.563-.867.742-1.463 1.676-1.809 2.774-.264.839-.418 1.697-.49 2.566-.119 1.428-.191 2.858-.273 4.288-.027.47-.027.94-.027 1.411 0 .147.043.295.072.478.32-.062.602-.134.885-.164.355-.039.719-.097 1.068-.054 1.459.18 2.762.717 3.828 1.765.957.941 1.654 2.056 2.166 3.285.5 1.202 1.107 2.347 1.773 3.462.459.771.957 1.515 1.568 2.175.277.298.578.562.953.729.418.188.729.153 1.037-.179.209-.227.402-.488.529-.769.184-.404.338-.83.443-1.263.404-1.668.461-3.367.342-5.07-.078-1.138-.191-2.275-.344-3.405-.131-.974-.275-1.953-.52-2.903-.898-3.509-1.838-7.009-2.77-10.509-.41-1.534-.84-3.063-1.258-4.595-.043-.17-.063-.354-.268-.483zm-32.652-.927l-.115.362c-.248.952-.473 1.91-.742 2.855l-4.174 14.578c-.305 1.074-.607 2.152-.859 3.24-.271 1.178-.426 2.377-.562 3.578-.143 1.27-.244 2.542-.197 3.818.035.962.115 1.925.379 2.855.127.449.305.888.502 1.312.109.238.283.459.467.649.287.298.641.414 1.035.209.217-.111.436-.229.629-.377.484-.37.867-.841 1.225-1.329.957-1.304 1.77-2.692 2.432-4.168.414-.923.902-1.803 1.562-2.573.217-.252.338-.521.371-.842.102-1.024.205-2.049.303-3.073.107-1.136.217-2.272.311-3.409.107-1.293.209-2.587.293-3.882.037-.558.039-1.119.025-1.678l-.111-3.087c-.016-.54-.088-1.067-.209-1.593-.246-1.072-.629-2.1-.994-3.133-.475-1.35-1.041-2.667-1.369-4.066-.02-.072-.104-.128-.202-.246zm-79.337-18.731l-.07.304c-.131 1.066-.253 2.133-.387 3.199-.27 2.156-.701 4.281-1.303 6.37-.432 1.505-.894 3.001-1.32 4.508-.311 1.097-.56 2.211-.887 3.303-.301 1.007-.669 1.993-1.008 2.988-.057.167-.146.331-.043.546l.532.217c.897.336 1.661.866 2.326 1.552.854.881 1.459 1.917 1.962 3.026.688 1.513 1.512 2.949 2.522 4.27.298.39.645.745.991 1.093.237.236.518.425.852.519.356.1.679.039.922-.233.206-.231.402-.486.537-.764.175-.359.312-.743.418-1.129.461-1.709.477-3.455.348-5.202-.076-1.048-.203-2.094-.355-3.134-.127-.861-.264-1.729-.498-2.566-1.488-5.32-3.004-10.633-4.512-15.947l-.76-2.644c-.036-.131-.051-.271-.267-.276zm42.274 17.687c-.178.332-.287.521-.381.72-.574 1.213-1.15 2.425-1.715 3.643-.299.649-.596 1.302-.857 1.968-.434 1.107-.676 2.268-.889 3.437-.076.422-.01.776.197 1.148 1.338 2.404 2.645 4.827 3.998 7.223.586 1.039 1.373 1.936 2.297 2.694.254.208.561.369.867.492.453.181.848.061 1.117-.339.387-.58.559-1.214.336-1.909-1.117-3.497-1.979-7.06-2.762-10.644-.275-1.267-.543-2.533-.955-3.767-.461-1.379-.832-2.785-1.076-4.222-.016-.102-.075-.196-.177-.444zm-121.811 3.117c.111.227.214.475.347.704 1.499 2.596 2.986 5.198 4.513 7.778.607 1.025 1.416 1.898 2.346 2.651.297.24.627.42.996.538.422.135.782.018 1.025-.299.421-.546.667-1.162.433-1.874l-.435-1.34c-.994-3.157-1.8-6.365-2.545-9.589-.156-.675-.249-1.37-.467-2.023-.468-1.4-.926-2.802-1.297-4.23-.023-.089-.116-.159-.225-.3-.48.987-.906 1.919-1.384 2.824-.47.889-.956 1.772-1.499 2.618-.554.863-1.187 1.675-1.808 2.542zm226.171 11.242c-.479-1.114-1.084-2.151-2.021-2.957-.33-.283-.58-.677-1.059-.825l-.17.457c-.379 1.38-.75 2.762-1.127 4.143-.199.729.025 1.371.434 1.957.238.341.607.418 1.018.29.352-.108.641-.314.912-.553.76-.673 1.379-1.465 1.934-2.311l.079-.201z"/></svg>