<svg xmlns="http://www.w3.org/2000/svg" width="332" height="349" viewBox="0 0 332 349"><g fill-rule="evenodd" clip-rule="evenodd"><path fill="#B1D787" d="M127.596 211.582c-.582 4.566 1.995 8.898.642 14.107-.177.305-1.665-.406-2.07.893l-1.571-1.462c0-1.631.179-3.448-.041-5.216-.347-2.792-.959-5.551-1.482-8.318-.006-.03-.312-.004-.477-.004-5.018-10.91-7.869-22.483-10.478-34.136-4.435-17.066-3.647-34.046.849-50.959.467-1.758.916-3.518 1.271-5.298.097-.553.254-1.093.438-1.622 3.837-11.848 8.842-23.418 8.563-36.249-.084-3.848-.671-7.578-1.711-10.687-1.787-1.883-3.707-2.036-5.393-2.691-2.549-.992-5.06-2.313-6.191-4.79-2.41-5.272-5.188-10.36-7.602-15.612-1.803-3.924-1.264-8.16.532-12.138 1.601-3.545 3.831-6.651 6.801-9.151 11.03-9.283 23.558-10.195 36.643-5.816 4.943 1.655 9.214 4.828 9.511 10.973-.378.498-.875.715-1.497.658-9.967.007-19.929.002-29.893.02 9.774.015 19.549.015 29.315.014.545-.021 1.096.018 1.635.115 2.988 4.669 2.168 11.567-2.749 13.723-5.112 2.241-7.903 6.302-11.251 10.093-.55.507-1.161.93-1.821 1.276-2.533.834-3.325 2.885-3.896 5.245-.376 1.559-.932 3.499-3.227 1.663.11-.85 1.085-1.54.393-2.706.525 1.273-.268 2.044-.634 2.938-.686 1.582-2.422 2.285-3.117 3.698-.489 1.603-.352 3.12-.063 4.576 2.311 11.687-.274 22.813-3.762 33.848-2.357 7.458-4.613 14.941-6.578 22.517-3.98 15.346-3.188 30.665-.013 45.995 1.64 8.323 4.192 16.389 6.775 24.455 1.04 3.249 2.785 6.413 2.149 10.048zM271.596 321.582v6.793c-1.709.244-3.43.861-5-1.541 0-1.463.188-3.451-.043-5.391-.367-3.095-.723-6.221-2.893-8.801-.393-.469-.686-.764-1.203-1.114-4.388-2.978-8.507-6.315-12.354-9.965-3.754-3.562-5.885-7.796-5.564-13.189.191-3.202.067-6.37 1.92-9.218.312-.479.127-1.278.188-2.194 2.109-1.06 2.973-3.513 4.979-5.141 4.293-3.483 9.039-5.032 14.355-5.212 4.156-.14 8.336-.264 12.477.023 7.734.537 14.744 2.898 20.402 8.619 2.139 2.164 3.055 4.873 3.607 7.492 1.012 4.795-.105 9.768-2.044 14.043-2.257 4.979-5.985 9.417-11.237 11.581-7.092 2.923-9.063 8.612-9.58 15.397-.074.992-.004 1.996-.016 2.994-.002.15-.078.299-.075.289-1.087 2.008-2.847 1.501-4.454 1.5-1.342-2.243-2.336-4.51-.465-6.967-1.014-1.053-1.318-2.379-1.002-3.711 1.119-4.701 1.482-9.547 2.688-14.221 1.316-5.102 5.481-6.658 9.993-7.913 5.065-1.409 5.721-2.708 4.398-7.351-2.113-2.549-3.928-5.193-5.032-8.428-1.422-4.166-3.688-5.221-7.704-3.621-3.268 1.302-6.265 1.41-9.613.416-5.726-1.699-7.433-.521-8.625 5.287-.399 1.943-.746 3.898-1.472 5.761-3.022 5.975-2.45 8.192 3.882 9.933 7.008 1.926 10.539 5.864 10.143 13.179-.193 3.56 1.709 7.245-.656 10.671z"/><path fill="#00ACF1" d="M127.596 211.582c-2.277-3.404-2.38-7.57-3.958-11.24-2.669-6.211-3.27-13.088-5.983-19.318-.423-.971-.059-2.285-.059-3.441 1.492-1.42 3.246-1.297 5.052-.873 1.677.979 3.259.227 4.864-.301 12.745-.351 25.482-.957 38.208.262.579.246 1.044.635 1.399 1.152 1.128 10.685 1.681 21.398 1.405 32.137-.039.539-.213 1.045-.513 1.496-1.271 1.003-2.287.104-3.346-.45-.37-.21-.728-.459-1.065-.717-.32-.236-.624-.507-.911-.784l-.411-.404c-.269-.252-.525-.527-.777-.799l-.379-.393c-.263-.246-.512-.51-.763-.772l-.387-.384c-.276-.248-.533-.514-.793-.782l-.399-.411c-.278-.283-.526-.586-.767-.901l-.364-.493c-.271-.336-.519-.678-.777-1.021-2.711-2.916-5.662-5.64-7.26-9.407.559 1.311 1.291 2.527 1.989 3.754.479.647.819 1.375 1.14 2.105l.228.493c.149.311.273.64.392.964.194.453.401.904.637 1.343.164.28.298.575.425.872.236.438.521.842.859 1.217.257.26.482.537.705.831.238.323.438.656.63 1.005.333.568.632 1.144.884 1.758l.216.693c.115.511.115 1.01.013 1.521-1.736 2.184-4.211 1.595-6.451 1.619-4.136.045-8.277.193-12.4-.111-1.115.334-2.049-2.08-3.284-.219-2.666-.001-5.333-.001-7.999-.001z"/><path fill="#B1D787" d="M187.596 267.582c3.727.094 7.256-1.447 11.072-1.076 3.625.354 7.358-.296 10.961.156 6.919.866 13.556 2.73 18.596 8.059 3.578 3.783 4.732 9.895 3.557 15.297-.502 2.3-.992 4.551-1.85 6.739-2.167 5.528-6.462 9.132-11.443 11.749-6.205 3.26-9.11 8.111-8.897 15.002.036 1.163.005 2.328.005 3.493-2.545 2.067-2.59 2.071-5.87.581-3.278 1.439-3.514 1.424-6.13-.465 0-2.054-.055-4.201.012-6.344.158-5.104-2.047-8.869-6.529-11.166-5.376-2.753-9.793-6.664-13.912-10.974-1.199-1.255-1.094-3.278-2.57-4.536 0-2.736-.083-5.555.018-8.367.219-6.157 2.43-11.266 7.905-14.621.481-.296 1.198-.686 1.077-1.527 1.4-.528 3.485.309 3.998-2z"/><path fill="#01ADF1" d="M291.596 287.582c1.545.587 1.342 2.223 2.051 3.232-.146 2.584-1.833 4.088-3.398 5.607-4.705.801-9.563 1.145-12.09 5.033-2.085 5.359-1.025 10.629-3.229 15.309-.725 1.539-.18 3.214-.334 4.818h-3c0-1.32-.168-2.667.045-3.951.236-1.43-1.164-2.242-1.172-3.396l1.182-1.258c-1.746-2.803-.803-5.942-1.083-8.782l-3.435-3.593c-2.963-.008-5.527-1.367-8.088-2.256-5.318-1.848-6.12-7.772-1.449-10.764.263-.2.507-.545.79-.58 11.096-1.388 22.188-2.322 33.21.581z"/><path fill="#02ACF0" d="M113.596 177.582c.629 4.781 2.112 9.35 3.441 13.962 1.615 5.604 3.176 11.214 5.499 16.589.422.977.06 2.291.06 3.449h-15c-2.825-2.295-2.51-5.559-2.68-8.668.843-1.461 2.054-2.061 4.405-1.404-1.934-.834-3.362.264-4.611-.52-.956-.861-1.048-2.096-1.4-3.216-.237-.896-.195-1.849-.535-2.726-.185-.877-.235-1.787-.579-2.632-.073-.888-.187-1.771-.477-2.62-.113-.898-.314-1.778-.58-2.645.031-1.194-.531-2.297-.532-3.487.012-1.035-.373-2.001-.507-3.015-.102-1.382-.587-2.861 1.021-3.782 4.231-1.012 8.443-1.707 12.475.715z"/><path fill="#6E6F72" d="M241.596 238.582c2.984-.727 5.814.551 8.512 1.229 3.758.945 7.643 1.426 11.318 2.754 6.102 2.205 12.814 2.494 18.543 5.891 4.379.08 7.789 2.927 11.717 4.301 3.443 1.205 6.405 3.842 9.504 5.958 1.714 1.17 3.684 2.292 4.784 3.94 1.093 1.635 2.654 2.867 3.586 4.489 2.694 4.692 6.083 9.236 5.929 14.972-.049 1.779 1.426 2.852 1.138 4.589-.872 5.241-1.704 10.476-4.698 15.046-4.148 6.333-9.907 10.919-16.285 14.774-.865.523-1.546 1.029-2.032 1.806-.163.842.464 1.199 1.185 1.959-3.236.521-6.201.227-9.594.269 1.379-3.295 3.855-5.227 4.729-7.896 2.133-.652 1.193 1.715 2.492 1.949 8.853-4.318 16.006-10.523 19.593-20.07.8-2.13 1.827-4.437 1.539-6.836-.264-2.2 1.077-4.647-.931-6.596-.758-8.194-5.695-14.005-11.354-19.238-2.741-2.535-5.927-4.627-9.343-6.31-6.927-3.411-14.079-6.26-21.441-8.527-3.992-1.229-8.072-2.183-12.095-3.346-5.679-1.643-11.606-2.394-17.3-4.089-.459-.137-.994-.018-1.494-.018-.094-1.852.855-1.617 1.998-1z"/><path fill="#6F7073" d="M181.596 231.582c.332 0 .721-.113.99.017 12.402 5.973 25.758 9.31 38.605 14.044 9.714 3.578 19.191 7.762 26.512 15.527.197.209.543.279.85.428 1.25-.115 1.602-1.48 3.111-2.178-.939 3.25 1.602 5.893.705 9.203-2.607-.822-5.076-1.6-7.604-2.395-.838-1.123.643-1.57.838-2.393-.072-.337-.033-.743-.217-.934-5.796-5.989-13.094-9.82-20.503-13.15-4.298-1.932-8.755-3.852-13.345-5.096-4.484-1.216-8.979-2.594-13.219-4.27-5.976-2.361-12.154-4.449-17.725-7.805-.231-.896-.041-1.375 1.002-.998z"/><path fill="#717276" d="M187.596 267.582c-.239.963 1.295 1.061 1.012 1.922-.061 1.076-1.006 1.344-1.381 1.92l-3.631-1.842-13-9c-.551-.116-.894-.439-1-1-1.625-2.709-4.187-4.552-6.322-6.784-2.774-2.9-5.822-5.556-7.678-9.216-.354-.922.22-1.23.948-1.44 5.198 3.388 8.769 8.493 13.291 12.597.811.809.984 2.012 1.762 2.844 4.051 2.875 7.721 6.303 12.164 8.597 1.181.609 2.268 1.746 3.835 1.402z"/><path fill="#8976B8" d="M105.596 202.582c.266 1.516-.318 3.008.846 4.611.723.996.065 3.057 1.154 4.389 0 1.832.266 3.716-.071 5.484-.372 1.953 1.167 3.207 1.193 5.095.062 4.419-.661 8.708-1.416 13.337l-3.706 6.084c-.897.23-1.389.055-1-1 1.257-2.637 3.117-4.969 3.62-8.002.124-.743.357-1.535.365-2.312.035-3.49.553-7.088-.11-10.449-1.001-5.072-.787-10.378-2.842-15.255-.238-.564-.032-1.316-.032-1.981.257-.316.589-.498.995-.547.402.055.734.243 1.004.546z"/><path fill="#907FBD" d="M165.596 319.582v9.756c0 .68-.061 1.316-1 1.244-1.298-2.195.352-4.812-1-7v-29.942c0-2.495-.272-5.029.077-7.474.343-2.398-1.591-4.264-1.077-6.584 1.123-1.137-.062-2.85 1-4 .333-.471.667-.471 1 0 0 2.985-.668 6.181.186 8.897.873 2.774.565 5.411.814 8.103-.845 9-.845 18 0 27z"/><path fill="#7771B8" d="M167.596 211.582c0-6.484-.174-12.975.057-19.449.176-4.914-1.769-9.629-1.057-14.551.392-.249.795-.282 1.213-.066.572.941-.139 2.214.787 3.066 0 2.658-.033 5.316.007 7.975.091 6.021 1.659 11.961.993 18.025-1.11 1.504-.111 3.309-.699 4.888-.409.327-.842.365-1.301.112z"/><path fill="#8C7ABA" d="M96.596 164.582c.252-2.44-.336-4.743-.954-7.086-.562-2.132-.004-4.321-.809-6.645-.747-2.155-.693-5.011.441-7.626.729-1.682.233-3.886.333-5.854.037-.725-.387-1.776.988-1.79 1.056.596 1.592 1.546 1.849 2.691-.995 7.341.166 14.641.497 21.956-.032 1.033-.125 2.063-.361 3.074-.127.49-.357.932-.675 1.325-.445.306-.883.291-1.309-.045z"/><path fill="#8976B8" d="M113.596 77.582c-1.947-1.748-2.471-4.496-4.604-6.2-2.165-1.729-3.99-3.885-5.955-5.862-1.917-1.928-2.708-4.419-3.441-6.938-.427-1.032.225-1.201 1.01-1.266 3.899 6.949 11.178 11.314 14.39 18.796-.143.798-.635 1.264-1.4 1.47z"/><path fill="#9180BD" d="M99.596 32.582v-1c.452-.373.928-.406 1.43-.102.655.512 1.024 1.167 1.004 2.015-2.025 5.062-2.041 10.454-2.552 15.768-.389 1.24-.754 2.499-1.883 3.319-.943.072-.999-.569-1-1.249-.001-3.585-.243-7.193.084-10.749.219-2.373 1.249-4.671 1.915-7.002.38-.289.641-.694 1.002-1z"/><path fill="#8D7CBB" d="M104.596 106.582c2.295-6.254 5.32-12.228 7.188-18.65.052-.18.532-.236.812-.35.788.223 1.292.711 1.445 1.532-1.894 6.528-3.523 13.17-7.801 18.71-.958.129-1.191-.702-1.644-1.242z"/><path fill="#9383BF" d="M172.596 234.582c0 4.75.012 9.5-.013 14.25-.004.721.354 1.742-.987 1.75-1.818-1.761-1.129-4.318-2.042-6.371-.67-5.145-.478-10.302-.218-15.461.085-.57.266-1.111.523-1.625.298-.527.752-.819 1.353-.879l.649.535-.266.801v2c1.182 1.497-.234 3.514 1.001 5z"/><path fill="#8477B9" d="M102.596 189.582v3c.614.526.355 1.488 1 2v3c.694 1 .668 2 0 3-.283-.117-.823-.264-.813-.346.33-2.774-.805-5.366-1.357-7.947-.543-2.538-1.196-5.214-1.578-7.703-.405-2.64-1.357-5.269-1.252-8.004.842-.504.098-2.151 1.582-2.192 1.4.899 1.34 1.989.418 3.192v4c.614.526.355 1.488 1 2v4c.613.526.355 1.488 1 2z"/><path fill="#9281BE" d="M92.596 286.582c1.069 4.631 2.772 8.887 6.532 12.105.935.799 2.205 1.462 2.468 2.895-.107.561-.443.891-1 1-4.308-2.641-6.313-7.066-8.715-11.193-.542-.931-.129-1.88-.285-2.807-.621-1.144-.851-2.092 1-2z"/><path fill="#8E7CBB" d="M151.596 89.582c-.132 1.089-1.172 1.475-1.692 2.182-.938 3.922-1.677 7.81-1.308 11.818-1.309 1.522.338 3.7-1.149 5.183-1.949-.367-2.021-1.998-2.082-3.414-.24-5.607.104-11.125 3.213-16.076.354-.409.786-.714 1.285-.92.561-.088 1.032.081 1.412.504l.321.723z"/><path fill="#9180BD" d="M160.596 125.582c2.405 2.104 2.865 5.217 3.93 7.961.994 2.562 1.403 5.35 2.07 8.039-.776.553-.166 2.071-1.538 2.211-3.326-5.052-3.688-11.154-5.884-16.611.106-.86.618-1.36 1.422-1.6z"/><path fill="#8E7DBC" d="M150.596 110.582c4.126 4.101 6.962 9.123 10 14-.434.516-.716 1.206-1.507 1.312-4.16-3.999-7.074-8.882-9.842-13.874.12-.788.595-1.244 1.349-1.438z"/><path fill="#8774B7" d="M167.596 177.582h-1c-2.739-4.413-1.146-9.291-1.511-13.96.225-3.286-.061-6.586.197-9.862.129-1.648-.343-3.842 2.314-4.178v20c.781 2.667.783 5.334 0 8z"/><path fill="#9180BD" d="M142.596 16.582c5.7 1.496 10.211 3.926 13 7-.217.773-.688 1.262-1.513 1.358-4.488-2.479-9.468-3.995-13.719-6.949.269-1.22 1.677-.639 2.232-1.409z"/><path fill="#8572B6" d="M165.596 319.582c-.63.113-.981-.275-.982-.789-.025-8.474-.025-16.948 0-25.422.001-.514.352-.902.982-.789v27z"/><path fill="#8C7AB9" d="M99.596 123.582c.258-3.558 1.246-6.935 2.721-10.152.305-.665.155-1.242.279-1.848l.402-.389.555.037.506.218c.332.252.617.209.868-.139.408-.008.778.09 1.128.294.709.554 1.125 1.247 1.087 2.17-.092.442-.294.822-.615 1.14-2.229 1.025-2.667 3.203-3.399 5.213-.613 1.682-.902 3.561-2.566 4.679-.781-.046-1.397-.223-.966-1.223z"/><path fill="#8C7ABA" d="M168.596 64.582c-.277.111-.805.24-.798.331.272 3.962-1.051 7.756-1.202 11.669-.842.305-1.501-.063-2.126-.57-1.908-3.771-.49-10.245 2.816-12.876.864.095 1.504.393 1.31 1.446z"/><path fill="#EDECE7" d="M78.596 96.582c-.062-.867.493-1.004 1.176-1.001.941.004 1.883.001 2.824.001.284.312.452.677.516 1.094.262 1.652.634 3.298.323 4.991-.133.425-.355.796-.661 1.119-1.329.443-2.608.499-3.759-.471-.353-.279-.659-.602-.912-.975-.464-.844-.443-1.713-.137-2.597.127-.431.338-.818.629-1.161.456-.531 1.086-.473 1.69-.502-.603-.028-1.234.034-1.689-.498z"/><path fill="#797A7D" d="M162.596 33.582h16.829c-2.552 1.349-5.229.894-7.851.98-2.656.088-5.319.02-7.979.02-.673.552-1.389 1.022-2.27 1.175-2.045.275-4.039.279-5.73-1.175-.328-.222-.437-.444-.328-.667s.218-.333.328-.333c1.357-1.351 3.039-1.34 4.767-1.141.849.174 1.58.583 2.234 1.141z"/><path fill="#9686C0" d="M92.596 286.582c-1.496.086-.849 1.242-1 2-.277-.109-.798-.229-.795-.329.126-3.292-1.722-6.338-1.205-9.671 1.092-1.875.232-3.928.536-5.875.133-.838.445-1.441 1.464-1.125v6.464c0 1.491.183 3.013-.049 4.468-.255 1.586 1.522 2.515 1.049 4.068z"/><path fill="#8470B5" d="M123.596 16.582c-.114-.628.274-.979.786-.982 4.81-.03 9.619-.03 14.429 0 .512.003.899.354.786.982-.186.834-.696 1.395-1.462 1.742-4.341.506-8.68-.542-13.029-.046-.8-.302-1.31-.862-1.51-1.696z"/><path fill="#F1F5F2" d="M59.596 217.582c.609.113.922-.258.981-.758.079-.672.08-1.314 1.019-1.242.337.406.557.868.661 1.387.258.75.31 1.529.321 2.315-.117 1.806.441 3.735-.982 5.298l-2-1c-.333-.356-.667-.356-1 0-1.333.724-2.667.724-4 0-.513-.617-.586-1.299-.296-2.03 1.833-1.229 4.207-1.741 5.296-3.97z"/><path fill="#EDECE7" d="M54.596 200.582c-.062-.867.493-1.004 1.176-1.001.941.004 1.883.001 2.824.001.286.311.449.679.516 1.094.262 1.652.634 3.298.323 4.991-.131.427-.357.795-.661 1.118-1.329.443-2.608.499-3.759-.471-.356-.275-.656-.604-.912-.975-.458-.844-.479-1.711-.142-2.597.132-.429.341-.818.634-1.161.456-.531 1.086-.473 1.69-.502-.603-.027-1.234.035-1.689-.497z"/><path fill="#907FBD" d="M101.596 32.582c-.692.025-1.025-.308-1-1-.276-.222-.369-.444-.276-.667.092-.222.184-.333.276-.333 2.259-3.074 4.926-5.741 8-8 .745.187 1.209.636 1.328 1.411-2.503 3.126-4.606 6.643-8.328 8.589z"/><path fill="#9484BF" d="M165.596 75.582c-.025.692.308 1.025 1 1-1.111 1.873-1.672 3.939-.535 5.855.779 1.312.349 2.495.479 3.748-.726.387-.926 1.445-1.944 1.397-.72-.329-1.323-.765-1.483-1.611-.086-1.941-.411-3.879-.423-5.811-.014-2.016-.121-4.371 2.906-4.578z"/><path fill="#8F7EBC" d="M167.596 149.582c-1.336.007-.982 1.024-.987 1.744-.026 4.085-.013 8.17-.013 12.256-2.636-.35-2.284-2.566-2.38-4.217-.211-3.637-.36-7.299.271-10.928.391-1.453.842-2.879 2.11-3.855.887-.065 1.002.514 1 1.195-.003 1.268-.001 2.537-.001 3.805z"/><path fill="#806CB3" d="M163.596 86.582c.692-.025 1.025.308 1 1-1.222 1.333-3.441.4-4.613 2.098-2.75-1.358-5.569-1.841-8.387-.098-.307-.36-.652-.681-1-1 .128-2.545 2.255-2.722 3.855-2.648 3.044.139 6.149-.226 9.145.648z"/><path fill="#998AC2" d="M106.596 330.582c-.278-.111-.792-.211-.798-.336-.105-2.08-.299-4.174-.157-6.244.133-1.943-1.557-3.458-1.044-5.42.68-.493.304-1.515 1-2 .276.109.8.241.792.324-.27 2.99 1.157 5.739 1.208 8.676-1.23 1.487.171 3.501-1.001 5z"/><path fill="#9180BD" d="M100.596 302.582c-.025-.691.308-1.025 1-1 1.703 2.745 2.951 6.906 3 10 .621 1.144.851 2.092-1 2v-2c-.614-.526-.355-1.488-1-2-.781-2.301-.792-4.821-2-7z"/><path fill="#9281BE" d="M165.596 50.582c1 1.288 2.365 2.438 2.91 3.896.729 1.948 2.145 3.359 3.09 5.104-.445.471-.635 1.236-1.461 1.273-3.068-2.188-5.019-5.12-5.85-8.8.181-.717.596-1.229 1.311-1.473z"/><path fill="#9483BF" d="M91.596 271.582c-.692-.025-1.025.309-1 1-.333.451-.667.451-1 0-.459-3.648 1.467-7.035 1.204-10.67-.006-.091.519-.219.796-.33.696.485.32 1.507 1 2 .113 2.723-1.72 5.201-1 8z"/><path fill="#9281BE" d="M92.596 256.582c1.751-2.953 2.564-6.428 5-9 .604.062.706.627 1 1-1.751 2.953-2.564 6.428-5 9-.6-.066-.628-.706-1-1z"/><path fill="#8876B8" d="M165.596 50.582c.025.692-.308 1.025-1 1l-.745-.259c-.439-.312-.75-.724-.939-1.228-.358-2.88.389-5.647.875-8.445.379-.733.845-1.324 1.809-1.068 0 .82-.344 1.942.063 2.406 1.328 1.512 1.205 2.627.031 4.218-.549.743-.094 2.228-.094 3.376z"/><path fill="#7E7D84" d="M171.596 226.582h-1c-.727-.062-1.323-.404-1.871-.856-1.916-2.22-4.923-3.603-5.376-6.954.272-.391.649-.627 1.111-.731 2.556.187 3.769 2.277 5.384 3.8.791.781.99 1.939 1.752 2.742-.072.938.57.939 1.242 1.019.5.06.871.372.758.981-.245.336-.575.492-.99.471-.415.008-.748-.158-1.01-.472z"/><path fill="#8B79BA" d="M170.596 244.582c.902-.066 1.001.528 1 1.209v11.791c-1.09-.243-1.757-.91-2-2-1.395-3.824-.93-7.478 1-11z"/><path fill="#7D69B2" d="M99.596 174.582c-.151.758.496 1.914-1 2 .283-3.395-1.763-6.557-1-10-.563-.667-.608-1.333 0-2 .577-.32 1.076-.226 1.5.28 1.412 3.175 2.868 6.35.5 9.72z"/><path fill="#9491A2" d="M50.596 200.582c.692-.025 1.025.309 1 1 1.49 1.436.253 3.416 1 5 .067.902-.528 1.001-1.209 1h-4.791c-.231-.222-.336-.465-.315-.729.021-.273.063-.41.121-.406.521-.709 1.75-.803 1.738-1.99-.004-.376.145-.67.457-.875 1.09-.243 1.757-.91 2-2-.346-.223-.461-.444-.346-.666.113-.223.228-.334.345-.334z"/><path fill="#EBF3EF" d="M40.596 97.582h1c.259.265.572.371.94.313.33-.156.636-.344.927-.568.333-.189.673-.349 1.03-.487.605-.104 1.181-.033 1.729.252.388.195.636.499.753.916-.09.91-.59 1.551-1.314 2.048-.679.383-1.436.627-2.055 1.107-.343.429-.462.943-.535 1.475-.073.357-.234.671-.474.944h-2c-.762-2-.764-4-.001-6z"/><path fill="#9382BE" d="M99.596 123.582c-.025.692.308 1.025 1 1 1.147 1.371.29 2.678-.113 4.002-.352.876-.542 1.792-.635 2.734-.312 1.395-.13 3.094-2.105 3.476-.733-.523-.609-1.31-.63-2.053.013-.753-.094-1.533.483-2.16-.021-2.529-.067-5.065 2-6.999z"/><path fill="#9383BF" d="M110.596 21.582c1.741-2.37 4.522-2.919 7-4 .463.449 1.253.616 1.263 1.458-1.739 2.285-4.155 3.385-6.89 3.932-.747-.177-1.194-.652-1.373-1.39z"/><path fill="#898A8D" d="M241.596 238.582c-.758.15-1.914-.496-2 1-2.152-.807-4.402-1.062-6.676-1.213-.125-.008-.217-.514-.324-.787.485-.696 1.507-.32 2-1 2.152.807 4.402 1.062 6.676 1.213.124.008.216.514.324.787z"/><path fill="#7C68B1" d="M169.596 259.582c.691-.025 1.025.309 1 1l-2 7c-.898.232-1.377.043-1-1 .08-1.522 1.399-6.141 2-7z"/><path fill="#8B79BA" d="M97.596 52.582c.381-.984-.927-2.531 1-3 2.021 2.328 2.83 4.959 2 8-.692-.025-1.025.308-1 1-1.596-1.69-2.075-3.753-2-6z"/><path fill="#8D7BBB" d="M165.596 40.582c-.692-.025-1.025.308-1 1-3.175-1.401-3.929-3.84-3-7h2v1c.36.306.622.711 1 1v1c.614.526.355 1.489 1 2v1z"/><path fill="#858689" d="M152.596 239.582c-2.083-2.035-3.323-4.674-5-7 .335-.34.745-.512 1.219-.54 2.802 1.126 4.14 3.478 5.128 6.126-.131.773-.6 1.227-1.347 1.414z"/><path fill="#A17F8B" d="M35.596 207.582c-.282-.115-.796-.205-.812-.35-.345-3.217-.124-6.424-.208-9.818 1.858.746-.064 2.987 2.02 3.168.348.318.554.712.623 1.179-.034 1.377-.406 2.704-.598 4.061-.152.697-.529 1.263-1.025 1.76z"/><path fill="#848587" d="M181.596 231.582c-.691-.025-1.025.309-1 1-2.297-.887-4.217-2.342-6-4 .062-.604.627-.706 1-1 1.827 1.593 4.28 2.246 6 4z"/><path fill="#9686C0" d="M167.596 266.582c-.025.691.309 1.025 1 1-.666 1.765-1.331 3.53-2.001 5.293-.172.453-.42.818-.999.707-.604-.062-.706-.627-1-1 .667-1.765 1.331-3.53 2.002-5.293.172-.453.42-.818.998-.707z"/><path fill="#A17F8B" d="M186.596 36.582c-.281-.115-.796-.206-.812-.349-.345-3.217-.124-6.424-.208-9.819 1.857.747-.064 2.987 2.02 3.168.346.32.558.71.623 1.179-.033 1.377-.406 2.704-.598 4.061-.152.697-.529 1.263-1.025 1.76z"/><path fill="#9685C0" d="M102.596 240.582c-.025.691.308 1.025 1 1-1.481 1.549-1.772 4.049-4 5-.604-.062-.706-.628-1-1 .229-1.25 1.258-2.047 2.148-2.519 1.137-.602.206-2.485 1.852-2.481z"/><path fill="#927E96" d="M78.596 200.582c1.021.138 1.891-.106 2.568-1.097 1.285 1.981-.893 2.405-1.568 3.719 0 1.057.042 2.343-.021 3.624-.024.492-.371.867-.979.754-1.517-2.334-1.517-4.666 0-7z"/><path fill="#8E7C9A" d="M213.596 30.582h-2.602c-1.019 1.848.146 4.101-1.171 7.016v-7.752c1.075-.602 2.605.239 3.421-1.115.117.118.28.217.339.358.059.142.013.327.013.494.351.222.467.444.351.667s-.233.332-.351.332z"/><path fill="#8D7CBA" d="M171.596 224.582c-1.09-.243-1.757-.91-2-2-.586-.661-.773-1.497-1.021-2.309-.154-.829-.289-1.664-.426-2.5-.039-.434.042-.848.217-1.246.328-.289.707-.467 1.143-.521.439.045.807.23 1.088.576-.72 2.799 1.112 5.277.999 8z"/><path fill="#8F7EBC" d="M167.596 177.582v-8c.938-.072 1 .564 1 1.244v9.756c-1.927-.469-.619-2.016-1-3z"/><path fill="#7C6AAB" d="M169.596 216.582h-1c-1.352-1.666-2.321-3.334 0-5 0-1.268.002-2.537 0-3.805-.002-.682.113-1.26 1-1.195v7c.73 1 .746 2 0 3z"/><path fill="#9584C0" d="M156.596 24.582c2.228.951 2.519 3.452 4 5-.18.729-.621 1.181-1.379 1.295-1.877-.601-2.667-2.278-3.691-3.727-.185-.409-.277-.84-.286-1.29.126-.435.363-.798.722-1.079l.634-.199z"/><path fill="#8E7C9A" d="M38.596 97.582h-2.709c-.597 1.502-.18 3.144-.285 4.726-.045.677-.034 1.35-1.006 1.274-1.739-2.333-1.739-4.667 0-7 1.282-.039 2.65.318 3.65-.928l.35.928c.351.222.467.444.351.667-.117.222-.233.333-.351.333z"/><path fill="#D5966D" d="M43.596 207.582c-.166 0-.467.035-.477-.005-.858-3.328-.858-6.662 0-9.99.01-.04.312-.005.477-.005.79 3.334.79 6.666 0 10z"/><path fill="#7CC2F3" d="M43.596 207.582v-10c.166 0 .467-.035.477.005.858 3.328.858 6.662 0 9.99-.011.04-.312.005-.477.005z"/><path fill="#747577" d="M215.596 234.582c-1.99.07-3.654-1.418-5.686-1.218-.078.008-.209-.51-.314-.782-.35-.223-.467-.444-.351-.666.116-.223.232-.334.351-.334 1.99-.07 3.654 1.418 5.686 1.218.078-.008.209.51.314.782.35.223.467.444.351.666-.117.223-.233.334-.351.334z"/><path fill="#81B0E5" d="M59.596 197.582c.166 0 .467-.035.477.005.858 3.328.858 6.662 0 9.99-.01.04-.312.005-.477.005-.353-.359-.515-.789-.486-1.293l.002-1.455c.075-1.466-.148-2.93-.026-4.396.11-.963-.208-2.002.51-2.856z"/><path fill="#B07F85" d="M66.42 214.785v9.649c-1.203-3.206-.613-6.461 0-9.649z"/><path fill="#816EB4" d="M150.596 110.582c.025.692-.308 1.025-1 1-1.428-.492-2.552-1.188-2-3v-3.805c-.001-.682.113-1.26 1-1.195v4.403c.543.961 1.794 1.376 2 2.597z"/><path fill="#81B0E5" d="M83.596 93.582c.166 0 .467-.035.477.005.858 3.328.858 6.662 0 9.99-.01.04-.312.005-.477.005-.348-.361-.519-.788-.486-1.292l.002-1.455c.075-1.466-.148-2.931-.026-4.397.11-.963-.208-2.002.51-2.856z"/><path fill="#6B7EC6" d="M50.596 93.582c.166 0 .467-.035.477.005.858 3.328.858 6.662 0 9.99-.01.04-.312.005-.477.005-.79-3.333-.79-6.666 0-10z"/><path fill="#F6D595" d="M50.596 93.582v10c-.166 0-.467.035-.477-.005-.858-3.328-.858-6.662 0-9.99.01-.04.311-.005.477-.005z"/><path fill="#F7D9A2" d="M23.596 106.582c-.867.062-1.004-.493-1.001-1.176.004-.941.001-1.883.001-2.824-.594-.667-.594-1.333 0-2 0-.941.003-1.883-.001-2.824-.003-.683.134-1.237 1.001-1.176.515.564.904 1.196 1.052 1.958.176.998.182 2.002.11 3.01-.04.505-.162.991-.352 1.459-.663 1.101.092 2.526-.81 3.573z"/><path fill="#9483BF" d="M103.596 313.582c1.496-.086.849-1.242 1-2 .887-.064 1.002.514 1 1.195-.002 1.268 0 2.537 0 3.805-.151.758.496 1.914-1 2 .513-1.836-1.166-3.233-1-5z"/><path fill="#818284" d="M152.596 239.582c-.025-.691.308-1.025 1-1 1.88.674 3.388 1.625 3 4-.692-.025-1.025.309-1 1-2.096-.512-1.954-2.701-3-4z"/><path fill="#7B67B0" d="M113.596 88.582c-.692.025-1.025-.308-1-1v-3.805c-.001-.682.113-1.26 1-1.195.791.171 1.326.643 1.64 1.381.437 1.888.02 3.475-1.64 4.619z"/><path fill="#F4EEE3" d="M15.596 101.582l1-2c.307-.364.681-.438 1.115-.264.78.835 2.041.575 2.885 1.264.58.596.625 1.265.269 1.988-1.412.884-2.737.592-4.019-.296-.44-.188-.857-.419-1.25-.692z"/><path fill="#7D69B1" d="M92.596 256.582c.692-.025 1.025.309 1 1l-1 6c-1.496-.086-.849-1.242-1-2-.513-1.836 1.166-3.233 1-5z"/><path fill="#9B9BA8" d="M73.596 217.582c.692-.025 1.025.309 1 1 .844.961.906 1.996.296 3.094-1.389 1.203-2.957 1.193-4.591.68-.452-.211-.79-.553-1.004-1.006.178-2.029 2.449-1.699 3.332-2.938l.967-.83zM59.596 217.582v4h-5c-.256-.387-.272-.788-.084-1.205.926-.859 2.324-.971 3.155-1.987l.93-.808h.999z"/><path fill="#929295" d="M198.596 228.582c1.148.813 2.409 1.166 3.824 1.012.676-.074 1.238.121 1.176.988.35.223.467.444.351.666-.116.223-.232.334-.351.334-1.393-.207-4.352-1.391-5-2-.351-.223-.467-.444-.351-.666.116-.223.233-.334.351-.334z"/><path fill="#907FBD" d="M170.596 60.582c-.025-.692.309-1.025 1-1v2.4c-.92.913-1.616 2.143-3 2.6.025-.692-.309-1.025-1-1-.321-2.321 1.723-2.276 3-3z"/><path fill="#9B9BA8" d="M75.596 200.582c.692-.025 1.025.309 1 1 .796.968.923 1.998.292 3.1-1.389 1.197-2.956 1.188-4.588.673-.452-.211-.79-.553-1.003-1.007.179-2.027 2.449-1.697 3.332-2.936l.967-.83z"/><path fill="#6F7073" d="M225.596 236.582c-1.767.166-3.164-1.514-5-1-.254-.223-.339-.444-.254-.666.084-.223.169-.334.254-.334h4.791c.681-.001 1.275.098 1.209 1-.067.6-.706.627-1 1z"/><path fill="#9B9BA8" d="M56.596 234.582c.692-.025 1.025.309 1 1 .795.969.914 1.999.291 3.1-1.389 1.198-2.955 1.188-4.587.673-.455-.209-.787-.557-1.004-1.007.18-2.027 2.449-1.697 3.332-2.936l.968-.83z"/><path fill="#6E6F72" d="M225.596 236.582c-.025-.691.309-1.025 1-1 1.268 0 2.537.002 3.805 0 .682-.002 1.26.113 1.195 1-.066.6-.706.627-1 1-1.767.166-3.164-1.514-5-1z"/><path fill="#8E95A4" d="M76.596 238.582v2h3l.5-.412.5.412c-1.631 1.438-3.369 1.438-5 0-.706-.79-.443-1.734-.42-2.64.233-.446.591-.636 1.093-.53.408.307.503.7.327 1.17z"/><path fill="#7B66B0" d="M114.596 83.582c-.692.025-1.025-.308-1-1v-5c-.025-.692.308-1.025 1-1 1.805 2.334 1.805 4.667 0 7z"/><path fill="#888CBE" d="M214.596 29.582c.278.112.797.218.799.336.049 2.195.036 4.393-.238 6.598-.845-1.925-.439-3.956-.561-5.934-.285-.222-.381-.444-.285-.667.093-.222.189-.333.285-.333zM40.596 97.582v6c-.902.067-1.001-.528-1-1.209v-4.791c-.286-.222-.38-.444-.286-.667s.19-.333.286-.333c.692-.025 1.025.308 1 1z"/><path fill="#FEF4CD" d="M78.596 200.582v7c-.692.025-1.025-.309-1-1-.332-.313-.55-.692-.658-1.136l.165-1.333c.108-.854-.273-1.805.493-2.531-.026-.691.308-1.025 1-1z"/><path fill="#AB9E98" d="M68.596 206.582c-1.872 1.414-4.128 1.414-6 0l.383-.443c.338-.201.699-.346 1.078-.446.948-.201 1.89-.452 2.862-.536.405.017.748.178 1.036.458.158.358.372.68.641.967z"/><path fill="#FEF2CA" d="M34.596 96.582v7h-1c-1.739-2.333-1.739-4.667 0-7h1z"/><path fill="#9B9797" d="M35.596 207.582v-2c1.218-.71 2.584-.268 3.867-.508.459-.004.887.109 1.288.332.261.434.194.823-.154 1.176.065.887-.514 1.002-1.195 1-1.27-.002-2.538 0-3.806 0z"/><path fill="#8776B6" d="M104.596 106.582c.692-.025 1.025.308 1 1 1.263 1.732.797 3.033-1 4-.333.266-.667.266-1 0-.351-.222-.467-.444-.351-.667.116-.222.232-.333.351-.333 0-.794-.171-1.612.666-2.185.668-.458.209-1.209.334-1.815z"/><path fill="#C5F1FE" d="M33.596 96.582v7h-1c-1.488-2.333-1.762-4.667 0-7h1z"/><path fill="#7383CA" d="M206.596 29.582c1.391 2.101 1.391 4.899 0 7-.76-2.333-.76-4.666 0-7z"/><path fill="#F7D89A" d="M206.596 29.582v7c-1.391-2.101-1.391-4.899 0-7z"/><path fill="#9C9D9F" d="M95.596 202.582c1.18-.947 2.553-1.121 4-1 .35.223.467.444.351.666-.116.223-.232.334-.351.334.062.867-.493 1.004-1.176 1.001-.941-.004-1.883-.001-2.824-.001-.328-.223-.437-.444-.328-.666.108-.223.217-.334.328-.334z"/><path fill="#9C7488" d="M32.596 96.582v7h-1c-.942-2.333-1.642-4.667 0-7h1z"/><path fill="#FEF6D5" d="M31.596 96.582v7c-1.496-.085-.849-1.242-1-2-1.136-1.333-1.136-2.667 0-4-.026-.692.308-1.025 1-1z"/><path fill="#7B66B0" d="M159.596 30.582c-.025-.692.308-1.025 1-1 .281.386.656.677 1 1v1c.372.294.594.739 1 1v1h-2c-1.052-.76-2.187-1.494-1-3z"/><path fill="#A6A7A9" d="M193.596 226.582c1.076.425 1.939 1.43 3.322 1.043.355-.099.789.389.678.957-.066.6-.706.627-1 1-1.076-.425-1.939-1.43-3.322-1.043-.355.099-.789-.389-.678-.957.066-.6.706-.627 1-1z"/><path fill="#717275" d="M220.596 234.582v1c-1.767.166-3.164-1.514-5-1v-1c1.268 0 2.537.002 3.805 0 .681-.002 1.259.113 1.195 1z"/><path fill="#7D69B2" d="M163.596 323.582c.913-.068 1 .539 1 1.22v5.78c-.913.068-1-.539-1-1.22v-5.78z"/><path fill="#9B9797" d="M186.596 36.582v-2c1.218-.71 2.584-.268 3.867-.508.459-.003.887.11 1.287.332.262.434.193.824-.154 1.176.064.887-.514 1.002-1.195 1h-3.805z"/><path fill="#D1AF9D" d="M73.596 103.582c-1.39-2.101-1.39-4.899 0-7 .599.668.505 1.483.487 2.283-.196 1.569.448 3.224-.487 4.717z"/><path fill="#7A85A3" d="M59.596 234.582c.741-.031 1.449.108 2.115-.556.761-.759 1.619-.857 1.885.556l.413.5-.413.5c-.984.381-2.531-.927-3 1-.418.324-.835.323-1.251-.004-.333-.719-.268-1.386.251-1.996z"/><path fill="#F2CC8D" d="M59.596 234.582v2c.76 1.666.742 3.334 0 5-.692.025-1.025-.309-1-1-.332-.313-.55-.692-.658-1.136l.165-1.333c.108-.854-.273-1.805.493-2.531-.026-.691.308-1.025 1-1z"/><path fill="#CF937A" d="M71.596 241.582c-1.39-2.102-1.39-4.898 0-7 .599.668.505 1.482.487 2.283-.196 1.569.448 3.225-.487 4.717z"/><path fill="#F4CF91" d="M194.596 36.582c-1.391-2.101-1.391-4.899 0-7 .6.668.505 1.483.486 2.283-.195 1.569.449 3.224-.486 4.717zM49.596 224.582c-1.39-2.102-1.39-4.898 0-7 .599.668.505 1.482.487 2.283-.196 1.569.448 3.225-.487 4.717z"/><path fill="#918BA3" d="M71.596 203.582v1c.542.418.61.958.409 1.569l-.409.431c-.692.025-1.025-.309-1-1-.685-1-.685-2 0-3 .151-.758-.496-1.914 1-2 .328.328.564.711.697 1.157.072.73-.16 1.344-.697 1.843z"/><path fill="#A4A4A6" d="M99.596 109.582c-1.408-.592-2.408-1.592-3-3-.351-.222-.467-.444-.351-.667.116-.222.232-.333.351-.333 1.408.592 2.408 1.592 3 3 .351.222.467.444.351.667-.117.222-.233.333-.351.333z"/><path fill="#8774B7" d="M166.596 144.582c-.381.984.927 2.531-1 3-1.148-1.333-1.145-2.667 0-4 .15-.758-.496-1.915 1-2v3z"/><path fill="#F1C78A" d="M67.596 241.582c-.902.066-1.001-.528-1-1.209v-4.791l.593-.375c.465.166.76.482.856.973.067 1.391.021 2.783.04 4.176.031.486-.143.89-.489 1.226z"/><path fill="#81B3E7" d="M64.596 235.582c1.415 1.872 1.415 4.128 0 6-.761-2-.763-4 0-6z"/><path fill="#E9BA87" d="M64.596 235.582v6c-.902.066-1.001-.528-1-1.209v-4.791c.333-.307.666-.307 1 0z"/><path fill="#918BA3" d="M52.596 237.582v1c.542.418.61.958.409 1.569l-.409.431c-.692.025-1.025-.309-1-1-.685-1-.685-2 0-3 .151-.758-.496-1.914 1-2 .333.325.56.714.697 1.157.072.73-.16 1.344-.697 1.843z"/><path fill="#959A9E" d="M76.596 238.582v-1l.315-.446c.564-.454 1.196-.815 1.755-1.28.279-.246.592-.434.93-.583.383-.057.716.048 1 .31.679 1 .679 2 0 3l-4-.001z"/><path fill="#77787B" d="M203.596 231.582v-1c.941 0 1.883.003 2.824-.001.683-.003 1.237.134 1.176 1.001.35.223.467.444.351.666-.116.223-.232.334-.351.334-.605-.125-1.357.334-1.814-.334-.574-.838-1.392-.666-2.186-.666z"/><path fill="#C0BCB9" d="M46.596 97.582h-3c-.304-.222-.406-.444-.304-.667.101-.222.202-.333.304-.333 1.006-1.37 1.994-1.37 3 0 .304.222.406.444.304.667-.101.222-.202.333-.304.333z"/><path fill="#806CB3" d="M89.596 272.582h1v4.791c0 .681-.099 1.275-1 1.209v-6z"/><path fill="#9D938C" d="M203.596 36.582h-3.805c-.682.001-1.26-.113-1.195-1l.4-.453c.349-.207.723-.352 1.113-.456.785-.186 1.567-.382 2.361-.54.418-.039.818.024 1.203.191.25.341.383.722.385 1.146-.026.424-.173.797-.462 1.112z"/><path fill="#A7DFF9" d="M63.596 218.582v4.791c0 .681-.099 1.275-1 1.209-.946-1.845-.362-3.791-.38-5.698l.596-.582.784.28z"/><path fill="#C0857F" d="M62.596 218.582v6h-1v-6c.333-.348.666-.348 1 0z"/><path fill="#7A9DD8" d="M203.596 35.582v-1c-1.087-1.063-.865-2.333-.57-3.614.014-.535.203-.997.57-1.386.902-.067 1.001.528 1 1.209v4.791c-.334.31-.666.31-1 0z"/><path fill="#8E8E93" d="M42.596 103.582v-1l.395-.446c.349-.197.723-.326 1.115-.408.789-.122 1.583-.135 2.381-.102.401.02.792.099 1.174.221.349.197.662.441.936.735.067.902-.528 1.001-1.209 1h-4.792z"/><path fill="#999EA1" d="M83.596 102.582v1h-3.805c-.682.001-1.26-.113-1.195-1-.304-.222-.406-.444-.304-.667.101-.222.202-.333.304-.333 1.18.948 2.553 1.121 4 1 .333-.481.666-.481 1 0z"/><path fill="#968B89" d="M70.596 102.582c-1.631 1.438-3.369 1.438-5 0l.411-.461c.36-.208.743-.362 1.146-.466 1.212-.161 2.406-.788 3.655-.172.197.418.126.784-.212 1.099z"/><path fill="#999EA1" d="M59.596 206.582v1c-1.268 0-2.537-.002-3.805 0-.682.002-1.26-.113-1.195-1-.304-.223-.406-.444-.304-.666.101-.223.202-.334.304-.334 1.18.947 2.553 1.121 4 1 .333-.485.666-.485 1 0z"/><path fill="#979CA4" d="M29.596 102.582c.065.887-.514 1.002-1.195 1-1.268-.002-2.537 0-3.805 0-.321-.326-.484-.714-.462-1.175l.11-.652.476-.459c1.338-.242 2.599.139 3.865.485.39.198.727.467 1.011.801z"/><path fill="#8690A1" d="M16.596 101.582c1.18.948 2.553 1.121 4 1 .333-.352.667-.352 1 0-1.631 1.438-3.369 1.438-5 0-.254-.222-.339-.444-.254-.667.084-.222.168-.333.254-.333z"/><path fill="#918BA3" d="M54.596 220.582v3c-.692.025-1.025-.309-1-1-.685-1-.685-2 0-3 .151-.758-.496-1.914 1-2 .333.325.56.714.697 1.157.072.73-.16 1.344-.697 1.843zM69.596 220.582v1c.542.418.61.958.409 1.569l-.409.431c-.692.025-1.025-.309-1-1-.685-1-.685-2 0-3 .151-.758-.496-1.914 1-2 .328.328.564.711.697 1.157.072.73-.16 1.344-.697 1.843z"/><path fill="#7DA2DC" d="M59.596 241.582v-5h1v3.805c.002.681-.113 1.259-1 1.195z"/><path fill="#98D4F6" d="M71.596 241.582v-5c.333-.466.667-.466 1 0v3.805c.002.681-.113 1.259-1 1.195z"/><path fill="#DBA881" d="M75.596 237.582v3c-.887.064-1.002-.514-1-1.195.002-1.268 0-2.537 0-3.805h1l.408.432c.202.61.134 1.151-.408 1.568z"/><path fill="#7AA9E1" d="M67.596 240.582v-5c.333-.273.667-.273 1 0v5c-.334.393-.667.393-1 0z"/><path fill="#9180BD" d="M106.596 330.582v-3.805c-.001-.682.113-1.26 1-1.195v3.805c.002.681-.113 1.259-1 1.195z"/><path fill="#7C93AD" d="M76.596 234.582c.373-.206.76-.389 1.115-.623.904-.595 1.641-.749 1.885.623.254.223.339.444.255.666-.085.223-.169.334-.255.334-.584.682-1.332.859-2.188.72-.402-.11-.745-.321-1.038-.616-.15-.415-.074-.782.226-1.104z"/><path fill="#77758E" d="M47.596 235.582h-3c-.042-.979.806-1.405 1.389-1.801.655-.445 1.551-.426 1.611.801.351.223.467.444.351.666-.117.223-.233.334-.351.334z"/><path fill="#9686C0" d="M172.596 234.582c-.887.064-1.002-.514-1-1.195.002-1.268 0-2.537 0-3.805.887-.064 1.002.514 1 1.195-.002 1.268 0 2.537 0 3.805z"/><path fill="#AD937E" d="M50.596 200.582v1h-3c-.351-.223-.467-.444-.351-.666.116-.223.232-.334.351-.334.245-1.372.981-1.218 1.885-.623.354.234.742.417 1.115.623z"/><path fill="#7C8DA8" d="M63.596 200.582c.373-.206.76-.389 1.115-.623.904-.595 1.641-.749 1.885.623.318.426.334.851.001 1.277-.912.586-1.827.572-2.746.018-.256-.247-.379-.521-.37-.823.011-.315.049-.472.115-.472z"/><path fill="#7A9AD7" d="M49.596 224.582v-5c.333-.47.667-.47 1 0v3.805c.002.681-.113 1.259-1 1.195z"/><path fill="#288FB7" d="M135.596 211.582v-3.019c1.458.212.541 2.331 2 2.019.322.28.515.631.581 1.055l-.104.619-.349.525c-.42.184-.794.105-1.128-.199.025-.691-.308-1.025-1-1z"/><path fill="#849FD3" d="M40.596 206.582v-1c-.97-1.033-1.123-2.189-.526-3.461l.526-.539c1.437 1.631 1.437 3.369 0 5z"/><path fill="#CEF3FE" d="M52.596 206.582c-.887.064-1.002-.514-1-1.195.002-1.268 0-2.537 0-3.805.692-.025 1.025.309 1 1 .847 1 .847 2 0 3v1z"/><path fill="#EBC293" d="M62.596 206.582c-1.438-1.631-1.438-3.369 0-5l.495.488c.612 1.082.617 2.219.305 3.385-.204.42-.474.793-.8 1.127z"/><path fill="#8F8B8F" d="M58.596 102.582h3l.5-.413.5.413c-1.631 1.438-3.369 1.438-5 0l.5-.384.5.384z"/><path fill="#7894AD" d="M66.596 96.582c.373-.206.76-.389 1.115-.623.904-.595 1.641-.75 1.885.623.271.269.37.546.295.83-.076.287-.157.431-.241.432-.919.596-1.848.593-2.784.042-.261-.247-.388-.523-.381-.827.007-.318.044-.477.111-.477z"/><path fill="#748BA7" d="M61.596 97.582h-3l-.378-.5.378-.5c.373-.206.76-.389 1.115-.623.904-.595 1.641-.75 1.885.623l.413.5-.413.5z"/><path fill="#92CFF5" d="M48.596 102.582h-1c-.328-.326-.585-.701-.786-1.118-.39-1.17-.05-2.265.351-3.354l.436-.529c.887-.065 1.002.514 1 1.195-.003 1.269-.001 2.538-.001 3.806z"/><path fill="#DCA87D" d="M57.596 102.582c-1.438-1.631-1.438-3.369 0-5 .863 1.118.34 2.418.479 3.632.051.531-.109.986-.479 1.368z"/><path fill="#C99377" d="M65.596 102.582c-1.438-1.631-1.438-3.369 0-5l.495.489c.612 1.082.617 2.218.305 3.384-.206.418-.472.795-.8 1.127z"/><path fill="#7A9AD7" d="M194.596 36.582v-5c.334-.47.666-.47 1 0 0 1.268-.002 2.537 0 3.805.002.681-.114 1.26-1 1.195z"/><path fill="#D5BD95" d="M203.596 30.582v4h-1c-.336-.216-.597-.501-.788-.852-.161-.365-.226-.75-.212-1.148l1-2 .5-.424.5.424z"/><path fill="#7882B6" d="M70.596 102.582v-1c-1.022-1.021-1.104-2.174-.48-3.425l.48-.575c1.437 1.631 1.437 3.369 0 5z"/><path fill="#849FD3" d="M191.596 35.582v-1c-.971-1.033-1.123-2.189-.526-3.461l.526-.539c1.437 1.631 1.437 3.369 0 5z"/><path fill="#8C7ABB" d="M118.596 18.582c-.692.025-1.025-.308-1-1 1.274.489 1.937-.856 3-1 .532.458 1.387.685 1.196 1.664-.943 1.275-2.014 1.338-3.196.336z"/><path fill="#98D4F6" d="M73.596 103.582v-5c.333-.466.667-.466 1 0v3.805c.002.681-.113 1.26-1 1.195z"/><path fill="#8D7CBB" d="M110.596 21.582c.692-.025 1.025.308 1 1-.389.888-.914 1.505-2 1-.692.025-1.025-.308-1-1 .085-1.496 1.242-.849 2-1z"/><path fill="#7C67B1" d="M97.596 132.582v2c.836 1 .864 2 0 3-1.496-.085-.849-1.242-1-2v-3c.333-.451.666-.451 1 0z"/><path fill="#7989A6" d="M199.596 29.582c.373-.206.76-.389 1.115-.623.903-.595 1.641-.75 1.885.623.285.222.381.444.285.667-.094.222-.189.333-.285.333h-3c-.254-.222-.34-.444-.255-.667s.169-.333.255-.333z"/><path fill="#907D81" d="M58.596 217.582v1c-.496.549-1.113.654-1.805.492-.656-.291-1.076-.771-1.195-1.492.245-1.372.981-1.218 1.885-.623.354.234.742.417 1.115.623z"/><path fill="#7295C0" d="M68.596 235.582h-1c-.695-1-.671-2 0-3 1.901.006.197 2.48 2.725 2.319l-1.725.681z"/><path fill="#9A9B9D" d="M138.596 215.582c-1.496-.086-.85-1.242-1-2-.254-.223-.339-.444-.255-.666.085-.223.169-.334.255-.334 2.199-.172 2.249 1.322 2.229 2.871-.371.408-.783.435-1.229.129z"/><path fill="#907D81" d="M56.596 234.582v1c-.496.549-1.113.654-1.805.492-.656-.291-1.076-.771-1.195-1.492.245-1.372.981-1.218 1.885-.623.354.234.742.417 1.115.623z"/><path fill="#707580" d="M104.596 202.582h-4c-.256-.223-.342-.444-.256-.666.085-.223.17-.334.256-.334h3c.334-.375.716-.451 1.153-.186.247.434.196.83-.153 1.186z"/><path fill="#95C9F1" d="M30.596 97.582v4h-1l-.471-.444c-.527-1.037-.528-2.076-.005-3.115l.476-.441h1z"/><path fill="#8699CD" d="M24.596 102.582v1c-.381.984.927 2.531-1 3v-4c.333-.451.666-.451 1 0z"/><path fill="#A096BA" d="M169.596 216.582v-3c1.09.243 1.757.91 2 2-.691-.025-1.025.309-1 1h-1z"/><path fill="#A3A4A6" d="M93.596 103.582c1.09.243 1.757.91 2 2 .286.222.38.444.286.667s-.19.333-.286.333c-1.09-.243-1.757-.91-2-2-.286-.222-.38-.444-.286-.667s.19-.333.286-.333z"/><path fill="#919294" d="M92.596 203.582c-1.025-.148-1.885.125-2.511.988-.585-.479-.615-1.049-.318-1.68.905-.58 1.895-.193 2.829-.309.328.223.437.444.328.666-.109.224-.218.335-.328.335z"/><path fill="#7083BD" d="M57.596 101.582v-4c.333-.31.667-.31 1 0v4c-.334.356-.667.356-1 0z"/><path fill="#9A7672" d="M62.596 218.582h-1v-2c.333-.485.667-.485 1 0 1.496.086.849 1.242 1 2h-1z"/><path fill="#907D81" d="M73.596 217.582v1c-.497.549-1.113.654-1.805.492-.656-.291-1.076-.771-1.195-1.492.245-1.372.981-1.218 1.885-.623.354.234.742.417 1.115.623z"/><path fill="#929395" d="M147.596 231.582c-1.09-.243-1.757-.91-2-2 .354-.34.778-.516 1.271-.527 1.307.367 2.135 1.091 1.929 2.586-.42.367-.82.347-1.2-.059z"/><path fill="#D1B7A6" d="M46.596 206.582v1c-1.353-1.266-1.353-2.734 0-4 .328.328.565.711.701 1.156.071.731-.165 1.345-.701 1.844z"/><path fill="#737477" d="M175.596 227.582c.025.691-.309 1.025-1 1l-2-1c-.256-.223-.342-.444-.256-.666.084-.223.17-.334.256-.334h1l2 1z"/><path fill="#818284" d="M193.596 226.582c.025.691-.309 1.025-1 1-.758-.15-1.914.496-2-1-.351-.223-.467-.444-.351-.666.116-.223.232-.334.351-.334 1.062.145 1.725 1.489 3 1z"/><path fill="#87888B" d="M189.596 226.582c-.758-1.03-2.688-.303-3-2 .984.381 2.531-.927 3 1 .285.223.381.444.285.666-.094.223-.19.334-.285.334z"/><path fill="#86848B" d="M73.596 223.582c-1.265 1.354-2.735 1.354-4 0 1.034-.965 2.192-1.11 3.462-.527l.538.527zM54.596 223.582h4c-1.265 1.354-2.735 1.354-4 0z"/><path fill="#A9AAAB" d="M143.596 225.582c-1.698-.312-.97-2.242-2-3 .358-.344.784-.497 1.28-.461 1.083.357 1.431 1.178 1.408 2.232-.103.48-.327.893-.688 1.229z"/><path fill="#86848B" d="M75.596 206.582c-1.265 1.354-2.735 1.354-4 0 1.034-.965 2.192-1.11 3.462-.527l.538.527z"/><path fill="#8D9199" d="M20.596 100.582c-.984-.381-2.531.927-3-1l-.454-.5.454-.5c.757 1.03 2.687.302 3 2z"/><path fill="#907D81" d="M75.596 200.582v1c-.497.549-1.113.654-1.805.492-.656-.291-1.076-.771-1.195-1.492.245-1.372.981-1.218 1.885-.623.354.234.742.417 1.115.623z"/><path fill="#827F86" d="M48.596 240.582c-1.265 1.354-2.735 1.354-4 0h4z"/><path fill="#B29D87" d="M36.596 201.582v-1c.806.125.991-.68 1.5-.985.509.306.694 1.11 1.5.985.208.502.104.939-.271 1.322-.986.537-1.905.507-2.729-.322z"/><path fill="#86848B" d="M56.596 240.582c-1.265 1.354-2.735 1.354-4 0 1.034-.965 2.192-1.11 3.462-.527l.538.527z"/><path fill="#7767AB" d="M104.596 201.582h-1v-4c1.927.469.619 2.016 1 3 .253.223.337.444.253.666-.084.223-.169.334-.253.334z"/><path fill="#806CB3" d="M98.596 245.582c.692-.025 1.025.309 1 1l-1 2c-.692.025-1.025-.309-1-1l1-2z"/><path fill="#9F9A9A" d="M201.596 32.582c.691-.025 1.025.308 1 1-.617.716-1.421.936-2.33.88-.437-.053-.848-.183-1.234-.394l-.436-.487c.468-1.926 2.015-.618 3-.999z"/><path fill="#816DB4" d="M164.596 272.582c.692-.025 1.025.309 1 1l-1 2h-1c-.49-1.274.856-1.937 1-3zM163.596 275.582c0 .941-.003 1.883.001 2.824.003.683-.134 1.237-1.001 1.176 0-.941.003-1.883-.001-2.824-.003-.683.134-1.237 1.001-1.176z"/><path fill="#B29D87" d="M187.596 30.582v-1c.806.125.991-.68 1.5-.985.509.306.694 1.111 1.5.985.193.499.118.942-.271 1.322-.986.537-1.905.507-2.729-.322z"/><path fill="#7F6AB2" d="M138.596 17.582c-.025-.692.308-1.025 1-1h3c-.085 1.496-1.242.849-2 1-.667.621-1.334.523-2 0z"/><path fill="#7B66B0" d="M121.596 17.582c-.692.025-1.025-.308-1-1h3c.692-.025 1.025.308 1 1-1 .864-2 .836-3 0z"/><path fill="#A3A4A6" d="M102.596 111.582c-1.09-.243-1.757-.91-2-2-.286-.222-.38-.444-.286-.667s.19-.333.286-.333c1.09.243 1.757.91 2 2 .286.222.38.444.286.667s-.191.333-.286.333z"/><path fill="#7A718C" d="M16.596 98.582l-.863-.337c.377-.839.905-1.485 1.863-1.663 1.044-.377 1.25.083 1 1-.692-.025-1.025.308-1 1-.334.392-.667.392-1 0z"/><path fill="#868398" d="M23.596 98.582v-2h3c.209.222.309.463.297.724-.011.271-.044.406-.097.407-.558.669-1.297 1.042-2.113 1.289-.434.05-.801-.083-1.087-.42z"/><path fill="#6D6E71" d="M230.596 237.582c-.025-.691.309-1.025 1-1h3c-.086 1.496-1.242.85-2 1h-2z"/><path fill="#927A73" d="M18.596 97.582c.025-.692-.308-1.025-1-1 .245-1.372.981-1.218 1.885-.623.354.234.742.417 1.115.623.254.222.339.444.254.667-.084.222-.169.333-.254.333h-2z"/><path fill="#7A7D95" d="M195.596 31.582h-1v-2h2c.254.222.34.444.255.667s-.169.333-.255.333c-.692-.025-1.026.308-1 1z"/><path fill="#FAE1AE" d="M77.596 101.582c-1.37-1.006-1.37-1.994 0-3l.418.511c.075.659.076 1.318.001 1.978l-.419.511z"/><path fill="#AEAEB0" d="M177.596 219.582c-.758-.15-1.914.496-2-1-.285-.223-.381-.444-.285-.666.094-.223.189-.334.285-.334 1.09.243 1.757.91 2 2z"/><path fill="#8B8C8E" d="M140.596 219.582c-1.496-.086-.85-1.242-1-2l.688-.188c.999.343 1.622.955 1.507 2.098-.371.379-.77.41-1.195.09z"/><path fill="#7C91A6" d="M74.596 98.582h-1v-2h1c1.032-.365 1.291.042 1 1-.692-.025-1.026.308-1 1zM72.596 236.582h-1v-2h1c1.029-.362 1.293.04 1 1-.692-.025-1.026.309-1 1z"/><path fill="#7A7D95" d="M50.596 219.582h-1v-2h2c.254.223.339.444.254.666-.084.223-.169.334-.254.334-.692-.025-1.026.309-1 1z"/><path fill="#7A65B0" d="M154.596 24.582c-.025-.692.308-1.025 1-1 .692-.025 1.025.308 1 1-.386.281-.684.65-1 1-.894.228-1.242-.092-1-1z"/><path fill="#D6EEF8" d="M58.596 235.582v3c-.333.348-.667.348-1 0v-3h1z"/><path fill="#EEC48D" d="M83.596 93.582v3c-.333.381-.667.381-1 0v-1c.151-.758-.496-1.915 1-2z"/><path fill="#CBA87B" d="M67.596 232.582v3h-1c.381-.984-.927-2.531 1-3z"/><path fill="#9F887C" d="M26.596 97.582v-1c-.073-.479.138-.773.583-.903.471.312.676 1.023 1.417.903.262.432.207.831-.122 1.204-.671.347-1.302.324-1.878-.204z"/><path fill="#F3CD8E" d="M51.596 236.582v3c-1.37-1.006-1.37-1.994 0-3z"/><path fill="#757679" d="M145.596 228.582c-1.496-.086-.85-1.242-1-2 .389-.268.807-.324 1.256-.174.777.596 1.258 1.306.905 2.339-.435.276-.821.222-1.161-.165z"/><path fill="#6D87C8" d="M44.596 236.582v3c-.333.31-.667.31-1 0-.679-1-.679-2 0-3 .333-.31.666-.31 1 0z"/><path fill="#F4CE8D" d="M43.596 236.582v3c-1.37-1.006-1.37-1.994 0-3z"/><path fill="#98999B" d="M145.596 226.582h-1c-.692.025-1.025-.309-1-1v-1c1.648-.314 2.241.426 2 2z"/><path fill="#879CCC" d="M80.596 238.582v-3c1.37 1.006 1.37 1.994 0 3z"/><path fill="#B2C6E7" d="M73.596 235.582c.025-.691-.308-1.025-1-1 .07-1.264.868-1.053 1.644-.859.649.551.236 1.252.356 1.859h-1zM75.596 97.582c.025-.692-.308-1.025-1-1 .266-1.413 1.186-1.348 1.857-.538.437.528.317 1.511-.857 1.538z"/><path fill="#A4A4A6" d="M182.596 221.582c1.09.243 1.757.91 2 2-.758-.15-1.914.496-2-1-.35-.223-.467-.444-.351-.666.116-.223.233-.334.351-.334z"/><path fill="#88898B" d="M179.596 221.582c-1.09-.243-1.757-.91-2-2 .758.15 1.914-.496 2 1 .285.223.381.444.285.666-.094.223-.19.334-.285.334z"/><path fill="#818284" d="M140.596 219.582h1c.976.397 1.464 1.061 1.169 2.15-.433.289-.823.238-1.169-.15-1.496-.086-.85-1.242-1-2z"/><path fill="#B09282" d="M78.596 219.582h1v1c-.398.389-.525.998-1.045 1.29-.394.065-.746-.025-1.059-.272-.235-.316-.373-.67-.404-1.064.061-.391.219-.736.486-1.031.36-.235.7-.197 1.022.077z"/><path fill="#F3CD8E" d="M68.596 219.582v3c-1.37-1.006-1.37-1.994 0-3zM53.596 219.582v3c-1.37-1.006-1.37-1.994 0-3z"/><path fill="#D6EEF8" d="M74.596 221.582v-3h1l.451.458c.173.398.252.815.244 1.25-.237.859-.498 1.691-1.695 1.292z"/><path fill="#887C8A" d="M66.596 201.582v-1h1c.333-.48.667-.48 1 0v2c-.253.336-.58.466-.995.359-.552-.293-.907-.731-1.005-1.359z"/><path fill="#C38E87" d="M68.596 200.582h-1c.122-.94-.288-1.941.457-3.039.868.971.415 2.074.543 3.039z"/><path fill="#EEC48D" d="M59.596 197.582v3c-.333.384-.667.384-1 0v-1c.151-.758-.496-1.914 1-2z"/><path fill="#D6EEF8" d="M77.596 201.582v3c-.333.345-.667.345-1 0v-3h1z"/><path fill="#FAE1AE" d="M52.596 205.582v-3h1l.418.512c.075.658.076 1.318.001 1.978l-.419.511-1-.001z"/><path fill="#B28485" d="M67.596 202.582h1v3c-.333.307-.667.307-1 0-.836-1-.864-2 0-3z"/><path fill="#F3CD8E" d="M70.596 202.582v3c-1.37-1.006-1.37-1.994 0-3z"/><path fill="#78797C" d="M92.596 203.582v-1h3v1h-3z"/><path fill="#A3A3A5" d="M91.596 103.582c-.375-.208-.784-.374-1.115-.637-.32-.254-.56-.609-.857-.945.952-.586 1.723-.822 1.972.582.286.222.38.444.286.667s-.191.333-.286.333z"/><path fill="#8A888E" d="M46.596 204.582v-1h2v1c-.667.522-1.334.596-2 0z"/><path fill="#8C8D8F" d="M184.596 223.582c.758.15 1.914-.496 2 1-.758-.15-1.914.496-2-1z"/><path fill="#9B8092" d="M80.596 222.582c1.39.238 1.161 1.009.642 1.886-.53-.087-.705-.403-.642-.886l-.413-.5.413-.5z"/><path fill="#847E90" d="M78.596 96.582c.607.12 1.309-.293 1.862.36-.286 1.164-1.249.427-1.862.64v-1z"/><path fill="#7D719C" d="M48.596 234.582c1.39.238 1.161 1.009.642 1.886-.53-.087-.705-.403-.642-.886-.286-.223-.38-.444-.286-.666.095-.223.19-.334.286-.334z"/><path fill="#737476" d="M207.596 232.582v-1h2v1h-2z"/><path fill="#797A7D" d="M196.596 229.582c-.025-.691.309-1.025 1-1h1v1h-2z"/><path fill="#7C7E96" d="M53.596 234.582c.692-.025 1.025.309 1 1-.667.521-1.333.596-2 0v-1h1z"/><path fill="#8BA6D7" d="M20.596 97.582v-1c1.39.239 1.161 1.009.642 1.886-.53-.088-.705-.404-.642-.886z"/><path fill="#7C7E96" d="M72.596 200.582c.692-.025 1.025.309 1 1-.667.521-1.333.596-2 0v-1h1z"/><path fill="#9A8095" d="M77.596 222.582c-.151.758.496 1.914-1 2-.288-.306-.46-.668-.532-1.081l.062-.614.361-.502.599-.152.51.349z"/><path fill="#9180BE" d="M97.596 164.582v2c-1.496-.085-.849-1.242-1-2h1z"/><path fill="#9483BF" d="M102.596 309.582c1.496.086.849 1.242 1 2-1.496-.086-.849-1.242-1-2z"/><path fill="#ACB4C9" d="M196.596 30.582v-1c-.062-.481.109-.8.643-.884.518.875.746 1.645-.643 1.884z"/><path fill="#9787C1" d="M97.596 132.582h-1c.151-.758-.496-1.915 1-2v2z"/><path fill="#9D809C" d="M199.596 29.582v1c.062.481-.109.8-.643.884-.518-.875-.747-1.645.643-1.884z"/><path fill="#F4D092" d="M198.596 35.582c-.938.072-1.056-.571-.98-1.242.056-.5.371-.872.98-.758.586.667.586 1.334 0 2z"/><path fill="#FEFEFE" d="M165.596 39.582c-1.496-.085-.85-1.242-1-2 1.496.085.849 1.242 1 2z"/><path fill="#7A65AF" d="M159.596 125.582c-.025-.692.308-1.025 1-1v1c.025.692-.308 1.025-1 1-.224-.222-.298-.444-.224-.667.075-.222.149-.333.224-.333z"/><path fill="#767289" d="M67.596 240.582h1l.871.348c-.301 1.166-1.254.445-1.871.652v-1z"/><path fill="#7679AD" d="M49.183 238.645c.632.703.667 1.688-.14 1.851-1.021.207-.15-.887-.418-1.327-.027-.046.354-.337.558-.524z"/><path fill="#D49D82" d="M46.596 201.582c.062.481-.109.8-.643.885-.518-.876-.747-1.646.643-1.885.286.223.38.444.286.666-.095.223-.191.334-.286.334z"/><path fill="#847E90" d="M54.596 200.582c.607.12 1.309-.293 1.862.359-.286 1.164-1.249.428-1.862.641v-1z"/><path fill="#7C7E96" d="M70.596 217.582c.692-.025 1.025.309 1 1-.667.521-1.333.596-2 0v-1h1zM55.596 217.582c.692-.025 1.025.309 1 1-.667.521-1.333.596-2 0v-1h1z"/><path fill="#826D90" d="M21.596 102.582h-1v-2h1c.595.667.595 1.334 0 2z"/><path fill="#848DB9" d="M77.596 221.582h1c.333-.35.667-.35 1 0 .254.223.339.444.255.666-.085.223-.169.334-.255.334h-2l-.381-.5.381-.5z"/><path fill="#A5A5A7" d="M174.596 217.582c-.758-.15-1.914.496-2-1 .758.15 1.914-.496 2 1z"/><path fill="#C9F2FE" d="M21.596 102.582v-2h1v2h-1z"/><path fill="#828385" d="M182.596 221.582v1c-.758-.15-1.914.496-2-1h2z"/><path fill="#77A8E0" d="M62.596 101.582c-.062-.481.109-.8.643-.884.518.875.747 1.646-.643 1.884-.254-.222-.339-.444-.254-.667.084-.222.168-.333.254-.333z"/><path fill="#D0977C" d="M62.596 216.582h-1v-1c-.025-.691.308-1.025 1-1 .226.223.3.444.226.666-.075.223-.15.334-.226.334v1z"/><path fill="#919194" d="M138.596 215.582h1c.523.666.62 1.334 0 2-1.496-.086-.85-1.242-1-2z"/><path fill="#ACB4C9" d="M51.596 218.582v-1c-.062-.481.109-.8.643-.885.518.876.746 1.647-.643 1.885z"/><path fill="#7D8BBB" d="M80.6 218.578c-.085-.48.135-.783.592-.887.078-.018.312.217.294.295-.103.456-.406.677-.886.592z"/><path fill="#FEFEFE" d="M164.596 36.582c-.692.025-1.025-.308-1-1 .692-.025 1.025.308 1 1z"/><path fill="#7F748B" d="M203.596 35.582h1c.025.692-.309 1.025-1 1v-1z"/><path fill="#8D7E9C" d="M29.596 102.582h-1c-.251-.226-.355-.469-.312-.729.045-.27.104-.405.176-.405.415-.262.794-.217 1.136.135v.999z"/><path fill="#7088A1" d="M62.596 215.582v-1c.486-.035.929.063.793.662-.037.164-.517.229-.793.338z"/><path fill="#8B8C8E" d="M175.596 217.582v1c-.691.025-1.025-.309-1-1h1z"/><path fill="#7DAAE1" d="M80.596 239.582c.486-.035.929.063.793.662-.037.164-.517.229-.793.338-.224-.223-.298-.444-.224-.666.074-.223.149-.334.224-.334z"/><path fill="#D7A67E" d="M80.596 239.582v1h-1c-.026-.691.308-1.025 1-1z"/><path fill="#D6EEF8" d="M58.596 239.582v1h-1c-.252-.229-.361-.477-.326-.744.037-.279.09-.419.161-.42.433-.255.82-.199 1.165.164z"/><path fill="#7D7FAF" d="M57.596 239.582v1h-1c-.259-.925.041-1.292 1-1z"/><path fill="#987078" d="M43.596 239.582h1v1c-.692.025-1.026-.309-1-1z"/><path fill="#916C82" d="M31.601 94.082c.328-.466.661-.466.989 0-.328.466-.661.466-.989 0z"/><path fill="#798AB6" d="M39.596 201.582v-1c.692-.025 1.025.309 1 1l-.5.377-.5-.377z"/><path fill="#6B7FC5" d="M206.596 26.582c.486-.036.929.063.793.663-.037.164-.517.228-.793.337-.193-.222-.259-.444-.193-.667.064-.222.128-.333.193-.333z"/><path fill="#F5D18F" d="M206.596 26.582v1c-.486.036-.929-.063-.793-.663.037-.164.516-.227.793-.337z"/><path fill="#FEFEFE" d="M161.596 30.582c-.692.025-1.025-.308-1-1 .692-.025 1.025.308 1 1z"/><path fill="#798AB6" d="M190.596 30.582v-1c.691-.025 1.025.308 1 1l-.5.376-.5-.376z"/><path fill="#919194" d="M172.596 216.582c-.691.025-1.025-.309-1-1 .691-.025 1.025.309 1 1z"/><path fill="#FEFEFE" d="M137.596 212.582v1c-.692.025-1.025-.309-1-1h1z"/><path fill="#D89E72" d="M16.596 101.582v1c-.692.025-1.025-.308-1-1h1z"/><path fill="#937C7F" d="M202.596 30.582v-1h1v1h-1z"/><path fill="#9A817E" d="M214.596 29.582v1h-1v-1h1z"/><path fill="#FEFEFE" d="M100.596 30.582v1h-1c-.026-.692.308-1.025 1-1zM162.596 32.582c-.692.025-1.025-.308-1-1 .692-.025 1.025.308 1 1zM99.596 32.582c.025.692-.308 1.025-1 1-.026-.692.308-1.025 1-1z"/><path fill="#EDC898" d="M75.596 218.582c-.025-.691.308-1.025 1-1 .268.335.256.672.005 1.01-.337.262-.673.258-1.005-.01z"/><path fill="#7F8FC0" d="M76.596 218.582v-1c.692-.025 1.025.309 1 1l-.269.35-.441-.018-.29-.332z"/><path fill="#949597" d="M100.596 201.582v1h-1v-1h1z"/><path fill="#6F74A5" d="M57.596 101.582h1v1h-1v-1z"/><path fill="#F5D49C" d="M42.596 98.582c-.692.025-1.025-.308-1-1h1l.378.5-.378.5z"/><path fill="#6C76A0" d="M79.596 221.582h-1c-.025-.691.308-1.025 1-1v1z"/><path fill="#828385" d="M179.596 221.582v-1c.691-.025 1.025.309 1 1h-1z"/><path fill="#6C6D70" d="M147.596 231.582h1c.222.223.295.444.222.666-.074.223-.147.334-.222.334h-1v-1z"/><path fill="#819CCE" d="M79.596 222.582v-1c.692-.025 1.025.309 1 1-.334.307-.667.307-1 0z"/><path fill="#E4B37C" d="M62.596 98.582c-.692.025-1.025-.308-1-1 .333-.31.667-.31 1 0 .194.222.258.444.194.667s-.129.333-.194.333z"/><path fill="#7D7E80" d="M141.596 221.582h1c.222.223.295.444.222.666-.074.223-.147.334-.222.334h-1v-1z"/><path fill="#6E6F72" d="M145.596 228.582h1c.222.223.295.444.222.666-.074.223-.147.334-.222.334h-1v-1z"/><path fill="#6F98D7" d="M62.596 98.582v-1c.486-.036.929.063.793.663-.037.164-.517.227-.793.337z"/><path fill="#9686C0" d="M172.596 226.582v1h-1v-1h1z"/><path fill="#D6A277" d="M62.596 101.582v1h-1c-.026-.692.308-1.025 1-1z"/><path fill="#747578" d="M189.596 226.582v-1h1v1h-1z"/><path fill="#7D7FAF" d="M58.596 223.582c-.036-.486.063-.929.663-.793.164.037.228.517.337.793h-1z"/><path fill="#B4867F" d="M78.596 101.582v1c-.692.025-1.025-.308-1-1 .333-.451.666-.451 1 0z"/><path fill="#7D7FAF" d="M74.596 223.582h-1c-.335-.93.118-1.23.969-1.213.233.264.316.531.247.803-.069.273-.141.41-.216.41z"/><path fill="#BD9181" d="M76.596 223.582v1c-.692.025-1.025-.309-1-1l.5-.375.5.375z"/><path fill="#B4867F" d="M54.596 205.582v1c-.692.025-1.025-.309-1-1 .333-.454.666-.454 1 0z"/><path fill="#D6EEF8" d="M74.596 223.582v-1c.353-.336.741-.369 1.163-.14.247.423.208.806-.163 1.14h-1z"/><path fill="#C59781" d="M79.596 222.582h1v1c-.692.025-1.026-.309-1-1z"/><path fill="#867B8E" d="M46.596 201.582v-1h1v1h-1z"/><path fill="#D2A685" d="M63.596 200.582v1l-.5.375-.5-.375c-.026-.691.308-1.025 1-1z"/><path fill="#8CB8E7" d="M78.596 219.582h-1l-.375-.5.375-.5c.692-.025 1.025.309 1 1z"/><path fill="#737279" d="M102.596 111.582v-1h1v1h-1z"/><path fill="#927F98" d="M80.596 218.582c.025.691-.308 1.025-1 1-.026-.691.308-1.025 1-1z"/><path fill="#78797C" d="M100.596 108.582v1h-1v-1h1z"/><path fill="#6C6C8B" d="M16.596 98.582h1v1h-1v-1z"/><path fill="#A88087" d="M78.596 97.582v1c-.333.451-.667.451-1 0-.026-.692.308-1.025 1-1z"/><path fill="#83A8D7" d="M28.596 97.582v-1c.692-.025 1.025.308 1 1l-.5.376-.5-.376z"/><path fill="#9A817E" d="M39.596 96.582v1h-1v-1h1z"/><path fill="#AF867D" d="M43.596 96.582v1c-.333.31-.667.31-1 0-.026-.692.308-1.025 1-1z"/><path fill="#78797B" d="M95.596 106.582v-1h1v1h-1z"/><path fill="#7B7C7F" d="M91.596 103.582v-1c.692-.025 1.025.308 1 1h-1z"/><path fill="#776E83" d="M67.596 205.582h1v1c-.692.025-1.026-.309-1-1z"/><path fill="#897170" d="M48.596 234.582v1h-1v-1h1z"/><path fill="#7D7FAF" d="M76.596 206.582h-1c-.314-.969.143-1.266 1.034-1.185.27.272.354.538.254.798-.099.258-.195.387-.288.387z"/><path fill="#7B7C7F" d="M93.596 103.582v1c-.692.025-1.025-.308-1-1h1z"/><path fill="#D6EEF8" d="M76.596 206.582v-1c.333-.393.667-.393 1 0v1h-1z"/><path fill="#727498" d="M69.596 97.582v-1c.692-.025 1.025.308 1 1-.334.345-.667.345-1 0z"/><path fill="#A97E6F" d="M66.596 96.582v1l-.5.375-.5-.375c-.026-.692.308-1.025 1-1z"/><path fill="#807A98" d="M64.596 235.582h-1v-1c.692-.025 1.025.309 1 1z"/><path fill="#706C8B" d="M62.596 97.582h-1v-1c.692-.025 1.025.308 1 1z"/><path fill="#A88087" d="M54.596 201.582v1c-.333.454-.667.454-1 0-.026-.691.308-1.025 1-1z"/><path fill="#C4997E" d="M76.596 234.582v1c-.333.345-.667.345-1 0-.026-.691.308-1.025 1-1z"/><path fill="#7C7EA3" d="M79.596 235.582v-1c.692-.025 1.025.309 1 1h-1z"/><path fill="#C49679" d="M58.596 97.582h-1c-.025-.692.308-1.025 1-1v1z"/><path fill="#917186" d="M44.596 236.582h-1c-.025-.691.308-1.025 1-1v1z"/><path fill="#7B7BA1" d="M46.596 97.582v-1c.692-.025 1.025.308 1 1-.334.47-.667.47-1 0z"/><path fill="#FEFEFE" d="M159.596 125.582v1c2.639 5.108 4.646 10.409 5.015 16.223.032.511.363.891.985.777v4c0 4.75-.012 9.5.013 14.25.004.72-.354 1.743.987 1.75v14h-41l-.545-.111c-.315-.1-.649-.122-.982-.053-.154.064-.313.114-.473.164h-6c-.333-.693-1.024-1.436-.94-2.074.455-3.464-1.741-6.621-1.06-10.079-1.823-5.092-.747-10.371-.982-15.563-.219-4.827 1.036-9.455 1.84-14.173 1.081-6.348 2.959-12.377 4.83-18.489 1.084-3.541 2.076-7.119 3.289-10.634 1.162-3.37 1.359-7.018 2.843-10.308.063-.14.179-.286.172-.424-.264-5.227 1.846-10.318.967-15.556-.312-1.86-1.396-3.635-.926-5.576.465-1.916-1.204-3.294-.975-5.689 1.141-1.933 4.426-1.37 5.942-3.435.058 1.244.854 1.048 2.042.782-.559-2.607.58-5.006 1.257-7.782h3.701c.714.677.79 1.659 1.188 2.479.072.321.257.486.585.488-.235-.196-.484-.356-.567-.661-.277-1.094-1.185-2.142-.206-3.306 1.405-2.583 4.676-4.144 3.962-7.659 3.1-.877 6.002-1.434 8.46-3.24 2.744-2.015 2.066-5.492 3.625-8.101-.962-1.137-1.192-2.523-1.048-4h6c-.369 1.512.629 3.024 1.361 3.611 1.255 1.006-.484 3.134 1.639 3.389.679 3.112-.904 5.974-1 9 .36.306.622.711 1 1 1.471 3.353 3.714 6.191 6 9-.321 1.154-.979 1.896-2.257 2.019-.488.047-.856.381-.743.981-1.054-.097-1.144 1.114-2.077 1.326v7.215c-.638.769-1.979.038-1.918 1.375-.408 1.73 2.334.422 1.995 2.083-2.287 3.172-2.454 3.238-1.34 6.078.748 1.908.198 3.37-.66 4.922-2.88 1.458-5.76 1.385-9.167.147-.689 1.036-2.832.2-3.833 1.853-1.852.889-1.425 3.282-2.657 4.212-1.033 4.778-1.704 9.366-1.337 14.032.057.723-.352 1.748.994 1.756l2 3c3.825 4.316 6.404 9.523 10.001 14.001zM154.596 24.582c-.025.692.308 1.025 1 1 .229 1.25 1.258 2.046 2.148 2.519 1.137.603.206 2.485 1.852 2.481-.489 1.274.856 1.937 1 3h-5c-1.613-3.643-3.463-7.047-7.329-8.884-1.368-.649-7.775-3.105-9.191-3.111-3.992-.015-7.985-.034-11.977.004-2.784.026-9.608 2.6-12.584 4.554-3.817 2.508-7.245 5.505-9.382 9.517-2.051 3.85-4.113 7.934-1.585 12.525.351.638.048 1.637.048 2.708l4.861 5.673c-.41 3.032.836 6.881 3.392 9.454 2.561 2.577 6.234 4.36 10.242 3.43.954 1.955 2.062 3.671 1.464 5.647-.549 1.817 1.365 2.86 1.088 4.596-.233 1.46-.084 2.988-.042 4.483.227 8.034-1.865 15.642-4.302 23.174-1.001 3.094-2.618 5.961-2.823 9.351-.053.881-.437 2.462-1.881 2.878l-.516.415-.657-.074c-1.205-.529-2.076-1.542-3.196-2.194-.367-.21-.711-.456-1.049-.708-.947-.807-1.914-1.596-2.737-2.538-.267-.313-.547-.615-.845-.901-.243-1.09-.91-1.757-2-2 .948-1.18 1.121-2.553 1-4 1.541-.571 1.588-2.114 1.961-3.314 1.667-5.367 4.036-10.455 6.039-15.686-.166-1.767 1.513-3.164 1-5v-7c-.825-2.324-2.38-4.11-4.2-5.7-4.25-3.709-7.799-7.934-9.8-13.3.133-.817-1.054-1.085-.943-1.534.577-2.341-1.571-4.184-1.057-6.466 0-1.808.139-3.628-.028-5.421-.395-4.251 1.159-7.945 3.028-11.579.743-1.963 2.919-2.832 3.566-4.98.623-2.07 3.831-1.678 4.434-4.02l2-1c1.181-.737 2.966-.85 3.524-2.138.754-1.742 3.186.279 3.476-1.862.984-.381 2.531.927 3-1h3c.936-.172 1.948.364 2.831-.327 1.744-1.365 4.294-1.228 5.534-.478 1.99 1.205 3.809.404 5.635.805h2c.114.28.209.796.344.807 5.175.406 9.459 2.677 13.175 6.183.087.082.318.011.482.011zM97.596 137.582v-3c.867.062 1.004-.493 1.001-1.176-.004-.941-.001-1.883-.001-2.824.644-.511.386-1.474 1-2 0-.794-.171-1.612.666-2.185.669-.458.21-1.209.334-1.815l3.347-10.888c1.343-.773 1.628 1.038 2.653.888.314-.372.686-.443 1.115-.216 1.038.76 1.8 1.821 2.82 2.6.404.091.797.218 1.179.377.909.813 1.846 1.593 2.886 2.24.388.279.677.656 1 1 .03 1.761-.377 3.384-.89 5.102-1.025 3.438-1.367 7.159-2.351 10.533-.946 3.249-.476 6.532-1.536 9.782-1.028 3.154-.243 6.906-.216 10.395.02 2.558-.025 5.045.879 7.602.826 2.336-.655 5.19 1.114 7.521-.71 2.194.979 3.993 1 6.066h-13c-.381-.984.927-2.531-1-3 .763-3.443-1.283-6.605-1-10-.966-.789-.008-2.219-1-3 .697-4.248-1.071-8.297-1.005-12.497.031-1.986.15-3.986-.035-5.955-.189-1.994 1.563-3.547 1.04-5.55z"/><path fill="#727772" d="M155.596 33.582v1h-33.901c1.716-.515.661-.156 1.081-.674.101-.125.24-.312.362-.313 10.819-.014 21.638-.013 32.458-.013z"/><path fill="#727672" d="M130.596 55.582c.103-1.338-1.134-.772-1.841-1.304v-9.016c2.48 2.346 2.807 5.517 4.951 7.158-.253.892-.49 1.274-1.109 1.162-.881.454-.065 2.603-2.001 2z"/><path fill="#969698" d="M140.596 61.582c-1.927-.469-.619-2.016-1-3-.025-.692.308-1.025 1-1 0 .794-.171 1.612.666 2.185.669.458.21 1.209.334 1.815-.334.312-.667.312-1 0z"/><path fill="#7C8575" d="M137.102 48.448c.55 1.776 2.318 2.954.987 5.268-.55-1.777-2.318-2.954-.987-5.268z"/><path fill="#8A9B79" d="M130.596 55.582c.938.072.939-.571 1.019-1.242.059-.5.372-.872.981-.758v3.962c-1.202-.44-1.797-1.013-2-1.962z"/><path fill="#747776" d="M132.716 65.388v-3.391c.347-.447.734-.409.771.008.175 1.91.139 1.913-.771 3.383z"/><path fill="#797A7D" d="M115.596 120.582c-.692.025-1.025-.308-1-1h1v1z"/><path fill="#FDFEFE" d="M291.596 287.582h-34c-.586-3.289 2.197-6.205.795-9.295l3.439-3.44c2.775-1.04 5.512-.126 7.909.878 1.774.744 3.4.765 5.448.875.83-2.99 4.162-1.354 5.994-2.713 4.757.883 5.979 4.59 6.637 9.395.732 1.388 2.982 2.243 3.778 4.3z"/><path fill="#0DAAE8" d="M137.596 211.582v-1h19.585c.781-1.056-1.019-1.163-.585-2 .257-.223.343-.444.257-.666-.085-.223-.171-.334-.257-.334-.572-.547-.391-1.471-1-2-.484-.662-.752-1.453-1.255-2.107-.149-.393-.214-.8-.208-1.22 1.7-2.098 2.338.257 3.407.81.431.45.632 1.062 1.056 1.518.324.342.658.676 1 1 .324.342.658.676 1 1 .324.342.658.676 1 1 .324.342.658.676 1 1 .324.342.658.676 1 1 .729.589 1.682 1.083.966 2.285-1.036.78-2.225.834-3.449.732-.477-.056-.941-.173-1.395-.319-.63-.159-1.259-.659-1.907.021-.478.251-.965.412-1.489.513-6.268-.126-12.644 1.534-18.726-1.233z"/><path fill="#F6F6F7" d="M160.596 211.582h4c.667-.623 1.333-.562 2 0h2c.139.807-.702.982-.971 1.531 1.392.847.886 2.24.971 3.469v1c.613.526.355 1.488 1 2v3l-5-4c-.273-.254-.587-.436-.944-.546l-.444-.332c-.243-.278-.454-.579-.646-.893-.397-.618-.856-1.19-1.368-1.724-.275-.27-.517-.562-.745-.873-.218-.33-.37-.687-.462-1.07-.062-.623.111-1.157.609-1.562z"/><path fill="#657076" d="M129.694 205.607c-.437-2.982 2.094-5.107.841-7.957 3.127 1.035 5.107 3.049 7.777 5.174-3.041 1.358-5.386 2.733-8.618 2.783z"/><path fill="#099DD3" d="M157.596 203.582c-1.216-.123-1.635-1.454-2.622-2.04l-.378 1.04c-.333.479-.667.479-1 0-.692.025-1.025-.309-1-1 .25-.223.333-.444.25-.666-.083-.223-.167-.334-.25-.334-.568-.549-.4-1.467-1-2-2.019-2.216-3.092-4.887-4.149-7.792 2.266.151 2.18 1.962 2.767 3.012 2.15 3.847 6.029 6.153 8.382 9.78-.334.353-.667.353-1 0z"/><path fill="#1D93BE" d="M166.596 211.582h-2l-1-2c1.551-.16 2.608.421 3 2z"/><path fill="#657077" d="M126.596 187.582c.206-1.045-2.078-1.5-.693-2.836 1.345.498 1.876 1.455 1.693 2.836-.334.266-.667.266-1 0z"/><path fill="#4D8AA3" d="M125.596 177.582c-.019 1.1.275 2.484-1.671 1.836-.626-.521-.207-1.228-.329-1.836.666-.598 1.333-.561 2 0z"/><path fill="#42839D" d="M143.596 182.582c1.404.25 1.168 1.021.613 1.922-.717-.512-1.49-.942-1.613-1.922.333-.478.666-.478 1 0z"/><path fill="#4F7B8E" d="M143.596 182.582h-1c.139-.807-.702-.982-.971-1.532.465-.554 1.027-.613 1.668-.278.584.517.188 1.207.303 1.81z"/><path fill="#488097" d="M154.596 203.582c1.496.086.85 1.242 1 2-.692.025-1.025-.309-1-1l-.413-.5.413-.5z"/><path fill="#268FB9" d="M151.596 198.582c1.496.086.85 1.242 1 2-1.496-.086-.85-1.242-1-2z"/><path fill="#43829C" d="M155.596 205.582c1.496.086.85 1.242 1 2-1.496-.086-.85-1.242-1-2z"/><path fill="#338BAD" d="M162.596 208.582c-.692.025-1.025-.309-1-1 .692-.025 1.025.309 1 1z"/><path fill="#597784" d="M156.596 207.582c.486-.035.929.063.793.662-.037.164-.517.229-.793.338v-1z"/><path fill="#338BAD" d="M161.596 207.582c-.692.025-1.025-.309-1-1 .692-.025 1.025.309 1 1z"/><path fill="#338BAE" d="M160.596 206.582c-.692.025-1.025-.309-1-1 .692-.025 1.025.309 1 1z"/><path fill="#696E72" d="M126.596 187.582h1c.036.486-.063.929-.663.793-.164-.037-.227-.517-.337-.793z"/><path fill="#1D93BE" d="M163.596 209.582c-.692.025-1.025-.309-1-1 .692-.025 1.025.309 1 1z"/><path fill="#478098" d="M153.596 202.582h1v1c-.333.31-.667.31-1 0v-1z"/><path fill="#0DAAE8" d="M153.596 203.582h1v1c-.692.025-1.026-.309-1-1z"/><path fill="#288FB8" d="M157.596 203.582h1v1c-.692.025-1.026-.309-1-1z"/><path fill="#2F8CB1" d="M159.596 205.582c-.692.025-1.025-.309-1-1 .692-.025 1.025.309 1 1z"/><path fill="#3A87A6" d="M152.596 200.582c.486-.035.929.063.793.662-.037.164-.517.229-.793.338v-1z"/><path fill="#00ACF1" d="M203.596 319.582c-.334-.693-.844-1.354-.973-2.083-1.074-6.062-2.047-8.894-8.188-12.386-5.27-2.997-9.686-6.791-13.84-11.047-.124-1.408-.426-2.746-.805-4.125-.795-2.887.774-5.791 1.545-8.687 1.41-5.306 7.553-8.468 12.248-8.592 1.541-.041 2.487-1.384 4.077-1.13 1.458.232 2.989.143 4.478.032 5.834-.43 11.287 1.413 16.668 3.126 3.542 1.129 6.094 3.986 7.795 7.773-.109 3.175.195 6.705-.878 10.227-.361 1.186-.702 2.738-1.331 3.396-2.654 2.782-5.018 5.902-8.774 7.547-5.2 2.277-8.539 6.295-10.091 11.855-.38 1.361-1.109 2.609-.932 4.092-.333.456-.665.456-.999.002z"/><path fill="#DFEED2" d="M203.596 319.582h1c-.122.94.287 1.941-.457 3.039-.869-.971-.416-2.074-.543-3.039z"/><path fill="#4B7E93" d="M104.596 201.582v-1h5.808c-1.433 1.365-3.477.682-4.808 2h-1v-1z"/><path fill="#8079BC" d="M101.596 183.582c-1.496-.086-.849-1.242-1-2 1.496.086.849 1.242 1 2zM102.596 189.582c-1.496-.086-.849-1.242-1-2 1.496.086.849 1.242 1 2zM103.596 194.582c-1.496-.086-.849-1.242-1-2 1.496.086.849 1.242 1 2z"/><path fill="#FEFEFE" d="M137.596 211.582h21c.96.373 1.41 1.257 2 2 .241.29.417.615.527.976.414.636 1.023 1.086 1.534 1.63.381.42.547.982.939 1.395.254.223.339.444.255.666-.085.223-.169.334-.255.334l6 7c.613.526.355 1.488 1 2v17c0 1.984-.068 3.973.02 5.955.08 1.785-1.536 3.195-1.02 5.045-4.809-3.857-8.984-8.35-13-13l-3-4c-1.771-1.913-2.648-4.571-5-6v-1c-.243-1.09-.91-1.757-2-2v-1l-1-2c-.243-1.09-.91-1.757-2-2-.15-.758.496-1.914-1-2v-1l-1-2c-.243-1.09-.91-1.757-2-2v-2c-1.03-.758-.302-2.688-2-3v-1.001z"/><path fill="#9180BE" d="M97.596 161.582c1.927.469.619 2.016 1 3h-1v-3z"/><path fill="#9686C0" d="M170.596 227.582c-1.496-.086-.85-1.242-1-2 .691-.025 1.025.309 1 1v1z"/><path fill="#7A65B0" d="M150.596 88.582c.692-.025 1.025.308 1 1-.692.025-1.026-.308-1-1z"/><path fill="#78797C" d="M107.596 114.582h-1v-1h1c.286.222.38.444.286.667s-.191.333-.286.333z"/><path fill="#717077" d="M103.596 111.582h1c.036.486-.063.929-.663.793-.164-.037-.227-.517-.337-.793z"/><path fill="#9E897E" d="M82.596 96.582h1v5c-.333.352-.667.352-1 0-.042-1.602.301-3.271-.812-4.688l.812-.312z"/><path fill="#8387BD" d="M77.596 98.582h1v3h-1v-3z"/><path fill="#977870" d="M82.596 101.582h1v1h-1v-1z"/><path fill="#9E897E" d="M58.596 200.582h1v5c-.333.355-.667.355-1 0-.042-1.602.301-3.271-.812-4.688l.812-.312z"/><path fill="#8387BD" d="M53.596 202.582h1v3h-1v-3z"/><path fill="#977870" d="M58.596 205.582h1v1h-1v-1z"/><path fill="#9281BE" d="M164.596 51.582c-.692.025-1.025-.308-1-1 .692-.025 1.025.308 1 1z"/><path fill="#6E6F72" d="M163.596 218.582v-1c.692-.025 1.025.309 1 1h-1z"/><path fill="#ECF1EB" d="M46.596 204.582h3.919c-.732 2.334-2.402 1.994-3.919 2v-2z"/><path fill="#BA9A8D" d="M46.596 97.582h1v4c-.295.333-.655.415-1.072.28-.593-.243-1.02-.662-1.298-1.235-.1-.426.024-.775.37-1.045l1-2z"/><path fill="#959093" d="M45.596 99.582v1c-.369.512-.899.696-1.5.737-.392-.021-.765-.12-1.115-.298l-.384-.439c.467-1.927 2.014-.619 2.999-1z"/><path fill="#D09477" d="M42.596 102.582c-.938.072-1.056-.571-.98-1.242.056-.5.371-.872.98-.758.585.667.585 1.334 0 2z"/><path fill="#8098D1" d="M42.596 97.582h1c.025.692-.308 1.025-1 1v-1z"/><path fill="#9787C1" d="M99.596 128.582c-.151.758.496 1.915-1 2 .151-.758-.496-1.915 1-2z"/><path fill="#EAF4F9" d="M36.596 201.582h3c.724 1.334.734 2.666 0 4-.61 1.773-1.781 1.053-2.862.625-.399-.157-.76-.414-1.138-.625-.121-1.447.052-2.82 1-4zM187.596 30.582h3c.725 1.333.734 2.667 0 4-.609 1.773-1.781 1.053-2.862.625-.399-.158-.76-.414-1.138-.625-.121-1.447.052-2.82 1-4z"/><path fill="#A096BA" d="M169.596 219.582c-1.496-.086-.85-1.242-1-2 1.496.086.849 1.242 1 2z"/><path fill="#7A65AF" d="M155.596 25.582c-.025-.692.308-1.025 1-1 .025.692-.308 1.025-1 1z"/><path fill="#7E8CC4" d="M23.596 98.582h1c.864 1 .835 2 0 3-.333.352-.667.352-1 0v-3z"/><path fill="#786D7C" d="M23.596 101.582h1v1h-1v-1z"/><path fill="#F1F5F2" d="M75.596 222.582h-1c-.692-.025-1.025.309-1 1h-4v-2h5c1.496-.086.849-1.242 1-2 .268-.288.582-.354.942-.197.474.292.691.811 1.058 1.197v1c-.323.344-.612.721-1 1-.334.393-.667.393-1 0z"/><path fill="#FEFEFE" d="M69.596 218.582h4v2h-4v-2zM54.596 218.582h4v2h-4v-2z"/><path fill="#F1F5F2" d="M77.596 205.582h-1c-.692-.025-1.025.309-1 1h-4v-2h6v1z"/><path fill="#FEFEFE" d="M71.596 201.582h4v2h-4v-2z"/><path fill="#F1F5F2" d="M57.596 239.582c-.692-.025-1.025.309-1 1h-4v-2h6v1h-1z"/><path fill="#FEFEFE" d="M52.596 235.582h4v2h-4v-2z"/><path fill="#80A6D2" d="M75.596 235.582h1c.585.666.585 1.334 0 2h-1v-2z"/><path fill="#EDF4F5" d="M67.596 202.582v3c-1.18.947-2.553 1.121-4 1-.371-.382-.53-.838-.479-1.367.154-1.212-.407-2.518.479-3.633h3c.692-.025 1.025.309 1 1z"/><path fill="#857DA0" d="M63.596 205.582v1h-1v-1c.333-.454.666-.454 1 0z"/><path fill="#EFCF9E" d="M39.596 205.582v-4h1v4h-1zM190.596 34.582v-4h1v4h-1z"/><path fill="#FEFEFE" d="M76.596 237.582v-2h3v2h-3z"/><path fill="#F8FCFA" d="M199.596 33.582h3v1c-.469 1.927-2.016.619-3 1-.596-.666-.596-1.333 0-2z"/><path fill="#748AC4" d="M199.596 33.582v2h-1v-2h1z"/><path fill="#FCFBF3" d="M43.596 100.582h2c.692-.025 1.025.308 1 1 .286.222.38.444.286.667s-.19.333-.286.333h-3c-.596-.666-.596-1.333 0-2z"/><path fill="#88C0ED" d="M43.596 100.582v2h-1v-2h1z"/><path fill="#906E70" d="M46.596 102.582v-1h1v1h-1z"/><path fill="#FBF8EE" d="M69.596 97.582h1v4c-1.18.948-2.553 1.121-4 1-.371-.382-.53-.838-.479-1.368.154-1.211-.407-2.518.479-3.632h3z"/><path fill="#6B80B7" d="M66.596 101.582v1h-1v-1c.333-.451.666-.451 1 0z"/><path fill="#F8FBF9" d="M24.596 101.582v-3c.085-1.496 1.242-.849 2-1h2c.724 1.333.734 2.667 0 4v1c-1.447.121-2.821-.052-4-1z"/><path fill="#8084B5" d="M63.596 205.582h-1v-4h1v4z"/><path fill="#8EC6EF" d="M66.596 101.582h-1v-4h1v4z"/><path fill="#D09F84" d="M28.596 101.582v-4h1v4h-1z"/><path fill="#FCF5E6" d="M77.596 220.582c-.692.025-1.025-.309-1-1l.5-.424.5.424v1zM76.596 219.582h-1v-1h1c.256.223.342.444.256.666-.085.223-.17.334-.256.334zM76.596 222.582c-.025-.691.308-1.025 1-1v1h-1zM75.596 222.582h1v1h-1v-1z"/><path fill="#D1A285" d="M76.596 219.582v-1h1v1h-1z"/><path fill="#98999B" d="M133.766 133.671h1.66v4.821h-1.66v-4.821z"/><path fill="#ADAEAF" d="M123.421 151.488h-1.651v-4.812h1.651v4.812z"/><path fill="#98999B" d="M135.426 85.493h-1.66v-4.821h1.66v4.821z"/><path fill="#9D9EA0" d="M123.426 160.493h-1.66v-4.821h1.66v4.821z"/><path fill="#97979A" d="M133.754 70.765c.897 1.53 2.709 2.781 1.453 4.726h-1.453v-4.726z"/><path fill="#9B9C9E" d="M133.516 143.675h1.745c.707 1.319.094 2.535.415 3.814h-1.745c-.707-1.319-.094-2.535-.415-3.814z"/><path fill="#8F9093" d="M139.596 99.582c-.319-1.652 1.067-2.593 1.756-3.884-.255 1.641 1.331 3.496-.756 4.884-.278-.389-.655-.679-1-1z"/><path fill="#97989A" d="M124.596 138.582v2.842l-1.969.182c.224-1.464-.866-2.96.969-4.024.6.066.627.706 1 1z"/><path fill="#818285" d="M137.365 119.628c-.724-.113-1.264.162-1.803-.716.339-1.303 1.495-2.647 1.501-4.369.628 1.721.672 3.381.302 5.085z"/><path fill="#AAABAC" d="M135.596 153.582c.956 1.367.956 1.367.596 3.91-.304.03-.609.084-.914.079-.131-.002-.261-.128-.408-.207-.534-.514-.167-1.187-.274-1.782.68-.493.303-1.515 1-2z"/><path fill="#838486" d="M142.422 73.253c-1.391-2.18.027-4.167-1.816-5.184.511-.584 1.074-.643 1.816-.216v5.4z"/><path fill="#707174" d="M122.759 170.408v-5.826c1.158 2.659.698 4.252 0 5.826z"/><path fill="#76777A" d="M139.338 109.477c-1.115-1.276-.521-2.492-.824-3.8h2.092c-.87 1.227-1.468 2.385-1.268 3.8z"/><path fill="#797A7D" d="M131.873 94.775c2.077-1.463 1.521-3.057 2.109-4.5.941 1.498.578 2.747.498 3.879-.395.634-.931.363-2.607.621z"/><path fill="#7F8082" d="M142.427 86.769v5.769c-1.285-2.607-.522-4.226 0-5.769z"/><path fill="#848588" d="M141.764 81.42v-5.786c1.161 2.605.687 4.196 0 5.786z"/><path fill="#A6A7A8" d="M126.596 129.582l-1.504 2.948c-.183-1.406-1.352-2.919.504-3.948.6.066.627.706 1 1z"/><path fill="#AEAEB0" d="M131.596 101.582v-1.851l1.679-.142c.149 1.135 1.184 2.353-.679 2.992-.601-.065-.628-.705-1-.999z"/><path fill="#A3A3A5" d="M128.596 120.582v1.839l-1.543.159c-.643-.942-.905-1.719.543-1.998.333-.485.666-.485 1 0z"/><path fill="#929395" d="M125.596 177.582h-2v-4.025l2 4.025z"/><path fill="#A3A3A5" d="M129.596 110.582v-1.839l1.543-.159c.643.942.905 1.718-.543 1.998-.334.485-.667.485-1 0z"/><path fill="#7A7B7D" d="M129.596 110.582h1c-.122.94.288 1.942-.457 3.04-.869-.971-.416-2.075-.543-3.04z"/><path fill="#A4A5A7" d="M134.596 125.582c.266-1.413 1.186-1.348 1.857-.538.438.528.317 1.511-.857 1.538-.604-.063-.611-.722-1-1z"/><path fill="#7E7F82" d="M131.596 101.582c.692-.025 1.025.308 1 1-.122.608.298 1.315-.502 1.981-.829-.91-.369-2.015-.498-2.981z"/><path fill="#757679" d="M134.596 125.582c.692-.025 1.025.308 1 1-.122.608.298 1.315-.502 1.981-.829-.91-.369-2.015-.498-2.981z"/><path fill="#77787B" d="M136.596 165.582c.12-.938-.283-1.937.336-2.864 1.193.284.447 1.254.664 1.864.365 1.032-.043 1.291-1 1z"/><path fill="#B0B0B2" d="M136.596 165.582c.692.025 1.025-.308 1-1 1.413.266 1.348 1.186.538 1.857-.529.437-1.511.317-1.538-.857z"/><path fill="#858688" d="M135.596 153.582c-.15.758.496 1.915-1 2v-2.784c.956-.108 1.031.293 1 .784z"/><path fill="#76777A" d="M139.596 173.582c-1.404-.25-1.168-1.021-.613-1.922.717.511 1.49.942 1.613 1.922-.334.485-.667.485-1 0z"/><path fill="#979799" d="M124.596 138.582c-.692.025-1.025-.308-1-1l.348-.871c1.165.301.445 1.254.652 1.871z"/><path fill="#747578" d="M139.596 173.582h1v1.95c-1.524-.374-.787-1.337-1-1.95z"/><path fill="#818285" d="M126.596 129.582c-.692.025-1.025-.308-1-1l.348-.871c1.165.301.445 1.254.652 1.871z"/><path fill="#717274" d="M128.596 120.582h-1c.12-.607-.293-1.309.36-1.862 1.163.286.427 1.249.64 1.862z"/><path fill="#87888B" d="M140.596 61.582h1c.036.486-.063.929-.663.793-.164-.037-.227-.517-.337-.793z"/><path fill="#8D8D90" d="M139.596 99.582c.692-.025 1.025.308 1 1-.692.025-1.026-.308-1-1z"/><path fill="#A4A5A6" d="M107.596 114.582v-1c1.408.592 2.408 1.592 3 3 .351.222.467.444.351.667-.116.222-.232.333-.351.333-1.408-.592-2.408-1.592-3-3z"/><path fill="#9C9D9F" d="M114.596 119.582c-1.552.161-2.608-.421-3-2-.286-.222-.38-.444-.286-.667s.19-.333.286-.333c1.407.592 2.407 1.592 3 3z"/><path fill="#78797B" d="M111.596 116.582v1h-1v-1h1z"/><path fill="#7D7E80" d="M160.596 213.582c-1.09-.243-1.757-.91-2-2 .333-.312.667-.312 1 0h1v2z"/><path fill="#6A757C" d="M159.596 211.582h-1c-.036-.486.063-.929.663-.793.163.037.227.517.337.793z"/><path fill="#949496" d="M162.596 216.582c-1.09-.243-1.757-.91-2-2 .333-.353.667-.353 1 0 1.09.243 1.757.91 2 2-.334.353-.667.353-1 0z"/><path fill="#6E6F72" d="M162.596 216.582h1v1c-.692.025-1.026-.309-1-1z"/><path fill="#747578" d="M161.596 214.582h-1v-1c.692-.025 1.025.309 1 1z"/><path fill="#8BDBF8" d="M218.596 287.582c-.334 1.932-1.834.658-2.75.991-.777.282-2.084-.644-2.25 1.009-.242.236-.418.516-.529.836l-.471.164c-1.438-1.631-1.438-3.369 0-5 .584.045 1.117.253 1.637.501.721.284 1.475.411 2.245.485.403.037.791.133 1.17.27.352.202.668.451.948.744z"/><path fill="#9DC0F0" d="M205.596 286.582v4.838l-1.553.144c-.173-.336-.482-.654-.42-.863.586-2.001-1.312-4.401.973-6.118.747.459.429 1.45 1 1.999z"/><path fill="#B9F0F9" d="M196.762 291.418v-6.726h2.703c-.039 1.087-1.135 1.369-1.869 2.61v4.14l-.834-.024z"/><path fill="#B1F1F8" d="M189.596 290.582c-.277-.109-.791-.213-.795-.331-.051-1.858-.035-3.72-.035-6.628 1.384 2.859.047 5.333 1.83 6.959-.334.383-.666.383-1 0z"/><path fill="#D1CAF0" d="M201.767 292.366v-8.301c1.188 1.631.794 2.878.802 3.994.005 1.109.328 2.269-.802 4.307z"/><path fill="#9EE1F9" d="M213.596 286.582c-.691.025-1.025-.309-1-1 .529-1.568 2.152-1.37 3.275-1.951.317-.164.838.346.725.951l.407.545c-.107.46-.372.805-.769 1.056-.834.418-1.744.362-2.638.399z"/><path fill="#7EBAF0" d="M209.596 285.582c1.414 1.872 1.414 4.128 0 6-.76-2-.762-4 0-6z"/><path fill="#72EFFC" d="M209.596 285.582v6c-.902.066-1.001-.528-1-1.209v-4.791c.334-.353.666-.353 1 0z"/><path fill="#BEE9FA" d="M217.596 290.582c-1.631 1.438-3.369 1.438-5 0 .334-.353.666-.353 1 0h3c.334-.383.666-.383 1 0z"/><path fill="#C0E9F9" d="M189.596 290.582h4c.334-.485.666-.485 1 0-1.631 1.438-3.369 1.438-5 0z"/><path fill="#C9EEF7" d="M193.596 289.582v-4.846c1.309 1.523.85 3.227 1 4.846-.334.356-.666.356-1 0z"/><path fill="#D2E1F6" d="M205.596 286.582c-1.496-.086-.85-1.242-1-2h2.014l-1.014 2z"/><path fill="#6FD8F9" d="M217.596 287.582h-1c-.59-.666-.59-1.334 0-2 .334-.353.666-.353 1 0 .691-.025 1.025.309 1 1-.325.342-.658.676-1 1z"/><path fill="#90D9F6" d="M217.596 290.582h-1c.238-1.39 1.009-1.161 1.886-.643-.087.532-.404.706-.886.643z"/><path fill="#E5E6F5" d="M209.596 285.582h-1c-.482.062-.799-.111-.886-.643.877-.518 1.647-.747 1.886.643z"/><path fill="#D6D3F1" d="M217.596 287.582c-.025-.691.309-1.025 1-1v1h-1z"/><path fill="#DDE1F4" d="M217.596 285.582h-1v-1c.691-.025 1.025.309 1 1z"/><path fill="#FEF2F6" d="M193.596 289.582h1v1h-1v-1z"/><path fill="#DBCDF0" d="M202.096 282.573c-.467-.325-.467-.657 0-.982.466.325.466.657 0 .982z"/><path fill="#D7D8F2" d="M213.596 290.582h-1c-.025-.691.309-1.025 1-1v1z"/><path fill="#00ADF2" d="M216.596 285.582v2c-.984-.381-2.531.927-3-1 .468-1.927 2.015-.619 3-1z"/></g><g fill="#FF2020"><path d="M203.803 173.822c.561.132-.01-.191-.376-.614l.376.614zM203.427 173.208l-.265-.435c.035.144.138.291.265.435zM200.772 169.323c.873.698 1.351 1.945 2.098 2.22-.453-1.018-1.556-2.273-2.098-2.22zM201.53 170.78l.271-.032-.869-.537zM201.771 171.449l-.014-.161-1.095-1.04zM198.846 166.211l.666.856c.311 1.02-.734-.31-.527.372.77 1.118.812.006 1.681 1.46.169-.286-1.53-2.23-.987-2.273-.678-1.251-.271.101-.833-.415zM162.17 154.021l-.08-.143c.008.08.027.151.08.143zM152.04 146.704c-.171.142-.319.309-.461.47.078-.024.162-.065.254-.133l.207-.337zM172.491 159.234c.128-.246.241-.494.342-.729-.099.097-.209.296-.342.729zM106.212 153.019l.165-.026-.015-.031-.228-.057.078.114zM143.752 166.463c-.265.423-.522.843-.744 1.247.453-.689.66-1.048.744-1.247zM174.523 152.109l-.078.258.14-.306-.058.035-.004.013zM153.351 146.819l-.073-.123.073.123zM190.292 151.929c-.131-.283-.296-.483-.466-.645.048.205.173.423.466.645zM186.595 146.61l.023.03-.023-.03zM184.082 143.29l.055.051c.002-.064-.008-.089-.055-.051zM189.826 151.284c-.13-.552.271-1.018-.671-1.221l.005.163c-.112-.426-.676-.787-.968-1.169l-.032.234c.132.204.299.476.544.904.216.558.703.69 1.122 1.089zM162.305 153.985c-.041.131.314.399 0 0zM166.941 157.447c-.212-.155-.319-.265-.474-.393.137.138.221.253.474.393zM177.702 144.107l-.052.06c.054.053.074-.028.052-.06zM166.068 156.722l.399.333c-.109-.119-.226-.238-.399-.333zM175.354 149.787l-.042.076.042-.076zM56.049 162.269v-.028l.053-.124.132-.213c.097-.134.205-.26.297-.432-.096-.974-.645 1.673-.557.35-.18.483-.071.35-.045.452-.008.018.395.119.403.102.032-.304-.024-.257-.124-.094-.061.059-.096.043-.159-.013zM103.223 148.626l.102.156c.045-.221.167-.18-.257-.75-.623-.222-.272.74-1.226.227.164.119.364.342.535.57-.119-.484.364-.374.846-.203zM102.376 148.828l.005.036.035.179c.104.107.195.221.257.324-.026-.13-.141-.333-.297-.539zM62.108 146.592c.119-.262.218-.517.321-.708-.189.233-.273.487-.321.708zM140.853 160.826l-.038-.22c-.016.082.005.152.038.22zM109.767 156.061c.086.133.186.261.302.388l.236.198-.538-.586zM91.343 155.042c-.33-.483-.05.266-.53.839l.027.693c.262-.539.365-1.083.503-1.532zM55.901 162.261l.035.024-.007-.011-.028-.013zM78.867 169.349l-.376-.461c.069.103.175.256.376.461zM104.939 151.788l1.686 1.841-.413-.61c-.404-.094-.83-1.17-1.273-1.231zM94.65 147.393l.167.285c-.079-.146-.09-.333-.049-.304l.113.103.054.055.067.04.333.232c.444.299.908.513 1.394.655.74 1.303 1.221 1.444 1.703 1.587.479.135.966.228 1.592 1.504l.037-.164c3.062 3.184 5.966 6.979 9.693 10.281.449.42.956.803 1.432 1.202.242.197.479.397.741.577l.384.276.665.444c.899.626 1.813 1.164 2.726 1.684l1.363.791.166.073.134-.146.267-.292.532-.582c.721-.766 1.379-1.571 2.045-2.359.339-.374.638-.84.901-1.206l.508-.781c.621-1.05 1.173-2.1 1.629-3.142l.169.107c.875-1.622 1.621-3.254 2.307-4.853l1.002-2.369.123-.293.018-.036.017-.032.033-.062.062-.123.033-.063.039.035.1.137.205.322 2.287 4.119c.8 1.485 1.677 3 2.542 4.512l1.415 2.265c.244.376.457.759.74 1.126l.402.556.202.278.353.447 1.489 1.877c.485.652 1.04 1.153 1.557 1.739l1.582 1.704.793.856.199.214.099.107c.032.017.07.12.094.042l.322-.486c.623-1.117.692-1.507.739-1.872.038-.357.083-.704.488-1.56.409-.614 1.293-2.05 1.442-1.911-.674 1.48-.125.91-.345 1.471.375-.54.719-1.221 1.093-1.903l.571-1.038c.096-.175.196-.351.275-.522l.214-.459c.4-.836.722-1.661.832-2.38l-.725 1c.073-.564.479-1.346.661-1.803.081.252.649-.303.576.125.263-3.038 1.085-2.055 1.603-4.405-.47-.671.023-3.607.493-5.495l.307-.4.312-.392c-.623 1.151.437.216-.338 1.62.786-1.093 1.115-2.326 1.952-3.236-.275.093-.421-.081-.187-.537.13-.143.246-.241.368-.305.118-.066.241-.128.294-.114.139-.008.257-.003.37-.108-.012.014-.064.397-.052.384.146.023.166-.032.185-.14.014-.105.053-.267.118-.36.075.128.188.139.265.189.084.079.135.277.12.438.083-.178.195-.166.292-.122l.166.07.13.046.386.221c-.204-.26-.305-.421-.264-.454.017-.053.063-.075.195-.021.234.081.583.265.597.126l-.595-.408-.324-.165c.706.738-.313-.164-.341.406-.099-.193.007-.372.157-.463.143-.089.276-.163-.108-.368.232.067.43.188.604.282l.273.173.379.285c.509.363 1.015.745 1.943 1.313-1.024-.791.396-.065-.026-.636 1.233 1.11.189.401.353.974.661.608.703 1.034 1.54 1.379.931 1.15-.41.093-.028.759-.599-.178-2.611-3.124-3.042-2.042-.277-.233-.642-.442-1.045-.628-.2-.098-.406-.202-.609-.322l-.278-.173-.065-.034.02.088.208.259c.171.201.353.411.547.615.386.416.809.842 1.306 1.127l.446-.394c.64.599 1.058.419 1.475.92-.362-.121-.104.494.437.968-.084-.204-.3-.394-.171-.411.971.924 1.388.78 2.6 1.884-.822-1.083-.88-1.401-1.568-2.477.534-.055.657.591 1.205 1.084-.118-.04-.232-.143-.142.07l.69.431c1.034 1.34-.583.264.236 1.406.423.939 1.058.818 1.451 1.488l-.028-.178.244.285.011-.029c.676.605 1.391 1.302 1.783 1.256-.028.172.629.508.914.635.232.124.633.322 1.028.576.195.13.383.279.541.451.156.172.271.36.422.614l-.062-.041c.585.452 1.104.886 1.451 1.213.357.307.545.501.382.506l1.109.726c.554.372 1.155.725 1.155.725l-.077.188-.087.183c.567.278.966.457 1.266.57l.383.126.151.035.04-.205.167-2.143c.312-.642.688-1.684.94-2.775.132-.535.245-1.052.334-1.496.053-.321.087-.59.104-.788.051-.119.104-.309.174-.625l-.339.61c.364-1.217.121-1.125.351-1.931-.084.156-.113.173.078-.258l.163-.454c.029.053-.029.231-.102.406l.172-.109c.689-.854.215-1.556.674-2.547-.016.104-.04.277-.076.381.283-.549 1.081-1.206.836-1.545.087-.118.088-.34.071-.564l.2-.4-.199.395c-.021-.298-.073-.593.02-.599l.281-.719c.135-.363.296-.711.296-.71.158-.251.251-.637.312-.956l.249-.182c.183-.55.249-.444.281-.398.485-.435.549-.714.675-1.222.053-.241.15-.487.262-.71.057-.109.122-.209.193-.285l.111-.094.06-.029.07.061c.043-.159-.02-.384-.118-.611-.073-.056-.17-.033-.205-.135.009-.139.039-.312.085-.512l.019-.071.03.005.065.017.148.056c.209.09.466.244.649.332.267.58.741 1.371 1.005 1.962.275.604.322.989.031 1.083.914 1.22-.08-.664.562-.164l.104.171c-.177-.291-.234-.442-.289-.623-.055-.183-.093-.376-.123-.567.046-.173.297-.043.584.2.28.209.604.671.713.867l-.535.012c1.104 1.173 1.399.505 2.361 1.04.663 1.129-.104.775-.242 1.224l.915 1.001-.259.191c.601.643.938.655 1.536 1.723-.748-.545.793 1.669-.233.907.294.612.919.42.761.945.55.189-.203-.593-.309-.935.248-.509 1.041 1.084 1.609 1.678-.176.199-.555-.279-.161.604.268.057.724.486.82 1.072.27-.177.644.876.921 1.341-.278-.546-.56-1.416-.109-1.233.366.329.643.638 1.195 1.573l-.279-.708c.91.543.568 1.494 1.382 2.506-.452-.358-.636-.645-1.093-.915.462.427 1.272 1.284 1.907 2.008l.182 1.172c.271-.011.634 1.047.906.875.539 1.261-.907-.715-1.179-.703.728 1.551 1.172.866 1.636 2.505l-.547-.297c.275.469 1.011 1.296.921 1.435.091-.058-.094-.265-.277-.552.725-.064 1.738 1.874 2.188 1.341l-.369-.654c.731.896 1.543 1.341 1.833 2.204.203.678-.646-.142-1-.393.546.937 1.096.331 1.764 1.431-.294-.618-.023-.642.348-.404-.394-.627-1.138-1.994-1.217-1.618l.092.262c-.181.037-.454-.27-.636-.393-.55-.858-.004-.564-.006-.806-.826-1.483-.633.246-1.454-1.073l-.001-.24c-.548-.537-1.194-1.494-1.646-1.452.001-.806-1.083-1.4-1.264-2.168.725-.626 1.35 2.276 2.266 2.741-.275-.788.634.151.998.322l-1.726-1.951c-.001-.243-.004-1.133-.544-1.345l.09.183c-.635-.807-.816-.368-1.178-1.185 0-.162.271-.013.362.011-.361-.736-.543-.46-.906-.875-.362-.735.545.138.271-.494-.818-.603-.74-1.306-1.204-1.986-.263.582-2.383-2.34-1.817-.596l-1.373-1.444c-.104-.667 1.367.713 1.444.012l.835 1.329c.209-.291-.329-.922-.91-1.64-.587-.715-1.257-1.492-1.243-2.135-.457-.708-.414-.483-1.054-1.987l-.329.571c-.358-.757-.249-1.168-.183-1.264-.308-.377-.582-.722-.834-1.098.144.042.312.127.519.343-.121-.694-.334-.766-.608-.832-.328-.177-.628-.595-.944-1.01l.464.235c-.236-.222-.527-.491-.633-.452-.135-.17-.271-.323-.421-.455.005.175-.055.664.278 1.344-.496-.829-1.003-1.522-1.463-2.208-.568-.74-1.204-1.53-1.842-2.578.103-.137.854.359.669.128-.793-.969-1.725-1.536-1.667-1.108l-.405-.4c-.13-.35-.312-.768-.686-1.205-.09-.172-.237-.396-.515-.72-.021.059-.064.081-.122.075l-.097-.03-.078.231c-.112.31-.255.621-.401.92-.292.598-.602 1.162-.654 1.487.256-.372.531-.893.812-1.45-.314 1.255-.44 2.229-.85 2.483.256-.817.019-.628-.19-.442-.179.186-.379.315.185-.873-.588.438-.622.827-.633 1.182-.012.377.028.762-.426 1.486l-.698.938c-.228-.333.729-1.94.502-1.759l-.352.837c.088-.482.544-1.488 1.062-2.658.287-.573.592-1.189.886-1.824l.429-.966.202-.491.05-.124.068.037.137.098c.008.062-.226-.489-.407.07l-.77 1.292-.788 1.324-.339.624c-.29.715-.59 1.42-.897 2.124l-.467 1.054-.334.909c-.337.953-.713 1.916-1.004 2.869-.632 1.904-1.105 3.758-1.18 5.34l.027-.128c.018.061.071.104.185.183l-.121.108.08.656c-.25.286-.484.737-.718 1.238l-.356.775c-.104.199-.176.258-.271.362.28-.209.289-.24.544-.197.312.165.419.324.109.953-.207-.165-.104-.507-.391-.204.163-.14.259.157.2.479-.233.243-.412.754-.581.446-.008-.217.082-.224.137-.284-.018-.18-.306.27-.346-.326l-.075.524c-.193-.067-.161-.615-.273-.702l-.016.278-.113.07-.27.173c-.205.088-.493.143-.914-.054.081-.102.254-.651.199-.496-.103-.125-.221-.191-.37-.24l-.27-.085-.439-.2c-.603-.254-1.238-.529-1.743-.962.254.007.577.391.931.587-2.922-2.777-5.055-5.381-7.61-8.581l-1.151-.325-.553-.993c-.812-.818-1.354-1.358-2.804-2.338-.613-.447-1.257-.837-1.892-1.215l-.942-.562-.791.779c-.517.534-1.055 1.004-1.532 1.585-.464.541-1.05 1.191-1.28 1.523-.56.842-1.113 1.704-1.601 2.644-.628 1.155-.721.5-1.162.977-1.345 2.576-.971 3.47-1.766 5.948-.042-.393-.283-1.136-.688-.089.082.251.276.465-.054 1.094l-.042-.395c-.457.523-.43 1.182-.971 2.371-.381 1.077-.667 2.139-.901 3.159l-.163.761-.006.436c-.008.293-.007.652-.054 1.06-.323.521-.366.277-.385-.027-.014-.312-.025-.648-.1-.643.407-.321.108-.441.002-.658.039.306-.116.784-.359.368l-.163.354-.074.267-.127.133c.056-.046.106.047.143.176l.033.178c.004.087 0 .2-.03.222-.238-.487-.871-.958-.598-1.44l-.321-.394c-.353-.489-.748-.961-1.071-1.515-.674-1.083-1.38-2.153-2.015-3.338-1.313-2.297-2.571-4.787-3.92-7.181-.669-.685.25.664-.153.307-.419-.439-.698-.948-.815-1.247-.14-.329-.265-.647-.779-1.237l.543.373c-.657-1.091-1.391-2.14-2.128-2.967l-2.071-2.136c.22-.219-1.077-1.969.006-.746-.163-.208-.335-.584-.527-1.056-.051-.181-.089-.062-.134-.083l-.134.021-.282.036c-.386.063-.804.244-1.003.891 0 0 .286.156.532.374.253.207.475.475.475.475-.015.273-.744 1.454-.643 1.449-.515.419-1.25 1.148-1.583 1.794-.373-.042.545-1.589 1.024-2.448-.118-.928-1.872 2.672-1.388.723-1.073 2.326.306-.03-.213 1.503l-.492.899c-.253.445-.489.934-.489.934s.197-.366.41-.689l.411-.65c-.322.854-.448 1.485-.619 2.132-.154.585-.5 1.467-.83 1.878l-.017 1.448c-.45-.038-.444.875-.802 1.46l-.088-.5c-.336.841-.543 1.13-.913 1.574-.147-.611.409-.699.162-1.044l-.506.845c.226.094.15.743.568.16.043 1.01.209 1.651-.86 3.645-.844.692.181-1.132-.39-.954-.603.98-.704 1.706-.765 2.345-.03.318-.032.63-.097.91-.031.142-.073.28-.132.418l-.1.201-.083.132c-.381.372-.481.579-.618.864-.069.136-.142.285-.25.46l-.193.276-.336-.173c.284-.174-.69-.769-.688-1.117.011.015.359-.117.347-.129-.222-.022-.343-.263-.202-.412-.097.167-.144.242-.899-.207l-1.861-1.249-.051.392-1.359-.942c-.465-.362-.918-.753-1.264-1.139-1.17-1.015-1.127-.56-2.225-1.17-.247-.688.058-.875.469-.965.164.422.727.852 1.135 1.404 1.59 1.184 3.132 1.688 4.485 2.96 1.125-.12-1.045-.694-1.541-1.544.052-.018.112.014.169.054l-.156-.167c.567.377 1.474.991 1.874.768-.904-.607-1.125.089-1.951-1.072-.915-.553-1.103-1.578-1.506-2.076-.701-.294-1.187.158-2.315-1.21l.854.249c-1.366-1.446-1.118-.218-2.38-1.595.411.516-.754-.165.092.756-.592-.284-1.561-1.252-2.167-2.089-.232-.148-.149.063-.292.131.547 1.038 1.444 1.102 1.75 2.08l.885.243c.589.877.385 1.217-.195.886.218.199.445.34.533.554-.4.628-.681-1.083-1.373-.931l.544.505c-.123.558-1.484-.982-2.114-1.702-.575-.942-1.202-1.714-1.008-2.002l1.109.958c-.316-.738-1.398-1.244-1.978-1.862-.006-.072-.039-.155-.092-.243l-.019.115c-.116-.14-.199-.284-.239-.439-.507-.552-1.448-1.163-1.882-1.72l-.145.282.185-.06c.49.482 1.031 1.254.498 1.06-1.254-.903-1.08-1.544-1.188-1.983.596-.119 1.109 1.038 1.793 1.463-.035-.654-1.089-1.144-2.124-2.429.829.043 1.411 1.256 1.976 1.169-.888-.975-1.411-.918-2.376-1.925.299-.078 1.325.814 1.462.528l-.585-.706c1.696 1.45.115-.736 1.515.331-.502-.7-1.115-.471-1.848-1.459.127.382.6 1.273-.404.724l-.904-.908c-.275-.53 1.379.408.85-.276l-.585-.354-.941-.53c.004.181.825.818.17.631-.469-.409-.967-.567-1.441-.655-.482-.089-.929-.123-1.471-.307-.852-.529-1.527-.974-1.902-1.406-1.139 2.576-2.714 5.486-2.777 6.871.168-1.13-.487-.173-.966.351.458-1.197.033-1.406-.28-1.448-.275.75-.034 1.412.271 1.111-.697 1.126-.086.945-.773 1.888-.409.629-.306-.514-.561-.342-.509 1.307.403.563-.229 1.944-.03-.099 0-.235-.124-.153-.388.737-.469 1.634-.295 1.873-.857.609-.711 2.305-1.224 1.954-.471 1.892.403-.169.478.26-.005.843-.673 2.136-.909 2.537.139-.452.123-.915.357-1.316l-.523.249c-1.051 2.145.429 1.76-.705 3.763.203-1.168-.161-.472-.236-1.111-.023.361-.748 1.975-.078 1.085-.33.782-.6 1.31-.878 1.824-.15.733-.368 1.513-.294 2.022-.152.319-.202.367-.291.477-.083.093-.161.177-.248.214-.167.087-.308.09-.406.075-.055.259-.156.494-.261.683-.041.167-.133.014-.211-.066l-.232-.266c-.151-.177-.288-.339-.438-.477l-.242-.224-.646-.569.113.158c-1.328-1.535.209 1.034-1.225-.523.564-.118-.592-1.185-.837-1.893-1.526-2.146-3.227-3.276-4.65-5.375.093-.056.296-.018.628.34-1.115-1.566-2.336-2.626-3.549-3.918l.097.01c-.441-.574-.966-1.066-1.483-1.544l-.197-.176-.1-.087-.164-.131-.679-.534c-.453-.351-.896-.702-1.389-1.006l-2.837-1.815-1.395-.891c-.052-.018-.129-.119-.162-.069l-.074.218-.149.434-.303.864c.102-.442.037-.802.116-1.192-.48 1.092-1.114 2.608-1.658 4.092-.271.741-.519 1.468-.706 2.112l-.125.468-.031.262c-.014.165-.015.316-.001.453-1.032 1.413-.227 1.099-1.404 2.968-.126.087-.008-.23.022-.372-.507.952-.724 1.65-1.152 2.611-.259 1.139-.288 1.906-.395 2.695l-.093.583-.017.238c-.033.167-.114.36-.24.521-.223-.349-.211-.48-.193-.584.02-.106.055-.203-.179-.355.083.116.133.35-.023.296-.151-.323-.101-.191-.262-.451-.062-.083.06.086.133.4.079.301.117.728.105.675.048.22.1.282.153.116.033.186.024.34-.006.473-.038.093-.064.354-.169.154-.186-.221-.349-.472-.515-.521.074.097.422.652.302 1.002-.286-.402-.475-.415-.752-.44-.275-.023-.591-.015-1.026-.272-.458-.707-.143-.587.306-.359.385.162.64.156.735-.096-.002-.259.178-.632.386-.688l-.048-.073-.333-.316c-.247-.222-.502-.42-.756-.609-.507-.379-1.028-.722-1.536-1.166l.123-.07c-1.365-1.307-3.23-2.275-4.244-3.543l.525.686c-.288-.148-.97-.828-1.562-.957.196-.135-.625-1.107-.113-.918-.569.005-1.479-.607-2.444-1.185-.962-.58-2.001-1.104-2.592-1.054-.375-.41.144-.471.371-.529 1.053.712 1.298 1.075 2.003 1.209-.842-.59-1.409-1.15-1.185-1.206-.566-.097-1.43-.414-2.266-.634-.833-.229-1.656-.322-1.977-.188-.7-.439-1.521-.678-1.165-1.009-.977-.04-1.341.083-1.411.222-.065.13.17.237.36.372.191.144.352.279.231.361-.116.078-.521.095-1.466.268-.906.067-.547-.165-.198-.362.339-.184.628-.348-.711-.022l.471-.202c-.561-.116-.929-.022-1.16.128-.236.145-.352.337-.437.555-.069.237-.116.497-.237.771-.06.137-.141.275-.248.422-.088.161-.205.329-.365.508-.598-.128.669-1.341-.569-.504-.318.388-.461.772-.573 1.127-.117.354-.199.679-.227 1.006-.043.324-.09.636-.18.958-.072.326-.157.668-.332 1.047l-.131-.318c-.356 1.023-.84 3.004-.952 4.039-.112.033-.072-.114-.068-.315l-.388 2.346.208.47c.274-.77.66-2.223.56-3.25.131 1.017.923-1.399 1.294-.813l-.133-.224c.646-1.139 1.27-2.427 2.072-3.555.814-1.123 1.871-1.922 3.023-1.889.695-.39 1.489-.169 2.178.114.714.292 1.397.732 2.375 1.056.582-.355.413.05 1.956.972-.83-.475-.355.316.068.736.372.084.753.286 1.124.514.167.39 1.57 2.228 2.462 2.499.682.897-.325-.031-.591-.092.119.534.835.419.958.832 0 0-.059.037-.165-.02 1.254 1.141 1.862 1.979 3.054 3.306.548-.315 1.372 1.084 2.117 1.553-.424-.159.925 1.302 1.454 2.023.025.032 1.189.574 1.163.549.518.259.818.661 1.2 1.181.188.257.394.538.634.819.12.14.248.28.384.415l.211.198c.049-.069.086-.214.13-.331l-.108.107c-.025.036-.052.062-.089-.018l-.053-.078.084.055.054-.149.123-.31c.089-.212.189-.433.3-.661.221-.456.481-.938.758-1.419.552-.956 1.189-1.944 1.617-2.493l.417-1.168.102-.279.054-.198.097-.37c.13-.489.266-.962.406-1.421.28-.917.579-1.779.893-2.605.603-1.648 1.24-3.152 1.924-4.662.203-.355.372-.587.532-.813l.223-.299.1-.132.181.161c.246.244.456.446.669.62l.166.157.299.263c.368.318.751.639 1.153.964l.42-.403c.673.537.777.723 1.336 1.274-.369-.615-.436-.392-.253-.447l-.481-.374-.484-.366c-.012-.07.099.003.074-.135-.341-.224-.776-.444-1.14-.807.646.379 1.143.148 1.751 1.003-.1-.011-.203-.097-.421-.257.568.629.748.511 1.108 1.052.471.629.438.396.367.603l.749.955.716 1c1.213.552 1.816 2.042 2.033 2.389-.481.051-1.157-1.18-1.852-1.358l.354.85.28-.17.755 1.03-.093-.015c.193.034.389.072.515.393.001.071.014.223-.091.127l.723.581.061.823c.919 1.214 1.646 1.864 2.317 2.501.354.315.691.627 1.033 1.008.174.194.334.39.527.64.322.37.664.781 1.043 1.257-.217-.353.126-.203.625.109.511.311 1.155.789 1.636 1.285.548.639.707.905.312.738l1.337.975c.214.302.434.588.657.86l.168.202.08.073.058-.075.229-.321c.307-.45.617-.981.937-1.556.629-1.162 1.344-2.451 2.204-3.933l.056.268.323-.98.176-.495.089-.323c.126-.428.301-.885.56-1.395l.229.322c.794-1.198-.25-1.245.487-2.574-.344-.12-.848.696-1.22.705.467-.192 1.079-1.68.701-1.42.377-1.443.368-.962.495-1.052l.045-.445.033-.443c.347-.968.558-.156.633.273-.063-1.039.534-1.938.943-2.953l.014.471.518-1.321c.032-.95.401-2.21.957-3.238l.173.912c.519-.678-.011-.447-.013-.677.228-1.286.631-1.434 1.118-1.968.118-1.059.745-1.863 1.27-2.676l.363-.544.088-.051c0 .001-.046-.03-.134-.244zm82.671-2.927l-.136.155c.079-.438.095-.7.136-.155zm-3.672 11.129l.108-.577.065-.302c.04-.153.075-.225.11-.255l.21.012c-.123.318-.217.596-.339 1.006l-.3 1.048c-.182.682-.385 1.3-.672 1.979.144-.144.254-.069.339-.074-.217.618-.486 1.135-.7 1.028-.04-.67.326-1.632.701-2.514.362-.898.719-1.69.478-1.351zm11.896-10.604l-.188-.067-.005-.006.193.073zm-5.408-5.68c-.068-.222-.214-.458-.397-.711.107.299.199.549.397.711zm-7.352 10.157c-.287.251-.453.977-.553 1.503.089-.234.275-.648.553-1.503zm-46.789-7.019c.13-.311.321-.792.421-1.131l.061-.274c-.025-.183-.086-.069-.221.072-.211.728-.764 1.096-.874 1.857l-.055.053c.325-.271.581-.447.668-.577zm-24.541 7.166c.192-.086.563-.018.529-.265l.072.095c-.026-.122-.049-.224.04-.197-.209-.266-.425-.551-.632-.678-.54.386-1.1-.046-.009 1.045zM112.843 157.415l-.282-.228.282.228zM101.51 148.62c-.05.008.185.335.474.73-.012-.126-.133-.34-.474-.73zM196.275 165.159l-.274-.308.279.794c.94 1.02 1.221.914 1.674 1.013-.948-.835-1.231-1.546-2.146-2.82l.467 1.321zM197.7 163.405c-.002-.162-.004-.564-.096-.747l-.272-.063.368.81zM189.759 149.307l.603 1.176c.378.248-.233-1.177-.603-1.176zM190.072 155.977l.548.451c-.184-.602-.646-1.276-.916-1.26.549.612 0 .239.368.809zM187.779 146.381l-1.101-1.167c.316.203.76 1.335 1.101 1.167zM185.308 149.267c-.068.543.577.908.968 1.621-.383-.552-.604-1.548-.968-1.621zM182.38 141.32c.113-.08.296.023.521.231.111.104.232.233.358.377.108.133.171.248.261.385-.207-.117-.34-.113-.637-.358.293.224.395.328.531.447l.308.293.639.627-.606-1.227c-.12-.342-.375-.764-.177-.806-.862-.538-1.738-.919-1.198.031zM184.151 147.708c.322.594.325 1.09.806 1.732.078-.226.153-.609-.42-1.357l.452.088c-.313-.854-.137.521-.838-.463zM178.932 136.563l.431.669c.991.691 2.237 2.202 3.018 2.443-1.311-1.357-2.918-2.817-3.449-3.112zM182.604 144.747l-.429.182c.525.777.076-.148.365.049.113.252.328.594.517.697-.707-.801.244-.279-.453-.928zM180.596 143.084c-.013-.014-.571-.342-.559-.328.025.028.171.919.146.891.512.309.171-.227.413-.563zM180.031 142.019l-.05-.183s-.258-.036-.451-.001c-.199.028-.333.128-.334.128.383.006.412.101.835.056zM170.652 155.391c.108.331.438.05.212.055-.102-.224-.44.049-.212-.055zM174.854 153.804c-.144.226-.262.771-.355 1.351-.167.838-.343 1.838-.447 2.454.076-.357.196-.828.331-1.334l.357-1.358c.154-.629.256-1.138.114-1.113zM173.956 158.102l.096-.493-.096.493zM152.417 147.609l-.071.186.071-.186zM152.711 147.037l.117-.109.01-.013-.005-.062-.058-.283c-.041.107-.033.171-.028.246l.012.053-.114.208c-.092.15-.153.343-.229.531.148-.264.49-.448.295-.571zM149.483 152.533c.014-.381.272-.784.051-.751-.167.137-.259.921-.051.751zM121.221 148.842c-.358.606-.441 1.014-.109.947.292-.724-.025-.393.109-.947zM120.831 150.629l-.165.033-.37.335zM118.602 154.704c-.026-.05-.021-.178.004-.3-.073.248-.13.463-.004.3zM118.644 154.279l-.038.125.038-.125zM118.851 154.047l-.114-.109-.092.341c.042-.115.114-.223.206-.232zM117.958 155.879l.766-.569c.208-.886-.649.804-.667-.18l-.099.749zM116.615 158.417l-.185.237c-.049.078-.128.217-.105.214l.021.203c.006.134-.048.275-.187.034-.064.274-.041.575.039.8.052.158.21.725-.355.439.255.209.452.398.501.101.067-.188.068-.376.056-.55-.013-.357-.122-.609.139-.712-.195-.009-.195-.111-.188-.183l.068-.185c.094-.164.173-.313.196-.398zM117.538 158.565c-.074-.124-.244.033-.416.244-.084.108-.165.234-.227.356-.058.115-.032.131-.027.2l.116-.051.249-.185c.165-.146.321-.314.305-.564zM115.91 159.385l-.082-.282-.073.149.155.133zM115.034 158.658l.716.145c-.25-.015-1.036-.644-.716-.145zM112.45 156.001c-.402-.521-1.304-.438-.195.411l-.211-.237c.129-.022-.244-.709.406-.174zM105.404 150.28c.316.359.765.712.8.543l-1-.862.2.319zM104.331 151.555c-.002.603.861.871 1.353 1.596-.614-.772-.493-.726-1.353-1.596zM104.786 148.78c.371.141.675.62.885.879.059-.28-.618-.9-.885-.879zM103.187 147.354c-.192-.431.231-.096.077-.413-.557-.797-1.305-1.484-1.872-1.679.078.3.002.884-.428.772 1.196.921 2.3.92 2.392 1.86l1.396.389c-.758-.942-1.01-.306-1.565-.929zM104.302 150.463l-.37-.737c-.062.277-.5-.129-.849-.375-.23.513.883.808 1.219 1.112zM95.508 141.574l-2.281-1.237.742.483zM93.999 140.464l-.085-.23-.893-.376-.162-.067-.059.042-.042.099-.149.354-.144.34.158-.319c.105-.155.182-.609.453-.327l.923.484zM91.97 140.883l.179-.268.39-.821c.132-.666.585-.128.564-.208l-.271-.144-.121-.033-.083.164-.179.354-.479.956zM89.214 145.719l.33-.199c.047-.174.279-.604.524-.969.225-.361.372-.647.222-.687-.104.298-.392.797-.598 1.183-.114.216-.186.339-.261.442-.076.106-.151.189-.217.23zM90.461 158.527c-.042-.335-.223-.205-.407-.075l.204.579c.028-.143.083-.422.203-.504zM89.227 160.243l-.036 1.337c.581-1.356.316-1.655.652-2.858-.306.458-.23 1.253-.585 1.856l-.031-.335zM71.462 159.93c.282-.099.072-.281.801.278-.947-.807-1.583-1.663-2.562-2.659.034.286-.902-.243-.479.084 0 0 .3.24.592.499l.578.532-.296-.05c.565.967.705.334 1.366 1.316zM31.233 156.657c-.065-.197-.26-.052-.435.105-.186 1.022.475-.314.435-.105z"/></g></svg>