<svg xmlns="http://www.w3.org/2000/svg" width="204.234" height="164.516" viewBox="0 0 204.234 164.516"><g><path fill="#fff" d="M126.549 11.729v136.389h12.655v-136.389h-12.655z"/><path fill-rule="evenodd" clip-rule="evenodd" fill="#0071BC" d="M54.234 79.689l7.256-23.854c.907-2.984 1.808-5.969 2.728-8.949 2.027-6.562 7.604-10.689 14.463-10.703 4.832-.01 9.666.102 14.496-.027 6.946-.184 12.73 4.998 14.511 10.77 3.211 10.408 6.351 20.84 9.51 31.266.44 1.453.648 2.926.077 4.406-.697 1.811-2.047 2.832-3.932 3.023-1.764.178-3.184-.592-4.113-2.09-.453-.729-.79-1.559-1.037-2.385-2.708-9.043-5.387-18.092-8.076-27.139-.621-2.09-.626-2.088-3.102-1.777l15.175 52.068h-14.163v1.598c0 12.203-.059 24.41.04 36.613.025 3.176-.97 5.396-4.082 6.43h-2.25c-3.483-1.396-4.25-2.553-4.25-6.42v-38.141h-3.056v1.561c0 12.125-.046 24.25.029 36.373.021 3.234-.988 5.582-4.224 6.627h-2.25c-3.497-1.48-4.242-2.633-4.242-6.572v-38.103h-14.04l15.001-52.021c-2.222-.316-2.224-.316-2.804 1.621-1.875 6.252-3.75 12.504-5.623 18.756-.932 3.107-1.791 6.236-2.807 9.314-1 3.033-3.588 4.344-6.223 3.338-1.682-.641-2.479-1.992-3.013-3.582l.001-2.001zM204.234 86.939c-.872 2.35-2.356 3.873-5.06 3.775-2.292-.084-4.124-1.682-4.461-3.957-.109-.738-.148-1.492-.148-2.24-.01-9.664-.007-19.33-.007-28.996v-1.578h-2.238v1.68c0 28.369.001 56.74-.007 85.109 0 .957.021 1.932-.146 2.865-.547 3.049-3.162 5.104-6.354 5.09-3.185-.016-5.803-2.094-6.354-5.111-.156-.855-.199-1.74-.2-2.609-.011-16.289-.008-32.578-.008-48.867v-1.586h-2.244v1.471c0 16.33.002 32.662-.007 48.992 0 .871.012 1.766-.164 2.611-.672 3.227-3.398 5.248-6.744 5.088-3.235-.156-5.514-2.309-5.94-5.65-.095-.74-.128-1.494-.128-2.24-.007-28.412-.006-56.824-.006-85.236v-1.645h-2.297v1.461c0 9.916.006 19.83-.003 29.746-.003 3.012-1.205 4.785-3.622 5.422-2.939.775-5.721-1.111-6.069-4.127-.043-.371-.045-.748-.045-1.123-.001-11.457-.022-22.912.009-34.369.018-6.547 3.797-12.025 9.707-14.01 1.396-.469 2.927-.732 4.398-.746 7.956-.07 15.914-.127 23.87-.006 7.109.109 12.731 5.078 14.015 12.088.059.32.168.633.253.949v37.749zM87.234 10.439c2.204.488 4.284 1.201 6.058 2.709 3.691 3.139 4.996 8.453 3.091 12.928-1.951 4.582-6.774 7.352-11.683 6.709-5.687-.744-9.842-5.346-9.945-11.014-.1-5.4 3.985-10.166 9.539-11.139.154-.025.294-.127.44-.193h2.5zM179.234 10.439c2.253.48 4.408 1.166 6.161 2.771 3.41 3.121 4.691 6.967 3.469 11.404-1.277 4.631-4.43 7.451-9.238 8.127-5.799.816-10.77-2.566-12.379-8.268-1.45-5.145 1.327-10.873 6.406-13.064 1.053-.455 2.218-.654 3.331-.971l2.25.001zM126.549 11.729h12.655v136.389h-12.655v-136.389z"/></g><g fill="#FF2020"><path d="M2.388 26.379c-.277-.727-.142.218-.168 1.069l.168-1.069zM2.22 27.448l-.12.757c.076-.197.108-.467.12-.757zM1.353 34.535c-.135-1.657.42-3.576.082-4.637-.4 1.63-.518 4.201-.082 4.637zM1.845 32.1l-.216-.225.239 1.46zM2.148 31.094l-.103.198.042 2.254zM.98 40.081l-.006-1.649c.375-1.529.394 1.034.645.013.071-2.048-.64-.735-.443-3.299-.308.189-.145 4.115-.602 3.684-.227 2.159.274.113.406 1.251zM34.021 130.123l.117.201c-.021-.101-.055-.195-.117-.201zM54.256 147.144c.279.236.57.457.857.665-.065-.1-.157-.212-.291-.34l-.566-.325zM23.115 117.443c-.164-.354-.324-.669-.474-.955.052.205.182.496.474.955zM141.083 102.728c.029.065.07.122.131.144l.013-.049-.117-.302-.027.207zM81.437 157.858c.401.089.795.165 1.154.189-.667-.116-.988-.196-1.154-.189zM18.119 109.158l.191.356-.197-.461-.003.088.009.017zM47.656 141.612c.253.255.482.487.697.657-.229-.235-.461-.455-.697-.657zM1.803 65.285c.016.47.094.852.193 1.187.032-.306-.003-.683-.193-1.187zM3.485 74.896l-.013-.056c-.045.067-.028.093.013.056zM4.877 80.976l-.038-.104c-.022.08-.021.119.038.104zM1.996 66.472c-.071.825-.676 1.167.178 2.089l.049-.219c-.035.64.388 1.509.541 2.216.048-.083.083-.177.11-.286-.059-.36-.128-.835-.221-1.57-.039-.884-.412-1.403-.657-2.23zM33.865 130.127c.03-.149-.437-.589 0 0zM28.219 124.132l.471.662c-.138-.223-.273-.442-.471-.662zM12.95 97.184l.028.148c.08.016.027-.092-.028-.148zM29.134 125.396l-.444-.602c.12.198.249.4.444.602zM16.457 105.849l.042.122-.042-.122zM76.372.778c.663.016 1.021.267 1.628.408 1.444-.216-2.848-.452-.791-.525-.613-.105-1.109-.075-1.567-.061l.829.492c1.226-.006-.792-.238-.099-.314zM141.821 94.788l-.018.274c.174-.195.244-.028.269-1.082-.351-.876-.678.533-1.105-1.002.054.297.072.746.063 1.17.21-.649.521-.036.791.64zM141.03 94.148l-.019.046-.085.231c.014.224.015.441-.001.619.061-.171.098-.511.105-.896zM97.234 7.137l.637.375c-.282-.237-.475-.335-.637-.375zM78.381 162.525l-.88-.083c.468.112.719.101.88.083zM141.174 109.882c-.057.235-.107.48-.151.745l-.037.477.188-1.222zM131.439 61.504c.596.36-.151-.372-.194-1.452l-.258-.425c-.125-.213-.274-.418-.275-.418.221.861.504 1.629.727 2.295zM75.578.562l-.016.041.08-.003-.064-.038zM119.687 35.583l-.181-.433c.024.095.078.232.181.433zM140.969 100.046l.011 1.892c.013.473-.006.945-.033 1.3l-.034.591.171-1.101c-.223-.529.169-2.157-.115-2.682zM134.991 76.8l-.218.375c1.362 3.485.937 7.78 2.175 10.567-.63 4.526 1.111 2.854.528 7l.132-.145c.091 1.681.02 3.377.033 5.078l-.012 2.557c-.02.853-.107 1.703-.158 2.556-.129 1.702-.214 3.412-.373 5.108l-.682 5.05c-.162 1.689-.606 3.312-.906 4.952-.331 1.633-.602 3.27-1.093 4.825l-1.261 4.674c-.535 1.485-1.05 2.958-1.539 4.418l-.174-.101c-1.896 4.514-4.479 8.659-7.551 12.285-3.102 3.604-6.839 6.55-10.986 8.744-4.172 2.158-8.78 3.477-13.521 4.061-4.756.525-9.638.35-14.465-.449-1.833-.145-.818.484-2.428.421-.682-.122-2.213-.483-2.167-.712 1.337.166.646-.214 1.111-.206-1.082-.239-2.311-.553-3.494-.935-.594-.178-1.183-.346-1.748-.483-.559-.161-1.095-.292-1.59-.371l1.494.807c-.778-.105-1.914-.564-2.577-.792.332-.063-.525-.699.074-.589-4.217-.661-2.958-1.412-6.325-2.458-.451.16-1.75-.081-3.298-.49-1.532-.443-3.318-1.042-4.726-1.565l-.642-.449c-.323-.22-.636-.457-.636-.456 1.804 1.009.207-.44 2.43.812-1.785-1.169-3.63-1.922-5.286-3.08.24.354.04.488-.685.112-.991-.76-.919-1.066-2.058-1.903l.631.31.643.29c-.655-.706-1.483-.917-2.23-1.373-.084-.375-1.749-1.653-1.257-1.694-.868-.411-1.407-.762-1.949-1.137-.523-.403-1.045-.839-1.906-1.404 1.447 1.605-.652-.065-.618.269l1.916 1.469c-2.481-2.346.867.692.993.1 1.141 1.13-2.232-.685-.048.856-.684-.419-1.207-.796-1.645-1.155l-1.209-.963c-.769-.613-1.555-1.215-2.944-2.125 1.581 1.213-.496-.01.228.79-1.949-1.617-.371-.531-.765-1.266-.529-.438-.849-.784-1.177-1.099-.31-.336-.638-.63-1.209-.944-1.488-1.665.484-.028-.183-.957.203.084.562.414.99.844l.684.702c.248.235.518.462.774.686 1.037.886 1.994 1.589 2.105.994.888.732 2.216 1.324 3.463 2.403-1.019-1.04-2.364-2.625-3.88-3.586l-.46.389c-1.032-.878-1.565-.707-2.216-1.449.486.238-.013-.604-.824-1.334.164.279.488.571.332.562-1.473-1.387-1.955-1.292-3.763-2.912 1.316 1.509 1.485 1.925 2.648 3.429-.647-.053-.988-.886-1.812-1.625.158.076.331.229.157-.057l-.981-.685c-1.66-1.883.65-.205-.672-1.786-.781-1.211-1.455-1.298-2.047-2.234l.061.23-.335-.428-.009.033c-.915-.956-1.824-2.047-2.309-2.129.016-.196-.795-.848-1.154-1.112-.619-.446-1.956-1.661-2.226-2.852l.052.064c-.946-1.362-1.592-2.484-1.243-2.299l-1.496-2.201.502-.004c-1.47-1.917-1.479-1.619-2.745-2.779-.37-.799-1.005-1.81-1.643-2.733-.319-.462-.639-.902-.926-1.284-.265-.394-.49-.733-.662-.966-.078-.177-.218-.436-.468-.85l.35.972c-.897-1.677-.973-1.37-1.577-2.473.092.247.09.291-.191-.356l-.32-.647c.068.036.198.286.314.543l.009-.266c-.332-1.543-1.375-1.913-1.945-3.451.079.135.213.359.279.512-.287-.881-.318-2.318-.792-2.51-.048-.21-.246-.472-.456-.719l-.227-.636c.099.258.168.459.221.627-.28-.329-.577-.63-.521-.714l-.913-2.15c-.126-.428-.442-.945-.673-1.376l.013-.436c-.329-.784-.238-.829-.159-.752-.258-1.486-.734-2.518-1.232-3.58-.249-.53-.503-1.068-.737-1.67-.245-.598-.446-1.267-.549-2.073-.447-.491-.174.809-.286.955-.352-.405-1.082-2.094-1.502-2.926-.062-1.485-1.037-5.743-.255-5.229-.587-2.558-.136.885-.637-.34l-.051-.299c.145.902.145 1.64.106 2.184-.108.136-.383-.341-.593-.955-.203-.617-.386-1.358-.43-1.716l.536.375c-.729-2.324-1.232-1.673-2.016-3.054-.303-1.937.345-.933.621-1.419l-.297-.979-.291-.98.315-.068c-.324-1.282-.675-1.527-.886-3.356.54 1.244-.206-2.757.53-1.032-.078-1.014-.746-1.198-.417-1.78-.468-.636-.003.925-.016 1.449-.405.495-.652-2.157-.979-3.342.24-.141.4.762.388-.689-.229-.263-.493-1.151-.361-1.993-.319.043-.27-1.61-.353-2.42.053.917-.014 2.264-.366 1.704-.218-.693-.36-1.299-.523-2.925l-.008 1.132c-.633-1.368-.008-2.372-.264-4.295.263.798.262 1.312.597 1.994-.265-.893-.586-2.609-.849-4.027l.353-1.665c-.25-.188-.109-1.834-.431-1.817.071-2.041.502 1.612.752 1.797.058-2.55-.745-2.006-.28-4.472l.314.8c.008-.811-.192-2.435-.043-2.54-.108.002-.058.409-.049.917-.653-.481-.515-3.752-1.175-3.444l-.024 1.13c-.142-1.729-.668-2.97-.381-4.302.265-1.021.394.725.608 1.331.037-1.626-.701-1.331-.582-3.283-.144 1.023-.374.824-.522.202-.042.565-.116 1.439-.142 2.12-.027.681.045 1.169.174.962l.057-.409c.174.104.249.722.34 1.028.026 1.544-.289.721-.412 1.031-.062 2.575.669.204.688 2.553l-.124.31c.191 1.127.244 2.869.658 3.159-.357 1.044.358 2.637.182 3.772-.463.14-.518-.858-.533-2.051-.005-.597-.01-1.241-.033-1.819-.002-.579-.045-1.09-.18-1.419-.173 1.239-.463-.69-.687-1.204l.238 1.945c.055.486.118.971.192 1.333l.106.604c-.106.315-.496 1.485-.103 2.172v-.308c.216 1.537.573 1.093.539 2.435-.071.213-.25-.184-.321-.282.001 1.239.287 1.007.431 1.821.003 1.238-.43-.581-.461.457.448 1.395.173 2.258.33 3.493.467-.579 1.345 4.79 1.477 2.082l.734 2.879c-.159.959-.999-1.909-1.343-1.032l-.278-2.352c-.305.236-.041 1.456.232 2.819.234 1.37.673 2.85.429 3.69.203 1.252.237.926.35 3.353l.51-.52c.092 1.247-.152 1.71-.249 1.789l.432 2.021c-.129-.154-.268-.383-.404-.808-.098.984.089 1.225.339 1.504.268.46.433 1.213.616 1.973l-.384-.632c.163.453.366 1.006.483 1.031.08.315.167.61.272.887.051-.229.264-.814.147-1.932.471 2.854 1.078 5.026 1.405 7.516-.192-.039-.708-.969-.635-.665.289 1.213.979 2.412 1.191 2.225.1.264.17.467.228.646-.071.271-.134.598.018 1.169-.011.146.011.375.12.787.293.121.536.775.803 1.435.28.655.534 1.332.727 1.536-.155-.54-.404-1.179-.668-1.824.654.829 1.312 1.532 1.348 2.337-.945-1.623.247 2.015-.876-.546.143 2.044.77.807 1.314 2.818l.263 1.342c-.393-.062-.941-1.97-.949-1.63l.375.857c-.288-.39-.709-1.425-1.2-2.599-.49-1.176-1.077-2.48-1.551-3.469l.176.661c.094.401.264.921.442 1.438l.694 2.077c.591 1.252 1.159 2.601 1.718 3.984.55 1.388 1.261 2.74 1.879 4.103.64 1.354 1.279 2.678 1.922 3.907.701 1.2 1.445 2.286 2.165 3.223l-.104-.17c.068.056.143.06.29.055l.025.226.669.683c.11.537.387 1.244.709 2.017l.502 1.195.553 1.174c-.386-.995-.385-.994-.22-1.213.409 0 .62.059 1.35 1.43-.198.143-.712-.669-.257.398-.218-.562.213-.207.605.346.338.82 1.099 2.066.904 2.218-.275-.306-.382-.628-.5-.879-.275-.307.708 1.511-.113.604l.917 1.299c.333.896-.602-.341-.511.043 1.528 2.174 2.884 2.874 4.427 4.692-.171-.012-.625.294-.482.221.487.786 1.199 1.487 1.946 2.193l1.133 1.069c.399.344.786.701 1.137 1.087-.325-.128-.791-.755-1.264-1.185 2.03 2.462 3.86 4.729 5.737 6.89 1.99 2.053 3.846 4.182 5.903 6.4l1.568.589.958 1.294c1.154 1.089 2.27 2.086 3.366 3.025 1.144.887 2.263 1.73 3.42 2.496 2.306 1.547 4.671 2.924 7.324 4.363 1.643.913.792.893 1.491 1.467 3.623 2.035 4.836 1.879 8.467 3.36-.565-.049-1.611.021-.052.711.358-.028.646-.186 1.601.312l-.569-.047c.813.613 1.779.751 3.664 1.532 3.405 1.179 6.838 1.779 9.845 1.76 3.077.719-.446.534.113.77-2.144-.698-1.544-.25-2.067-.17 1.205.102 2.614.354 3.147.84 1.648.26 2.382.462 4.058.388-.842.026-1.513-.28-.718-.358.664.152 1.855.321 2.856.473 1.005.123 1.816.275 1.702.518 3.957.245 8.198.177 12.468-.472 4.266-.641 8.555-1.881 12.461-3.765 1.213-.839-1.049.369-.398-.128.894-.576 1.272-.738 1.614-.874.342-.129.646-.228 1.319-.752l-.478.575c2.271-1.143 4.17-3.149 5.878-4.833-.104.509 1.688-1.079.264.354.872-.774 2.861-.767 3.378-1.606l-.95-.009-.937-.022c-.039-.139 1.239-1.189 1.051-1.146.882-.562 1.976-1.288 2.468-1.814.487-.041-.81 1.24-1.496 1.957.283.498 2.568-2.223 1.94-.821 1.408-1.65-.409.045.304-1.045l1.266-1.382-1.048 1.008c.428-.66.642-1.157.94-1.666.306-.504.687-1.023 1.38-1.793l.764-2.05c.506.067.861-1.281 1.505-2.16l-.109.728c.722-1.263 1.095-1.696 1.627-2.451-.022.924-.698 1.126-.564 1.604l.464-.665.419-.692c-.219-.109.067-1.108-.578-.15.131-.77.2-1.373.444-2.192.286-.805.585-1.878 1.248-3.571.978-1.389-.289 1.797.335 1.317.766-1.755.929-2.947.999-3.94l.088-1.404c.018-.463.077-.929.237-1.452.914-2.645.522-2.592 1.227-5.322.105.946.676-1.869 1.041-2.328l.074 1.163c.079-.868.347-1.66.502-1.369-.204.041-.116-.884.047-2.06l.273-1.866c.067-.63.091-1.237.108-1.728l-.366.292c.072-1.528.114-3.637.388-5.226.112-2.388-.275-1.875-.519-3.724.347-.993.69-.868 1.032-.51-.199.631-.156 1.72-.311 2.766.064 1.521.075 2.878.126 4.245.013 1.362.032 2.735-.294 4.226.258.714.36.207.402-.663.017-.874.009-2.1.235-2.817.042.05.045.158.039.271l.067-.366c-.032 1.099-.119 2.89.247 3.249.138-1.844-.629-1.435-.021-3.652-.035-1.7.791-3.003.909-4.024-.239-1.149-.873-1.238-.612-3.979l.385 1.229c.163-3.123-.572-1.493-.423-4.37-.089 1.01-.385-.981-.489.935-.146-.948-.293-3.026-.161-4.582-.073-.404-.152-.083-.305-.155-.294 1.717.35 2.716-.105 4.119l.421 1.206c-.254 1.596-.648 1.734-.789.755-.003.448.044.845-.056 1.168l-.233-2.469-.004 1.121c-.489.466-.255-2.619-.306-4.061.2-1.63.261-3.127.6-3.248l.175 2.199c.257-1.147-.197-2.811-.2-4.088.046-.087.081-.211.092-.361l-.087.106c-.003-.271.021-.515.088-.726-.063-1.123-.391-2.754-.357-3.805l-.293.153.18.128c.063 1.026-.023 2.426-.306 1.666-.378-2.286.173-2.798.396-3.374.503.493.16 2.263.404 3.428.407-.742-.123-2.36.006-4.788.573.91.195 2.787.698 3.279-.081-1.947-.392-2.431-.528-4.47.129.117.279.668.397 1.174.11.507.225.966.369.886l.024-.664c.018-.333.011-.664.011-.664.29 3.23.591-.631.904 1.889.119-1.218-.51-1.632-.429-3.352-.157.498-.382 1.881-.787.295l-.088-1.836c.144-.794.78 1.836.831.624l-.419-1.892c-.141.085-.097 1.009-.377.462.018-1.124-.812-1.727-1.199-2.98-.132-1.027-.285-1.835-.168-2.227-.936-2.486-1.442-5.752-2.492-7.97.681 1.521.487-.177.476-1.186.508 1.82.973 1.731 1.237 1.536-.323-1.115-.975-1.734-.991-1.132-.267-1.916-.631-1.209-.722-2.929-.102-1.106.581.415.664.003-.494-2.028-.64-.417-1.181-2.612.097.102.175.293.207.099-.257-1.198-.85-2.395-1.149-2.577.214-1.424-1.12-3.481-.478-3.421-1.136-2.738-.146.514-.551.032-.649-1.054-1.214-3.216-1.361-3.906.261.679.645 1.253.796 1.944l.18-.724c-1.004-3.559-1.628-1.883-2.604-5.301.919 1.6.534.44 1.136 1.18-.256-.492-1.291-3.08-.906-1.416-.496-1.24-.793-2.12-1.088-2.997-.619-1.025-1.226-2.162-1.754-2.675-.801-1.683-1.16-3.048-1.402-3.932-.512-.845-.969-1.695-1.4-2.552l-1.416-2.507c-.964-1.667-1.81-3.434-3.192-5.037l.155.268c-1.779-2.71.354 1.484-1.542-1.284.674.077-.863-1.854-1.27-2.912-.564-.873-1.22-1.601-1.82-2.312-.624-.691-1.191-1.384-1.844-1.973-1.289-1.197-2.439-2.451-3.762-3.842.096-.056.365.021.92.518-1.024-1.051-1.973-1.983-2.943-2.834l-3.014-2.44.127.022c-3.185-2.878-6.767-4.576-10.766-6.396.345.107.513-.022.789.045-1.932-1.116-5.228-2.569-6.868-2.607-2.326-1.376-1.687-.431-4.812-1.852-.165-.141.347.012.57.056-1.561-.663-2.754-.79-4.394-1.233-3.744-.364-4.721.145-8.965-.44-.167-.712 2.644.082 2.797-.457-.873.039-1.625.108-2.797-.169.732-.202.167-.155.679-.36-.906-.323-3.711.537-3.682.453-.053.132.254.216 1.101.231-.511.192-1.559.159-2.742.089-1.182-.009-2.5-.047-3.533.052.674.003 2.784.112 1.995.449-2.763-.139-3.666.607-5.553 1.008-2.561-.152 1.818-.699 1.32-1.153-.438-.15-1.51-.471-.434-.729-1.173.039-2.167.126-3.132.37-.979.238-1.845.496-2.844.704l.034-.144c-2.803.489-5.664 1.648-8.051 1.94l1.273-.13c-.439.174-1.849.468-2.546.937.029-.244-1.83.032-1.139-.344-.522.516-2.055 1.065-3.586 1.685-1.529.623-3.053 1.33-3.57 1.935-.775.127-.331-.38-.177-.625 1.712-.64 2.338-.697 3.143-1.286-1.425.494-2.523.755-2.37.505-.628.495-1.755 1.138-2.762 1.798-1.007.664-1.896 1.324-2.108 1.719-1.081.33-2.033.846-1.913.305-1.918 1.424-1.226 1.357-.678 1.265.569-.064 1.001-.157-1.063 1.413-2.097 1.229 1.518-1.875-1.149.135l.44-.439c-2.482.89-.879 1.608-2.655 3.582-.651-.047.931-1.734-.577-.496-.391.508-.653 1-.859 1.47-.223.457-.375.899-.509 1.345l-.451 1.336c-.159.468-.39.945-.627 1.519l-.074-.449-.485 1.357c-.141.524-.324 1.087-.459 1.661-.107.578-.244 1.154-.312 1.69-.056.537-.102 1.028-.128 1.424-.112.069-.075-.161-.075-.468-.216 1.47-.085 1.785-.062 2.023.038.243.062.408-.039 1.62l.3.665c.087-1.224.232-3.492.172-5.025.082.772.294.189.562-.45.306-.639.641-1.331.799-.933l-.127-.318c.792-1.758 1.727-3.656 3.079-5.397 1.335-1.745 3.027-3.347 4.937-4.63 1.009-1.076 2.094-1.739 3.253-2.285 1.154-.565 2.362-1.058 3.757-1.852.225-.755.486-.391 3.042-1.434-1.358.552-.003.501.886.282.46-.314 1.066-.571 1.68-.815.598.023 4.065-.381 5.222-1.041 1.686-.167-.342.278-.669.484.735.163 1.279-.542 1.873-.445 0 0-.012.071-.178.136 2.513-.541 4.059-.644 6.727-.966.151-.648 2.529-.616 3.697-.846-.364.22 1.504.135 2.255.202 0 0 .347-.139.702-.25l.709-.235c1.415-.383 1.977.202 3.804.058l-.439-.127c.672-.064 1.889.031 3.093.188 1.205.162 2.383.498 3.016.708 6.17.056 10.855 1.441 15.251 3.362 4.402 1.973 8.579 4.458 13.82 8.097l.384-.44c1.096.723 1.287.969 2.227 1.705-.717-.793-.713-.528-.501-.575l-.765-.512-.524-.351-.247-.147c-.045-.087.13.015.04-.155-.537-.311-1.198-.628-1.823-1.11 1.001.537 1.565.314 2.69 1.416-.134-.023-.294-.146-.646-.358.984.824 1.161.707 1.839 1.406.853.822.717.533.709.778 0 0 .683.61 1.297 1.296l1.257 1.333c.424.215.836.485 1.192.804.348.328.662.682.937 1.02.549.676.935 1.286 1.119 1.517-.569-.014-1.757-1.67-2.651-2.04l.688 1.155.285-.168 1.219 1.412-.118-.034c.244.074.495.156.74.576.023.088.069.287-.075.141l.984.898.249 1.051c1.352 1.655 2.158 2.773 2.991 3.79.409.514.801 1.022 1.199 1.616.391.6.829 1.25 1.184 2.165-.164-.636 1.136.73 1.681 1.792.268.638.279.83-.068.531l.961 1.238c.116.494.286.951.49 1.403.179.468.395.929.635 1.41.48.96 1.057 2.001 1.606 3.318l-.219-.057c.328.426.657.877.986 1.401.306.537.59 1.159.879 1.902l-.424-.128c.547 1.877 1.239 1.077 1.892 3.14.333-.149-.033-1.471.201-1.802-.139.616.728 2.766.758 2.17.986 1.93.533 1.398.539 1.594l.64 1.112c.503 1.433-.282.623-.667.173.849 1.187 1.116 2.731 1.604 4.253l-.377-.556.329.999c.177.495.294 1.01.294 1.01.666 1.225 1.243 3.066 1.612 4.805l-.815-1.037c.118 1.257.345.564.519.857.811 1.812.573 2.317.555 3.391.612 1.462.792 3.033.982 4.531l.293 2.193c.117.701.297 1.375.597 2.001zm-121.981 21.177l.039.303c-.314-.59-.522-.914-.039-.303zm7.732 15.624c-1.262-1.695-.68-1.265-.662-1.459.902 1.867 1.729 2.71 2.561 4.347-.079-.3 0-.416.016-.539.374.625.678 1.295.609 1.64-.895-.503-2.78-4.904-2.524-3.989zm-16.776-35.857l.165.22.002.011-.167-.231zm3.195 10.096c-.054.175-.03.441.028.758.065-.226.109-.438-.028-.758zm7.344 19.76c.056.521.646 1.473 1.076 2.163-.164-.344-.435-.97-1.076-2.163zm109.185 44.916c-.429.495-1.215 1.481-.28.83.285-.492 1.267-.982 1.423-1.481l.1-.06c-.602.327-1.093.588-1.243.711zm16.123-58.446c.205.104.453.558.581.251l-.003.178c.056-.16.102-.296.154-.176.003-.506.012-1.039-.071-1.392-.656-.13-.835-1.183-.661 1.139zM141.68 115.008l.055-.587-.055.587zM140.479 93.034c-.044-.043-.064.557-.085 1.287.07-.151.109-.509.085-1.287zM2.434 43.568l.075.61.173-1.219c-.142-2.036-.417-2.146-.722-2.657.118.92.129 1.657.111 2.46.003.803.018 1.671.077 2.846l.286-2.04zM.305 44.605c-.082.208-.289.728-.305 1.039l.201.306.104-1.345zM1.337 69.136l-.095-.985c-.041-.493-.05-.99-.05-.99-.124-.297-.188.134-.18.672.021.536.153 1.175.325 1.303zM3.545 60.098l-.171-.492c-.091-.246-.157-.495-.157-.495-.085.925.112 2.139.365 2.312-.282-1.196.091-.315-.037-1.325zM2.264 74.365l.656 2.297c-.262-.475-.245-2.282-.656-2.297zM5.621 72.306c.248-.669-.254-1.603-.391-2.817.184.995.063 2.464.391 2.817zM5.784 84.378c-.31-.016-.504-.824-.658-1.747.158.28.331.445.472.836-.579-1.448-.563-1.562-.986-2.735.11 1.252.437 3.102.058 2.999.47.833 1.221 1.804 1.114.647zM6.198 75.18c-.08-1.021.061-1.669-.182-2.857-.151.243-.352.695-.049 2.085l-.407-.435c.008 1.348.324-.595.638 1.207zM6.772 90.044l-.046-.645c-.68-1.311-1.115-3.132-1.753-3.803.548 1.678 1.367 3.716 1.799 4.448zM6.798 80.161l.483.077c-.279-1.393-.122.137-.347-.33-.034-.41-.141-1.011-.295-1.28.452 1.554-.328.186.159 1.533zM8.474 84.54l.727 1.677.049-1.492c-.798-1.975-.299-.019-.776-.185zM8.854 86.76l-.022.22 1.449 2.399c-.749-1.46-.739-1.567-1.427-2.619zM20.261 118.29c.332.159-.35-1.349-.153-.643-.306-.179.668 1.799.153.643zM19.914 110.795c.122.375.546 1.085 1.02 1.812.527.696 1.105 1.407 1.46 1.837-.384-.536-1.043-1.478-1.526-2.307-.478-.831-.885-1.488-.954-1.342zM22.682 114.796l-.288-.352c.121.164.213.278.288.352zM55.399 146.882c.102.058.206.108.306.136l-.306-.136zM54.419 146.387c-.596-.439-1.867-1.176-2.192-1.153 1.004.597 1.912 1.097 3.173 1.648-.443-.257-.89-.718-.981-.495zM63.521 151.663c-.544-.134-1.188-.525-1.104-.273.24.214 1.373.554 1.104.273zM130.938 146.648c.714-.854 1.02-1.435.616-1.346-.698 1.02-.175.559-.616 1.346zM132.302 144.101l.193-.053.551-.51zM136.281 137.617c.017.069-.026.267-.093.463.169-.4.259-.756.093-.463zM136.107 138.284l.081-.204-.081.204zM135.802 138.696l.097.142c.035-.12.125-.342.209-.554-.084.189-.2.376-.306.412zM137.14 135.523l-.908 1.174c-.34 1.477.81-1.499.703.055l.205-1.229zM138.78 130.795c.504-1.273.385-3.342 1.08-3.945.392-1.888.125-1.722-.111-1.625-.119.049-.23.08-.251-.164-.032-.248.09-.759.228-1.838-.234.996-.428 1.612-.465 2.062-.047.447.004.716.058.972.107.51.227.972-.407 2.704.783-1.625-.085 1.222-.132 1.834zM137.765 131.149c.203.298.705-1.343.679-1.908-.174.47-.705 1.194-.679 1.908zM140.528 123.486l.415-1.107-.099-.336zM141.478 119.148l.071 1.174c-.04-.391.308-2.067-.071-1.174zM142.71 113.082c.226-1.058-.338-2.086-.456.17l.087-.508c.089.145.471-1.04.369.338zM142.322 98.85c-.005.729.093 1.59.231 1.438l-.164-1.998-.067.56zM140.672 99.161c-.405.665.058 1.847-.062 3.155.061-1.484.119-1.307.062-3.155zM142.88 96.549c.178.536.079 1.38.058 1.883.232-.25.153-1.633-.058-1.883zM142.592 93.364c.12-.663.241.13.319-.37.085-1.416-.047-2.894-.333-3.67-.148.387-.589.927-.838.369.307 2.208 1.155 3.311.646 4.431l.427.916.378.924c.086-1.807-.576-1.357-.599-2.6zM141.386 97.921l.226-1.195c-.231.245-.284-.655-.369-1.282-.523.329.103 1.796.143 2.477zM141.005 81.061s-.098-.627-.238-1.247l-.293-1.237.122.816s.123.413.224.83l.185.838zM140.928 79.425l.137-.09-.631-1.864zM140.617 76.775l.031.301.406 1.449zM139.694 71.551l-.106.501c.227.61.182 1.935.465 1.75-.188-.532-.422-1.847-.359-2.251zM129.475 56.59c.289.365.321.074.355-.221l-.596-.53c.09.189.265.562.241.751zM129.043 53.6l-.512-.775-.553-.754c.736 1.95 1.09 2.128 1.796 3.813l-1.018-2.643.287.359zM110.654 22.706c.31-.077 0-.347 1.053.502l-4.082-3.722c.16.354-1.232-.418-.566.039l.291.219.625.502.912.732-.386-.099c1.041 1.279 1.02.478 2.153 1.827zM24.499 19.517c-.02-.272-.26-.05-.504.183-.511 1.448.609-.481.504-.183z"/></g></svg>